%FSTAX23Y23*%
%MOIN*%
%SFA1B1*%

%IPPOS*%
%ADD18C,0.005000*%
%LNpch_mainboard-1*%
%LPD*%
G54D18*
X00044Y002D02*
X00055D01*
X0005Y00194D02*
Y00205D01*
X00175Y00137D02*
X00199D01*
X00187Y00125D02*
Y00149D01*
X0025Y0014D02*
Y00259D01*
Y00276D02*
Y003D01*
X00238Y00288D02*
X00261D01*
X003Y00262D02*
X00324D01*
X00312Y0025D02*
Y00274D01*
X00309Y002D02*
X0019D01*
X00173D02*
X00149D01*
X00161Y00188D02*
Y00211D01*
X00175Y00262D02*
X00199D01*
X00187Y0025D02*
Y00274D01*
X00238Y00111D02*
X00261D01*
X0025Y00099D02*
Y00123D01*
X003Y00137D02*
X00324D01*
X00312Y00125D02*
Y00149D01*
X00444Y002D02*
X00455D01*
X0045Y00194D02*
Y00205D01*
X00644Y002D02*
X00655D01*
X0065Y00194D02*
Y00205D01*
X00844Y002D02*
X00855D01*
X01044D02*
X01055D01*
X0105Y00194D02*
Y00205D01*
X01244Y002D02*
X01255D01*
X0125Y00194D02*
Y00205D01*
X01444Y002D02*
X01455D01*
X0145Y00194D02*
Y00205D01*
X01627Y00258D02*
X01658D01*
X01643Y00243D02*
Y00274D01*
X01644Y002D02*
X01655D01*
X0165Y00194D02*
Y00205D01*
X01706Y00258D02*
X01737D01*
X01721Y00243D02*
Y00274D01*
X01784Y00258D02*
X01816D01*
X018Y00243D02*
Y00274D01*
X01863Y00258D02*
X01895D01*
X01879Y00243D02*
Y00274D01*
X01942Y00258D02*
X01973D01*
X01958Y00243D02*
Y00274D01*
X02021Y00258D02*
X02052D01*
X02036Y00243D02*
Y00274D01*
X02044Y002D02*
X02055D01*
X0205Y00194D02*
Y00205D01*
X02244Y002D02*
X02255D01*
X0225Y00194D02*
Y00205D01*
X02344Y004D02*
X02355D01*
X0235Y00394D02*
Y00405D01*
X02444Y002D02*
X02455D01*
X0245Y00194D02*
Y00205D01*
X02644Y002D02*
X02655D01*
X0265Y00194D02*
Y00205D01*
X0255Y00394D02*
Y00405D01*
X02544Y004D02*
X02555D01*
X02644Y006D02*
X02655D01*
X0265Y00594D02*
Y00605D01*
X02837Y0056D02*
X02901D01*
X02949Y00504D02*
Y00376D01*
X02885Y0044D02*
X03013D01*
X03013Y00267D02*
Y00227D01*
X02993Y00247D02*
X03033D01*
X02933D02*
X02893D01*
X02913Y00227D02*
Y00267D01*
X03314Y00247D02*
X03355D01*
X03414D02*
X03455D01*
X03435Y00227D02*
Y00267D01*
X03639Y0021D02*
X03663D01*
X03651Y00198D02*
Y00221D01*
X03665Y00147D02*
X03689D01*
X03677Y00135D02*
Y00159D01*
X0368Y0021D02*
X03799D01*
X03816D02*
X0384D01*
X03828Y00198D02*
Y00221D01*
X03944Y004D02*
X03955D01*
X0395Y00394D02*
Y00405D01*
X0385Y00594D02*
Y00605D01*
X03844Y006D02*
X03855D01*
X0377Y00654D02*
Y00665D01*
X03764Y0066D02*
X03775D01*
X03944Y008D02*
X03955D01*
X0395Y00794D02*
Y00805D01*
X0385Y00994D02*
Y01005D01*
X03844Y01D02*
X03855D01*
X03944Y012D02*
X03955D01*
X0395Y01194D02*
Y01205D01*
X0385Y01394D02*
Y01405D01*
X03844Y014D02*
X03855D01*
X03755Y012D02*
X03744D01*
X0375Y01194D02*
Y01205D01*
X03655Y01D02*
X03644D01*
X0365Y00994D02*
Y01005D01*
X03744Y008D02*
X03755D01*
X0375Y00794D02*
Y00805D01*
X03511Y0056D02*
X03447D01*
X03479Y00528D02*
Y00592D01*
X03399Y00504D02*
Y00376D01*
X03463Y0044D02*
X03335D01*
X0327Y00365D02*
X03259D01*
X03265Y00359D02*
Y0037D01*
X03335Y00267D02*
Y00227D01*
X0374Y0015D02*
Y00269D01*
Y00286D02*
Y0031D01*
X03744Y004D02*
X03755D01*
X0375Y00394D02*
Y00405D01*
X03751Y00298D02*
X03728D01*
X03689Y00272D02*
X03665D01*
X03677Y0026D02*
Y00284D01*
X0379Y00272D02*
X03814D01*
X03802Y0026D02*
Y00284D01*
Y00159D02*
Y00135D01*
X0379Y00147D02*
X03814D01*
X03751Y00121D02*
X03728D01*
X0374Y00109D02*
Y00133D01*
X03299Y00673D02*
Y00708D01*
X03281Y0069D02*
X03316D01*
X03216D02*
X03181D01*
X03116D02*
X03081D01*
X03099Y00673D02*
Y00708D01*
X03049Y00773D02*
Y00808D01*
X03066Y0079D02*
X03031D01*
X03016Y0069D02*
X02981D01*
X02999Y00673D02*
Y00708D01*
X03149Y00773D02*
Y00808D01*
X03131Y0079D02*
X03166D01*
X03249Y00773D02*
Y00808D01*
X03231Y0079D02*
X03266D01*
X03331D02*
X03366D01*
X03429Y0093D02*
X0344D01*
X03435Y00924D02*
Y00935D01*
X03444Y01D02*
X03455D01*
X0345Y00994D02*
Y01005D01*
X03384Y01083D02*
Y01094D01*
Y01137D02*
Y01148D01*
X03378Y01143D02*
X03389D01*
X03419Y0124D02*
X0343D01*
X03425Y01234D02*
Y01245D01*
X03389Y01089D02*
X03378D01*
X03213Y01094D02*
Y01083D01*
X03207Y01089D02*
X03218D01*
X03244Y01D02*
X03255D01*
X0325Y00994D02*
Y01005D01*
X03349Y00808D02*
Y00773D01*
X03199Y00708D02*
Y00673D01*
X02934Y00993D02*
Y01004D01*
X02928Y00999D02*
X02939D01*
X03089Y0118D02*
X031D01*
X03095Y01174D02*
Y01185D01*
X03163Y01244D02*
Y01252D01*
X03159Y01248D02*
X03167D01*
X03163Y01287D02*
Y01295D01*
X03159Y01291D02*
X03167D01*
X03189Y01385D02*
X032D01*
X03202Y01291D02*
X0321D01*
X03206Y01287D02*
Y01295D01*
Y01252D02*
Y01244D01*
X03333Y01245D02*
X03344D01*
X03339Y01239D02*
Y01251D01*
X03303Y01254D02*
Y01266D01*
X03297Y0126D02*
X03308D01*
X0321Y01248D02*
X03202D01*
X03424Y014D02*
X03435D01*
X0343Y01394D02*
Y01405D01*
X03459Y01557D02*
X0347D01*
X03465Y01551D02*
Y01562D01*
X03544Y016D02*
X03555D01*
X0355Y01594D02*
Y01605D01*
X03744Y016D02*
X03755D01*
X0375Y01594D02*
Y01605D01*
X03765Y0171D02*
X03776D01*
X03771Y01704D02*
Y01715D01*
Y01758D02*
Y01769D01*
X03765Y01764D02*
X03776D01*
X03801Y01737D02*
X03812D01*
X03807Y01731D02*
Y01742D01*
Y01688D02*
Y01677D01*
X03801Y01683D02*
X03812D01*
X03944Y016D02*
X03955D01*
X0395Y01594D02*
Y01605D01*
X0372Y02016D02*
Y02027D01*
X03714Y02022D02*
X03725D01*
X03821Y02115D02*
X0381D01*
X03816Y02109D02*
Y0212D01*
X03791Y02082D02*
X0378D01*
X03786Y02076D02*
Y02087D01*
X03761Y02046D02*
X0375D01*
X03756Y0204D02*
Y02051D01*
X03837Y02142D02*
X03848D01*
X03843Y02136D02*
Y02147D01*
X03844Y022D02*
X03855D01*
X0385Y02194D02*
Y02205D01*
X0375Y02394D02*
Y02405D01*
X03744Y024D02*
X03755D01*
X03695D02*
X03684D01*
X0369Y02394D02*
Y02405D01*
X03665Y0243D02*
X03654D01*
X0366Y02424D02*
Y02435D01*
X0363Y02454D02*
Y02465D01*
X03624Y0246D02*
X03635D01*
X036Y02484D02*
Y02495D01*
X03594Y0249D02*
X03605D01*
X0351Y02335D02*
X03499D01*
X03505Y02329D02*
Y0234D01*
X0345Y02359D02*
Y0237D01*
X03444Y02365D02*
X03455D01*
X03464Y02298D02*
X03475D01*
X0347Y02293D02*
Y02304D01*
X03497Y02269D02*
X03509D01*
X03534Y02244D02*
X03545D01*
X0354Y02238D02*
Y02249D01*
X03564Y02208D02*
X03575D01*
X0357Y02202D02*
Y02213D01*
X03503Y02263D02*
Y02275D01*
X03435Y02185D02*
Y02174D01*
X03429Y0218D02*
X0344D01*
X03185Y02249D02*
Y0226D01*
X03179Y02255D02*
X0319D01*
X0315Y02319D02*
Y0233D01*
X03144Y02325D02*
X03155D01*
X03095Y02275D02*
X03084D01*
X0309Y02269D02*
Y0228D01*
X03149Y0211D02*
X0316D01*
X03155Y02104D02*
Y02115D01*
X0315Y02005D02*
Y01994D01*
X03144Y02D02*
X03155D01*
X0289Y02149D02*
Y0216D01*
X02884Y02155D02*
X02895D01*
X02949Y01985D02*
X0296D01*
X02955Y01979D02*
Y0199D01*
X0284Y02104D02*
Y02115D01*
X02834Y0211D02*
X02845D01*
X0286Y02179D02*
Y0219D01*
X02854Y02185D02*
X02865D01*
X0283Y02219D02*
Y0223D01*
X02824Y02225D02*
X02835D01*
X0273Y02345D02*
X02719D01*
X02725Y0235D02*
Y02339D01*
X02655Y022D02*
X02644D01*
X0265Y02194D02*
Y02205D01*
X02684Y02385D02*
X02695D01*
X0269Y02379D02*
Y0239D01*
X02531Y02412D02*
Y02424D01*
X02525Y02418D02*
X02537D01*
X02515Y02395D02*
X02503D01*
X02509Y02389D02*
Y02401D01*
X02355Y024D02*
X02344D01*
X0235Y02394D02*
Y02405D01*
X0214Y02579D02*
Y0259D01*
X02134Y02585D02*
X02145D01*
X02095Y02555D02*
X02084D01*
X0209Y02549D02*
Y0256D01*
Y02614D02*
Y02625D01*
X02084Y0262D02*
X02095D01*
X02055Y026D02*
X02044D01*
X0205Y02594D02*
Y02605D01*
X02005Y0258D02*
X01994D01*
X02Y02574D02*
Y02585D01*
X0196Y0258D02*
X01949D01*
X01955Y02574D02*
Y02585D01*
X01974Y02545D02*
X01985D01*
X0198Y02539D02*
Y0255D01*
X02018Y02545D02*
X0203D01*
X02024Y02539D02*
Y02551D01*
X0196Y02405D02*
X01949D01*
X01955Y02399D02*
Y0241D01*
X01974Y0238D02*
X01985D01*
X0198Y02374D02*
Y02385D01*
Y02325D02*
Y02314D01*
X01974Y0232D02*
X01985D01*
X02059Y0229D02*
X0207D01*
X02065Y02284D02*
Y02295D01*
X0195Y02195D02*
X01939D01*
X01945Y02189D02*
Y022D01*
X01795Y02249D02*
Y0226D01*
X018Y02255D02*
X01789D01*
X0176D02*
X01749D01*
X01755Y02249D02*
Y0226D01*
X0174Y0209D02*
X01729D01*
X01735Y02084D02*
Y02095D01*
X01789Y02065D02*
X018D01*
X01795Y02059D02*
Y0207D01*
X01812Y01908D02*
X01823D01*
X01818Y01902D02*
Y01913D01*
Y01859D02*
Y01848D01*
X01812Y01854D02*
X01823D01*
Y01764D02*
X01812D01*
X01818Y01758D02*
Y01769D01*
Y01715D02*
Y01704D01*
X01812Y0171D02*
X01823D01*
X01944Y0166D02*
X01955D01*
X0195Y01654D02*
Y01665D01*
X02084Y0167D02*
X02095D01*
X0209Y01664D02*
Y01675D01*
X0205Y0151D02*
X02039D01*
X02045Y01504D02*
Y01515D01*
X02Y015D02*
X01989D01*
X01995Y01494D02*
Y01505D01*
X0196Y015D02*
X01948D01*
X01954Y01494D02*
Y01506D01*
X02129Y0126D02*
X0214D01*
X02135Y01254D02*
Y01265D01*
X02344Y012D02*
X02355D01*
X0235Y01194D02*
Y01205D01*
X02352Y0126D02*
X02363D01*
X02358Y01254D02*
Y01265D01*
X02364Y0151D02*
X02375D01*
X0237Y01504D02*
Y01515D01*
X0227Y01664D02*
Y01675D01*
X02264Y0167D02*
X02275D01*
X02569Y01725D02*
X0258D01*
X02575Y01719D02*
Y0173D01*
X02594Y01785D02*
X02605D01*
X026Y01779D02*
Y0179D01*
X02629Y0175D02*
X0264D01*
X02635Y01744D02*
Y01755D01*
X02615Y0169D02*
X02604D01*
X0261Y01684D02*
Y01695D01*
X02694Y01422D02*
X02705D01*
X027Y01416D02*
Y01427D01*
Y01373D02*
Y01362D01*
X02694Y01368D02*
X02705D01*
Y01314D02*
X02694D01*
X027Y01308D02*
Y01319D01*
Y01265D02*
Y01254D01*
X02694Y0126D02*
X02705D01*
X0273Y01235D02*
X02741D01*
X02736Y01229D02*
Y0124D01*
X02749Y01185D02*
X0276D01*
X02755Y01179D02*
Y0119D01*
X02883Y01098D02*
X02894D01*
X02889Y01092D02*
Y01103D01*
X03009Y011D02*
X0302D01*
X03015Y01094D02*
Y01105D01*
X02988Y01209D02*
Y0122D01*
X02982Y01215D02*
X02993D01*
X0304Y0128D02*
X03029D01*
X03035Y01274D02*
Y01285D01*
X03015Y01314D02*
Y01325D01*
X03009Y0132D02*
X0302D01*
X03195Y01379D02*
Y0139D01*
X03219Y0141D02*
X0323D01*
X03225Y01404D02*
Y01415D01*
X032Y01465D02*
X03189D01*
X03195Y01459D02*
Y0147D01*
X03165Y01415D02*
X03154D01*
X0316Y01409D02*
Y0142D01*
X032Y01645D02*
X03189D01*
X03195Y01639D02*
Y0165D01*
X0314Y0164D02*
X03129D01*
X03135Y01634D02*
Y01645D01*
X03315Y01602D02*
X03326D01*
X03321Y01596D02*
Y01607D01*
X02955Y016D02*
X02944D01*
X0295Y01594D02*
Y01605D01*
X02741Y01395D02*
X0273D01*
X02736Y01389D02*
Y014D01*
Y01346D02*
Y01335D01*
X0273Y01341D02*
X02741D01*
Y01287D02*
X0273D01*
X02736Y01281D02*
Y01292D01*
X02655Y01D02*
X02644D01*
X0265Y00994D02*
Y01005D01*
X02844Y01D02*
X02855D01*
X0285Y00994D02*
Y01005D01*
X02555Y008D02*
X02544D01*
X0255Y00794D02*
Y00805D01*
X02455Y006D02*
X02444D01*
X0245Y00594D02*
Y00605D01*
X02869Y00592D02*
Y00528D01*
X02175Y00854D02*
Y00865D01*
X02169Y0086D02*
X0218D01*
X02055Y006D02*
X02044D01*
X0205Y00594D02*
Y00605D01*
X02144Y004D02*
X02155D01*
X0215Y00394D02*
Y00405D01*
X02244Y006D02*
X02255D01*
X0225Y00594D02*
Y00605D01*
X01795Y0086D02*
X01784D01*
X0179Y00854D02*
Y00865D01*
X0173Y0067D02*
X01719D01*
X01725Y00664D02*
Y00675D01*
X01655Y006D02*
X01644D01*
X0165Y00594D02*
Y00605D01*
X01744Y004D02*
X01755D01*
X0175Y00394D02*
Y00405D01*
X01844Y002D02*
X01855D01*
X0185Y00194D02*
Y00205D01*
Y00594D02*
Y00605D01*
X01844Y006D02*
X01855D01*
X01555Y004D02*
X01544D01*
X0155Y00394D02*
Y00405D01*
X0145Y00594D02*
Y00605D01*
X01444Y006D02*
X01455D01*
X01355Y004D02*
X01344D01*
X0135Y00394D02*
Y00405D01*
X0125Y00594D02*
Y00605D01*
X01244Y006D02*
X01255D01*
X01055D02*
X01044D01*
X0105Y00594D02*
Y00605D01*
X01144Y004D02*
X01155D01*
X0115Y00394D02*
Y00405D01*
X00855Y006D02*
X00844D01*
X0085Y00594D02*
Y00605D01*
X00845Y0049D02*
Y00479D01*
X00839Y00485D02*
X0085D01*
X00944Y004D02*
X00955D01*
X0095Y00394D02*
Y00405D01*
X0085Y00205D02*
Y00194D01*
X0055Y00394D02*
Y00405D01*
X00544Y004D02*
X00555D01*
X00669Y00485D02*
X0068D01*
X00675Y00479D02*
Y0049D01*
X0065Y00594D02*
Y00605D01*
X00644Y006D02*
X00655D01*
X00455D02*
X00444D01*
X0045Y00594D02*
Y00605D01*
X0037Y00595D02*
X00359D01*
X00365Y00589D02*
Y006D01*
X00355Y004D02*
X00344D01*
X0035Y00394D02*
Y00405D01*
X00338Y00211D02*
Y00188D01*
X00326Y002D02*
X0035D01*
X0015Y00394D02*
Y00405D01*
X00144Y004D02*
X00155D01*
X0005Y00594D02*
Y00605D01*
X00044Y006D02*
X00055D01*
X00359Y00855D02*
X0037D01*
X00365Y00849D02*
Y0086D01*
X0025Y00994D02*
Y01005D01*
X00244Y01D02*
X00255D01*
X00334Y011D02*
X00345D01*
X0034Y01094D02*
Y01105D01*
X00444Y014D02*
X00455D01*
X0045Y01394D02*
Y01405D01*
X00644Y014D02*
X00655D01*
X0065Y01394D02*
Y01405D01*
X00659Y01445D02*
X0067D01*
X00665Y01439D02*
Y0145D01*
X00615Y01544D02*
Y01555D01*
X00609Y0155D02*
X0062D01*
X00754Y01325D02*
X00765D01*
X0076Y01319D02*
Y0133D01*
X01005Y0109D02*
Y01079D01*
X00999Y01085D02*
X0101D01*
X01044Y01D02*
X01055D01*
X0105Y00994D02*
Y01005D01*
X01194Y0081D02*
X01205D01*
X012Y00804D02*
Y00815D01*
X01244Y01D02*
X01255D01*
X0125Y00994D02*
Y01005D01*
X01289Y01025D02*
X013D01*
X01295Y01019D02*
Y0103D01*
X0117Y01224D02*
Y01235D01*
X01175Y0123D02*
X01164D01*
X01155Y012D02*
X01144D01*
X0115Y01194D02*
Y01205D01*
X0107Y01105D02*
X01059D01*
X01065Y01099D02*
Y0111D01*
X01218Y01377D02*
X01229D01*
X01224Y01371D02*
Y01382D01*
X01254Y01377D02*
X01265D01*
X0126Y01371D02*
Y01382D01*
X0125Y01394D02*
Y01405D01*
X01254Y0154D02*
X01265D01*
X0126Y01534D02*
Y01545D01*
X0132Y01554D02*
Y01565D01*
X01314Y0156D02*
X01325D01*
X01409D02*
X0142D01*
X01415Y01565D02*
Y01554D01*
X01454Y0154D02*
X01465D01*
X0146Y01534D02*
Y01545D01*
X01458Y01382D02*
Y01371D01*
X01452Y01377D02*
X01463D01*
X01328D02*
X01317D01*
X01255Y014D02*
X01244D01*
X01323Y01382D02*
Y01371D01*
X015Y0109D02*
Y01079D01*
X01494Y01085D02*
X01505D01*
X01704Y0124D02*
X01715D01*
X0171Y01234D02*
Y01245D01*
X01754Y0123D02*
X01765D01*
X0176Y01224D02*
Y01235D01*
X01859Y01225D02*
X0187D01*
X01865Y01219D02*
Y0123D01*
Y01185D02*
Y01174D01*
X01859Y0118D02*
X0187D01*
X01939Y0123D02*
X0195D01*
X01974Y01205D02*
X01985D01*
X0198Y01199D02*
Y0121D01*
X018Y01249D02*
Y0126D01*
X01794Y01255D02*
X01805D01*
X01945Y01235D02*
Y01224D01*
X01645Y01249D02*
Y0126D01*
X01639Y01255D02*
X0165D01*
X01659Y01449D02*
X0167D01*
X01665Y01443D02*
Y01454D01*
X01635Y01476D02*
X01623D01*
X01629Y0147D02*
Y01481D01*
X0157Y01385D02*
X01559D01*
X01565Y01379D02*
Y0139D01*
X01526Y01377D02*
X01515D01*
X01521Y01371D02*
Y01382D01*
X01695Y01476D02*
X01707D01*
X01701Y0147D02*
Y01482D01*
Y01524D02*
Y01535D01*
X01695Y0153D02*
X01706D01*
X0174Y01557D02*
X01751D01*
X01746Y01551D02*
Y01562D01*
Y01605D02*
Y01616D01*
X0174Y01611D02*
X01751D01*
X01746Y01659D02*
Y0167D01*
X0174Y01665D02*
X01751D01*
X01706Y01638D02*
X01695D01*
X01701Y01632D02*
Y01643D01*
Y0159D02*
Y01578D01*
X01695Y01584D02*
X01706D01*
X01758Y01476D02*
X01769D01*
X01764Y0147D02*
Y01481D01*
X01742Y01449D02*
X01731D01*
X01737Y01443D02*
Y01454D01*
X01949Y0183D02*
X0196D01*
X01955Y01824D02*
Y01835D01*
X02084Y01773D02*
X02095D01*
X0209Y01767D02*
Y01779D01*
Y0173D02*
Y01719D01*
X02084Y01725D02*
X02095D01*
X02134Y017D02*
X02145D01*
X0214Y01694D02*
Y01705D01*
X02154Y01474D02*
X02165D01*
X0216Y01468D02*
Y0148D01*
X02137Y01744D02*
Y01755D01*
X02131Y0175D02*
X02143D01*
X02189Y0176D02*
X022D01*
X02195Y01754D02*
Y01765D01*
X02269Y0201D02*
X0228D01*
X02275Y02004D02*
Y02015D01*
X02469Y0201D02*
X0248D01*
X02475Y02004D02*
Y02015D01*
X02335Y02099D02*
Y0211D01*
X02329Y02105D02*
X0234D01*
X0226Y02035D02*
X02249D01*
X02255Y02029D02*
Y0204D01*
X0222Y02035D02*
X02209D01*
X02215Y02029D02*
Y0204D01*
X02175Y02104D02*
Y02115D01*
X02169Y0211D02*
X0218D01*
X02229Y0201D02*
X0224D01*
X02235Y02004D02*
Y02015D01*
X0217Y0192D02*
X02159D01*
X02165Y01914D02*
Y01925D01*
X0196Y02084D02*
Y02095D01*
X01954Y0209D02*
X01965D01*
X02039Y0197D02*
X0205D01*
X02045Y01964D02*
Y01975D01*
X02244Y022D02*
X02255D01*
X0225Y02194D02*
Y02205D01*
X0193Y02539D02*
Y0255D01*
X01924Y02545D02*
X01935D01*
X0181D02*
X01799D01*
X01805Y02539D02*
Y0255D01*
Y02584D02*
Y02595D01*
X01799Y0259D02*
X0181D01*
X01924Y02355D02*
X01935D01*
X0193Y02349D02*
Y0236D01*
X01735Y02529D02*
Y0254D01*
X01729Y02535D02*
X0174D01*
X0169D02*
X01679D01*
X01685Y02529D02*
Y0254D01*
X01704Y02585D02*
X01715D01*
X0171Y02579D02*
Y0259D01*
Y02435D02*
Y02424D01*
X01704Y0243D02*
X01715D01*
X017Y024D02*
X01689D01*
X01695Y02394D02*
Y02405D01*
X01724Y0239D02*
X01735D01*
X0173Y02384D02*
Y02395D01*
X01769Y0242D02*
X0178D01*
X01775Y02414D02*
Y02425D01*
X01665Y0243D02*
X01654D01*
X0166Y02424D02*
Y02435D01*
X0155Y02275D02*
X01539D01*
X01545Y02269D02*
Y0228D01*
X01544Y02241D02*
X01533D01*
X01539Y02235D02*
Y02246D01*
X0149Y02241D02*
X01479D01*
X01485Y02235D02*
Y02246D01*
X0148Y02095D02*
Y02084D01*
X01485Y0209D02*
X01474D01*
X01422Y02163D02*
Y02174D01*
X01416Y02169D02*
X01427D01*
X01345Y02065D02*
X01334D01*
X0134Y02059D02*
Y0207D01*
X01344Y02D02*
X01355D01*
X0135Y01994D02*
Y02005D01*
X01544Y02D02*
X01555D01*
X0155Y01994D02*
Y02005D01*
X01659Y0185D02*
X0167D01*
X01665Y01844D02*
Y01855D01*
X01655Y018D02*
X01644D01*
X0165Y01794D02*
Y01805D01*
X01709Y0181D02*
X0172D01*
X01715Y01804D02*
Y01815D01*
Y01959D02*
Y0197D01*
X01709Y01965D02*
X0172D01*
X0154Y02059D02*
Y0207D01*
X01534Y02065D02*
X01545D01*
X01395Y02199D02*
Y0221D01*
X01389Y02205D02*
X014D01*
X01341Y02244D02*
Y02255D01*
X01335Y0225D02*
X01346D01*
X0126Y02364D02*
Y02375D01*
X01254Y0237D02*
X01265D01*
X01281Y02241D02*
X01292D01*
X01287Y02235D02*
Y02246D01*
X01255Y022D02*
X01244D01*
X0125Y02194D02*
Y02205D01*
X01166Y02205D02*
X01155D01*
X01161Y02199D02*
Y0221D01*
X01044Y02235D02*
Y02246D01*
X01038Y02241D02*
X01049D01*
X01045Y0209D02*
X01034D01*
X0104Y02084D02*
Y02095D01*
X01094Y02065D02*
X01105D01*
X011Y02059D02*
Y0207D01*
X01274Y0209D02*
X01285D01*
X0128Y02084D02*
Y02095D01*
X0101Y018D02*
X00999D01*
X01005Y01794D02*
Y01805D01*
X00975Y01814D02*
Y01825D01*
X00969Y0182D02*
X0098D01*
X00975Y01715D02*
Y01704D01*
X00969Y0171D02*
X0098D01*
X00985Y0166D02*
Y01649D01*
X00979Y01655D02*
X0099D01*
X0105Y01405D02*
Y01394D01*
X01044Y014D02*
X01055D01*
X01137Y01377D02*
X01149D01*
X01143Y01371D02*
Y01382D01*
X01165Y01495D02*
X01154D01*
X0116Y01489D02*
Y01501D01*
X01148Y01449D02*
X01137D01*
X01143Y01443D02*
Y01454D01*
X01214Y0169D02*
X01225D01*
X0122Y01684D02*
Y01695D01*
X01244Y018D02*
X01255D01*
X0125Y01794D02*
Y01805D01*
X0106Y0169D02*
X01049D01*
X01055Y01684D02*
Y01695D01*
X00824Y01719D02*
X00813D01*
X00819Y01724D02*
Y01713D01*
Y01661D02*
Y0165D01*
X00813Y01656D02*
X00824D01*
X00755Y016D02*
X00744D01*
X0075Y01594D02*
Y01605D01*
X0062Y01779D02*
Y0179D01*
X00614Y01785D02*
X00625D01*
X00585Y01814D02*
Y01825D01*
X00579Y0182D02*
X0059D01*
X00614Y0191D02*
X00625D01*
X0062Y01904D02*
Y01915D01*
X00813Y02043D02*
X00824D01*
X00819Y02037D02*
Y02048D01*
Y02109D02*
Y0212D01*
X00813Y02115D02*
X00824D01*
X0062Y02199D02*
Y0221D01*
X00614Y02205D02*
X00625D01*
X0062Y02259D02*
Y0227D01*
X00614Y02265D02*
X00625D01*
X00744Y024D02*
X00755D01*
X0075Y02394D02*
Y02405D01*
X00944Y024D02*
X00955D01*
X0095Y02394D02*
Y02405D01*
X01044Y026D02*
X01055D01*
X0105Y02594D02*
Y02605D01*
X01244Y026D02*
X01255D01*
X0125Y02594D02*
Y02605D01*
X01354Y0263D02*
X01365D01*
X0136Y02624D02*
Y02635D01*
X01374Y026D02*
X01385D01*
X0138Y02594D02*
Y02605D01*
X0131Y02869D02*
Y0288D01*
X01304Y02875D02*
X01315D01*
X01285Y02894D02*
Y02905D01*
X01279Y029D02*
X0129D01*
X01255Y02919D02*
Y0293D01*
X01249Y02925D02*
X0126D01*
X01384Y02985D02*
X01395D01*
X0139Y02979D02*
Y0299D01*
X0133Y03104D02*
Y03115D01*
X01324Y0311D02*
X01335D01*
X01564Y02985D02*
X01575D01*
X0157Y02979D02*
Y0299D01*
X01724Y0316D02*
X01735D01*
X0173Y03154D02*
Y03165D01*
X017Y03204D02*
Y03215D01*
X01694Y0321D02*
X01705D01*
X01914Y03045D02*
X01925D01*
X0192Y03039D02*
Y0305D01*
X0188Y03239D02*
Y0325D01*
X01874Y03245D02*
X01885D01*
X02108Y03535D02*
X02151D01*
X0213Y03513D02*
Y03556D01*
X02208Y03535D02*
X02251D01*
X0223Y03513D02*
Y03556D01*
X02339Y03379D02*
X0235D01*
X02345Y03373D02*
Y03385D01*
X02349Y03227D02*
Y03216D01*
X02343Y03222D02*
X02354D01*
X02529Y03315D02*
X0254D01*
X02535Y03309D02*
Y0332D01*
X0233Y03513D02*
Y03556D01*
X02308Y03535D02*
X02351D01*
X02644Y038D02*
X02655D01*
X0265Y03794D02*
Y03805D01*
X02844Y038D02*
X02855D01*
X0285Y03794D02*
Y03805D01*
X02944Y036D02*
X02955D01*
X0295Y03594D02*
Y03605D01*
X03144Y036D02*
X03155D01*
X0315Y03594D02*
Y03605D01*
X03344Y036D02*
X03355D01*
X03544D02*
X03555D01*
X0355Y03594D02*
Y03605D01*
X03744Y036D02*
X03755D01*
X0375Y03594D02*
Y03605D01*
X03944Y036D02*
X03955D01*
X0395Y03594D02*
Y03605D01*
X0385Y03794D02*
Y03805D01*
X03844Y038D02*
X03855D01*
X03944Y04D02*
X03955D01*
X0395Y03994D02*
Y04005D01*
X03755Y04D02*
X03744D01*
X0375Y03994D02*
Y04005D01*
X03395Y04229D02*
Y0424D01*
X03389Y04235D02*
X034D01*
X03444Y042D02*
X03455D01*
X0345Y04194D02*
Y04205D01*
X03454Y041D02*
X03465D01*
X0346Y04094D02*
Y04105D01*
X0341Y04D02*
X03399D01*
X03405Y03994D02*
Y04005D01*
X03444Y038D02*
X03455D01*
X0345Y03794D02*
Y03805D01*
X03265Y04039D02*
Y0405D01*
X03259Y04045D02*
X0327D01*
X03255Y038D02*
X03244D01*
X0325Y03794D02*
Y03805D01*
X0335Y03605D02*
Y03594D01*
X03055Y034D02*
X03044D01*
X0305Y03394D02*
Y03405D01*
X03144Y032D02*
X03155D01*
X0315Y03194D02*
Y03205D01*
X03055Y03D02*
X03044D01*
X0305Y02994D02*
Y03005D01*
X03244Y03D02*
X03255D01*
X0325Y02994D02*
Y03005D01*
X03444Y03D02*
X03455D01*
X0345Y02994D02*
Y03005D01*
X03544Y032D02*
X03555D01*
X0355Y03194D02*
Y03205D01*
X03744Y032D02*
X03755D01*
X0375Y03194D02*
Y03205D01*
X03844Y03D02*
X03855D01*
X0385Y02994D02*
Y03005D01*
X03944Y032D02*
X03955D01*
X0395Y03194D02*
Y03205D01*
X0385Y03394D02*
Y03405D01*
X03844Y034D02*
X03855D01*
X03455D02*
X03444D01*
X0345Y03394D02*
Y03405D01*
X03355Y032D02*
X03344D01*
X0335Y03194D02*
Y03205D01*
X0325Y03394D02*
Y03405D01*
X03244Y034D02*
X03255D01*
X02955Y032D02*
X02944D01*
X0295Y03194D02*
Y03205D01*
X0285Y03394D02*
Y03405D01*
X02844Y034D02*
X02855D01*
X0261Y02975D02*
X02599D01*
X02605Y02969D02*
Y0298D01*
X0258Y02989D02*
Y03D01*
X02574Y02995D02*
X02585D01*
X02844Y03D02*
X02855D01*
X0285Y02994D02*
Y03005D01*
X02944Y028D02*
X02955D01*
X0295Y02794D02*
Y02805D01*
X03144Y028D02*
X03155D01*
X0315Y02794D02*
Y02805D01*
X03344Y028D02*
X03355D01*
X03459Y02525D02*
X0347D01*
X03465Y02519D02*
Y0253D01*
X03499Y02525D02*
X0351D01*
X03738Y02556D02*
X03749D01*
X03744Y0255D02*
Y02561D01*
Y02646D02*
Y02657D01*
X03665Y02688D02*
X03654D01*
X0366Y02682D02*
Y02693D01*
X0355Y02794D02*
Y02805D01*
X03544Y028D02*
X03555D01*
X03738Y02652D02*
X03749D01*
X03822Y02616D02*
X03833D01*
X03828Y0261D02*
Y02621D01*
X03899Y02585D02*
X0391D01*
X03905Y02579D02*
Y0259D01*
X03944Y028D02*
X03955D01*
X0395Y02794D02*
Y02805D01*
X03755Y028D02*
X03744D01*
X0375Y02794D02*
Y02805D01*
X03505Y0253D02*
Y02519D01*
X0335Y02794D02*
Y02805D01*
X02755Y02D02*
X02744D01*
X0275Y01994D02*
Y02005D01*
X0203Y03513D02*
Y03556D01*
X02008Y03535D02*
X02051D01*
X01951D02*
X01908D01*
X0193Y03513D02*
Y03556D01*
X01851Y03535D02*
X01808D01*
X0183Y03513D02*
Y03556D01*
X01894Y0368D02*
X01905D01*
X019Y03674D02*
Y03685D01*
X0185Y03794D02*
Y03805D01*
X01844Y038D02*
X01855D01*
X02069Y03935D02*
X0208D01*
X02075Y03929D02*
Y0394D01*
X02224Y03894D02*
X02236D01*
X0223Y03888D02*
Y039D01*
X02379Y0383D02*
X0239D01*
X02385Y03824D02*
Y03835D01*
X0238Y03949D02*
Y0396D01*
X02374Y03955D02*
X02385D01*
X02315Y04054D02*
Y04065D01*
X02309Y0406D02*
X0232D01*
X02339Y04115D02*
X0235D01*
X02345Y04109D02*
Y0412D01*
X0229Y04115D02*
X02279D01*
X02285Y04109D02*
Y0412D01*
X02509Y041D02*
X0252D01*
X02515Y04094D02*
Y04105D01*
X02644Y042D02*
X02655D01*
X0265Y04194D02*
Y04205D01*
X02744Y04D02*
X02755D01*
X0275Y03994D02*
Y04005D01*
X02944Y04D02*
X02955D01*
X0295Y03994D02*
Y04005D01*
X03059Y04125D02*
X0307D01*
X03065Y04119D02*
Y0413D01*
Y04174D02*
Y04185D01*
X03059Y0418D02*
X0307D01*
X03319Y041D02*
X0333D01*
X03325Y04094D02*
Y04105D01*
X03544Y044D02*
X03555D01*
X0355Y04394D02*
Y04405D01*
X03559Y0445D02*
X0357D01*
X03565Y04444D02*
Y04455D01*
X03624Y04449D02*
X03636D01*
X0363Y04443D02*
Y04455D01*
X03729Y04615D02*
X0374D01*
X03735Y04609D02*
Y0462D01*
X03944Y044D02*
X03955D01*
X0395Y04394D02*
Y04405D01*
Y04794D02*
Y04805D01*
X03944Y048D02*
X03955D01*
X0385Y04994D02*
Y05005D01*
X03844Y05D02*
X03855D01*
X03944Y052D02*
X03955D01*
X0395Y05194D02*
Y05205D01*
X03833Y05418D02*
Y05441D01*
X03821Y0543D02*
X03845D01*
X03807Y0548D02*
Y05504D01*
X03795Y05492D02*
X03819D01*
X03745Y05489D02*
Y0537D01*
Y05353D02*
Y05329D01*
X03733Y05341D02*
X03756D01*
X03795Y05367D02*
X03819D01*
X03807Y05355D02*
Y05379D01*
X03804Y0543D02*
X03685D01*
X03668D02*
X03644D01*
X03656Y05418D02*
Y05441D01*
X03555Y052D02*
X03544D01*
X0355Y05194D02*
Y05205D01*
X03644Y05D02*
X03655D01*
X0365Y05005D02*
Y04994D01*
X03555Y048D02*
X03544D01*
X0355Y04794D02*
Y04805D01*
X03584Y0463D02*
X03595D01*
X0359Y04624D02*
Y04635D01*
X03624Y04575D02*
X03635D01*
X0363Y04569D02*
Y0458D01*
X03744Y048D02*
X03755D01*
X0375Y04794D02*
Y04805D01*
X0338Y05014D02*
Y05025D01*
X03374Y0502D02*
X03385D01*
X03434Y04865D02*
X03445D01*
X0344Y04859D02*
Y0487D01*
X03316Y04997D02*
Y04985D01*
X0331Y04991D02*
X03322D01*
X03283Y0499D02*
Y05002D01*
X03277Y04996D02*
X03289D01*
X03283Y05025D02*
Y05037D01*
X03277Y05031D02*
X03289D01*
X0331Y05027D02*
X03322D01*
X03316Y05021D02*
Y05033D01*
Y05056D02*
Y05068D01*
X0331Y05062D02*
X03322D01*
X03316Y05092D02*
Y05104D01*
X0331Y05098D02*
X03322D01*
X03316Y05128D02*
Y0514D01*
X0331Y05134D02*
X03322D01*
X03289Y05139D02*
X03277D01*
X03283Y05133D02*
Y05144D01*
Y05109D02*
Y05097D01*
X03277Y05103D02*
X03289D01*
Y05067D02*
X03277D01*
X03283Y05061D02*
Y05073D01*
X03255Y05D02*
X03244D01*
X0325Y05005D02*
Y04994D01*
X03257Y04889D02*
X03269D01*
X03263Y04883D02*
Y04895D01*
X03262Y04864D02*
Y04852D01*
X03256Y04858D02*
X03268D01*
X03291Y04866D02*
X03302D01*
X03297Y0486D02*
Y04872D01*
X03299Y04891D02*
X03311D01*
X03305Y04885D02*
Y04897D01*
X03303Y04847D02*
Y04836D01*
X03332Y0483D02*
X03344D01*
X03338Y04825D02*
Y04836D01*
Y04801D02*
Y04789D01*
X03332Y04795D02*
X03344D01*
Y04759D02*
X03332D01*
X03338Y04753D02*
Y04765D01*
X0322Y04789D02*
Y048D01*
X03214Y04795D02*
X03225D01*
X03243Y04824D02*
X03254D01*
X03249Y04818D02*
Y04829D01*
X03252Y04665D02*
X03265D01*
X03259Y04659D02*
Y04672D01*
X03299Y04665D02*
X03312D01*
X03306Y04659D02*
Y04672D01*
X03347Y04665D02*
X0336D01*
X03353Y04659D02*
Y04672D01*
X03394Y04665D02*
X03407D01*
X034Y04659D02*
Y04672D01*
Y04625D02*
Y04612D01*
X03394Y04618D02*
X03407D01*
Y04571D02*
X03394D01*
X034Y04564D02*
Y04577D01*
Y0453D02*
Y04517D01*
X03394Y04524D02*
X03407D01*
X0336D02*
X03347D01*
X03312D02*
X03299D01*
X03306Y04517D02*
Y0453D01*
Y04564D02*
Y04577D01*
X03299Y04571D02*
X03312D01*
X03347D02*
X0336D01*
X03353Y04564D02*
Y04577D01*
Y04612D02*
Y04625D01*
X0336Y04618D02*
X03347D01*
X03312D02*
X03299D01*
X03306Y04612D02*
Y04625D01*
X03265Y04618D02*
X03252D01*
X03259Y04612D02*
Y04625D01*
Y04577D02*
Y04564D01*
X03252Y04571D02*
X03265D01*
X03259Y0453D02*
Y04517D01*
X03252Y04524D02*
X03265D01*
X03329Y04395D02*
X0334D01*
X03335Y04389D02*
Y044D01*
X03449Y044D02*
X0346D01*
X03455Y04394D02*
Y04405D01*
X03353Y04517D02*
Y0453D01*
X03338Y0486D02*
Y04872D01*
X03332Y04866D02*
X03344D01*
X03308Y04842D02*
X03297D01*
X03055Y05D02*
X03044D01*
X0305Y05005D02*
Y04994D01*
X03045Y0496D02*
X03034D01*
X0304Y04954D02*
Y04965D01*
X02885Y0482D02*
X02874D01*
X0288Y04814D02*
Y04825D01*
X02755Y048D02*
X02744D01*
X0275Y04794D02*
Y04805D01*
X02884Y04755D02*
X02895D01*
X0289Y04749D02*
Y0476D01*
X03044Y0461D02*
X03055D01*
X0305Y04604D02*
Y04615D01*
X03045Y0452D02*
Y04509D01*
X0305Y04515D02*
X03039D01*
X03179Y04478D02*
X03191D01*
X03185Y04473D02*
Y04484D01*
X0301Y0418D02*
X02999D01*
X03005Y04174D02*
Y04185D01*
X0283Y0422D02*
X02819D01*
X02825Y04225D02*
Y04214D01*
X0281Y0416D02*
X02799D01*
X02805Y04154D02*
Y04165D01*
X02864Y0434D02*
X02875D01*
X0287Y04334D02*
Y04345D01*
X02825Y04444D02*
Y04455D01*
X02819Y0445D02*
X0283D01*
X0265Y04594D02*
Y04605D01*
X02644Y046D02*
X02655D01*
X02655Y04644D02*
Y04655D01*
X02649Y0465D02*
X0266D01*
X0266Y04515D02*
Y04504D01*
X02654Y0451D02*
X02665D01*
X02645Y0447D02*
X02634D01*
X0264Y04464D02*
Y04475D01*
Y0431D02*
Y04299D01*
X02634Y04305D02*
X02645D01*
X02654Y0428D02*
X02665D01*
X0266Y04274D02*
Y04285D01*
X0249Y04384D02*
Y04395D01*
X02484Y0439D02*
X02495D01*
X02452D02*
X0244D01*
X02446Y04384D02*
Y04395D01*
Y04352D02*
Y0434D01*
X0244Y04346D02*
X02452D01*
X02484D02*
X02495D01*
X0249Y0434D02*
Y04352D01*
Y04309D02*
Y04297D01*
X02484Y04303D02*
X02495D01*
Y0426D02*
X02484D01*
X0249Y04254D02*
Y04265D01*
X02452Y0426D02*
X0244D01*
X02446Y04254D02*
Y04265D01*
Y04297D02*
Y04309D01*
X0244Y04303D02*
X02452D01*
X02403Y04384D02*
Y04395D01*
X02397Y0439D02*
X02409D01*
X02365D02*
X02354D01*
X0236Y04384D02*
Y04395D01*
Y04352D02*
Y0434D01*
X02354Y04346D02*
X02365D01*
X02397D02*
X02409D01*
X02403Y0434D02*
Y04352D01*
Y04309D02*
Y04297D01*
X02397Y04303D02*
X02409D01*
Y0426D02*
X02397D01*
X02403Y04254D02*
Y04265D01*
X02365Y0426D02*
X02354D01*
X0236Y04254D02*
Y04265D01*
Y04297D02*
Y04309D01*
X02354Y04303D02*
X02365D01*
X02195Y04379D02*
Y0439D01*
X02189Y04385D02*
X022D01*
X02195Y04409D02*
Y0442D01*
X02189Y04415D02*
X022D01*
X02195Y04444D02*
Y04455D01*
X02189Y0445D02*
X022D01*
X02229D02*
X0224D01*
X02235Y04444D02*
Y04455D01*
X0211Y04445D02*
X02099D01*
X0205Y04489D02*
Y045D01*
X02044Y04495D02*
X02055D01*
X01955Y044D02*
X01944D01*
X01959Y04335D02*
X0197D01*
X01965Y04329D02*
Y0434D01*
X01999Y0427D02*
X0201D01*
X02005Y04264D02*
Y04275D01*
X02069Y04135D02*
X0208D01*
X02075Y04129D02*
Y0414D01*
X02204Y0418D02*
X02215D01*
X0221Y04174D02*
Y04185D01*
X02229Y04115D02*
X02241D01*
X02235Y04109D02*
Y0412D01*
X022Y04075D02*
X02189D01*
X02195Y04069D02*
Y0408D01*
Y04249D02*
Y04261D01*
X02189Y04255D02*
X022D01*
X02195Y04284D02*
Y04295D01*
X02189Y0429D02*
X022D01*
X02105Y04439D02*
Y0445D01*
X0226Y04549D02*
Y0456D01*
X02265Y04555D02*
X02254D01*
X0223Y04599D02*
Y04611D01*
X02224Y04605D02*
X02235D01*
X02125Y04536D02*
X02114D01*
X0212Y0453D02*
Y04542D01*
X02289Y04605D02*
X023D01*
X02295Y04599D02*
Y04611D01*
X02329Y046D02*
X0234D01*
X02335Y04594D02*
Y04605D01*
X02339Y04655D02*
X0235D01*
X02345Y04649D02*
Y0466D01*
X02384Y0463D02*
X02395D01*
X0239Y04624D02*
Y04635D01*
X02489Y0465D02*
X025D01*
X02495Y04644D02*
Y04655D01*
X02604Y04765D02*
X02615D01*
X0261Y04759D02*
Y0477D01*
X0285Y04994D02*
Y05005D01*
X02844Y05D02*
X02855D01*
X02944Y052D02*
X02955D01*
X0295Y05194D02*
Y05205D01*
X03144Y052D02*
X03155D01*
X0315Y05194D02*
Y05205D01*
X03277Y0521D02*
X03289D01*
X03283Y05204D02*
Y05216D01*
Y0524D02*
Y05252D01*
X03277Y05246D02*
X03289D01*
X0331Y05241D02*
X03322D01*
X03316Y05235D02*
Y05247D01*
Y05271D02*
Y05283D01*
X0331Y05277D02*
X03322D01*
X03289Y05282D02*
X03277D01*
X03283Y05276D02*
Y05287D01*
Y0518D02*
Y05168D01*
X03277Y05174D02*
X03289D01*
X0331Y0517D02*
X03322D01*
X03316Y05164D02*
Y05176D01*
Y05199D02*
Y05211D01*
X0331Y05205D02*
X03322D01*
X03344Y052D02*
X03355D01*
X0335Y05194D02*
Y05205D01*
X03164Y04824D02*
X03153D01*
X03159Y04818D02*
Y04829D01*
X03174Y0471D02*
X03185D01*
X0318Y04704D02*
Y04715D01*
X0275Y05194D02*
Y05205D01*
X02744Y052D02*
X02755D01*
X02844Y054D02*
X02855D01*
X0285Y05394D02*
Y05405D01*
X02608Y05486D02*
Y0551D01*
X02596Y05498D02*
X02619D01*
X02644Y054D02*
X02655D01*
X0265Y05394D02*
Y05405D01*
X02619Y05312D02*
X02596D01*
X02608Y05323D02*
Y053D01*
X02644Y05D02*
X02655D01*
X0265Y05005D02*
Y04994D01*
X0249Y05139D02*
Y0515D01*
X02484Y05145D02*
X02495D01*
X02435Y04935D02*
X02424D01*
X0243Y04929D02*
Y0494D01*
Y04855D02*
Y04844D01*
X02424Y0485D02*
X02435D01*
X0242Y0472D02*
X02409D01*
X02415Y04714D02*
Y04726D01*
X0235Y04725D02*
X02339D01*
X02345Y04719D02*
Y04731D01*
X02285Y0471D02*
X02274D01*
X0228Y04704D02*
Y04715D01*
X02509Y0472D02*
X0252D01*
X02515Y04714D02*
Y04726D01*
X02544Y048D02*
X02555D01*
X0255Y04794D02*
Y04805D01*
X024Y05054D02*
Y05065D01*
X02394Y0506D02*
X02405D01*
X0238Y05061D02*
X02368D01*
X02374Y05055D02*
Y05067D01*
X02375Y05142D02*
Y05153D01*
X02402Y05153D02*
Y05141D01*
X02396Y05147D02*
X02408D01*
X02381Y05148D02*
X02369D01*
X02444Y05178D02*
X02456D01*
X0245Y05172D02*
Y05184D01*
X02455Y05259D02*
Y05274D01*
X02447Y05266D02*
X02463D01*
X02479D02*
X02495D01*
X02487Y05259D02*
Y05274D01*
X02495Y05294D02*
X0251D01*
X02503Y05286D02*
Y05302D01*
X02479Y05294D02*
X02463D01*
X02471Y05286D02*
Y05302D01*
X02526Y05294D02*
X02542D01*
X02534Y05286D02*
Y05302D01*
X02542Y05266D02*
X02558D01*
X0255Y05259D02*
Y05274D01*
X02526Y05266D02*
X0251D01*
X02518Y05259D02*
Y05274D01*
X02432Y05266D02*
X02416D01*
X02424Y05259D02*
Y05274D01*
X02416Y05294D02*
X024D01*
X02408Y05286D02*
Y05302D01*
X02384Y05294D02*
X02369D01*
X02377Y05286D02*
Y05302D01*
X02353Y05294D02*
X02337D01*
X02345Y05286D02*
Y05302D01*
X02353Y05266D02*
X02369D01*
X02361Y05259D02*
Y05274D01*
X02337Y05266D02*
X02321D01*
X02329Y05259D02*
Y05274D01*
X02384Y05266D02*
X024D01*
X02392Y05259D02*
Y05274D01*
X02271Y053D02*
Y05323D01*
X0226Y05312D02*
X02283D01*
X02271Y05486D02*
Y0551D01*
X0226Y05498D02*
X02283D01*
X02255Y054D02*
X02244D01*
X0225Y05394D02*
Y05405D01*
X02155Y052D02*
X02144D01*
X0215Y05194D02*
Y05205D01*
X02244Y05D02*
X02255D01*
X0225Y05005D02*
Y04994D01*
X02235Y04875D02*
X02224D01*
X0223Y04869D02*
Y0488D01*
X02055Y05D02*
X02044D01*
X0205Y05005D02*
Y04994D01*
X01955Y048D02*
X01944D01*
X0195Y04794D02*
Y04805D01*
X0185Y04994D02*
Y05005D01*
X01844Y05D02*
X01855D01*
X0195Y05194D02*
Y05205D01*
X01955Y052D02*
X01944D01*
X0185Y05394D02*
Y05405D01*
X01844Y054D02*
X01855D01*
X01994Y05595D02*
X02005D01*
X02Y05589D02*
Y056D01*
X02074Y05595D02*
X02085D01*
X0208Y05589D02*
Y056D01*
X01665Y0544D02*
X01654D01*
X0166Y05434D02*
Y05445D01*
X01744Y052D02*
X01755D01*
X0175Y05194D02*
Y05205D01*
X0158Y05434D02*
Y05445D01*
X01574Y0544D02*
X01585D01*
X01505D02*
X01494D01*
X015Y05434D02*
Y05445D01*
X01544Y052D02*
X01555D01*
X0155Y05194D02*
Y05205D01*
X0145Y05394D02*
Y05405D01*
X01444Y054D02*
X01455D01*
X0137Y0524D02*
X01359D01*
X01365Y05234D02*
Y05245D01*
X0134Y0524D02*
X01329D01*
X01335Y05234D02*
Y05245D01*
Y05215D02*
Y05204D01*
X01329Y0521D02*
X0134D01*
X01359D02*
X0137D01*
X01365Y05204D02*
Y05215D01*
X0137Y0505D02*
Y05039D01*
X01364Y05045D02*
X01375D01*
X01345D02*
X01334D01*
X0134Y05039D02*
Y0505D01*
X01444Y05D02*
X01455D01*
X0145Y05005D02*
Y04994D01*
X01355Y048D02*
X01344D01*
X0135Y04794D02*
Y04805D01*
X01359Y0465D02*
X0137D01*
X01365Y04644D02*
Y04655D01*
Y0462D02*
Y04609D01*
X01359Y04615D02*
X0137D01*
X01335D02*
X01324D01*
X0133Y04609D02*
Y0462D01*
Y04585D02*
Y04574D01*
X01324Y0458D02*
X01335D01*
X01359D02*
X0137D01*
X01365Y04574D02*
Y04585D01*
X01529Y0441D02*
X0154D01*
X01535Y04404D02*
Y04415D01*
X0148Y04345D02*
X01469D01*
X01475Y04339D02*
Y0435D01*
X0146Y04255D02*
X01449D01*
X01455Y04249D02*
Y0426D01*
X01375Y04245D02*
X01364D01*
X0137Y04239D02*
Y0425D01*
X015Y04209D02*
Y0422D01*
X01494Y04215D02*
X01505D01*
X015Y04185D02*
X01489D01*
X01495Y04179D02*
Y0419D01*
Y04155D02*
Y04144D01*
X01489Y0415D02*
X015D01*
X01509Y04115D02*
X0152D01*
X01515Y04109D02*
Y0412D01*
X0165Y04214D02*
Y04225D01*
X01644Y0422D02*
X01655D01*
X01714Y04275D02*
X01725D01*
X0172Y04269D02*
Y0428D01*
X01844Y042D02*
X01855D01*
X0185Y04194D02*
Y04205D01*
X01864Y03975D02*
X01875D01*
X0187Y03969D02*
Y0398D01*
X01655Y038D02*
X01644D01*
X0165Y03794D02*
Y03805D01*
X01744Y036D02*
X01755D01*
X0175Y03594D02*
Y03605D01*
X01774Y0362D02*
X01785D01*
X0178Y03614D02*
Y03625D01*
X01626Y03677D02*
Y03688D01*
X0162Y03683D02*
X01632D01*
X01535Y03545D02*
X01524D01*
X0153Y03539D02*
Y0355D01*
X0135Y03594D02*
Y03605D01*
X01344Y036D02*
X01355D01*
X0136Y03683D02*
X01372D01*
X01366Y03677D02*
Y03688D01*
X0128Y0351D02*
X01269D01*
X01275Y03504D02*
Y03515D01*
Y03485D02*
Y03474D01*
X01269Y0348D02*
X0128D01*
Y0345D02*
X01269D01*
X01275Y03444D02*
Y03455D01*
Y03425D02*
Y03414D01*
X01269Y0342D02*
X0128D01*
X0101Y03439D02*
Y0345D01*
X01015Y03445D02*
X01004D01*
Y03475D02*
X01015D01*
X0101Y03469D02*
Y0348D01*
Y03504D02*
Y03515D01*
X01015Y0351D02*
X01004D01*
X01065Y0328D02*
Y03269D01*
X01059Y03275D02*
X0107D01*
X01099Y03215D02*
X0111D01*
X01105Y03209D02*
Y0322D01*
X01144Y032D02*
X01155D01*
X0115Y03194D02*
Y03205D01*
X0107Y031D02*
X01059D01*
X01065Y03094D02*
Y03105D01*
X01055Y03D02*
X01044D01*
X0105Y02994D02*
Y03005D01*
X0103Y02925D02*
X01019D01*
X01025Y02919D02*
Y0293D01*
X01044Y029D02*
X01055D01*
X0105Y02894D02*
Y02905D01*
X0103Y02875D02*
X01019D01*
X01025Y02869D02*
Y0288D01*
X01044Y0285D02*
X01055D01*
X0105Y02844D02*
Y02855D01*
X00855Y03D02*
X00844D01*
X0085Y02994D02*
Y03005D01*
X00894Y031D02*
X00905D01*
X009Y03094D02*
Y03105D01*
X00735Y03189D02*
Y032D01*
X00729Y03195D02*
X0074D01*
X00735Y03289D02*
Y033D01*
X00729Y03295D02*
X0074D01*
X0067Y03435D02*
X00659D01*
X00665Y0344D02*
Y03429D01*
Y0341D02*
Y03399D01*
X00659Y03405D02*
X0067D01*
X0057Y03385D02*
X00559D01*
X00565Y03379D02*
Y0339D01*
Y03165D02*
Y03154D01*
X00559Y0316D02*
X0057D01*
X00629Y0305D02*
X0064D01*
X00635Y03044D02*
Y03055D01*
Y03D02*
Y02989D01*
X00629Y02995D02*
X0064D01*
X00455Y03D02*
X00444D01*
X0045Y02994D02*
Y03005D01*
X00459Y03105D02*
X0047D01*
X00465Y03099D02*
Y0311D01*
X0023Y03134D02*
Y03145D01*
X00235Y0314D02*
X00224D01*
X0015Y03194D02*
Y03205D01*
X00144Y032D02*
X00155D01*
X00234Y02995D02*
X00245D01*
X0024Y02989D02*
Y03D01*
X00369Y0299D02*
X0038D01*
X00375Y02984D02*
Y02995D01*
X0021Y0289D02*
X00199D01*
X00205Y02884D02*
Y02895D01*
X00155Y028D02*
X00144D01*
X0015Y02794D02*
Y02805D01*
X00244Y026D02*
X00255D01*
X0025Y02594D02*
Y02605D01*
X00344Y024D02*
X00355D01*
X0035Y02394D02*
Y02405D01*
X00255Y022D02*
X00244D01*
X0025Y02194D02*
Y02205D01*
X00409Y0213D02*
X0042D01*
X00415Y02124D02*
Y02135D01*
X0048Y02103D02*
X00499D01*
X0049Y02093D02*
Y02113D01*
Y02066D02*
Y02046D01*
X0048Y02056D02*
X00499D01*
X00415Y0203D02*
Y02019D01*
X00409Y02025D02*
X0042D01*
X00355Y02D02*
X00344D01*
X0035Y01994D02*
Y02005D01*
X00354Y01735D02*
X00365D01*
X0036Y01729D02*
Y0174D01*
X0025Y01794D02*
Y01805D01*
X00244Y018D02*
X00255D01*
X00186Y01873D02*
X00174D01*
X0018Y01879D02*
Y01868D01*
X00185Y01745D02*
Y01734D01*
X00179Y0174D02*
X0019D01*
X00074Y01823D02*
X00062D01*
X00068Y01817D02*
Y01829D01*
X00055Y018D02*
X00044D01*
X0005Y01794D02*
Y01805D01*
X00062Y01693D02*
X00074D01*
X00179Y0161D02*
X0019D01*
X00185Y01604D02*
Y01615D01*
X00349Y0154D02*
X0036D01*
X00355Y01534D02*
Y01545D01*
X00359Y0137D02*
X0037D01*
X00365Y01364D02*
Y01375D01*
X00155Y012D02*
X00144D01*
X0015Y01194D02*
Y01205D01*
X0005Y01394D02*
Y01405D01*
X00065Y01554D02*
Y01565D01*
X00059Y0156D02*
X0007D01*
X00068Y01687D02*
Y01699D01*
X00055Y014D02*
X00044D01*
Y01D02*
X00055D01*
X0005Y00994D02*
Y01005D01*
X00144Y008D02*
X00155D01*
X0015Y00794D02*
Y00805D01*
X00544Y008D02*
X00555D01*
X0055Y00794D02*
Y00805D01*
X00844Y01D02*
X00855D01*
X0085Y00994D02*
Y01005D01*
X0055Y01194D02*
Y01205D01*
X00544Y012D02*
X00555D01*
X00644Y01D02*
X00655D01*
X0065Y00994D02*
Y01005D01*
X0015Y01994D02*
Y02005D01*
X00144Y02D02*
X00155D01*
X0005Y02194D02*
Y02205D01*
X00044Y022D02*
X00055D01*
X00144Y024D02*
X00155D01*
X0015Y02394D02*
Y02405D01*
X0005Y02594D02*
Y02605D01*
X00044Y026D02*
X00055D01*
X00344Y028D02*
X00355D01*
X0035Y02794D02*
Y02805D01*
X00444Y026D02*
X00455D01*
X0045Y02594D02*
Y02605D01*
X00544Y024D02*
X00555D01*
X0055Y02394D02*
Y02405D01*
X00844Y026D02*
X00855D01*
X00944Y028D02*
X00955D01*
X0095Y02794D02*
Y02805D01*
X00755Y028D02*
X00744D01*
X0075Y02794D02*
Y02805D01*
X0085Y02605D02*
Y02594D01*
X0055Y02794D02*
Y02805D01*
X00544Y028D02*
X00555D01*
X00644Y026D02*
X00655D01*
X0065Y02594D02*
Y02605D01*
X00025Y03057D02*
Y03069D01*
X00019Y03063D02*
X00031D01*
X00244Y034D02*
X00255D01*
X0025Y03394D02*
Y03405D01*
X00459Y0339D02*
X0047D01*
X00465Y03384D02*
Y03395D01*
X00744Y036D02*
X00755D01*
X0075Y03594D02*
Y03605D01*
X00751Y03683D02*
X00763D01*
X00757Y03677D02*
Y03688D01*
X00555Y036D02*
X00544D01*
X0055Y03594D02*
Y03605D01*
X0045Y03794D02*
Y03805D01*
X00444Y038D02*
X00455D01*
X00489Y0368D02*
X005D01*
X00495Y03674D02*
Y03685D01*
X00355Y036D02*
X00344D01*
X0035Y03594D02*
Y03605D01*
X00155Y036D02*
X00144D01*
X0015Y03594D02*
Y03605D01*
X0005Y03794D02*
Y03805D01*
X00044Y038D02*
X00055D01*
X00144Y04D02*
X00155D01*
X0015Y03994D02*
Y04005D01*
X00289Y03915D02*
X003D01*
X00295Y03909D02*
Y03921D01*
X00444Y042D02*
X00455D01*
X0045Y04194D02*
Y04205D01*
X00644Y04015D02*
X00655D01*
X0065Y04009D02*
Y0402D01*
X00674Y04015D02*
X00685D01*
X0068Y04009D02*
Y0402D01*
X01009Y0393D02*
X0102D01*
X01015Y03924D02*
Y03935D01*
X01244Y042D02*
X01255D01*
X0125Y04194D02*
Y04205D01*
X0121Y04224D02*
Y04235D01*
X01204Y0423D02*
X01215D01*
X01185D02*
X01174D01*
X0118Y04224D02*
Y04235D01*
Y04449D02*
Y0446D01*
X01174Y04455D02*
X01185D01*
X0118Y04479D02*
Y0449D01*
X01174Y04485D02*
X01185D01*
X01244Y046D02*
X01255D01*
X0125Y04594D02*
Y04605D01*
Y04644D02*
Y04655D01*
X01244Y0465D02*
X01255D01*
X01262Y04816D02*
X01274D01*
X01268Y0481D02*
Y04822D01*
X0123Y04816D02*
X01219D01*
X01225Y0481D02*
Y04822D01*
X01187Y04816D02*
X01175D01*
X01181Y0481D02*
Y04822D01*
Y04853D02*
Y04865D01*
X01175Y04859D02*
X01187D01*
X01219D02*
X0123D01*
X01225Y04853D02*
Y04865D01*
X01262Y04859D02*
X01274D01*
X01268Y04853D02*
Y04865D01*
X013Y04994D02*
Y05005D01*
X01294Y05D02*
X01305D01*
X0131Y05039D02*
Y0505D01*
X01304Y05045D02*
X01315D01*
X01205Y05D02*
X01194D01*
X012Y05005D02*
Y04994D01*
X011Y05029D02*
Y0504D01*
X01094Y05035D02*
X01105D01*
X01299Y0521D02*
X0131D01*
X01305Y05204D02*
Y05215D01*
Y05234D02*
Y05245D01*
X01299Y0524D02*
X0131D01*
X00855Y054D02*
X00844D01*
X0085Y05394D02*
Y05405D01*
X00836Y05417D02*
X00773D01*
X00805Y05385D02*
Y05448D01*
Y05275D02*
Y05204D01*
X00755Y052D02*
X00744D01*
X0075Y05194D02*
Y05205D01*
X00769Y0524D02*
X0084D01*
X00944Y052D02*
X00955D01*
X0095Y05194D02*
Y05205D01*
X00725Y04855D02*
X00714D01*
X0072Y04849D02*
Y0486D01*
X00744Y048D02*
X00755D01*
X0075Y04794D02*
Y04805D01*
X00844Y046D02*
X00855D01*
X00864Y0463D02*
X00875D01*
X0087Y04624D02*
Y04635D01*
X00929Y0463D02*
X0094D01*
X00935Y04624D02*
Y04635D01*
X00959Y0463D02*
X0097D01*
X00965Y04624D02*
Y04635D01*
X00989Y0463D02*
X01D01*
X00995Y04624D02*
Y04635D01*
Y04654D02*
Y04665D01*
X00989Y0466D02*
X01D01*
Y046D02*
X00989D01*
X00995Y04594D02*
Y04605D01*
X01054Y04485D02*
X01065D01*
X0106Y04479D02*
Y0449D01*
X01084Y04485D02*
X01095D01*
X0109Y04479D02*
Y0449D01*
X01114Y04485D02*
X01125D01*
X0112Y04479D02*
Y0449D01*
X01144Y04485D02*
X01155D01*
X0115Y04479D02*
Y0449D01*
Y0446D02*
Y04449D01*
X01144Y04455D02*
X01155D01*
X01125D02*
X01114D01*
X0112Y04449D02*
Y0446D01*
X01095Y04455D02*
X01084D01*
X0109Y04449D02*
Y0446D01*
Y04235D02*
Y04224D01*
X01084Y0423D02*
X01095D01*
X01114D02*
X01125D01*
X0112Y04224D02*
Y04235D01*
X01144Y0423D02*
X01155D01*
X0115Y04224D02*
Y04235D01*
X01065Y0423D02*
X01054D01*
X0106Y04224D02*
Y04235D01*
X01055Y042D02*
X01044D01*
X0105Y04194D02*
Y04205D01*
X0102Y04205D02*
X01009D01*
Y0417D02*
X0102D01*
X01015Y04164D02*
Y04175D01*
Y04199D02*
Y0421D01*
Y0414D02*
Y04129D01*
X0102Y04135D02*
X01009D01*
Y041D02*
X0102D01*
X01015Y04094D02*
Y04105D01*
Y0407D02*
Y04059D01*
X0102Y04065D02*
X01009D01*
X01101Y03683D02*
X01112D01*
X01106Y03677D02*
Y03688D01*
X01144Y036D02*
X01155D01*
X0115Y03594D02*
Y03605D01*
X01644Y0441D02*
X01655D01*
X0165Y04404D02*
Y04415D01*
X01719Y04415D02*
X0173D01*
X01725Y04409D02*
Y0442D01*
X01739Y04445D02*
X0175D01*
X01745Y04439D02*
Y0445D01*
X01764Y04415D02*
X01775D01*
X0177Y04409D02*
Y0442D01*
X0175Y04554D02*
Y04565D01*
X01744Y0456D02*
X01755D01*
X0175Y04794D02*
Y04805D01*
X01744Y048D02*
X01755D01*
X01555D02*
X01544D01*
X0155Y04794D02*
Y04805D01*
X01574Y0456D02*
X01585D01*
X0158Y04554D02*
Y04565D01*
X01614Y0457D02*
X01625D01*
X0162Y04564D02*
Y04575D01*
X0195Y04405D02*
Y04394D01*
X0095Y04794D02*
Y04805D01*
X00944Y048D02*
X00955D01*
X0085Y04605D02*
Y04594D01*
X0055Y04794D02*
Y04805D01*
X00544Y048D02*
X00555D01*
X00644Y046D02*
X00655D01*
X0065Y04594D02*
Y04605D01*
X0051Y04819D02*
Y0483D01*
X00504Y04825D02*
X00515D01*
Y046D02*
X00504D01*
X0051Y04594D02*
Y04605D01*
X00295Y04724D02*
Y04735D01*
X00289Y0473D02*
X003D01*
X00344Y048D02*
X00355D01*
X0035Y04794D02*
Y04805D01*
X00155Y044D02*
X00144D01*
X0015Y04394D02*
Y04405D01*
X00289Y0432D02*
X003D01*
X00295Y04314D02*
Y04325D01*
X00344Y044D02*
X00355D01*
X0035Y04394D02*
Y04405D01*
X0005Y04594D02*
Y04605D01*
X00044Y046D02*
X00055D01*
X0005Y04994D02*
Y05005D01*
X00044Y05D02*
X00055D01*
X00289Y05135D02*
X003D01*
X00295Y05129D02*
Y0514D01*
X00479Y0515D02*
X0049D01*
X00485Y05144D02*
Y05155D01*
Y05174D02*
Y05185D01*
X00479Y0518D02*
X0049D01*
X00485Y05204D02*
Y05215D01*
X00479Y0521D02*
X0049D01*
X00485Y05234D02*
Y05245D01*
X00479Y0524D02*
X0049D01*
X00485Y05264D02*
Y05275D01*
X00479Y0527D02*
X0049D01*
X00485Y05294D02*
Y05305D01*
X00479Y053D02*
X0049D01*
Y0512D02*
X00479D01*
X00485Y05114D02*
Y05125D01*
X00644Y0522D02*
X00655D01*
X0065Y05214D02*
Y05225D01*
Y05244D02*
Y05255D01*
X00644Y0525D02*
X00655D01*
X0065Y05274D02*
Y05285D01*
X00644Y0528D02*
X00655D01*
X0065Y05304D02*
Y05315D01*
X00644Y0531D02*
X00655D01*
X0065Y05334D02*
Y05345D01*
X00644Y0534D02*
X00655D01*
X0065Y05364D02*
Y05375D01*
X00644Y0537D02*
X00655D01*
X0065Y05394D02*
Y05405D01*
X00644Y054D02*
X00655D01*
X0049Y0539D02*
X00479D01*
X00485Y05384D02*
Y05395D01*
Y05414D02*
Y05425D01*
X00479Y0542D02*
X0049D01*
X00485Y05444D02*
Y05455D01*
X00479Y0545D02*
X0049D01*
X00455Y054D02*
X00444D01*
X0045Y05394D02*
Y05405D01*
X00479Y0536D02*
X0049D01*
X00485Y05354D02*
Y05365D01*
Y05335D02*
Y05324D01*
X00479Y0533D02*
X0049D01*
X00312Y0548D02*
Y05504D01*
X003Y05492D02*
X00324D01*
X0025Y05489D02*
Y0537D01*
Y05353D02*
Y05329D01*
X00238Y05341D02*
X00261D01*
X003Y05367D02*
X00324D01*
X00312Y05355D02*
Y05379D01*
X00309Y0543D02*
X0019D01*
X00173D02*
X00149D01*
X00161Y05418D02*
Y05441D01*
X00175Y05367D02*
X00199D01*
X00187Y05355D02*
Y05379D01*
X00344Y052D02*
X00355D01*
X0035Y05194D02*
Y05205D01*
X00338Y05418D02*
Y05441D01*
X00326Y0543D02*
X0035D01*
X0025Y05506D02*
Y0553D01*
X00238Y05518D02*
X00261D01*
X00199Y05492D02*
X00175D01*
X00187Y0548D02*
Y05504D01*
X00055Y054D02*
X00044D01*
X0005Y05394D02*
Y05405D01*
Y04205D02*
Y04194D01*
X00044Y042D02*
X00055D01*
X00189Y0331D02*
X002D01*
X00195Y03304D02*
Y03315D01*
X03744Y052D02*
X03755D01*
X0375Y05194D02*
Y05205D01*
X03682Y05355D02*
Y05379D01*
X0367Y05367D02*
X03694D01*
X03682Y0548D02*
Y05504D01*
X0367Y05492D02*
X03694D01*
X03733Y05518D02*
X03756D01*
X03745Y05506D02*
Y0553D01*
M02*