%FSTAX23Y23*%
%MOIN*%
%SFA1B1*%

%IPPOS*%
%ADD9500C,0.007900*%
%ADD9501C,0.011800*%
%ADD9502C,0.013000*%
%ADD9503C,0.015700*%
%ADD9504C,0.019700*%
%ADD9505C,0.023600*%
%ADD9506C,0.031500*%
%ADD9507C,0.035000*%
%ADD9508C,0.040200*%
%ADD9509C,0.043300*%
%ADD9510C,0.064200*%
%ADD9511C,0.118100*%
%ADD9512C,0.063000*%
%ADD9513C,0.070900*%
%ADD9514C,0.128000*%
%LNpch_mainboard-roundholes-1*%
%LPD*%
G54D9500*
X03163Y01248D03*
X03206D03*
Y01291D03*
X03163D03*
G54D9501*
X0005Y002D03*
X0015Y004D03*
X0035D03*
X0055D03*
X00675Y00485D03*
X0065Y006D03*
X0085D03*
X00845Y00485D03*
X0095Y004D03*
X0085Y002D03*
X0065D03*
X0045D03*
Y006D03*
X00365Y00595D03*
Y00855D03*
X0055Y008D03*
X0065Y01D03*
X0085D03*
X01005Y01085D03*
X0076Y01325D03*
X0065Y014D03*
X00665Y01445D03*
X00615Y0155D03*
X00355Y0154D03*
X00365Y0137D03*
X0045Y014D03*
X0055Y012D03*
X0034Y011D03*
X0025Y01D03*
X0005D03*
X0015Y012D03*
X0005Y014D03*
X00065Y0156D03*
X0015Y008D03*
X0005Y006D03*
X0105D03*
X0125D03*
X0145D03*
X0165D03*
X01725Y0067D03*
X0185Y006D03*
X0205D03*
X0225D03*
X0245D03*
X0255Y008D03*
Y004D03*
X0235D03*
X0215D03*
X0225Y002D03*
X0245D03*
X0205D03*
X0185D03*
X0165D03*
X0145D03*
X0125D03*
X0105D03*
X0115Y004D03*
X0135D03*
X0155D03*
X0175D03*
X0179Y0086D03*
X02175D03*
X02135Y0126D03*
X0198Y01205D03*
X01945Y0123D03*
X01865Y01225D03*
Y0118D03*
X018Y01255D03*
X0176Y0123D03*
X0171Y0124D03*
X01645Y01255D03*
X01565Y01385D03*
X01521Y01377D03*
X01458D03*
X01323D03*
X0126D03*
X0125Y014D03*
X01224Y01377D03*
X01143D03*
X01143Y01449D03*
X0116Y01495D03*
X0126Y0154D03*
X0132Y0156D03*
X01415D03*
X0146Y0154D03*
X01629Y01476D03*
X01665Y01449D03*
X01701Y01476D03*
Y0153D03*
X01746Y01557D03*
X01764Y01476D03*
X01737Y01449D03*
X01954Y015D03*
X01995Y015D03*
X02045Y0151D03*
X0216Y01474D03*
X0237Y0151D03*
X02358Y0126D03*
X0235Y012D03*
X015Y01085D03*
X01295Y01025D03*
X0125Y01D03*
X0105D03*
X01065Y01105D03*
X0115Y012D03*
X0117Y0123D03*
X0105Y014D03*
X012Y0081D03*
X0265Y01D03*
X0285D03*
X02934Y00999D03*
X02889Y01098D03*
X03015Y011D03*
X02988Y01215D03*
X03035Y0128D03*
X03015Y0132D03*
X03095Y0118D03*
X03213Y01089D03*
X0325Y01D03*
X0345D03*
X03435Y0093D03*
X03384Y01089D03*
Y01143D03*
X03425Y0124D03*
X03339Y01245D03*
X03303Y0126D03*
X03225Y0141D03*
X03195Y01385D03*
X0316Y01415D03*
X03195Y01465D03*
X0343Y014D03*
X03465Y01557D03*
X0385Y014D03*
X0395Y012D03*
X0375D03*
X0385Y01D03*
X0365D03*
X0375Y008D03*
X0377Y0066D03*
X0385Y006D03*
X0395Y008D03*
Y004D03*
X0375D03*
X03265Y00365D03*
X0265Y002D03*
Y006D03*
X02755Y01185D03*
X02736Y01235D03*
Y01287D03*
Y01341D03*
Y01395D03*
X027Y01422D03*
Y01368D03*
Y01314D03*
Y0126D03*
X0261Y0169D03*
X02575Y01725D03*
X026Y01785D03*
X02635Y0175D03*
X0275Y02D03*
X0284Y0211D03*
X0289Y02155D03*
X0286Y02185D03*
X0283Y02225D03*
X0265Y022D03*
X02725Y02345D03*
X0269Y02385D03*
X0309Y02275D03*
X0315Y02325D03*
X03185Y02255D03*
X03155Y0211D03*
X0315Y02D03*
X02955Y01985D03*
X0295Y016D03*
X03135Y0164D03*
X03195Y01645D03*
X03321Y01602D03*
X0355Y016D03*
X0375D03*
X03771Y0171D03*
Y01764D03*
X03807Y01737D03*
Y01683D03*
X0395Y016D03*
X03756Y02046D03*
X0372Y02022D03*
X03786Y02082D03*
X03816Y02115D03*
X03843Y02142D03*
X0385Y022D03*
X0357Y02208D03*
X0354Y02244D03*
X03503Y02269D03*
X0347Y02298D03*
X03505Y02335D03*
X0345Y02365D03*
X03465Y02525D03*
X03505D03*
X036Y0249D03*
X0363Y0246D03*
X0366Y0243D03*
X0369Y024D03*
X0375D03*
X03744Y02556D03*
Y02652D03*
X0366Y02688D03*
X0375Y028D03*
X0395D03*
X03905Y02585D03*
X03828Y02616D03*
X0385Y03D03*
X0345D03*
X0325D03*
X0305D03*
X0285D03*
X02605Y02975D03*
X0258Y02995D03*
X0295Y028D03*
X0315D03*
X0335D03*
X0355D03*
X03435Y0218D03*
X02475Y0201D03*
X02275D03*
X02235D03*
X02255Y02035D03*
X02215D03*
X02175Y0211D03*
X02335Y02105D03*
X0225Y022D03*
X02065Y0229D03*
X0198Y0232D03*
Y0238D03*
X01955Y02405D03*
X0193Y02355D03*
X01945Y02195D03*
X0196Y0209D03*
X01795Y02065D03*
X01735Y0209D03*
X01715Y01965D03*
Y0181D03*
X0165Y018D03*
X01665Y0185D03*
X01818Y01854D03*
Y01908D03*
Y01764D03*
Y0171D03*
X01746Y01665D03*
Y01611D03*
X01701Y01584D03*
Y01638D03*
X0195Y0166D03*
X0209Y0167D03*
Y01725D03*
Y01773D03*
X02137Y0175D03*
X0214Y017D03*
X02195Y0176D03*
X0227Y0167D03*
X02165Y0192D03*
X02045Y0197D03*
X01955Y0183D03*
X0155Y02D03*
X0154Y02065D03*
X0148Y0209D03*
X01422Y02169D03*
X01395Y02205D03*
X01341Y0225D03*
X01287Y02241D03*
X0125Y022D03*
X01161Y02205D03*
X01044Y02241D03*
X0104Y0209D03*
X011Y02065D03*
X0128Y0209D03*
X0134Y02065D03*
X0135Y02D03*
X0125Y018D03*
X0122Y0169D03*
X01055D03*
X0126Y0237D03*
X0125Y026D03*
X0138D03*
X0136Y0263D03*
X0131Y02875D03*
X01285Y029D03*
X01255Y02925D03*
X0139Y02985D03*
X0157D03*
X0133Y0311D03*
X01065Y031D03*
X0105Y03D03*
X01025Y02925D03*
X0105Y029D03*
X01025Y02875D03*
X0105Y0285D03*
Y026D03*
X0171Y02585D03*
X01735Y02535D03*
X01685D03*
X01805Y02545D03*
Y0259D03*
X01955Y0258D03*
X02D03*
X0198Y02545D03*
X02024Y02545D03*
X0209Y02555D03*
Y0262D03*
X0205Y026D03*
X0214Y02585D03*
X0193Y02545D03*
X01775Y0242D03*
X0173Y0239D03*
X01695Y024D03*
X0171Y0243D03*
X0166D03*
X01545Y02275D03*
X01539Y02241D03*
X01485D03*
X01755Y02255D03*
X01795D03*
X0235Y024D03*
X02509Y02395D03*
X02531Y02418D03*
X0192Y03045D03*
X009Y031D03*
X0085Y03D03*
X00635Y02995D03*
Y0305D03*
X00465Y03105D03*
X0045Y03D03*
X00375Y0299D03*
X0024Y02995D03*
X00205Y0289D03*
X0015Y028D03*
X0035D03*
X0055D03*
X0075D03*
X0095D03*
X0085Y026D03*
X0065D03*
X0045D03*
X0025D03*
X0005D03*
X0015Y024D03*
X0035D03*
X0055D03*
X0075D03*
X0095D03*
X00819Y02115D03*
Y02043D03*
Y01719D03*
Y01656D03*
X0075Y016D03*
X00985Y01655D03*
X00975Y0171D03*
Y0182D03*
X01005Y018D03*
X0062Y01785D03*
X00585Y0182D03*
X0062Y0191D03*
Y02205D03*
Y02265D03*
X00415Y0213D03*
Y02025D03*
X0035Y02D03*
X0015D03*
X0018Y01873D03*
X00185Y0174D03*
X0025Y018D03*
X0036Y01735D03*
X00185Y0161D03*
X00068Y01693D03*
X0005Y018D03*
X00068Y01823D03*
X0005Y022D03*
X0025D03*
X00025Y03063D03*
X0015Y032D03*
X0023Y0314D03*
X00195Y0331D03*
X0025Y034D03*
X00465Y0339D03*
X00565Y03385D03*
X00665Y03405D03*
Y03435D03*
X00735Y03295D03*
Y03195D03*
X00565Y0316D03*
X0055Y036D03*
X00495Y0368D03*
X0045Y038D03*
X00295Y03915D03*
X0015Y04D03*
X0005Y042D03*
X0015Y044D03*
X0035D03*
X00295Y0432D03*
X0045Y042D03*
X0065Y04015D03*
X0068D03*
X00757Y03683D03*
X0075Y036D03*
X0101Y0351D03*
Y03475D03*
Y03445D03*
X0035Y036D03*
X0015D03*
X0005Y038D03*
Y046D03*
X0051D03*
X0065D03*
X0085D03*
X0087Y0463D03*
X00935D03*
X00965D03*
X00995D03*
Y0466D03*
Y046D03*
X0106Y04485D03*
X0109D03*
Y04455D03*
X0112D03*
X0115D03*
X0118D03*
Y04485D03*
X0115D03*
X0112D03*
X0125Y046D03*
Y0465D03*
X01365D03*
Y04615D03*
X0133D03*
Y0458D03*
X01365D03*
X0158Y0456D03*
X0162Y0457D03*
X0175Y0456D03*
X01745Y04445D03*
X01725Y04415D03*
X0177D03*
X0165Y0441D03*
X01535D03*
X01475Y04345D03*
X01455Y04255D03*
X015Y04215D03*
X01495Y04185D03*
Y0415D03*
X01515Y04115D03*
X0165Y0422D03*
X0172Y04275D03*
X0185Y042D03*
X02005Y0427D03*
X01965Y04335D03*
X0195Y044D03*
X0205Y04495D03*
X02105Y04445D03*
X02195Y0445D03*
Y04415D03*
Y04385D03*
Y0429D03*
Y04255D03*
X0221Y0418D03*
X02235Y04115D03*
X02285D03*
X02345D03*
X02315Y0406D03*
X02195Y04075D03*
X02075Y04135D03*
Y03935D03*
X0223Y03894D03*
X0238Y03955D03*
X02385Y0383D03*
X02515Y041D03*
X0249Y0426D03*
X02446D03*
Y04303D03*
X0249D03*
Y04346D03*
X02446D03*
X02403D03*
Y04303D03*
Y0426D03*
X0236D03*
Y04303D03*
Y04346D03*
Y0439D03*
X02403D03*
X02446D03*
X0249D03*
X02495Y0465D03*
X0239Y0463D03*
X02345Y04655D03*
X02335Y046D03*
X02295Y04605D03*
X0223D03*
X0226Y04555D03*
X02235Y0445D03*
X0212Y04536D03*
X0187Y03975D03*
X0185Y038D03*
X019Y0368D03*
X0178Y0362D03*
X0175Y036D03*
X01626Y03683D03*
X0165Y038D03*
X0153Y03545D03*
X0135Y036D03*
X01366Y03683D03*
X01106D03*
X0115Y036D03*
X01275Y0351D03*
Y0348D03*
Y0345D03*
Y0342D03*
X0115Y032D03*
X01105Y03215D03*
X01065Y03275D03*
X017Y0321D03*
X0173Y0316D03*
X0188Y03245D03*
X02349Y03222D03*
X02345Y03379D03*
X02535Y03315D03*
X0137Y04245D03*
X0125Y042D03*
X0121Y0423D03*
X0118D03*
X0115D03*
X0112D03*
X0109D03*
X0106D03*
X0105Y042D03*
X01015Y04205D03*
Y0417D03*
Y04135D03*
Y041D03*
Y04065D03*
Y0393D03*
X0265Y038D03*
X0285D03*
X0295Y04D03*
X0275D03*
X02805Y0416D03*
X02825Y0422D03*
X0287Y0434D03*
X02825Y0445D03*
X0264Y0447D03*
X0266Y0451D03*
X0265Y046D03*
X02655Y0465D03*
X0264Y04305D03*
X0266Y0428D03*
X0265Y042D03*
X03005Y0418D03*
X03065D03*
Y04125D03*
X03265Y04045D03*
X03325Y041D03*
X0346D03*
X0345Y042D03*
X03395Y04235D03*
X03335Y04395D03*
X03455Y044D03*
X0355D03*
X03565Y0445D03*
X0363Y04449D03*
X0363Y04575D03*
X0359Y0463D03*
X03735Y04615D03*
X0395Y044D03*
Y04D03*
X0375D03*
X0385Y038D03*
X0395Y036D03*
X0375D03*
X0355D03*
X0335D03*
X0315D03*
X0295D03*
X0305Y034D03*
X0325D03*
X0345D03*
X0355Y032D03*
X0375D03*
X0395D03*
X0385Y034D03*
X0335Y032D03*
X0315D03*
X0295D03*
X0285Y034D03*
X0325Y038D03*
X0345D03*
X03405Y04D03*
X03185Y04478D03*
X03045Y04515D03*
X0305Y0461D03*
X0318Y0471D03*
X0322Y04795D03*
X03249Y04824D03*
X03262Y04858D03*
X03263Y04889D03*
X03305Y04891D03*
X03297Y04866D03*
X03303Y04842D03*
X03338Y0483D03*
Y04795D03*
Y04759D03*
Y04866D03*
X0344Y04865D03*
X0355Y048D03*
X0375D03*
X0395D03*
X0385Y05D03*
X0365D03*
X0338Y0502D03*
X03316Y05027D03*
Y04991D03*
X03283Y04996D03*
Y05031D03*
Y05067D03*
Y05103D03*
Y05139D03*
Y05174D03*
Y0521D03*
Y05246D03*
Y05282D03*
X03316Y05277D03*
Y05241D03*
Y05205D03*
Y0517D03*
Y05134D03*
Y05098D03*
Y05062D03*
X0325Y05D03*
X0305D03*
X0304Y0496D03*
X0285Y05D03*
X0265D03*
X0261Y04765D03*
X0275Y048D03*
X0288Y0482D03*
X0289Y04755D03*
X03159Y04824D03*
X0315Y052D03*
X0335D03*
X0355D03*
X0375D03*
X0395D03*
X0295D03*
X0275D03*
X0285Y054D03*
X0265D03*
X0225D03*
X0215Y052D03*
X0195D03*
X0175D03*
X0155D03*
X01365Y0521D03*
Y0524D03*
X01335D03*
X01305D03*
Y0521D03*
X01335D03*
X0134Y05045D03*
X0137D03*
X0131D03*
X013Y05D03*
X012D03*
X011Y05035D03*
X01181Y04859D03*
X01225D03*
X01268D03*
Y04816D03*
X01225D03*
X01181D03*
X0135Y048D03*
X0155D03*
X0175D03*
X0195D03*
X0205Y05D03*
X0225D03*
X0223Y04875D03*
X0228Y0471D03*
X02345Y04725D03*
X02415Y0472D03*
X02515D03*
X0255Y048D03*
X0243Y0485D03*
Y04935D03*
X024Y0506D03*
X02374Y05061D03*
X02375Y05148D03*
X02402Y05147D03*
X0245Y05178D03*
X0249Y05145D03*
X0185Y05D03*
Y054D03*
X0166Y0544D03*
X0158D03*
X015D03*
X0145Y054D03*
Y05D03*
X02Y05595D03*
X0208D03*
X0085Y054D03*
X0065D03*
Y0537D03*
Y0534D03*
Y0531D03*
Y0528D03*
Y0525D03*
Y0522D03*
X0075Y052D03*
X0095D03*
Y048D03*
X0075D03*
X0072Y04855D03*
X0055Y048D03*
X0051Y04825D03*
X0035Y048D03*
X00295Y0473D03*
Y05135D03*
X0035Y052D03*
X00485Y0521D03*
Y0518D03*
Y0515D03*
Y0512D03*
Y0524D03*
Y0527D03*
Y053D03*
Y0533D03*
Y0536D03*
Y0539D03*
Y0542D03*
Y0545D03*
X0045Y054D03*
X0005D03*
Y05D03*
G54D9502*
X03259Y04524D03*
X03306D03*
X03353D03*
X034D03*
Y04571D03*
Y04618D03*
Y04665D03*
X03353D03*
Y04618D03*
Y04571D03*
X03306D03*
Y04618D03*
Y04665D03*
X03259D03*
Y04618D03*
Y04571D03*
G54D9503*
X02329Y05266D03*
X02361D03*
X02392D03*
X02424D03*
X02455D03*
X02487D03*
X02518D03*
X0255D03*
X02534Y05294D03*
X02503D03*
X02471D03*
X02408D03*
X02377D03*
X02345D03*
G54D9504*
X0049Y02056D03*
Y02103D03*
G54D9505*
X00187Y00137D03*
X0025Y00111D03*
X00312Y00137D03*
X00338Y002D03*
X00312Y00262D03*
X0025Y00288D03*
X00187Y00262D03*
X00161Y002D03*
X03651Y0021D03*
X03677Y00272D03*
X0374Y00298D03*
X03802Y00272D03*
X03828Y0021D03*
X03802Y00147D03*
X0374Y00121D03*
X03677Y00147D03*
X03682Y05367D03*
X03745Y05341D03*
X03807Y05367D03*
X03833Y0543D03*
X03807Y05492D03*
X03745Y05518D03*
X03682Y05492D03*
X03656Y0543D03*
X00338D03*
X00312Y05492D03*
X0025Y05518D03*
X00187Y05492D03*
X00161Y0543D03*
X00187Y05367D03*
X0025Y05341D03*
X00312Y05367D03*
G54D9506*
X01643Y00258D03*
X01721D03*
X018D03*
X01879D03*
X01958D03*
X02036D03*
G54D9507*
X02999Y0069D03*
X03099D03*
X03199D03*
X03299D03*
X03249Y0079D03*
X03149D03*
X03049D03*
X03349D03*
G54D9508*
X02913Y00247D03*
X03013D03*
X03335D03*
X03435D03*
G54D9509*
X0183Y03535D03*
X0193D03*
X0203D03*
X0213D03*
X0223D03*
X0233D03*
G54D9510*
X02869Y0056D03*
X03479D03*
G54D9511*
X0025Y002D03*
X0374Y0021D03*
X03745Y0543D03*
X0025D03*
G54D9512*
X00805Y05417D03*
G54D9513*
X00805Y0524D03*
G54D9514*
X02949Y0044D03*
X03399D03*
M02*