%FSTAX23Y23*%
%MOIN*%
%SFA1B1*%

%IPPOS*%
%ADD15C,0.003900*%
%ADD156C,0.003000*%
%LNpch_mainboard-1*%
%LPD*%
G54D15*
X03348Y04474D02*
D01*
D01*
G75*
G03X03356I00003J0D01*
G74*G01*
Y04476*
X03364D02*
Y04474D01*
D01*
D01*
G75*
G03X03372I00003J0D01*
G74*G01*
Y04476D01*
X0338D02*
Y04474D01*
D01*
D01*
G75*
G03X03387I00003J0D01*
G74*G01*
Y04476D01*
X03396D02*
Y04474D01*
D01*
D01*
G75*
G03X03403I00003J0D01*
G74*G01*
Y04476*
X03411D02*
Y04474D01*
D01*
D01*
G75*
G03X03419I00003J0D01*
G74*G01*
Y04476*
X03448D02*
Y04713D01*
X03211*
Y04476D01*
X03448*
Y04503D02*
X0345D01*
D01*
D01*
G75*
G03Y04511I-0J00003D01*
G74*G01*
X03448*
Y04519D02*
X0345D01*
D01*
D01*
G75*
G03Y04526I-0J00003D01*
G74*G01*
X03448*
Y04535D02*
X0345D01*
D01*
D01*
G75*
G03Y04542I-0J00003D01*
G74*G01*
X03448*
Y0455D02*
X0345D01*
D01*
D01*
G75*
G03Y04558I-0J00003D01*
G74*G01*
X03448*
Y04566D02*
X0345D01*
D01*
D01*
G75*
G03Y04574I-0J00003D01*
G74*G01*
X03448D01*
Y04582D02*
X0345D01*
D01*
D01*
G75*
G03Y04589I-0J00003D01*
G74*G01*
X03448*
Y04598D02*
X0345D01*
D01*
D01*
G75*
G03Y04605I-0J00003D01*
G74*G01*
X03448D01*
Y04613D02*
X0345D01*
D01*
D01*
G75*
G03Y04621I-0J00003D01*
G74*G01*
X03448*
Y04629D02*
X0345D01*
D01*
D01*
G75*
G03Y04637I-0J00003D01*
G74*G01*
X03448D01*
Y04645D02*
X0345D01*
D01*
D01*
G75*
G03Y04652I-0J00003D01*
G74*G01*
X03448D01*
Y04661D02*
X0345D01*
D01*
D01*
G75*
G03Y04668I-0J00003D01*
G74*G01*
X03448*
Y04676D02*
X0345D01*
D01*
D01*
G75*
G03Y04684I-0J00003D01*
G74*G01*
X03448*
X03421Y04713D02*
Y04715D01*
D01*
D01*
G75*
G03X03413I-00003J-0D01*
G74*G01*
Y04713*
X03405D02*
Y04715D01*
D01*
D01*
G75*
G03X03398I-00003J-0D01*
G74*G01*
Y04713*
X03389D02*
Y04715D01*
D01*
D01*
G75*
G03X03382I-00003J-0D01*
G74*G01*
Y04713*
X03374D02*
Y04715D01*
D01*
D01*
G75*
G03X03366I-00003J-0D01*
G74*G01*
Y04713*
X03358D02*
Y04715D01*
D01*
D01*
G75*
G03X0335I-00003J-0D01*
G74*G01*
Y04713*
X03342D02*
Y04715D01*
D01*
D01*
G75*
G03X03335I-00003J-0D01*
G74*G01*
Y04713*
X03326D02*
Y04715D01*
D01*
D01*
G75*
G03X03319I-00003J-0D01*
G74*G01*
Y04713*
X03311D02*
Y04715D01*
D01*
D01*
G75*
G03X03303I-00003J-0D01*
G74*G01*
Y04713*
X03295D02*
Y04715D01*
D01*
D01*
G75*
G03X03287I-00003J-0D01*
G74*G01*
Y04713*
X03279D02*
Y04715D01*
D01*
D01*
G75*
G03X03272I-00003J-0D01*
G74*G01*
Y04713*
X03263D02*
Y04715D01*
D01*
D01*
G75*
G03X03256I-00003J-0D01*
G74*G01*
Y04713*
X03248D02*
Y04715D01*
D01*
D01*
G75*
G03X0324I-00003J-0D01*
G74*G01*
Y04713*
X03211Y04686D02*
X03209D01*
D01*
D01*
G75*
G03Y04678I0J-00003D01*
G74*G01*
X03211*
Y0467D02*
X03209D01*
D01*
D01*
G75*
G03Y04663I0J-00003D01*
G74*G01*
X03211*
Y04654D02*
X03209D01*
D01*
D01*
G75*
G03Y04647I0J-00003D01*
G74*G01*
X03211*
Y04639D02*
X03209D01*
D01*
D01*
G75*
G03Y04631I0J-00003D01*
G74*G01*
X03211*
Y04623D02*
X03209D01*
D01*
D01*
G75*
G03Y04615I0J-00003D01*
G74*G01*
X03211D01*
Y04607D02*
X03209D01*
D01*
D01*
G75*
G03Y046I0J-00003D01*
G74*G01*
X03211*
Y04591D02*
X03209D01*
D01*
D01*
G75*
G03Y04584I0J-00003D01*
G74*G01*
X03211D01*
Y04576D02*
X03209D01*
D01*
D01*
G75*
G03Y04568I0J-00003D01*
G74*G01*
X03211*
Y0456D02*
X03209D01*
D01*
D01*
G75*
G03Y04552I0J-00003D01*
G74*G01*
X03211D01*
Y04544D02*
X03209D01*
D01*
D01*
G75*
G03Y04537I0J-00003D01*
G74*G01*
X03211D01*
Y04528D02*
X03209D01*
D01*
D01*
G75*
G03Y04521I0J-00003D01*
G74*G01*
X03211*
Y04513D02*
X03209D01*
D01*
D01*
G75*
G03Y04505I0J-00003D01*
G74*G01*
X03211*
X03238Y04476D02*
Y04474D01*
D01*
D01*
G75*
G03X03246I00003J0D01*
G74*G01*
Y04476*
X03254D02*
Y04474D01*
D01*
D01*
G75*
G03X03261I00003J0D01*
G74*G01*
Y04476*
X0327D02*
Y04474D01*
D01*
D01*
G75*
G03X03277I00003J0D01*
G74*G01*
Y04476*
X03285D02*
Y04474D01*
D01*
D01*
G75*
G03X03293I00003J0D01*
G74*G01*
Y04476*
X03301D02*
Y04474D01*
D01*
D01*
G75*
G03X03309I00003J0D01*
G74*G01*
Y04476D01*
X03317D02*
Y04474D01*
D01*
D01*
G75*
G03X03324I00003J0D01*
G74*G01*
Y04476*
X03333D02*
Y04474D01*
D01*
D01*
G75*
G03X0334I00003J0D01*
G74*G01*
Y04476D01*
X03348D02*
Y04474D01*
X03421Y04673D02*
D01*
D01*
G75*
G03X03396I-00012J0D01*
G74*G01*
D01*
G75*
G03X03421I00012J0D01*
G74*G01*
X03458Y05309D02*
Y05634D01*
X02975*
X03174Y05606D02*
X033D01*
Y05543*
X03174*
Y05606*
Y05594D02*
X03193D01*
Y05606*
Y05555D02*
X03174D01*
X03193D02*
Y05543D01*
X0328D02*
Y05555D01*
X033*
X0328Y05565D02*
Y05584D01*
X0326*
Y05565*
X0328*
X0328Y05594D02*
Y05606D01*
Y05594D02*
X033D01*
G54D156*
X03322Y04586D02*
X03324Y04583D01*
X03327*
X03329Y04586*
Y04593*
X03324*
X03322Y04591*
Y04586*
Y04601D02*
X03324Y04598D01*
X03337*
Y04608D02*
X03324D01*
X03322Y04606*
Y04601*
X03329Y04593D02*
X03334Y04588D01*
X03337Y04583*
X03234Y05571D02*
X03229Y05566D01*
X03224Y05571*
Y05581*
Y05573*
X03234*
Y05571D02*
Y05581D01*
X03219D02*
X03214D01*
X03216*
Y05566*
X03219Y05568*
M02*