%FSTAX23Y23*%
%MOIN*%
%SFA1B1*%

%IPPOS*%
%ADD16C,0.015700*%
%ADD17C,0.006000*%
%ADD23R,0.031500X0.031500*%
%ADD24R,0.021700X0.035400*%
%ADD30C,0.063000*%
%ADD37R,0.035400X0.021700*%
%ADD38R,0.031500X0.031500*%
%ADD133C,0.006600*%
%ADD136C,0.015000*%
%ADD138R,0.055000X0.055000*%
%ADD139C,0.055000*%
%ADD140C,0.060200*%
%ADD141C,0.096300*%
%ADD142C,0.128000*%
%ADD143C,0.051200*%
%ADD144R,0.051200X0.051200*%
%ADD145C,0.027600*%
%ADD146C,0.236200*%
%ADD147C,0.070900*%
%ADD148O,0.039400X0.063000*%
%ADD149C,0.025600*%
%ADD150R,0.063000X0.063000*%
%ADD151C,0.019700*%
%ADD152C,0.023600*%
%ADD153C,0.026000*%
%ADD154C,0.006000*%
%LNpch_mainboard-1*%
%LPD*%
G36*
X03971Y0254D02*
X03967Y02538D01*
X03966Y02538*
X0392Y02584*
Y02588*
X03918Y02594*
X03914Y02598*
X03908Y026*
X03901*
X03896Y02598*
X03891Y02594*
X03889Y02588*
Y02581*
X03891Y02576*
X03896Y02571*
X03901Y02569*
X03908*
X03909Y02569*
X0395Y02528*
Y02513*
X03945Y02511*
X03843Y02613*
Y02619*
X03841Y02625*
X03837Y02629*
X03831Y02631*
X03824*
X03819Y02629*
X03814Y02625*
X03812Y02619*
Y02612*
X03814Y02607*
X03819Y02602*
X03824Y026*
X0383*
X03932Y02498*
Y02483*
X03927Y02481*
X03759Y02649*
Y02655*
X03757Y02661*
X03753Y02665*
X03747Y02667*
X0374*
X03735Y02665*
X0373Y02661*
X03728Y02655*
Y02648*
X0373Y02643*
X03735Y02638*
X0374Y02636*
X03746*
X03914Y02468*
Y02453*
X03909Y02451*
X03675Y02685*
Y02691*
X03673Y02697*
X03669Y02701*
X03663Y02703*
X03656*
X03651Y02701*
X03646Y02697*
X03644Y02691*
Y02684*
X03646Y02679*
X03651Y02674*
X03656Y02672*
X03662*
X03896Y02438*
Y02423*
X03891Y02421*
X03759Y02553*
Y02559*
X03757Y02565*
X03753Y02569*
X03747Y02571*
X0374*
X03735Y02569*
X0373Y02565*
X03728Y02559*
Y02552*
X0373Y02547*
X03735Y02542*
X0374Y0254*
X03746*
X03878Y02408*
Y01983*
X03606Y01711*
X03604Y01712*
X03602Y01717*
X03849Y01964*
X03851Y01967*
X03852Y01971*
Y02128*
X03856Y02133*
X03858Y02138*
Y02145*
X03856Y02151*
X03852Y02155*
X03846Y02157*
X03839*
X03834Y02155*
X03829Y02151*
X03827Y02145*
Y02138*
X03829Y02133*
X03832Y0213*
X03831Y02128*
X03827Y02126*
X03826Y02127*
X03825Y02128*
X03819Y0213*
X03812*
X03807Y02128*
X03802Y02124*
X038Y02118*
Y02111*
X03802Y02106*
X03806Y02101*
Y02085*
X03801*
X03799Y02091*
X03795Y02095*
X03789Y02097*
X03782*
X03777Y02095*
X03772Y02091*
X0377Y02085*
Y02078*
X03772Y02073*
X03776Y02068*
Y02049*
X03771*
X03769Y02055*
X03765Y02059*
X03759Y02061*
X03752*
X03747Y02059*
X03742Y02055*
X0374Y02049*
Y02042*
X03742Y02037*
X03746Y02032*
Y01995*
X03533Y01782*
X03526*
X03524Y01786*
X03726Y01988*
X03728Y01991*
X03729Y01995*
Y02008*
X03733Y02013*
X03735Y02018*
Y02025*
X03733Y02031*
X03729Y02035*
X03723Y02037*
X03716*
X03711Y02035*
X03706Y02031*
X03704Y02025*
X03699*
Y02386*
X03703Y02391*
X03705Y02396*
Y02403*
X03703Y02409*
X03699Y02413*
X03693Y02415*
X03686*
X03681Y02413*
X03676Y02409*
X03674Y02403*
X03669*
Y02416*
X03673Y02421*
X03675Y02426*
Y02433*
X03673Y02439*
X03669Y02443*
X03663Y02445*
X03656*
X03651Y02443*
X03646Y02439*
X03644Y02433*
X03639*
Y02446*
X03643Y02451*
X03645Y02456*
Y02463*
X03643Y02469*
X03639Y02473*
X03633Y02475*
X03626*
X03621Y02473*
X03616Y02469*
X03614Y02463*
X03609*
Y02476*
X03613Y02481*
X03615Y02486*
Y02493*
X03613Y02499*
X03609Y02503*
X03603Y02505*
X03596*
X03591Y02503*
X03586Y02499*
X03584Y02493*
Y02486*
X03586Y02481*
X0359Y02476*
Y02402*
Y02329*
Y02211*
X03585*
X03583Y02217*
X03579Y02221*
X03573Y02223*
X03566*
X03561Y02221*
X03556Y02217*
X03554Y02211*
X03549*
Y0223*
X03553Y02235*
X03555Y0224*
Y02247*
X03553Y02253*
X03549Y02257*
X03543Y02259*
X03536*
X03531Y02257*
X03526Y02253*
X03524Y02247*
Y0224*
X03526Y02235*
X0353Y0223*
Y02031*
X03408Y01909*
X03406Y0191*
X03404Y01915*
X0351Y02021*
X03512Y02024*
X03513Y02028*
Y02257*
X03516Y0226*
X03519Y02266*
Y02272*
X03516Y02278*
X03512Y02283*
X03506Y02285*
X035*
X03494Y02283*
X03489Y02278*
X03487Y02272*
Y02266*
X03489Y0226*
X03494Y02256*
X03494Y02256*
Y02031*
X0339Y01927*
X03388Y01928*
X03386Y01933*
X03415Y01962*
X03441Y01988*
X03476Y02023*
X03478Y02026*
X03479Y0203*
Y02285*
X03483Y02289*
X03485Y02295*
Y02302*
X03483Y02307*
X03479Y02312*
X03473Y02314*
X03466*
X03461Y02312*
X03456Y02307*
X03454Y02302*
Y02295*
X03456Y02289*
X0346Y02285*
Y02033*
X03428Y02001*
X03402Y01975*
X03371Y01944*
X02598*
X02564Y01978*
Y02395*
X02563Y02398*
X02561Y02401*
X02547Y02415*
Y02421*
X02545Y02427*
X0254Y02431*
X02535Y02434*
X02528*
X02522Y02431*
X02518Y02427*
X02516Y02421*
Y02415*
X02514Y02413*
X02512Y02411*
X02506*
X025Y02409*
X02495Y02404*
X02493Y02398*
Y02392*
X02495Y02386*
X025Y02382*
X02506Y02379*
X02512*
X02525Y02366*
Y01965*
X02526Y01961*
X02528Y01958*
X02573Y01913*
X02571Y01908*
X02385*
X02381Y01907*
X02378Y01905*
X02182Y01709*
X02153*
X02149Y01713*
X02143Y01715*
X02136*
X02131Y01713*
X02126Y01709*
X02124Y01703*
Y01696*
X02126Y01691*
X02131Y01686*
X02136Y01684*
Y01679*
X02103*
X02099Y01683*
X02093Y01685*
X02086*
X02081Y01683*
X02076Y01679*
X02074Y01673*
Y01666*
X02076Y01661*
X02081Y01656*
X02086Y01654*
X02093*
X02099Y01656*
X02103Y0166*
X02183*
X02186Y01661*
X02189Y01663*
X02397Y01871*
X02666*
X02668Y01866*
X0261Y01808*
X02602Y018*
X02596*
X02591Y01798*
X02586Y01794*
X02584Y01788*
Y01781*
X02586Y01776*
X02591Y01771*
X02596Y01769*
X02599*
X02601Y01764*
X02577Y0174*
X02571*
X02566Y01738*
X02561Y01734*
X02559Y01728*
Y01721*
X02561Y01716*
X02566Y01711*
X02571Y01709*
X02578*
X02584Y01711*
X02588Y01716*
X0259Y01721*
Y01727*
X02614Y01751*
X02619Y01749*
Y01746*
X02621Y01741*
X02626Y01736*
X02631Y01734*
X02634*
X02636Y01729*
X02613Y01705*
X02606*
X02601Y01703*
X02596Y01699*
X02594Y01693*
Y01686*
X02596Y01681*
X02601Y01676*
X02606Y01674*
X02613*
X02619Y01676*
X02623Y01681*
X02625Y01686*
Y01692*
X02732Y01799*
X02745*
X02747Y01794*
X02746Y01794*
X02599Y01647*
X01776*
X01761Y01662*
Y01668*
X01759Y01674*
X01755Y01677*
X01756Y01681*
X01757Y01682*
X01764*
Y01698*
X01748*
Y01685*
Y01682*
X01744Y0168*
X01742Y01681*
X01739Y01685*
Y01698*
X01724*
Y01682*
X01734*
X01735Y01681*
X01736Y01677*
X01732Y01674*
X0173Y01668*
Y01661*
X01732Y01656*
X01736Y01652*
X01735Y01649*
X01734Y01647*
X01714*
X0171Y01651*
X01704Y01653*
X01697*
X01692Y01651*
X01687Y01647*
X01685Y01641*
Y01634*
X01687Y01629*
X01692Y01624*
X01697Y01622*
X01704*
X0171Y01624*
X01714Y01628*
X01734*
X01735Y01626*
X01736Y01623*
X01732Y0162*
X0173Y01614*
Y01607*
X01732Y01602*
X01736Y01598*
X01735Y01595*
X01734Y01593*
X01714*
X01714Y01593*
X0171Y01598*
X01704Y016*
X01697*
X01692Y01598*
X01687Y01593*
X01685Y01588*
Y01581*
X01687Y01575*
X01692Y01571*
X01697Y01569*
X01704*
X0171Y01571*
X01713Y01574*
X01734*
X01735Y01572*
X01736Y01569*
X01732Y01566*
X0173Y0156*
Y01553*
X01732Y01548*
X01736Y01544*
X01735Y01541*
X01734Y01539*
X01714*
X0171Y01543*
X01704Y01545*
X01697*
X01692Y01543*
X01687Y01539*
X01685Y01533*
Y01526*
X01687Y01521*
X01692Y01516*
X01697Y01514*
X01704*
X0171Y01516*
X01714Y0152*
X01951*
X01951Y01516*
X01945Y01513*
X01941Y01509*
X01939Y01503*
Y01497*
X01941Y01491*
X01945Y01486*
X01951Y01484*
X01958*
X01963Y01486*
X01968Y01491*
X0197Y01497*
Y01503*
X01968Y01509*
X01963Y01513*
X01958Y01516*
X01958Y0152*
X01991*
Y01515*
X01986Y01513*
X01981Y01509*
X01979Y01503*
Y01496*
X01981Y01491*
X01986Y01486*
X01991Y01484*
X01998*
X02004Y01486*
X02008Y01491*
X0201Y01496*
Y01503*
X02008Y01509*
X02004Y01513*
X01998Y01515*
Y0152*
X02628*
X02631Y01521*
X02634Y01523*
X02802Y01691*
X03609*
X03612Y01692*
X03615Y01694*
X03891Y0197*
X03896Y01968*
Y01911*
X03896Y01911*
X03895Y01903*
X0389Y01896*
X0389Y01896*
X03773Y01779*
X03767*
X03762Y01777*
X03757Y01773*
X03755Y01767*
Y0176*
X03757Y01755*
X03762Y0175*
X03767Y01748*
X03774*
X0378Y0175*
X03784Y01755*
X03786Y0176*
Y01766*
X03903Y01883*
X03903Y01883*
X03906Y01887*
X03909Y01891*
X0391*
X03914Y0189*
Y01866*
X03914Y01866*
X03913Y01858*
X03908Y01851*
X03908Y01851*
X03809Y01752*
X03803*
X03798Y0175*
X03793Y01746*
X03791Y0174*
Y01733*
X03793Y01728*
X03797Y01724*
X03796Y01721*
X03795Y01719*
X03784*
X0378Y01723*
X03774Y01725*
X03767*
X03762Y01723*
X03757Y01719*
X03755Y01713*
Y01706*
X03757Y01701*
X03762Y01696*
X03767Y01694*
X03774*
X0378Y01696*
X03784Y017*
X03795*
X03796Y01698*
X03797Y01695*
X03793Y01692*
X03791Y01686*
Y01679*
X03793Y01674*
X03798Y01669*
X03803Y01667*
X0381*
X03816Y01669*
X0382Y01673*
X03831Y01675*
X03844Y01679*
X03856Y01685*
X03867Y01694*
X03867Y01694*
X03953Y0178*
X03954Y0178*
X03962Y01791*
X03966Y01801*
X03971Y018*
Y00008*
X03635*
Y00135*
X03639Y00136*
X03645Y00129*
X03659Y00115*
X03675Y00103*
X03692Y00095*
X0371Y00088*
X0373Y00085*
X03749*
X03769Y00088*
X03787Y00095*
X03805Y00103*
X0382Y00115*
X03834Y00129*
X03846Y00145*
X03855Y00162*
X03861Y0018*
X03864Y002*
Y00219*
X03861Y00239*
X03855Y00257*
X03846Y00275*
X03834Y0029*
X0382Y00304*
X03805Y00316*
X03787Y00325*
X03769Y00331*
X03749Y00334*
X0373*
X0371Y00331*
X03692Y00325*
X03675Y00316*
X03659Y00304*
X03645Y0029*
X03639Y00283*
X03635Y00284*
Y00905*
X03401*
X03365Y0094*
Y01079*
X0337Y0108*
X0337Y0108*
X03375Y01075*
X0338Y01073*
X03387*
X03393Y01075*
X03397Y0108*
X03399Y01085*
Y01092*
X03397Y01098*
X03393Y01102*
X03387Y01104*
X0338*
X03375Y01102*
X0337Y01098*
X0337Y01097*
X03365Y01098*
Y01133*
X0337Y01134*
X0337Y01134*
X03375Y01129*
X0338Y01127*
X03387*
X03393Y01129*
X03397Y01134*
X03399Y01139*
Y01146*
X03397Y01152*
X03393Y01156*
X03387Y01158*
X0338*
X03375Y01156*
X0337Y01152*
X0337Y01151*
X03365Y01152*
Y01197*
X03364Y01201*
X03362Y01204*
X03348Y01218*
Y01231*
X03352Y01236*
X03354Y01242*
Y01248*
X03352Y01254*
X03348Y01258*
X03342Y01261*
X03335*
X0333Y01258*
X03325Y01254*
X03323Y01248*
Y01242*
X03325Y01236*
X03329Y01231*
Y01217*
X03324Y01215*
X03312Y01227*
Y01246*
X03316Y01251*
X03318Y01256*
Y01263*
X03316Y01269*
X03312Y01273*
X03306Y01275*
X03299*
X03294Y01273*
X03289Y01269*
X03287Y01263*
Y01256*
X03289Y01251*
X03293Y01246*
Y01224*
X03294Y0122*
X03296Y01217*
X03329Y01184*
Y00927*
X0333Y00923*
X03332Y0092*
X03343Y00909*
X03341Y00905*
X0275*
Y00008*
X00008*
Y05626*
X02975*
Y05309*
X03275*
X03276Y05306*
X0328Y05304*
X03291*
Y04963*
X03289Y0496*
Y0494*
X03291Y04936*
X03295Y04935*
X03304*
X03308Y04936*
X0331Y0494*
Y0496*
X03308Y04963*
Y05304*
X03319*
X03323Y05306*
X03324Y05309*
X03458*
Y05626*
X03971*
Y0254*
G37*
%LNpch_mainboard-2*%
%LPC*%
G36*
X02618Y05538D02*
Y05508D01*
X02638*
Y0551*
X02637Y05517*
X02634Y05525*
X02629Y05531*
X02623Y05536*
X02618Y05538*
G37*
G36*
X02281D02*
Y05508D01*
X02301*
Y0551*
X023Y05517*
X02297Y05525*
X02293Y05531*
X02286Y05536*
X02281Y05538*
G37*
G36*
X02598D02*
X02593Y05536D01*
X02586Y05531*
X02582Y05525*
X02579Y05517*
X02578Y0551*
Y05508*
X02598*
Y05538*
G37*
G36*
X02261D02*
X02256Y05536D01*
X0225Y05531*
X02246Y05525*
X02243Y05517*
X02241Y0551*
Y05508*
X02261*
Y05538*
G37*
G36*
X02638Y05488D02*
X02618D01*
Y05458*
X02623Y0546*
X02629Y05465*
X02634Y05471*
X02637Y05478*
X02638Y05486*
Y05488*
G37*
G36*
X02301D02*
X02281D01*
Y05458*
X02286Y0546*
X02293Y05465*
X02297Y05471*
X023Y05478*
X02301Y05486*
Y05488*
G37*
G36*
X02598D02*
X02578D01*
Y05486*
X02579Y05478*
X02582Y05471*
X02586Y05465*
X02593Y0546*
X02598Y05458*
Y05488*
G37*
G36*
X02261D02*
X02241D01*
Y05486*
X02243Y05478*
X02246Y05471*
X0225Y05465*
X02256Y0546*
X02261Y05458*
Y05488*
G37*
G36*
X01663Y05455D02*
X01656D01*
X01651Y05453*
X01646Y05449*
X01644Y05443*
Y05436*
X01646Y05431*
Y05416*
X01636*
Y05383*
X01683*
Y05416*
X01673*
Y05431*
X01675Y05436*
Y05443*
X01673Y05449*
X01669Y05453*
X01663Y05455*
G37*
G36*
X01583D02*
X01576D01*
X01571Y05453*
X01566Y05449*
X01564Y05443*
Y05436*
X01566Y05431*
Y05416*
X01556*
Y05383*
X01603*
Y05416*
X01593*
Y05431*
X01595Y05436*
Y05443*
X01593Y05449*
X01589Y05453*
X01583Y05455*
G37*
G36*
X01503D02*
X01496D01*
X01491Y05453*
X01486Y05449*
X01484Y05443*
Y05436*
X01486Y05431*
Y05416*
X01476*
Y05383*
X01523*
Y05416*
X01513*
Y05431*
X01515Y05436*
Y05443*
X01513Y05449*
X01509Y05453*
X01503Y05455*
G37*
G36*
X00809Y05454D02*
X008D01*
X0079Y05452*
X00782Y05447*
X00775Y0544*
X0077Y05431*
X00767Y05422*
Y05412*
X0077Y05402*
X00775Y05394*
X00782Y05387*
X0079Y05382*
X008Y05379*
X00809*
X00819Y05382*
X00828Y05387*
X00835Y05394*
X00839Y05402*
X00842Y05412*
Y05422*
X00839Y05431*
X00835Y0544*
X00828Y05447*
X00819Y05452*
X00809Y05454*
G37*
G36*
X02618Y05351D02*
Y05322D01*
X02638*
Y05323*
X02637Y05331*
X02634Y05338*
X02629Y05345*
X02623Y05349*
X02618Y05351*
G37*
G36*
X02598D02*
X02593Y05349D01*
X02586Y05345*
X02582Y05338*
X02579Y05331*
X02578Y05323*
Y05322*
X02598*
Y05351*
G37*
G36*
X02261D02*
X02256Y05349D01*
X0225Y05345*
X02246Y05338*
X02243Y05331*
X02241Y05323*
Y05322*
X02261*
Y05351*
G37*
G36*
X03754Y05554D02*
X03735D01*
X03715Y05551*
X03697Y05545*
X0368Y05536*
X03664Y05524*
X0365Y0551*
X03638Y05495*
X0363Y05477*
X03623Y05459*
X0362Y05439*
Y0542*
X03623Y054*
X0363Y05382*
X03638Y05365*
X0365Y05349*
X03664Y05335*
X0368Y05323*
X03697Y05315*
X03715Y05308*
X03735Y05305*
X03754*
X03774Y05308*
X03792Y05315*
X0381Y05323*
X03825Y05335*
X03839Y05349*
X03851Y05365*
X0386Y05382*
X03866Y054*
X03869Y0542*
Y05439*
X03866Y05459*
X0386Y05477*
X03851Y05495*
X03839Y0551*
X03825Y05524*
X0381Y05536*
X03792Y05545*
X03774Y05551*
X03754Y05554*
G37*
G36*
X00259D02*
X0024D01*
X0022Y05551*
X00202Y05545*
X00185Y05536*
X00169Y05524*
X00155Y0551*
X00143Y05495*
X00135Y05477*
X00128Y05459*
X00125Y05439*
Y0542*
X00128Y054*
X00135Y05382*
X00143Y05365*
X00155Y05349*
X00169Y05335*
X00185Y05323*
X00202Y05315*
X0022Y05308*
X0024Y05305*
X00259*
X00279Y05308*
X00297Y05315*
X00315Y05323*
X0033Y05335*
X00344Y05349*
X00356Y05365*
X00365Y05382*
X00371Y054*
X00374Y0542*
Y05439*
X00371Y05459*
X00365Y05477*
X00356Y05495*
X00344Y0551*
X0033Y05524*
X00315Y05536*
X00297Y05545*
X00279Y05551*
X00259Y05554*
G37*
G36*
X02638Y05302D02*
X02618D01*
Y05272*
X02623Y05274*
X02629Y05279*
X02634Y05285*
X02637Y05292*
X02638Y053*
Y05302*
G37*
G36*
X02598D02*
X02578D01*
Y053*
X02579Y05292*
X02582Y05285*
X02586Y05279*
X02593Y05274*
X02598Y05272*
Y05302*
G37*
G36*
X02261D02*
X02241D01*
Y053*
X02243Y05292*
X02246Y05285*
X0225Y05279*
X02256Y05274*
X02261Y05272*
Y05302*
G37*
G36*
X0257Y05256D02*
X0256D01*
Y05246*
X02563Y05247*
X02569Y05253*
X0257Y05256*
G37*
G36*
X0081Y05281D02*
X00799D01*
X00789Y05278*
X00779Y05273*
X00771Y05265*
X00766Y05256*
X00763Y05245*
Y05234*
X00766Y05224*
X00771Y05214*
X00779Y05206*
X00789Y05201*
X00799Y05198*
X0081*
X00821Y05201*
X0083Y05206*
X00838Y05214*
X00843Y05224*
X00846Y05234*
Y05245*
X00843Y05256*
X00838Y05265*
X0083Y05273*
X00821Y05278*
X0081Y05281*
G37*
G36*
X02378Y05163D02*
X02372D01*
X02366Y05161*
X02361Y05157*
X02359Y05151*
Y05144*
X02361Y05139*
X02366Y05134*
X02372Y05132*
X02378*
X02384Y05134*
X02388Y05138*
X02388*
X02393Y05134*
X02399Y05132*
X02405*
X02411Y05134*
X02415Y05138*
X02418Y05144*
Y05151*
X02415Y05156*
X02411Y05161*
X02405Y05163*
X02399*
X02393Y05161*
X02388Y05156*
X02388Y05157*
X02384Y05161*
X02378Y05163*
G37*
G36*
X02493Y0516D02*
X02486D01*
X02481Y05158*
X02476Y05154*
X02474Y05148*
Y05141*
X02476Y05136*
X02481Y05131*
X02486Y05129*
X02493*
X02499Y05131*
X02503Y05136*
X02505Y05141*
Y05148*
X02503Y05154*
X02499Y05158*
X02493Y0516*
G37*
G36*
X00298Y0515D02*
X00291D01*
X00286Y05148*
X00281Y05144*
X00279Y05138*
Y05131*
X00281Y05126*
X00286Y05121*
X00291Y05119*
X00298*
X00304Y05121*
X00308Y05126*
X0031Y05131*
Y05138*
X00308Y05144*
X00304Y05148*
X00298Y0515*
G37*
G36*
X02377Y05077D02*
X02371D01*
X02365Y05074*
X02361Y0507*
X02359Y05064*
Y05058*
X02361Y05052*
X02365Y05047*
X02371Y05045*
X02377*
X02383Y05047*
X02386Y0505*
X02391Y05046*
X02396Y05044*
X02403*
X02409Y05046*
X02413Y05051*
X02415Y05056*
Y05063*
X02413Y05069*
X02409Y05073*
X02403Y05075*
X02396*
X02391Y05073*
X02388Y0507*
X02383Y05074*
X02377Y05077*
G37*
G36*
X01303Y05015D02*
X01296D01*
X01291Y05013*
X01286Y05009*
X01213*
X01209Y05013*
X01203Y05015*
X01196*
X01191Y05013*
X01186Y05009*
X01184Y05003*
Y04996*
X01186Y04991*
X01191Y04986*
X01196Y04984*
X01203*
X01209Y04986*
X01213Y0499*
X01286*
X01291Y04986*
X01296Y04984*
X01303*
X01309Y04986*
X01313Y04991*
X01315Y04996*
Y05003*
X01313Y05009*
X01309Y05013*
X01303Y05015*
G37*
G36*
X03383Y05035D02*
X03376D01*
X03371Y05033*
X03366Y05029*
X03364Y05023*
Y05016*
X03366Y05011*
X03371Y05006*
X03376Y05004*
X03383*
X03389Y05006*
X03393Y05011*
X03395Y05016*
Y05023*
X03393Y05029*
X03389Y05033*
X03383Y05035*
G37*
G36*
X03324Y0493D02*
X03314D01*
X03311Y04928*
X03309Y04924*
Y04905*
X03311Y04901*
X03313Y049*
Y0486*
X03308Y04856*
X03306Y04857*
X03299*
X03294Y04855*
X03289Y04857*
Y04901*
X0329Y04905*
Y04924*
X03288Y04928*
X03285Y0493*
X03275*
X03271Y04928*
X0327Y04924*
Y04905*
X03271Y04901*
Y0485*
X03266*
X03262Y04849*
X03259Y04847*
X03251Y04839*
X03245*
X0324Y04837*
X03235Y04833*
X03172*
X03168Y04837*
X03162Y04839*
X03155*
X0315Y04837*
X03145Y04833*
X03143Y04827*
Y0482*
X03145Y04815*
X0315Y0481*
X03155Y04808*
X03162*
X03168Y0481*
X03172Y04814*
X03235*
X0324Y0481*
X03245Y04808*
X03252*
X03258Y0481*
X03262Y04815*
X03264Y0482*
Y04823*
X03266Y04825*
X03271Y04822*
Y04822*
X03271Y04821*
Y0482*
X03273Y04817*
X03273Y04816*
X03274Y04815*
X03281Y04808*
Y04725*
X03281Y04724*
Y04723*
X03281Y04723*
Y04703*
X03281Y04702*
Y04701*
X03282Y04698*
X03285Y04695*
X03288Y04694*
X03292*
X03295Y04695*
X03298Y04698*
X03299Y04701*
Y04702*
X033Y04703*
Y04723*
X03299Y04723*
Y04724*
X03299Y04725*
Y04811*
X03299Y04812*
Y04813*
X03298Y04816*
X03297Y04816*
X03296Y04817*
X03292Y04822*
X03292Y04823*
X03298Y04826*
X03299Y04826*
X03306*
X03308Y04827*
X03313Y04823*
Y04725*
X03313Y04724*
Y04723*
X03312Y04723*
Y04703*
X03313Y04702*
Y04701*
X03314Y04698*
X03317Y04695*
X0332Y04694*
X03324*
X03327Y04695*
X03329Y04698*
X03331Y04701*
Y04702*
X03331Y04703*
Y04723*
X03331Y04723*
Y04724*
X0333Y04725*
Y04907*
X0333Y04908*
Y04909*
X03329Y04911*
Y04924*
X03328Y04928*
X03324Y0493*
G37*
G36*
X02433Y0495D02*
X02426D01*
X02421Y04948*
X02416Y04944*
X02414Y04938*
Y04931*
X02416Y04926*
X0242Y04921*
Y04863*
X02416Y04859*
X02414Y04853*
Y04846*
X02416Y04841*
X02421Y04836*
X02426Y04834*
X02433*
X02439Y04836*
X02443Y04841*
X02445Y04846*
Y04853*
X02443Y04859*
X02439Y04863*
Y04921*
X02443Y04926*
X02445Y04931*
Y04938*
X02443Y04944*
X02439Y04948*
X02433Y0495*
G37*
G36*
X02893Y0477D02*
X02886D01*
X02881Y04768*
X02876Y04764*
X02874Y04758*
Y04751*
X02876Y04746*
X02881Y04741*
X02886Y04739*
X02893*
X02899Y04741*
X02903Y04746*
X02905Y04751*
Y04758*
X02903Y04764*
X02899Y04768*
X02893Y0477*
G37*
G36*
X00298Y04745D02*
X00291D01*
X00286Y04743*
X00281Y04739*
X00279Y04733*
Y04726*
X00281Y04721*
X00286Y04716*
X00291Y04714*
X00298*
X00304Y04716*
X00308Y04721*
X0031Y04726*
Y04733*
X00308Y04739*
X00304Y04743*
X00298Y04745*
G37*
G36*
X02283Y04725D02*
X02276D01*
X02271Y04723*
X02266Y04719*
X02264Y04713*
Y04706*
X02266Y04701*
X02271Y04696*
X02276Y04694*
X02283*
X02289Y04696*
X02293Y04701*
X02295Y04706*
Y04713*
X02293Y04719*
X02289Y04723*
X02283Y04725*
G37*
G36*
X02348Y04741D02*
X02341D01*
X02336Y04738*
X02331Y04734*
X02329Y04728*
Y04722*
X02331Y04716*
X02335Y04712*
Y04668*
X02331Y04664*
X02329Y04658*
Y04651*
X02331Y04646*
X02336Y04641*
X02341Y04639*
X02348*
X02354Y04641*
X02358Y04646*
X0236Y04651*
Y04658*
X02358Y04664*
X02354Y04668*
Y04712*
X02358Y04716*
X0236Y04722*
Y04728*
X02358Y04734*
X02354Y04738*
X02348Y04741*
G37*
G36*
X02658Y04665D02*
X02651D01*
X02646Y04663*
X02641Y04659*
X02639Y04653*
Y04646*
X02641Y04641*
X02646Y04636*
X02651Y04634*
X02658*
X02664Y04636*
X02668Y04641*
X0267Y04646*
Y04653*
X02668Y04659*
X02664Y04663*
X02658Y04665*
G37*
G36*
X03593Y04645D02*
X03586D01*
X03581Y04643*
X03576Y04639*
X03535*
X03531Y04638*
X03528Y04636*
X03508Y04616*
X03506Y04613*
X03505Y0461*
Y04403*
X03486Y04384*
X03468*
X03466Y04389*
X03468Y04391*
X0347Y04396*
Y04403*
X03468Y04409*
X03464Y04413*
X03458Y04415*
X03451*
X03446Y04413*
X03441Y04409*
X03439Y04403*
Y04396*
X03441Y04391*
X03443Y04389*
X03441Y04384*
X03353*
X03349Y04389*
X0335Y04391*
Y04398*
X03348Y04404*
X03344Y04408*
X03338Y0441*
X03331*
X03326Y04408*
X03321Y04404*
X02605*
X02601Y04403*
X02598Y04401*
X02573Y04376*
X02571Y04373*
X0257Y0437*
Y03008*
X02566Y03004*
X02564Y02998*
Y02991*
X02566Y02986*
X02571Y02981*
X02576Y02979*
X02583*
X02584Y02979*
X02585Y02979*
X02589Y02976*
Y02971*
X02591Y02966*
X02596Y02961*
X02601Y02959*
X02608*
X02614Y02961*
X02618Y02966*
X0262Y02971*
Y02978*
X02618Y02984*
X02614Y02988*
Y04351*
X02628Y04365*
X0349*
X03493Y04366*
X03496Y04368*
X03521Y04393*
X03523Y04396*
X03524Y044*
Y04606*
X03538Y0462*
X03576*
X03581Y04616*
X03586Y04614*
X03593*
X03599Y04616*
X03603Y04621*
X03605Y04626*
Y04633*
X03603Y04639*
X03599Y04643*
X03593Y04645*
G37*
G36*
X03738Y0463D02*
X03731D01*
X03726Y04628*
X03721Y04624*
X03719Y04618*
Y04611*
X03721Y04606*
X03726Y04601*
X03731Y04599*
X03738*
X03744Y04601*
X03748Y04606*
X0375Y04611*
Y04618*
X03748Y04624*
X03744Y04628*
X03738Y0463*
G37*
G36*
X03053Y04625D02*
X03046D01*
X03041Y04623*
X03036Y04619*
X03034Y04613*
Y04606*
X03036Y04601*
X03041Y04596*
X03046Y04594*
X03053*
X03059Y04596*
X03063Y04601*
X03065Y04606*
Y04613*
X03063Y04619*
X03059Y04623*
X03053Y04625*
G37*
G36*
X02083Y0561D02*
X02076D01*
X02071Y05608*
X02066Y05604*
X02064Y05598*
Y05591*
X02066Y05586*
X0207Y05581*
Y04615*
X02071Y04611*
X02073Y04608*
X02108Y04573*
X02111Y04571*
X02115Y0457*
X02242*
X02244Y04565*
X02243Y04564*
X02073*
X02009Y04628*
Y05581*
X02013Y05586*
X02015Y05591*
Y05598*
X02013Y05604*
X02009Y05608*
X02003Y0561*
X01996*
X01991Y05608*
X01986Y05604*
X01984Y05598*
Y05591*
X01986Y05586*
X0199Y05581*
Y04625*
X01991Y04621*
X01993Y04618*
X02063Y04548*
X02066Y04546*
X0207Y04545*
X02246*
X02251Y04541*
X02256Y04539*
X02263*
X02269Y04541*
X02273Y04546*
X02275Y04551*
Y04558*
X02273Y04564*
X02271Y04565*
X02273Y0457*
X02601*
X0263Y04541*
Y04483*
X02626Y04479*
X02624Y04473*
Y04466*
X02626Y04461*
X02631Y04456*
X02636Y04454*
X02643*
X02649Y04456*
X02653Y04461*
X02655Y04466*
Y04473*
X02653Y04479*
X02649Y04483*
Y04545*
X02648Y04548*
X02646Y04551*
X02611Y04586*
X02608Y04588*
X02605Y04589*
X02489*
X02487Y04591*
X02487Y04594*
X02501Y04608*
X02503Y04611*
X02504Y04615*
Y04636*
X02508Y04641*
X0251Y04646*
Y04653*
X02508Y04659*
X02504Y04663*
X02498Y04665*
X02491*
X02486Y04663*
X02481Y04659*
X02479Y04653*
Y04646*
X02481Y04641*
X02485Y04636*
Y04618*
X02476Y04609*
X02393*
Y04614*
X02399Y04616*
X02403Y04621*
X02405Y04626*
Y04633*
X02403Y04639*
X02399Y04643*
Y04707*
X02404Y04709*
X02406Y04707*
X02411Y04705*
X02418*
X02424Y04707*
X02428Y04711*
X02501*
X02506Y04707*
X02511Y04705*
X02518*
X02524Y04707*
X02528Y04711*
X0253Y04717*
Y04724*
X02528Y04729*
X02524Y04734*
X02518Y04736*
X02511*
X02506Y04734*
X02501Y0473*
X02428*
X02424Y04734*
X02418Y04736*
X02411*
X02406Y04734*
X02404Y04732*
X02399Y04734*
Y04899*
X02398Y04902*
X02396Y04905*
X02309Y04993*
Y05248*
X02314Y0525*
X02316Y05247*
X02319Y05246*
Y05266*
X02339*
Y05246*
X02342Y05247*
X02345Y0525*
X02348Y05247*
X02351Y05246*
Y05266*
X02371*
Y05246*
X02374Y05247*
X02379Y05253*
X02382Y0525*
X02389Y05248*
X02396*
X02403Y0525*
X02408Y05256*
X02413Y0525*
X0242Y05248*
X02428*
X02429Y05248*
X02441Y05237*
Y05191*
X02436Y05187*
X02434Y05181*
Y05175*
X02436Y05169*
X02441Y05164*
X02447Y05162*
X02453*
X02459Y05164*
X02463Y05169*
X02466Y05175*
Y05181*
X02463Y05187*
X02459Y05191*
Y0524*
X02459Y05243*
X02459Y05245*
X02461Y05249*
X02466Y0525*
X02471Y05256*
X02476Y0525*
X02483Y05248*
X02491*
X02497Y0525*
X025Y05253*
X02505Y05247*
X02508Y05246*
Y05266*
X02528*
Y05246*
X02531Y05247*
X02534Y0525*
X02537Y05247*
X0254Y05246*
Y05266*
X0255*
Y05276*
X0257*
X02569Y05279*
X02563Y05286*
X02554Y05289*
X02554*
X02553Y0529*
Y05298*
X0255Y05305*
X02545Y0531*
X02538Y05313*
X0253*
X02523Y0531*
X02518Y05305*
X02513Y0531*
X02506Y05313*
X02499*
X02492Y0531*
X02487Y05305*
X02482Y0531*
X02475Y05313*
X02467*
X0246Y0531*
X02455Y05305*
X02452Y05298*
Y0529*
X02453Y05288*
X02452Y05285*
X02445Y05282*
X0244Y05277*
X02434Y05282*
X02428Y05285*
X02426Y05288*
X02427Y0529*
Y05298*
X02424Y05305*
X02419Y0531*
X02417Y05311*
Y05316*
X02417Y0532*
X02415Y05323*
X02401Y05336*
X02398Y05338*
X02395Y05339*
X0234*
X02336Y05338*
X02333Y05336*
X02306Y05309*
X02301Y05311*
Y05323*
X023Y05331*
X02297Y05338*
X02293Y05345*
X02286Y05349*
X02281Y05351*
Y05312*
Y05272*
X02285Y05274*
X0229Y05271*
Y04989*
X02291Y04985*
X02293Y04982*
X0238Y04895*
Y04643*
X02376Y04639*
X02374Y04633*
Y04626*
X02376Y04621*
X02381Y04616*
X02386Y04614*
Y04609*
X02348*
X02344Y04613*
X02338Y04615*
X02331*
X02326Y04613*
X02321Y04609*
X02319Y04603*
Y04596*
X0232Y04594*
X02316Y04589*
X02308*
X02306Y04594*
X02308Y04596*
X0231Y04602*
Y04608*
X02308Y04614*
X02304Y04618*
X02298Y04621*
X02291*
X02286Y04618*
X02281Y04614*
X02279Y04608*
Y04602*
X02281Y04596*
X02283Y04594*
X02281Y04589*
X02118*
X02089Y04618*
Y05581*
X02093Y05586*
X02095Y05591*
Y05598*
X02093Y05604*
X02089Y05608*
X02083Y0561*
G37*
G36*
X01683Y05359D02*
X01636D01*
Y05326*
X0165*
Y04613*
X01622Y04585*
X01616*
X01611Y04583*
X01606Y04579*
X01604Y04573*
Y04566*
X01606Y04561*
X01611Y04556*
X01616Y04554*
X01623*
X01629Y04556*
X01633Y04561*
X01635Y04566*
Y04572*
X01666Y04603*
X01668Y04606*
X01669Y0461*
Y05326*
X01683*
Y05359*
G37*
G36*
X01753Y04575D02*
X01746D01*
X01741Y04573*
X01736Y04569*
X01734Y04563*
Y04556*
X01736Y04551*
X01741Y04546*
X01746Y04544*
X01753*
X01759Y04546*
X01763Y04551*
X01765Y04556*
Y04563*
X01763Y04569*
X01759Y04573*
X01753Y04575*
G37*
G36*
X01603Y05359D02*
X01556D01*
Y05326*
X0157*
Y04573*
X01566Y04569*
X01564Y04563*
Y04556*
X01566Y04551*
X01571Y04546*
X01576Y04544*
X01583*
X01589Y04546*
X01593Y04551*
X01595Y04556*
Y04563*
X01593Y04569*
X01589Y04573*
Y05326*
X01603*
Y05359*
G37*
G36*
X02053Y0451D02*
X02046D01*
X02041Y04508*
X02036Y04504*
X02034Y04498*
Y04491*
X02036Y04486*
X02041Y04481*
X02046Y04479*
X02053*
X02059Y04481*
X02063Y04486*
X02065Y04491*
Y04498*
X02063Y04504*
X02059Y04508*
X02053Y0451*
G37*
G36*
X02828Y04465D02*
X02821D01*
X02816Y04463*
X02811Y04459*
X02809Y04453*
Y04446*
X02811Y04441*
X02816Y04436*
X02821Y04434*
X02828*
X02834Y04436*
X02838Y04441*
X0284Y04446*
Y04453*
X02838Y04459*
X02834Y04463*
X02828Y04465*
G37*
G36*
X03568D02*
X03561D01*
X03556Y04463*
X03551Y04459*
X03549Y04453*
Y04446*
X03551Y04441*
X03556Y04436*
X03561Y04434*
X03568*
X03574Y04436*
X03578Y0444*
X03616*
Y0444*
X03621Y04436*
X03627Y04433*
X03633*
X03639Y04436*
X03643Y0444*
X03646Y04446*
Y04452*
X03643Y04458*
X03639Y04462*
X03633Y04465*
X03627*
X03621Y04462*
X03617Y04458*
X03578*
X03578Y04459*
X03574Y04463*
X03568Y04465*
G37*
G36*
X01748Y0446D02*
X01741D01*
X01736Y04458*
X01731Y04454*
X01729Y04448*
Y04441*
X01731Y04436*
X01733Y04434*
X0173Y04429*
X01728Y0443*
X01721*
X01716Y04428*
X01711Y04424*
X01709Y04418*
Y04411*
X01711Y04406*
X01716Y04401*
X01721Y04399*
X01728*
X01734Y04401*
X01738Y04406*
X0174Y04411*
Y04418*
X01738Y04424*
X01736Y04426*
X01739Y0443*
X01741Y04429*
X01748*
X01754Y04431*
X01758Y04436*
X0176Y04441*
Y04448*
X01758Y04454*
X01754Y04458*
X01748Y0446*
G37*
G36*
X02108D02*
X02101D01*
X02096Y04458*
X02091Y04454*
X02089Y04448*
Y04441*
X02091Y04436*
X02096Y04431*
X02101Y04429*
X02108*
X02114Y04431*
X02118Y04436*
X0212Y04441*
Y04448*
X02118Y04454*
X02114Y04458*
X02108Y0446*
G37*
G36*
X01773Y0443D02*
X01766D01*
X01761Y04428*
X01756Y04424*
X01754Y04418*
Y04411*
X01756Y04406*
X01761Y04401*
X01766Y04399*
X01773*
X01779Y04401*
X01783Y04406*
X01785Y04411*
Y04418*
X01783Y04424*
X01779Y04428*
X01773Y0443*
G37*
G36*
X02493Y04405D02*
X02486D01*
X02481Y04403*
X02476Y04398*
X02474Y04393*
Y04386*
X02476Y04381*
X02481Y04376*
X02486Y04374*
X02493*
X02498Y04376*
X02503Y04381*
X02505Y04386*
Y04393*
X02503Y04398*
X02498Y04403*
X02493Y04405*
G37*
G36*
X02449D02*
X02443D01*
X02437Y04403*
X02433Y04398*
X0243Y04393*
Y04386*
X02433Y04381*
X02437Y04376*
X02443Y04374*
X02449*
X02455Y04376*
X0246Y04381*
X02462Y04386*
Y04393*
X0246Y04398*
X02455Y04403*
X02449Y04405*
G37*
G36*
X02406D02*
X024D01*
X02394Y04403*
X02389Y04398*
X02387Y04393*
Y04386*
X02389Y04381*
X02394Y04376*
X024Y04374*
X02406*
X02412Y04376*
X02416Y04381*
X02419Y04386*
Y04393*
X02416Y04398*
X02412Y04403*
X02406Y04405*
G37*
G36*
X02363D02*
X02356D01*
X02351Y04403*
X02346Y04398*
X02344Y04393*
Y04386*
X02346Y04381*
X02351Y04376*
X02356Y04374*
X02363*
X02369Y04376*
X02373Y04381*
X02375Y04386*
Y04393*
X02373Y04398*
X02369Y04403*
X02363Y04405*
G37*
G36*
X01523Y05359D02*
X01476D01*
Y05326*
X0149*
Y04358*
X01485Y04356*
X01484Y04358*
X01478Y0436*
X01471*
X01466Y04358*
X01461Y04354*
X01459Y04348*
Y04341*
X01461Y04336*
X01466Y04331*
X01471Y04329*
X01478*
X01484Y04331*
X01485Y04333*
X0149Y04331*
Y04228*
X01486Y04224*
X01484Y04218*
Y04211*
X01486Y04206*
X01491Y04201*
X01496Y04199*
X01503*
X01509Y04201*
X01513Y04206*
X01515Y04211*
Y04218*
X01513Y04224*
X01509Y04228*
Y05326*
X01523*
Y05359*
G37*
G36*
X02493Y04362D02*
X02486D01*
X02481Y0436*
X02476Y04355*
X02474Y04349*
Y04343*
X02476Y04337*
X02481Y04333*
X02486Y0433*
X02493*
X02498Y04333*
X02503Y04337*
X02505Y04343*
Y04349*
X02503Y04355*
X02498Y0436*
X02493Y04362*
G37*
G36*
X02449D02*
X02443D01*
X02437Y0436*
X02433Y04355*
X0243Y04349*
Y04343*
X02433Y04337*
X02437Y04333*
X02443Y0433*
X02449*
X02455Y04333*
X0246Y04337*
X02462Y04343*
Y04349*
X0246Y04355*
X02455Y0436*
X02449Y04362*
G37*
G36*
X02406D02*
X024D01*
X02394Y0436*
X02389Y04355*
X02387Y04349*
Y04343*
X02389Y04337*
X02394Y04333*
X024Y0433*
X02406*
X02412Y04333*
X02416Y04337*
X02419Y04343*
Y04349*
X02416Y04355*
X02412Y0436*
X02406Y04362*
G37*
G36*
X02363D02*
X02356D01*
X02351Y0436*
X02346Y04355*
X02344Y04349*
Y04343*
X02346Y04337*
X02351Y04333*
X02356Y0433*
X02363*
X02369Y04333*
X02373Y04337*
X02375Y04343*
Y04349*
X02373Y04355*
X02369Y0436*
X02363Y04362*
G37*
G36*
X02873Y04355D02*
X02866D01*
X02861Y04353*
X02856Y04349*
X02854Y04343*
Y04336*
X02856Y04331*
X02861Y04326*
X02866Y04324*
X02873*
X02879Y04326*
X02883Y04331*
X02885Y04336*
Y04343*
X02883Y04349*
X02879Y04353*
X02873Y04355*
G37*
G36*
X00298Y04335D02*
X00291D01*
X00286Y04333*
X00281Y04329*
X00279Y04323*
Y04316*
X00281Y04311*
X00286Y04306*
X00291Y04304*
X00298*
X00304Y04306*
X00308Y04311*
X0031Y04316*
Y04323*
X00308Y04329*
X00304Y04333*
X00298Y04335*
G37*
G36*
X02643Y0432D02*
X02636D01*
X02631Y04318*
X02626Y04314*
X02624Y04308*
Y04301*
X02626Y04296*
X02631Y04291*
X02636Y04289*
X02643*
X02649Y04291*
X02653Y04296*
X02655Y04301*
Y04308*
X02653Y04314*
X02649Y04318*
X02643Y0432*
G37*
G36*
X02493Y04319D02*
X02486D01*
X02481Y04316*
X02476Y04312*
X02474Y04306*
Y043*
X02476Y04294*
X02481Y04289*
X02486Y04287*
X02493*
X02498Y04289*
X02503Y04294*
X02505Y043*
Y04306*
X02503Y04312*
X02498Y04316*
X02493Y04319*
G37*
G36*
X02449D02*
X02443D01*
X02437Y04316*
X02433Y04312*
X0243Y04306*
Y043*
X02433Y04294*
X02437Y04289*
X02443Y04287*
X02449*
X02455Y04289*
X0246Y04294*
X02462Y043*
Y04306*
X0246Y04312*
X02455Y04316*
X02449Y04319*
G37*
G36*
X02406D02*
X024D01*
X02394Y04316*
X02389Y04312*
X02387Y04306*
Y043*
X02389Y04294*
X02394Y04289*
X024Y04287*
X02406*
X02412Y04289*
X02416Y04294*
X02419Y043*
Y04306*
X02416Y04312*
X02412Y04316*
X02406Y04319*
G37*
G36*
X02363D02*
X02356D01*
X02351Y04316*
X02346Y04312*
X02344Y04306*
Y043*
X02346Y04294*
X02351Y04289*
X02356Y04287*
X02363*
X02369Y04289*
X02373Y04294*
X02375Y043*
Y04306*
X02373Y04312*
X02369Y04316*
X02363Y04319*
G37*
G36*
X02008Y04285D02*
X02001D01*
X01996Y04283*
X01991Y04279*
X01989Y04273*
Y04266*
X01991Y04261*
X01996Y04256*
X02001Y04254*
X02008*
X02014Y04256*
X02018Y04261*
X0202Y04266*
Y04273*
X02018Y04279*
X02014Y04283*
X02008Y04285*
G37*
G36*
X02493Y04275D02*
X02486D01*
X02481Y04273*
X02476Y04269*
X02474Y04263*
Y04256*
X02476Y04251*
X02481Y04246*
X02486Y04244*
X02493*
X02498Y04246*
X02503Y04251*
X02505Y04256*
Y04263*
X02503Y04269*
X02498Y04273*
X02493Y04275*
G37*
G36*
X02449D02*
X02443D01*
X02437Y04273*
X02433Y04269*
X0243Y04263*
Y04256*
X02433Y04251*
X02437Y04246*
X02443Y04244*
X02449*
X02455Y04246*
X0246Y04251*
X02462Y04256*
Y04263*
X0246Y04269*
X02455Y04273*
X02449Y04275*
G37*
G36*
X02406D02*
X024D01*
X02394Y04273*
X02389Y04269*
X02387Y04263*
Y04256*
X02389Y04251*
X02394Y04246*
X024Y04244*
X02406*
X02412Y04246*
X02416Y04251*
X02419Y04256*
Y04263*
X02416Y04269*
X02412Y04273*
X02406Y04275*
G37*
G36*
X02363D02*
X02356D01*
X02351Y04273*
X02346Y04269*
X02344Y04263*
Y04256*
X02346Y04251*
X02351Y04246*
X02356Y04244*
X02363*
X02369Y04246*
X02373Y04251*
X02375Y04256*
Y04263*
X02373Y04269*
X02369Y04273*
X02363Y04275*
G37*
G36*
X01458Y0427D02*
X01451D01*
X01446Y04268*
X01441Y04264*
X01439Y04258*
Y04251*
X01441Y04246*
X01446Y04241*
X01451Y04239*
X01458*
X01464Y04241*
X01468Y04246*
X0147Y04251*
Y04258*
X01468Y04264*
X01464Y04268*
X01458Y0427*
G37*
G36*
X03398Y0425D02*
X03391D01*
X03386Y04248*
X03381Y04244*
X03379Y04238*
Y04231*
X03381Y04226*
X03386Y04221*
X03391Y04219*
X03398*
X03404Y04221*
X03408Y04226*
X0341Y04231*
Y04238*
X03408Y04244*
X03404Y04248*
X03398Y0425*
G37*
G36*
X02828Y04235D02*
X02821D01*
X02816Y04233*
X02811Y04229*
X02809Y04223*
Y04216*
X02811Y04211*
X02816Y04206*
X02821Y04204*
X02828*
X02834Y04206*
X02838Y04211*
X0284Y04216*
Y04223*
X02838Y04229*
X02834Y04233*
X02828Y04235*
G37*
G36*
X03068Y04195D02*
X03061D01*
X03056Y04193*
X03051Y04189*
X03049Y04183*
Y04176*
X03051Y04171*
X03056Y04166*
X03061Y04164*
X03068*
X03074Y04166*
X03078Y04171*
X0308Y04176*
Y04183*
X03078Y04189*
X03074Y04193*
X03068Y04195*
G37*
G36*
X02348Y0413D02*
X02341D01*
X02336Y04128*
X02331Y04124*
X02315*
X02311Y04123*
X02308Y04121*
X02305Y04118*
X023Y0412*
X02298Y04124*
X02294Y04128*
X02288Y0413*
X02281*
X02276Y04128*
X02271Y04124*
X02269Y04118*
Y04112*
X02263Y04106*
X02261Y04103*
X0226Y041*
Y04058*
X02256Y04056*
X02244Y04068*
Y04101*
X02244Y04101*
X02249Y04106*
X02251Y04111*
Y04118*
X02249Y04124*
X02244Y04128*
X02239Y0413*
X02232*
X02226Y04128*
X02222Y04124*
X0222Y04118*
Y04111*
X02222Y04106*
X02225Y04102*
Y04065*
X02226Y04061*
X02228Y04058*
X02283Y04003*
X02286Y04001*
X0229Y04*
X02381*
X02395Y03986*
Y03968*
X0239Y03966*
X02389Y03968*
X02383Y0397*
X02376*
X02371Y03968*
X02366Y03964*
X02364Y03958*
Y03951*
X02366Y03946*
X02371Y03941*
X02376Y03939*
X02383*
X02389Y03941*
X0239Y03943*
X02395Y03941*
Y03848*
X0239Y03844*
X02388Y03845*
X02381*
X02376Y03843*
X02371Y03839*
X02369Y03833*
Y03826*
X02371Y03821*
X02376Y03816*
X02381Y03814*
X02388*
X0239Y03815*
X02395Y03811*
Y02103*
X02376Y02084*
X02225*
X02221Y02083*
X02218Y02081*
X02208Y02071*
X02206Y02068*
X02205Y02065*
Y02048*
X02201Y02044*
X02199Y02038*
Y02031*
X02201Y02026*
X02206Y02021*
X02211Y02019*
X02216*
X02219Y02015*
X02219Y02014*
X02219Y02013*
Y02006*
X02221Y02001*
X02226Y01996*
X02231Y01994*
X02238*
X02244Y01996*
X02248Y02001*
X0225Y02006*
Y02013*
X02254Y02017*
X02255*
X02258Y02014*
X02259Y02012*
Y02006*
X02261Y02001*
X02266Y01996*
X02271Y01994*
X02278*
X02284Y01996*
X02288Y02*
X024*
X02403Y02001*
X02406Y02003*
X02456Y02053*
X02458Y02056*
X02459Y0206*
Y0401*
X02458Y04013*
X02456Y04016*
X02406Y04066*
X02403Y04068*
X024Y04069*
X02328*
X02324Y04073*
X02318Y04075*
X02311*
X02306Y04073*
X02304Y04071*
X02299Y04073*
Y04086*
X02318Y04105*
X02331*
X02336Y04101*
X02341Y04099*
X02348*
X02354Y04101*
X02358Y04106*
X0236Y04111*
Y04118*
X02358Y04124*
X02354Y04128*
X02348Y0413*
G37*
G36*
X03068Y0414D02*
X03061D01*
X03056Y04138*
X03051Y04134*
X03049Y04128*
Y04121*
X03051Y04116*
X03056Y04111*
X03061Y04109*
X03068*
X03074Y04111*
X03078Y04116*
X0308Y04121*
Y04128*
X03078Y04134*
X03074Y04138*
X03068Y0414*
G37*
G36*
X02518Y04115D02*
X02511D01*
X02506Y04113*
X02501Y04109*
X02499Y04103*
Y04096*
X02501Y04091*
X02506Y04086*
X02511Y04084*
X02518*
X02524Y04086*
X02528Y04091*
X0253Y04096*
Y04103*
X02528Y04109*
X02524Y04113*
X02518Y04115*
G37*
G36*
X02198Y04465D02*
X02191D01*
X02186Y04463*
X02181Y04459*
X02179Y04453*
Y04447*
X02103Y04371*
X02101Y04368*
X021Y04365*
Y03698*
X02051Y03649*
X01825*
X01821Y03648*
X01818Y03646*
X01798Y03626*
X01793Y03627*
X01793Y03629*
X01789Y03633*
X01783Y03635*
X01776*
X01771Y03633*
X01766Y03629*
X01764Y03623*
Y03616*
X01766Y03611*
X01771Y03606*
X01772Y03606*
X01776Y03603*
X01775Y036*
Y02693*
X01746Y02664*
X0103*
X01026Y02663*
X01023Y02661*
X00993Y02631*
X00991Y02628*
X0099Y02625*
Y01975*
X00991Y01971*
X00993Y01968*
X01015Y01946*
Y01818*
X0101Y01814*
X01008Y01815*
X01001*
X00996Y01813*
X00994Y01811*
X00989Y01814*
X0099Y01816*
Y01823*
X00988Y01829*
X00984Y01833*
X00978Y01835*
X00972*
X00927Y0188*
X00924Y01882*
X00921Y01883*
X00193*
X00189Y01887*
X00183Y01889*
X00177*
X00171Y01887*
X00166Y01882*
X00164Y01877*
Y0187*
X00166Y01864*
X00171Y0186*
X00177Y01858*
X00183*
X00189Y0186*
X00193Y01864*
X00344*
X00346Y01859*
X00236Y01749*
X00198*
X00194Y01753*
X00188Y01755*
X00181*
X00176Y01753*
X00171Y01749*
X00169Y01743*
Y01736*
X00171Y01731*
X00176Y01726*
X00181Y01724*
X00188*
X00194Y01726*
X00198Y0173*
X0024*
X00243Y01731*
X00246Y01733*
X00261Y01748*
X00265Y01746*
Y01638*
X00246Y01619*
X00198*
X00194Y01623*
X00188Y01625*
X00181*
X00176Y01623*
X00171Y01619*
X00169Y01613*
Y01606*
X00171Y01601*
X00176Y01596*
X00181Y01594*
X00188*
X00194Y01596*
X00198Y016*
X0025*
X00253Y01601*
X00256Y01603*
X00281Y01628*
X00283Y01631*
X00284Y01635*
Y01751*
X00363Y0183*
X00901*
X00965Y01766*
Y01723*
X00961Y01719*
X00959Y01713*
Y01706*
X00961Y01701*
X00966Y01696*
X00971Y01694*
X00978*
X00984Y01696*
X00988Y01701*
X0099Y01706*
Y01713*
X00988Y01719*
X00984Y01723*
Y0177*
X00983Y01773*
X00981Y01776*
X00971Y01786*
X00973Y0179*
X00991*
X00996Y01786*
X01001Y01784*
X01008*
X0101Y01785*
X01015Y01781*
Y01698*
X00987Y0167*
X00981*
X00976Y01668*
X00971Y01664*
X00969Y01658*
Y01651*
X00971Y01646*
X00975Y01641*
Y01383*
X00926Y01334*
X00773*
X00769Y01338*
X00763Y0134*
X00756*
X00751Y01338*
X00746Y01334*
X00744Y01328*
Y01321*
X00746Y01316*
X0075Y01311*
Y0085*
X00751Y00846*
X00753Y00843*
X00793Y00803*
X00796Y00801*
X008Y008*
X01186*
X01191Y00796*
X01196Y00794*
X01203*
X01209Y00796*
X01213Y00801*
X01215Y00806*
Y00813*
X01213Y00819*
X01209Y00823*
X01203Y00825*
X01196*
X01191Y00823*
X01186Y00819*
X00803*
X00769Y00853*
Y01311*
X00773Y01315*
X0093*
X00933Y01316*
X00936Y01318*
X00991Y01373*
X00993Y01376*
X00994Y0138*
Y01641*
X00998Y01646*
X01Y01651*
Y01657*
X01031Y01688*
X01033Y01691*
X01034Y01695*
Y01713*
X01036Y01717*
X01039*
X01045*
Y01703*
X01041Y01699*
X01039Y01693*
Y01686*
X01041Y01681*
X01046Y01676*
X01051Y01674*
X01058*
X01064Y01676*
X01068Y01681*
X0107Y01686*
Y01693*
X01068Y01699*
X01064Y01703*
Y01717*
X0107*
Y01765*
X01061*
Y01788*
X01069*
Y01836*
X01035*
X01034Y0184*
Y0195*
X01033Y01953*
X01031Y01956*
X01009Y01978*
Y02621*
X01033Y02645*
X01346*
X01348Y0264*
X01346Y02639*
X01344Y02633*
Y02626*
X01346Y02621*
X01351Y02616*
X01356Y02614*
X01363*
X01365Y02615*
X01368Y02611*
X01366Y02609*
X01364Y02603*
Y02596*
X01366Y02591*
X01371Y02586*
X01376Y02584*
X01383*
X01389Y02586*
X01393Y02591*
X01395Y02596*
Y02602*
X01398Y02605*
X01706*
Y026*
X01701Y02598*
X01696Y02594*
X01694Y02588*
Y02581*
X01696Y02576*
X017Y02571*
Y02548*
X01695Y02546*
X01694Y02548*
X01688Y0255*
X01681*
X01676Y02548*
X01671Y02544*
X01669Y02538*
Y02531*
X01671Y02526*
X01675Y02521*
Y02458*
X01662Y02445*
X01656*
X01651Y02443*
X01646Y02439*
X01644Y02433*
Y02426*
X01646Y02421*
X01651Y02416*
X01656Y02414*
X01663*
X01669Y02416*
X01673Y02421*
X01675Y02426*
Y02432*
X01691Y02448*
X01693Y02451*
X01694Y02455*
Y02518*
X01695Y02519*
X017Y02517*
Y02443*
X01696Y02439*
X01694Y02433*
Y02426*
X01696Y02421*
X01696Y0242*
X01694Y02415*
X01691*
X01686Y02413*
X01681Y02409*
X01679Y02403*
Y02396*
X01681Y02391*
X01686Y02386*
X01691Y02384*
Y02379*
X01273*
X01269Y02383*
X01263Y02385*
X01256*
X01251Y02383*
X01246Y02379*
X01244Y02373*
Y02366*
X01246Y02361*
X01251Y02356*
X01256Y02354*
X01263*
X01269Y02356*
X01273Y0236*
X0185*
X01853Y02361*
X01856Y02363*
X01876Y02383*
X0188Y02381*
Y0216*
X01881Y02156*
X01883Y02153*
X01944Y02092*
Y02086*
X01946Y02081*
X01951Y02076*
X01956Y02074*
X01963*
X01969Y02076*
X01973Y02081*
X01975Y02086*
Y02093*
X01973Y02099*
X01969Y02103*
X01963Y02105*
X01957*
X01899Y02163*
Y02696*
X02176Y02973*
X02178Y02976*
X02179Y0298*
Y03406*
X02236Y03463*
X02238Y03466*
X02239Y0347*
Y03498*
X02244Y035*
X02253Y03505*
X0226Y03512*
X02264Y0352*
X02267Y0353*
Y03539*
X02264Y03549*
X0226Y03558*
X02253Y03565*
X02244Y03569*
X02239Y03571*
Y0362*
X02238Y03623*
X02236Y03626*
X02179Y03683*
Y04061*
X02184Y04063*
X02186Y04061*
X02191Y04059*
X02198*
X02204Y04061*
X02208Y04066*
X0221Y04071*
Y04078*
X02208Y04084*
X02204Y04088*
X02198Y0409*
X02191*
X02186Y04088*
X02184Y04086*
X02179Y04088*
Y04226*
X02193Y0424*
X02198*
X02204Y04242*
X02208Y04246*
X0221Y04252*
Y04259*
X02208Y04264*
X02204Y04269*
X02201Y0427*
Y04275*
X02204Y04276*
X02208Y04281*
X0221Y04286*
Y04293*
X02208Y04299*
X02204Y04303*
X02198Y04305*
X02191*
X02186Y04303*
X02181Y04299*
X02179Y04293*
Y04287*
X02153Y04261*
X02149Y04263*
Y04326*
X02192Y04369*
X02198*
X02204Y04371*
X02208Y04376*
X0221Y04381*
Y04388*
X02208Y04394*
X02205Y04396*
X02204Y044*
X02205Y04403*
X02208Y04406*
X0221Y04411*
Y04418*
X02208Y04424*
X02204Y04428*
X022Y04429*
Y04435*
X02204Y04436*
X02208Y04441*
X0221Y04446*
Y04453*
X02208Y04459*
X02204Y04463*
X02198Y04465*
G37*
G36*
X03268Y0406D02*
X03261D01*
X03256Y04058*
X03251Y04054*
X03249Y04048*
Y04041*
X03251Y04036*
X03256Y04031*
X03261Y04029*
X03268*
X03274Y04031*
X03278Y04036*
X0328Y04041*
Y04048*
X03278Y04054*
X03274Y04058*
X03268Y0406*
G37*
G36*
X00683Y0403D02*
X00676D01*
X00671Y04028*
X00668Y04025*
X00665Y04024*
X00661Y04025*
X00659Y04028*
X00653Y0403*
X00646*
X00641Y04028*
X00636Y04024*
X00634Y04018*
Y04011*
X00636Y04006*
X00641Y04001*
X00646Y03999*
X00653*
X00659Y04001*
X00661Y04004*
X00665Y04005*
X00668Y04004*
X00671Y04001*
X00676Y03999*
X00683*
X00689Y04001*
X00693Y04006*
X00695Y04011*
Y04018*
X00693Y04024*
X00689Y04028*
X00683Y0403*
G37*
G36*
X03408Y04015D02*
X03401D01*
X03396Y04013*
X03391Y04009*
X03389Y04003*
Y03996*
X03391Y03991*
X03396Y03986*
X03401Y03984*
X03408*
X03414Y03986*
X03418Y03991*
X0342Y03996*
Y04003*
X03418Y04009*
X03414Y04013*
X03408Y04015*
G37*
G36*
X00298Y03931D02*
X00291D01*
X00286Y03928*
X00281Y03924*
X00279Y03918*
Y03912*
X00281Y03906*
X00286Y03901*
X00291Y03899*
X00298*
X00304Y03901*
X00308Y03906*
X0031Y03912*
Y03918*
X00308Y03924*
X00304Y03928*
X00298Y03931*
G37*
G36*
X01533Y0356D02*
X01526D01*
X01521Y03558*
X01516Y03554*
X01514Y03548*
Y03541*
X01516Y03536*
X01521Y03531*
X01526Y03529*
X01533*
X01539Y03531*
X01543Y03536*
X01545Y03541*
Y03548*
X01543Y03554*
X01539Y03558*
X01533Y0356*
G37*
G36*
X02367Y03572D02*
X02292D01*
Y03497*
X02367*
Y03572*
G37*
G36*
X01013Y03525D02*
X01006D01*
X01001Y03523*
X00996Y03519*
X00994Y03513*
Y03506*
X00996Y03501*
X01001Y03496*
X01004Y03495*
Y03489*
X01001Y03488*
X00996Y03484*
X00994Y03478*
Y03471*
X00996Y03466*
X00999Y03463*
X01Y0346*
X00999Y03456*
X00996Y03454*
X00994Y03448*
Y03441*
X00996Y03436*
X01001Y03431*
X01006Y03429*
X01013*
X01019Y03431*
X01023Y03436*
X01025Y03441*
Y03448*
X01023Y03454*
X0102Y03456*
X01019Y0346*
X0102Y03463*
X01023Y03466*
X01025Y03471*
Y03478*
X01023Y03484*
X01019Y03488*
X01015Y03489*
Y03495*
X01019Y03496*
X01023Y03501*
X01025Y03506*
Y03513*
X01023Y03519*
X01019Y03523*
X01013Y03525*
G37*
G36*
X01278D02*
X01271D01*
X01266Y03523*
X01261Y03519*
X01259Y03513*
Y03506*
X01261Y03501*
X01264Y03498*
X01265Y03495*
X01264Y03491*
X01261Y03489*
X01259Y03483*
Y03476*
X01261Y03471*
X01264Y03468*
X01265Y03465*
X01264Y03461*
X01261Y03459*
X01259Y03453*
Y03446*
X01261Y03441*
X01264Y03438*
X01265Y03435*
X01264Y03431*
X01261Y03429*
X01259Y03423*
Y03416*
X01261Y03411*
X01266Y03406*
X01271Y03404*
X01278*
X01284Y03406*
X01288Y03411*
X0129Y03416*
Y03423*
X01288Y03429*
X01285Y03431*
X01284Y03435*
X01285Y03438*
X01288Y03441*
X0129Y03446*
Y03453*
X01288Y03459*
X01285Y03461*
X01284Y03465*
X01285Y03468*
X01288Y03471*
X0129Y03476*
Y03483*
X01288Y03489*
X01285Y03491*
X01284Y03495*
X01285Y03498*
X01288Y03501*
X0129Y03506*
Y03513*
X01288Y03519*
X01284Y03523*
X01278Y03525*
G37*
G36*
X00668Y0345D02*
X00661D01*
X00656Y03448*
X00651Y03444*
X00649Y03438*
Y03431*
X00651Y03426*
X00654Y03423*
X00655Y0342*
X00654Y03416*
X00651Y03414*
X00649Y03408*
Y03401*
X00651Y03396*
X00656Y03391*
X00661Y03389*
X00668*
X00674Y03391*
X00678Y03396*
X0068Y03401*
Y03408*
X00678Y03414*
X00675Y03416*
X00674Y0342*
X00675Y03423*
X00678Y03426*
X0068Y03431*
Y03438*
X00678Y03444*
X00674Y03448*
X00668Y0345*
G37*
G36*
X02538Y0333D02*
X02531D01*
X02526Y03328*
X02521Y03324*
X02519Y03318*
Y03311*
X02521Y03306*
X02526Y03301*
X02531Y03299*
X02538*
X02544Y03301*
X02548Y03306*
X0255Y03311*
Y03318*
X02548Y03324*
X02544Y03328*
X02538Y0333*
G37*
G36*
X01068Y0329D02*
X01061D01*
X01056Y03288*
X01051Y03284*
X01049Y03278*
Y03271*
X01051Y03266*
X01056Y03261*
X01061Y03259*
X01068*
X01074Y03261*
X01078Y03266*
X0108Y03271*
Y03278*
X01078Y03284*
X01074Y03288*
X01068Y0329*
G37*
G36*
X01703Y03225D02*
X01696D01*
X01691Y03223*
X01686Y03219*
X01684Y03213*
Y03206*
X01686Y03201*
X0169Y03196*
Y02873*
X01676Y02859*
X01323*
X01321Y02864*
X01323Y02866*
X01325Y02871*
Y02878*
X01323Y02884*
X01319Y02888*
X01313Y0289*
X01306*
X01303Y02889*
X01299Y02893*
X013Y02896*
Y02903*
X01298Y02909*
X01294Y02913*
X01288Y02915*
X01281*
X01276Y02913*
X01273Y0291*
X0127Y02911*
X01268Y02915*
X01268Y02916*
X0127Y02921*
Y02928*
X01268Y02934*
X01264Y02938*
X01258Y0294*
X01251*
X01246Y02938*
X01241Y02934*
X01038*
X01034Y02938*
X01028Y0294*
X01021*
X01016Y02938*
X01011Y02934*
X01009Y02928*
Y02921*
X01011Y02916*
X01016Y02911*
X01021Y02909*
X01028*
X01031Y0291*
X01035Y02906*
X01034Y02903*
Y02896*
X01035Y02893*
X01031Y02889*
X01028Y0289*
X01021*
X01016Y02888*
X01011Y02884*
X01009Y02878*
Y02871*
X01011Y02866*
X01016Y02861*
X01021Y02859*
X01028*
X01031Y0286*
X01035Y02856*
X01034Y02853*
Y02846*
X01036Y02841*
X01041Y02836*
X01046Y02834*
X01053*
X01059Y02836*
X01063Y0284*
X0168*
X01683Y02841*
X01686Y02843*
X01706Y02863*
X01708Y02866*
X01709Y0287*
Y03156*
X01714*
X01716Y03151*
X01721Y03146*
X01726Y03144*
X01733*
X01739Y03146*
X01743Y03151*
X01745Y03156*
Y03163*
X01743Y03169*
X01739Y03173*
X01733Y03175*
X01726*
X01721Y03173*
X01716Y03169*
X01714Y03163*
X01709*
Y03196*
X01713Y03201*
X01715Y03206*
Y03213*
X01713Y03219*
X01709Y03223*
X01703Y03225*
G37*
G36*
X00568Y034D02*
X00561D01*
X00556Y03398*
X00551Y03394*
X00549Y03388*
Y03381*
X00551Y03376*
Y03168*
X00549Y03163*
Y03156*
X00551Y03151*
X00556Y03146*
X00561Y03144*
X00568*
X00574Y03146*
X00578Y03151*
X0058Y03156*
Y03163*
X00578Y03168*
Y03376*
X0058Y03381*
Y03388*
X00578Y03394*
X00574Y03398*
X00568Y034*
G37*
G36*
X01068Y03115D02*
X01061D01*
X01056Y03113*
X01051Y03109*
X01049Y03103*
Y03096*
X01051Y03091*
X01056Y03086*
X01061Y03084*
X01068*
X01074Y03086*
X01078Y03091*
X0108Y03096*
Y03103*
X01078Y03109*
X01074Y03113*
X01068Y03115*
G37*
G36*
X00638Y03065D02*
X00631D01*
X00626Y03063*
X00621Y03059*
X00619Y03053*
Y03046*
X00621Y03041*
X00626Y03036*
X00631Y03034*
X00638*
X00644Y03036*
X00648Y03041*
X0065Y03046*
Y03053*
X00648Y03059*
X00644Y03063*
X00638Y03065*
G37*
G36*
X01573Y03D02*
X01566D01*
X01561Y02998*
X01556Y02994*
X01554Y02988*
Y02981*
X01556Y02976*
X01561Y02971*
X01566Y02969*
X01573*
X01579Y02971*
X01583Y02976*
X01585Y02981*
Y02988*
X01583Y02994*
X01579Y02998*
X01573Y03*
G37*
G36*
X01393D02*
X01386D01*
X01381Y02998*
X01376Y02994*
X01374Y02988*
Y02981*
X01376Y02976*
X01381Y02971*
X01386Y02969*
X01393*
X01399Y02971*
X01403Y02976*
X01405Y02981*
Y02988*
X01403Y02994*
X01399Y02998*
X01393Y03*
G37*
G36*
X02093Y02635D02*
X02086D01*
X02081Y02633*
X02076Y02629*
X02074Y02623*
Y02616*
X02076Y02611*
X02081Y02606*
X02086Y02604*
X02092*
X02104Y02592*
Y02591*
X02105Y0259*
X02105Y02585*
Y02568*
X021Y02566*
X02099Y02568*
X02093Y0257*
X02086*
X02081Y02568*
X02076Y02564*
X02074Y02558*
Y02551*
X02076Y02546*
X0208Y02541*
Y02303*
X02075Y02301*
X02074Y02303*
X02068Y02305*
X02061*
X02056Y02303*
X02051Y02299*
X02049Y02293*
Y02286*
X02051Y02281*
X02056Y02276*
X02061Y02274*
X02068*
X02074Y02276*
X02075Y02278*
X0208Y02276*
Y01786*
X02076Y01782*
X02074Y01776*
Y0177*
X02076Y01764*
X02081Y0176*
X02086Y01757*
X02092*
X02094Y01755*
X02095Y01753*
X02088Y0174*
X02086*
X02081Y01738*
X02076Y01734*
X02074Y01728*
Y01721*
X02076Y01716*
X02081Y01711*
X02086Y01709*
X02093*
X02099Y01711*
X02103Y01716*
X02105Y01721*
Y01728*
X02104Y01731*
X02116Y01752*
X02121Y01751*
Y01746*
X02123Y01741*
X02128Y01736*
X02134Y01734*
X0214*
X02146Y01736*
X0215Y01741*
X02153Y01746*
Y01753*
X0215Y01759*
X02146Y01763*
Y0257*
X02149Y02571*
X02153Y02576*
X02155Y02581*
Y02588*
X02153Y02594*
X02149Y02598*
X02143Y026*
X02136*
X02131Y02598*
X02128Y02595*
X02123Y02597*
X02122Y02598*
X0212Y02601*
X02118Y02605*
X02118Y02605*
X02105Y02617*
Y02623*
X02103Y02629*
X02099Y02633*
X02093Y02635*
G37*
G36*
X02003Y02595D02*
X01996D01*
X01991Y02593*
X01986Y02589*
X01984Y02583*
Y02576*
X01986Y02571*
X0199Y02567*
X01989Y02562*
X01985Y02559*
X01983Y0256*
X01976*
X01971Y02558*
X01969Y02556*
X01964Y02558*
Y02566*
X01968Y02571*
X0197Y02576*
Y02583*
X01968Y02589*
X01964Y02593*
X01958Y02595*
X01951*
X01946Y02593*
X01941Y02589*
X01939Y02583*
Y02576*
X01941Y02571*
X01945Y02566*
Y02558*
X0194Y02556*
X01939Y02558*
X01933Y0256*
X01926*
X01921Y02558*
X01916Y02554*
X01914Y02548*
Y02541*
X01916Y02536*
X0192Y02531*
Y02368*
X01916Y02364*
X01914Y02358*
Y02351*
X01916Y02346*
X01921Y02341*
X01926Y02339*
X01933*
X01939Y02341*
X01943Y02346*
X01945Y02351*
Y02358*
X01943Y02364*
X01939Y02368*
Y02391*
X01944Y02393*
X01946Y02391*
X01951Y02389*
X01958*
X01961Y0239*
X01965Y02386*
X01964Y02383*
Y02376*
X01966Y02371*
X01971Y02366*
X01976Y02364*
X01983*
X01985Y02365*
X0199Y02361*
Y02343*
X01982Y02335*
X01976*
X01971Y02333*
X01966Y02329*
X01964Y02323*
Y02316*
X01966Y02311*
X01971Y02306*
X01976Y02304*
X01979*
X01981Y02299*
X01938Y02256*
X01936Y02253*
X01935Y0225*
Y02208*
X01931Y02204*
X01929Y02198*
Y02191*
X01931Y02186*
X01936Y02181*
X01941Y02179*
X01948*
X01954Y02181*
X01958Y02186*
X0196Y02191*
Y02198*
X01958Y02204*
X01954Y02208*
Y02246*
X02021Y02313*
X02023Y02316*
X02024Y0232*
Y02346*
X02031Y02353*
X02033Y02356*
X02033Y02359*
Y02532*
X02038Y02536*
X0204Y02542*
Y02548*
X02038Y02554*
X02033Y02558*
X02027Y02561*
X02021*
X02015Y02558*
X02014Y02557*
X02009Y02559*
Y02566*
X02013Y02571*
X02015Y02576*
Y02583*
X02013Y02589*
X02009Y02593*
X02003Y02595*
G37*
G36*
X03468Y0254D02*
X03461D01*
X03456Y02538*
X03451Y02534*
X02595*
X02591Y02533*
X02588Y02531*
X02468Y02411*
X02466Y02408*
X02465Y02405*
Y02023*
X02461Y02019*
X02459Y02013*
Y02006*
X02461Y02001*
X02466Y01996*
X02471Y01994*
X02478*
X02484Y01996*
X02488Y02001*
X0249Y02006*
Y02013*
X02488Y02019*
X02484Y02023*
Y02401*
X02598Y02515*
X03451*
X03456Y02511*
X03461Y02509*
X03468*
X03474Y02511*
X03478Y02516*
X0348Y02521*
Y02528*
X03478Y02534*
X03474Y02538*
X03468Y0254*
G37*
G36*
X03317Y02407D02*
X03302D01*
Y02391*
X03317*
Y02407*
G37*
G36*
X03257D02*
X03242D01*
Y02391*
X03257*
Y02407*
G37*
G36*
X03282D02*
X03266D01*
Y02391*
X03282*
Y02407*
G37*
G36*
X03222D02*
X03206D01*
Y02391*
X03222*
Y02407*
G37*
G36*
X02693Y024D02*
X02686D01*
X02681Y02398*
X02676Y02394*
X02674Y02388*
Y02381*
X02676Y02376*
X02681Y02371*
X02686Y02369*
X02693*
X02699Y02371*
X02703Y02376*
X02705Y02381*
Y02388*
X02703Y02394*
X02699Y02398*
X02693Y024*
G37*
G36*
X03317Y02371D02*
X03302D01*
Y02355*
X03317*
Y02371*
G37*
G36*
X03282D02*
X03266D01*
Y02355*
X03282*
Y02371*
G37*
G36*
X03257D02*
X03242D01*
Y02355*
X03257*
Y02371*
G37*
G36*
X03222D02*
X03206D01*
Y02355*
X03222*
Y02371*
G37*
G36*
X03508Y0235D02*
X03501D01*
X03496Y02348*
X03408*
X03402Y02347*
X03398Y02344*
X0339Y02336*
X03313*
Y02344*
X0327*
Y02336*
X03253*
Y02344*
X0321*
Y02336*
X03161*
X03159Y02338*
X03153Y0234*
X03146*
X03141Y02338*
X03136Y02334*
X03134Y02328*
Y02321*
X03136Y02316*
X03141Y02311*
X03146Y02309*
X03151*
X03153Y02308*
X0321*
Y023*
X03253*
Y02308*
X0327*
Y023*
X03313*
Y02308*
X03395*
X034Y02309*
X03405Y02312*
X03413Y02321*
X03496*
X03501Y02319*
X03508*
X03514Y02321*
X03518Y02326*
X0352Y02331*
Y02338*
X03518Y02344*
X03514Y02348*
X03508Y0235*
G37*
G36*
X01564Y02221D02*
X01549D01*
Y02206*
X01564*
Y02221*
G37*
G36*
X01366D02*
X01351D01*
Y02206*
X01366*
Y02221*
G37*
G36*
X01123D02*
X01108D01*
Y02206*
X01123*
Y02221*
G37*
G36*
X01529D02*
X01513D01*
Y02206*
X01529*
Y02221*
G37*
G36*
X01088D02*
X01072D01*
Y02206*
X01088*
Y02221*
G37*
G36*
X01331D02*
X01315D01*
Y02206*
X01331*
Y02221*
G37*
G36*
X01819Y0222D02*
X01804D01*
Y02205*
X01819*
Y0222*
G37*
G36*
X01784D02*
X01768D01*
Y02205*
X01784*
Y0222*
G37*
G36*
X03253Y02203D02*
X03219D01*
Y02194*
X02873*
X02869Y02198*
X02863Y022*
X02856*
X02851Y02198*
X02846Y02194*
X02844Y02188*
Y02181*
X02846Y02176*
X02851Y02171*
X02856Y02169*
X02863*
X02869Y02171*
X02873Y02175*
X03219*
Y02156*
X03253*
Y02203*
G37*
G36*
X00623Y0222D02*
X00616D01*
X00611Y02218*
X00606Y02214*
X00604Y02208*
Y02201*
X00606Y02196*
X00611Y02191*
X00616Y02189*
X00623*
X00629Y02191*
X00633Y02196*
X00635Y02201*
Y02208*
X00633Y02214*
X00629Y02218*
X00623Y0222*
G37*
G36*
X01564Y02186D02*
X01549D01*
Y0217*
X01564*
Y02186*
G37*
G36*
X01529D02*
X01513D01*
Y0217*
X01529*
Y02186*
G37*
G36*
X01366D02*
X01351D01*
Y0217*
X01366*
Y02186*
G37*
G36*
X01331D02*
X01315D01*
Y0217*
X01331*
Y02186*
G37*
G36*
X01123D02*
X01108D01*
Y0217*
X01123*
Y02186*
G37*
G36*
X01088D02*
X01072D01*
Y0217*
X01088*
Y02186*
G37*
G36*
X01819Y02185D02*
X01804D01*
Y02169*
X01819*
Y02185*
G37*
G36*
X01784D02*
X01768D01*
Y02169*
X01784*
Y02185*
G37*
G36*
X0331Y02203D02*
X03276D01*
Y02156*
X03284*
Y02133*
X03276*
Y02086*
X0331*
Y02133*
X03302*
Y02156*
X0331*
Y0217*
X03421*
X03426Y02166*
X03431Y02164*
X03438*
X03444Y02166*
X03448Y02171*
X0345Y02176*
Y02183*
X03448Y02189*
X03444Y02193*
X03438Y02195*
X03431*
X03426Y02193*
X03421Y02189*
X0331*
Y02203*
G37*
G36*
X01819Y0216D02*
X01804D01*
Y02145*
X01819*
Y0216*
G37*
G36*
X01784D02*
X01768D01*
Y02145*
X01784*
Y0216*
G37*
G36*
X01564Y02158D02*
X01549D01*
Y02143*
X01564*
Y02158*
G37*
G36*
X01366D02*
X01351D01*
Y02143*
X01366*
Y02158*
G37*
G36*
X01123D02*
X01108D01*
Y02143*
X01123*
Y02158*
G37*
G36*
X01529D02*
X01513D01*
Y02143*
X01529*
Y02158*
G37*
G36*
X01088D02*
X01072D01*
Y02143*
X01088*
Y02158*
G37*
G36*
X01331D02*
X01315D01*
Y02143*
X01331*
Y02158*
G37*
G36*
X03257Y02137D02*
X03246D01*
Y0212*
X03257*
Y02137*
G37*
G36*
X03226D02*
X03215D01*
Y0212*
X03226*
Y02137*
G37*
G36*
X01819Y02125D02*
X01804D01*
Y02109*
X01819*
Y02125*
G37*
G36*
X01784D02*
X01768D01*
Y02109*
X01784*
Y02125*
G37*
G36*
X01564Y02123D02*
X01549D01*
Y02107*
X01564*
Y02123*
G37*
G36*
X01529D02*
X01513D01*
Y02107*
X01529*
Y02123*
G37*
G36*
X01366D02*
X01351D01*
Y02107*
X01366*
Y02123*
G37*
G36*
X01331D02*
X01315D01*
Y02107*
X01331*
Y02123*
G37*
G36*
X01123D02*
X01108D01*
Y02107*
X01123*
Y02123*
G37*
G36*
X01088D02*
X01072D01*
Y02107*
X01088*
Y02123*
G37*
G36*
X00493Y02123D02*
X00486D01*
X00478Y0212*
X00473Y02114*
X0047Y02107*
Y02099*
X00473Y02092*
X00478Y02086*
X00486Y02083*
X00493*
X00501Y02086*
X00506Y02092*
X00509Y02099*
Y02107*
X00506Y02114*
X00501Y0212*
X00493Y02123*
G37*
G36*
X03257Y021D02*
X03246D01*
Y02082*
X03257*
Y021*
G37*
G36*
X03226D02*
X03215D01*
Y02082*
X03226*
Y021*
G37*
G36*
X01758Y0227D02*
X01751D01*
X01746Y02268*
X01741Y02264*
X01739Y02258*
Y02252*
X01728Y02241*
X01726Y02238*
X01725Y02235*
Y02216*
X01713*
Y02173*
X01725*
Y02156*
X01713*
Y02113*
X01725*
Y02103*
X01721Y02099*
X01719Y02093*
Y02086*
X01721Y02081*
X01726Y02076*
X01731Y02074*
X01738*
X01744Y02076*
X01748Y02081*
X0175Y02086*
Y02093*
X01748Y02099*
X01744Y02103*
Y02113*
X01756*
Y02156*
X01744*
Y02173*
X01756*
Y02216*
X01744*
Y02231*
X01752Y02239*
X01758*
X01764Y02241*
X01768Y02246*
X0177Y02251*
Y02258*
X01768Y02264*
X01764Y02268*
X01758Y0227*
G37*
G36*
X01488Y02256D02*
X01481D01*
X01476Y02254*
X01471Y0225*
X01469Y02244*
Y02237*
X01471Y02233*
X0147Y02232*
Y02217*
X01458*
Y02174*
X0147*
Y02154*
X01458*
Y02111*
X0147*
Y02103*
X01466Y02099*
X01464Y02093*
Y02086*
X01466Y02081*
X01471Y02076*
X01476Y02074*
X01483*
X01489Y02076*
X01493Y02081*
X01495Y02086*
Y02093*
X01493Y02099*
X01489Y02103*
Y02111*
X01501*
Y02154*
X01489*
Y02174*
X01501*
Y02217*
X01489*
Y02225*
X01494Y02227*
X01498Y02232*
X015Y02237*
Y02244*
X01498Y0225*
X01494Y02254*
X01488Y02256*
G37*
G36*
X0129D02*
X01283D01*
X01278Y02254*
X01273Y0225*
X01271Y02244*
Y02237*
X01273Y02233*
X01272Y02232*
Y02217*
X0126*
Y02174*
X01272*
Y02154*
X0126*
Y02111*
X0127*
Y02103*
X01266Y02099*
X01264Y02093*
Y02086*
X01266Y02081*
X01271Y02076*
X01276Y02074*
X01283*
X01289Y02076*
X01293Y02081*
X01295Y02086*
Y02093*
X01293Y02099*
X01289Y02103*
Y02111*
X01303*
Y02154*
X01291*
Y02174*
X01303*
Y02217*
X01291*
Y02225*
X01296Y02227*
X013Y02232*
X01302Y02237*
Y02244*
X013Y0225*
X01296Y02254*
X0129Y02256*
G37*
G36*
X01047D02*
X0104D01*
X01035Y02254*
X0103Y0225*
X01028Y02244*
Y02237*
X0103Y02233*
X01029Y02232*
Y02217*
X01017*
Y02174*
X01029*
Y02154*
X01017*
Y02111*
X0103*
Y02103*
X01026Y02099*
X01024Y02093*
Y02086*
X01026Y02081*
X01031Y02076*
X01036Y02074*
X01043*
X01049Y02076*
X01053Y02081*
X01055Y02086*
Y02093*
X01053Y02099*
X01049Y02103*
Y02111*
X0106*
Y02154*
X01048*
Y02174*
X0106*
Y02217*
X01048*
Y02225*
X01053Y02227*
X01057Y02232*
X01059Y02237*
Y02244*
X01057Y0225*
X01053Y02254*
X01047Y02256*
G37*
G36*
X00493Y02076D02*
X00486D01*
X00478Y02073*
X00473Y02067*
X0047Y0206*
Y02052*
X00473Y02045*
X00478Y02039*
X00486Y02036*
X00493*
X00501Y02039*
X00506Y02045*
X00509Y02052*
Y0206*
X00506Y02067*
X00501Y02073*
X00493Y02076*
G37*
G36*
X01548Y0229D02*
X01541D01*
X01536Y02288*
X01531Y02284*
X01529Y02278*
Y02271*
X01531Y02266*
X01536Y02261*
X01541Y02259*
X01548*
X01554Y02261*
X01558Y02265*
X01611*
X0163Y02246*
Y02115*
X01631Y02111*
X01633Y02108*
X01778Y01963*
X01781Y01961*
X01785Y0196*
X02031*
X02036Y01956*
X02041Y01954*
X02048*
X02054Y01956*
X02058Y01961*
X0206Y01966*
Y01973*
X02058Y01979*
X02054Y01983*
X02048Y01985*
X02041*
X02036Y01983*
X02031Y01979*
X01788*
X01649Y02118*
Y0225*
X01648Y02253*
X01646Y02256*
X01621Y02281*
X01618Y02283*
X01615Y02284*
X01558*
X01554Y02288*
X01548Y0229*
G37*
G36*
X00623Y01925D02*
X00616D01*
X00611Y01923*
X00606Y01919*
X00604Y01913*
Y01906*
X00606Y01901*
X00611Y01896*
X00616Y01894*
X00623*
X00629Y01896*
X00633Y01901*
X00635Y01906*
Y01913*
X00633Y01919*
X00629Y01923*
X00623Y01925*
G37*
G36*
X01718Y0198D02*
X01711D01*
X01706Y01978*
X01701Y01974*
X01699Y01968*
Y01961*
X01701Y01956*
X01705Y01951*
Y01934*
X01692*
Y0189*
X01735*
Y01903*
X01752*
Y0189*
X01795*
Y01903*
X01802*
X01804Y01899*
X01809Y01894*
X01814Y01892*
X01821*
X01827Y01894*
X01831Y01899*
X01833Y01904*
Y01911*
X01831Y01917*
X01827Y01921*
X01821Y01923*
X01814*
X01809Y01921*
X01795*
Y01934*
X01752*
Y01921*
X01735*
Y01934*
X01724*
Y01951*
X01728Y01956*
X0173Y01961*
Y01968*
X01728Y01974*
X01724Y01978*
X01718Y0198*
G37*
G36*
X01799Y01879D02*
X01784D01*
Y01863*
X01799*
Y01879*
G37*
G36*
X01739D02*
X01724D01*
Y01863*
X01739*
Y01879*
G37*
G36*
X01764D02*
X01748D01*
Y01863*
X01764*
Y01879*
G37*
G36*
X01704D02*
X01688D01*
Y01863*
X01704*
Y01879*
G37*
G36*
X01799Y01843D02*
X01784D01*
Y01827*
X01799*
Y01843*
G37*
G36*
X01764D02*
X01748D01*
Y01827*
X01764*
Y01843*
G37*
G36*
X0124Y0184D02*
X01229D01*
Y01822*
X0124*
Y0184*
G37*
G36*
X01209D02*
X01198D01*
Y01822*
X01209*
Y0184*
G37*
G36*
X01164Y0222D02*
X01157D01*
X01152Y02218*
X01147Y02214*
X01145Y02208*
Y02201*
X01147Y02196*
X01151Y02191*
Y01836*
X01145*
Y01821*
X01126*
Y01836*
X01092*
Y01788*
X01126*
Y01803*
X01145*
Y01788*
X01179*
Y01836*
X0117*
Y02191*
X01174Y02196*
X01176Y02201*
Y02208*
X01174Y02214*
X0117Y02218*
X01164Y0222*
G37*
G36*
X00078Y01893D02*
X00044D01*
Y01846*
X00059*
Y01836*
X00055Y01832*
X00052Y01826*
Y0182*
X00055Y01814*
X00059Y0181*
X00065Y01807*
X00071*
X00077Y0181*
X00081Y01814*
X00084Y0182*
Y01826*
X00081Y01832*
X00077Y01836*
Y01846*
X00078*
Y01893*
G37*
G36*
X0124Y01802D02*
X01229D01*
Y01784*
X0124*
Y01802*
G37*
G36*
X01209D02*
X01198D01*
Y01784*
X01209*
Y01802*
G37*
G36*
X00623Y018D02*
X00616D01*
X00611Y01798*
X00606Y01794*
X00604Y01788*
Y01781*
X00606Y01776*
X00611Y01771*
X00616Y01769*
X00623*
X00629Y01771*
X00633Y01776*
X00635Y01781*
Y01788*
X00633Y01794*
X00629Y01798*
X00623Y018*
G37*
G36*
X01239Y01769D02*
X01229D01*
Y01751*
X01239*
Y01769*
G37*
G36*
X01209D02*
X01198D01*
Y01751*
X01209*
Y01769*
G37*
G36*
X01178Y01765D02*
X01145D01*
Y0175*
X01127*
Y01765*
X01093*
Y01717*
X01127*
Y01732*
X01145*
Y01717*
X01152*
Y01583*
X01153Y01579*
X01155Y01576*
X01214Y01517*
Y0139*
X0121Y01386*
X01208Y0138*
Y01373*
X0121Y01368*
X01215Y01363*
X0122Y01361*
X01227*
X01233Y01363*
X01237Y01368*
X01239Y01373*
Y0138*
X01237Y01386*
X01233Y0139*
Y01408*
X01234Y01413*
X01238*
X01249*
Y01439*
Y01464*
X01235*
X01233Y01469*
X01236Y01473*
X01238*
X0125*
Y01499*
Y01524*
X01237*
X01235*
X0123Y01526*
X0123Y01527*
X01171Y01586*
Y01717*
X01178*
Y01765*
G37*
G36*
X01739Y01843D02*
X01714D01*
X01688*
Y01827*
X01703*
X01704Y01826*
X01705Y01822*
X01701Y01819*
X01699Y01813*
Y01806*
X01701Y01801*
X01705Y01796*
Y01789*
X01692*
Y01745*
X01735*
Y01758*
X01752*
Y01745*
X01795*
Y01754*
X01804*
X01809Y0175*
X01814Y01748*
X01821*
X01827Y0175*
X01831Y01755*
X01833Y0176*
Y01767*
X01831Y01773*
X01827Y01777*
X01821Y01779*
X01814*
X01809Y01777*
X01804Y01773*
X01795*
Y01789*
X01752*
Y01776*
X01735*
Y01789*
X01724*
Y01796*
X01728Y01801*
X0173Y01806*
Y01813*
X01728Y01819*
X01724Y01822*
X01725Y01826*
X01726Y01827*
X01739*
Y01843*
G37*
G36*
Y01734D02*
X01724D01*
Y01718*
X01739*
Y01734*
G37*
G36*
X01799D02*
X01784D01*
Y01718*
X01799*
Y01734*
G37*
G36*
X01704D02*
X01688D01*
Y01718*
X01704*
Y01734*
G37*
G36*
X01764D02*
X01748D01*
Y01718*
X01764*
Y01734*
G37*
G36*
X01239Y01731D02*
X01229D01*
Y01713*
X01239*
Y01731*
G37*
G36*
X01209D02*
X01198D01*
Y01713*
X01209*
Y01731*
G37*
G36*
X01799Y01698D02*
X01784D01*
Y01682*
X01799*
Y01698*
G37*
G36*
X01704D02*
X01688D01*
Y01682*
X01704*
Y01698*
G37*
G36*
X00078Y01763D02*
X00044D01*
Y01716*
X00059*
Y01706*
X00055Y01702*
X00052Y01696*
Y0169*
X00055Y01684*
X00059Y0168*
X00065Y01677*
X00071*
X00077Y0168*
X00081Y01684*
X00084Y0169*
Y01696*
X00081Y01702*
X00077Y01706*
Y01716*
X00078*
Y01763*
G37*
G36*
X03198Y0166D02*
X03191D01*
X03186Y01658*
X03181Y01654*
X03179Y01648*
Y01641*
X03181Y01636*
X03186Y01631*
X03191Y01629*
X03198*
X03204Y01631*
X03208Y01636*
X0321Y01641*
Y01648*
X03208Y01654*
X03204Y01658*
X03198Y0166*
G37*
G36*
X03324Y01617D02*
X03317D01*
X03312Y01615*
X03307Y01611*
X03305Y01605*
Y01598*
X03307Y01593*
X03312Y01588*
X03317Y01586*
X03324*
X0333Y01588*
X03334Y01593*
X03336Y01598*
Y01605*
X03334Y01611*
X0333Y01615*
X03324Y01617*
G37*
G36*
X00078Y01633D02*
X00044D01*
Y01586*
X00055*
Y01573*
X00051Y01569*
X00049Y01563*
Y01556*
X00051Y01551*
X00056Y01546*
X00061Y01544*
X00068*
X00074Y01546*
X00078Y01551*
X0008Y01556*
Y01563*
X00078Y01569*
X00074Y01573*
Y01586*
X00078*
Y01633*
G37*
G36*
X00618Y01565D02*
X00611D01*
X00606Y01563*
X00601Y01559*
X00599Y01553*
Y01546*
X00601Y01541*
X00606Y01536*
X00611Y01534*
X00618*
X00624Y01536*
X00628Y01541*
X0063Y01546*
Y01553*
X00628Y01559*
X00624Y01563*
X00618Y01565*
G37*
G36*
X01485Y01524D02*
X01469D01*
Y01509*
X01485*
Y01524*
G37*
G36*
X01449D02*
X01434D01*
Y01509*
X01449*
Y01524*
G37*
G36*
X0127D02*
Y01509D01*
X01286*
Y01524*
X0127*
G37*
G36*
X01485Y01489D02*
X01469D01*
Y01473*
X01485*
Y01489*
G37*
G36*
X01449D02*
X01434D01*
Y01473*
X01449*
Y01489*
G37*
G36*
X01286D02*
X0127D01*
Y01473*
X01286*
Y01489*
G37*
G36*
X01163Y01511D02*
X01156D01*
X01151Y01508*
X01146Y01504*
X01144Y01498*
Y01492*
X01146Y01486*
X01151Y01481*
X01156Y01479*
X0116*
Y0146*
X01158Y01459*
X01155Y01458*
X01152Y01462*
X01146Y01464*
X01139*
X01134Y01462*
X01129Y01458*
X01127Y01452*
Y01445*
X01129Y0144*
X01133Y01435*
Y01389*
X0113Y01386*
X01127Y0138*
Y01373*
X0113Y01368*
X01134Y01363*
X0114Y01361*
X01146*
X01152Y01363*
X01155Y01367*
X0116Y01365*
X0116Y01365*
Y01282*
Y01243*
X01156Y01239*
X01154Y01233*
Y01226*
X01156Y01221*
X01161Y01216*
X01166Y01214*
X01173*
X01179Y01216*
X01183Y01221*
X01185Y01226*
Y01233*
X01183Y01239*
X01179Y01243*
Y01282*
Y01484*
X01178Y01488*
X01176Y01491*
X01175Y01492*
Y01498*
X01173Y01504*
X01169Y01508*
X01163Y01511*
G37*
G36*
X01486Y01464D02*
X0147D01*
Y01449*
X01486*
Y01464*
G37*
G36*
X0145D02*
X01435D01*
Y01449*
X0145*
Y01464*
G37*
G36*
X01269D02*
Y01449D01*
X01285*
Y01464*
X01269*
G37*
G36*
X01486Y01429D02*
X0147D01*
Y01413*
X01486*
Y01429*
G37*
G36*
X0145D02*
X01435D01*
Y01413*
X0145*
Y01429*
G37*
G36*
X01285D02*
X01269D01*
Y01413*
X01285*
Y01429*
G37*
G36*
X01398Y0222D02*
X01391D01*
X01386Y02218*
X01381Y02214*
X01379Y02208*
Y02201*
X01381Y02196*
X01385Y02192*
Y02007*
X01386Y02003*
X01388Y02*
X01583Y01805*
Y01404*
X01584Y014*
X01586Y01397*
X01703Y0128*
X01706Y01278*
X0171Y01277*
X02346*
X02346Y01276*
X02348Y01272*
X02344Y01269*
X02342Y01263*
Y01256*
X02344Y01251*
X02349Y01246*
X02354Y01244*
X02361*
X02367Y01246*
X0237Y0125*
X02687*
X02691Y01246*
X02696Y01244*
X02703*
X02709Y01246*
X02713Y01251*
X02715Y01256*
Y01263*
X02713Y01269*
X02709Y01272*
X02711Y01276*
X02711Y01277*
X02723*
X02727Y01273*
X02732Y01271*
X02739*
X02745Y01273*
X02749Y01278*
X02751Y01283*
Y0129*
X02749Y01296*
X02745Y013*
X02739Y01302*
X02732*
X02727Y013*
X02723Y01296*
X02711*
X02711Y01297*
X02709Y01301*
X02713Y01305*
X02715Y0131*
Y01317*
X02713Y01323*
X02709Y01326*
X02711Y0133*
X02711Y01331*
X02723*
X02727Y01327*
X02732Y01325*
X02739*
X02745Y01327*
X02749Y01332*
X02751Y01337*
Y01344*
X02749Y0135*
X02745Y01354*
X02739Y01356*
X02732*
X02727Y01354*
X02723Y0135*
X02711*
X02711Y01351*
X02709Y01355*
X02713Y01359*
X02715Y01364*
Y01371*
X02713Y01377*
X02709Y0138*
X02711Y01384*
X02711Y01385*
X02723*
X02727Y01381*
X02732Y01379*
X02739*
X02745Y01381*
X02749Y01386*
X02751Y01391*
Y01398*
X02749Y01404*
X02745Y01408*
X02739Y0141*
X02732*
X02727Y01408*
X02723Y01404*
X02711*
X02711Y01405*
X02709Y01409*
X02713Y01413*
X02715Y01418*
Y01425*
X02713Y01431*
X02709Y01434*
X02711Y01438*
X02711Y01439*
X0318*
X03194Y01424*
X03197Y01422*
X03198Y01422*
X03209Y01412*
Y01406*
X03211Y01401*
X03216Y01396*
X03221Y01394*
X03228*
X03234Y01396*
X03238Y01401*
X0324Y01406*
Y01413*
X03238Y01419*
X03234Y01423*
X03228Y01425*
X03222*
X0321Y01438*
X03207Y0144*
X03205Y0144*
X03201Y01445*
X03202Y0145*
X03204Y01451*
X03208Y01456*
X0321Y01461*
Y01468*
X03208Y01474*
X03204Y01478*
X03198Y0148*
X03191*
X03186Y01478*
X03181Y01474*
X03179Y01468*
Y01461*
X03176Y01458*
X02173*
X02171Y01463*
X02173Y01465*
X02175Y01471*
Y01478*
X02173Y01483*
X02169Y01488*
X02163Y0149*
X02156*
X02151Y01488*
X02146Y01483*
X02144Y01478*
Y01471*
X02146Y01465*
X02148Y01463*
X02146Y01458*
X01848*
X01797Y01509*
X01794Y01511*
X01791Y01512*
X01728*
X01724Y01511*
X01721Y01509*
X01703Y01491*
X01697*
X01692Y01489*
X01687Y01485*
X01687Y01483*
X01681Y01482*
X0168Y01482*
X01677Y01484*
X01674Y01485*
X01642*
X01638Y01489*
X01632Y01491*
X01626*
X01624Y01491*
X01619Y01494*
Y01818*
X01618Y01822*
X01616Y01825*
X01431Y0201*
Y02156*
X01435Y0216*
X01437Y02165*
Y02172*
X01435Y02178*
X01431Y02182*
X01425Y02184*
X01418*
X01413Y02182*
X01409Y02178*
X01405Y0218*
X01404Y0218*
Y02192*
X01408Y02196*
X0141Y02201*
Y02208*
X01408Y02214*
X01404Y02218*
X01398Y0222*
G37*
G36*
X03198Y014D02*
X03191D01*
X03186Y01398*
X03181Y01394*
X03179Y01388*
Y01381*
X03181Y01376*
X03186Y01371*
X03191Y01369*
X03198*
X03204Y01371*
X03208Y01376*
X0321Y01381*
Y01388*
X03208Y01394*
X03204Y01398*
X03198Y014*
G37*
G36*
X01418Y01575D02*
X01411D01*
X01406Y01573*
X01401Y01569*
X01399Y01563*
Y01556*
X01401Y01551*
X01406Y01546*
X01411Y01544*
X01418*
X01424Y01546*
X01428Y0155*
X01491*
X01509Y01532*
Y0152*
X01497*
Y01477*
X01509*
Y0146*
X01498*
Y01417*
X01511*
Y0139*
X01507Y01386*
X01505Y0138*
Y01373*
X01507Y01368*
X01512Y01363*
X01517Y01361*
X01524*
X0153Y01363*
X01534Y01368*
X01536Y01373*
Y0138*
X01534Y01386*
X0153Y0139*
Y01417*
X01541*
Y0146*
X01528*
Y01477*
X0154*
Y0152*
X01528*
Y01536*
X01527Y01539*
X01525Y01542*
X01501Y01566*
X01498Y01568*
X01495Y01569*
X01428*
X01424Y01573*
X01418Y01575*
G37*
G36*
X01323D02*
X01316D01*
X01311Y01573*
X01306Y01569*
X01304Y01563*
Y01556*
X01306Y01551*
X0131Y01546*
Y0152*
X01298*
Y01477*
X0131*
Y0146*
X01297*
Y01417*
X01313*
Y0139*
X01309Y01386*
X01307Y0138*
Y01373*
X01309Y01368*
X01314Y01363*
X01319Y01361*
X01326*
X01332Y01363*
X01336Y01368*
X01338Y01373*
Y0138*
X01336Y01386*
X01332Y0139*
Y01417*
X0134*
Y0146*
X01329*
Y01477*
X01341*
Y0152*
X01329*
Y01546*
X01333Y01551*
X01335Y01556*
Y01563*
X01333Y01569*
X01329Y01573*
X01323Y01575*
G37*
G36*
X00135Y01893D02*
X00101D01*
Y01846*
X00104*
Y01763*
X00101*
Y01716*
X00104*
Y01633*
X00101*
Y01586*
X00104*
Y01466*
X00105Y01461*
X00108Y01456*
X00205Y0136*
X00209Y01357*
X00215Y01356*
X00356*
X00361Y01354*
X00368*
X00374Y01356*
X00378Y01361*
X0038Y01366*
Y01373*
X00378Y01379*
X00374Y01383*
X00368Y01385*
X00361*
X00356Y01383*
X0022*
X00132Y01472*
Y01586*
X00135*
Y01633*
X00132*
Y01716*
X00135*
Y01763*
X00132*
Y01846*
X00135*
Y01893*
G37*
G36*
X03018Y01335D02*
X03011D01*
X03006Y01333*
X03001Y01329*
X02821*
X02817Y01328*
X02814Y01326*
X02738Y0125*
X02732*
X02727Y01248*
X02722Y01244*
X0272Y01238*
Y01231*
X02722Y01226*
X02727Y01221*
X02732Y01219*
X02739*
X0274Y01219*
X02745Y01216*
Y01198*
X02741Y01194*
X02739Y01188*
Y01181*
X02741Y01176*
X02746Y01171*
X02751Y01169*
X02758*
X02764Y01171*
X02768Y01176*
X0277Y01181*
Y01188*
X02768Y01194*
X02764Y01198*
Y01216*
X02818Y0127*
X03021*
X03026Y01266*
X03031Y01264*
X03038*
X03044Y01266*
X03048Y01271*
X0305Y01276*
Y01283*
X03048Y01289*
X03044Y01293*
X03038Y01295*
X03031*
X03026Y01293*
X03021Y01289*
X02815*
X02811Y01288*
X02808Y01286*
X0276Y01238*
X02755Y0124*
X02755Y01241*
X02824Y0131*
X03001*
X03006Y01306*
X03011Y01304*
X03018*
X03024Y01306*
X03028Y01311*
X0303Y01316*
Y01323*
X03028Y01329*
X03024Y01333*
X03018Y01335*
G37*
G36*
X01568Y014D02*
X01561D01*
X01556Y01398*
X01551Y01394*
X01549Y01388*
Y01381*
X01551Y01376*
X01555Y01371*
Y01283*
X01443Y01171*
X01441Y01168*
X0144Y01165*
Y0088*
X01441Y00876*
X01443Y00873*
X01791Y00525*
Y00289*
X01788Y00288*
X01781Y00284*
X01775Y00278*
X01771Y00271*
X01769Y00263*
Y00254*
X01771Y00246*
X01775Y00239*
X01781Y00233*
X01788Y00229*
X01796Y00227*
X01804*
X01812Y00229*
X0182Y00233*
X01825Y00239*
X0183Y00246*
X01832Y00254*
Y00263*
X0183Y00271*
X01825Y00278*
X0182Y00284*
X01812Y00288*
X01809Y00289*
Y00529*
X01809Y00532*
X01807Y00535*
X01687Y00655*
X01689Y0066*
X01711*
X01716Y00656*
X01721Y00654*
X01728*
X01734Y00656*
X01738Y00661*
X0174Y00666*
Y00673*
X01738Y00679*
X01734Y00683*
X01728Y00685*
X01721*
X01716Y00683*
X01711Y00679*
X01688*
X01473Y00894*
Y01155*
X01563Y01245*
X01631*
X01636Y01241*
X01641Y01239*
X01648*
X01654Y01241*
X01658Y01246*
X0166Y01251*
Y01258*
X01658Y01264*
X01654Y01268*
X01648Y0127*
X01641*
X01636Y01268*
X01631Y01264*
X01568*
X01566Y01268*
X01571Y01273*
X01573Y01276*
X01574Y0128*
Y01371*
X01578Y01376*
X0158Y01381*
Y01388*
X01578Y01394*
X01574Y01398*
X01568Y014*
G37*
G36*
X01765Y01205D02*
X01749D01*
Y0119*
X01765*
Y01205*
G37*
G36*
X01729D02*
X01714D01*
Y0119*
X01729*
Y01205*
G37*
G36*
X01713Y01255D02*
X01706D01*
X01701Y01253*
X01696Y01249*
X01694Y01243*
Y01237*
X01668Y01211*
X01666Y01208*
X01665Y01205*
Y01204*
X01655*
Y0116*
X01698*
Y01204*
X01693*
X01691Y01208*
X01707Y01224*
X01713*
X01719Y01226*
X01723Y01231*
X01725Y01236*
Y01243*
X01723Y01249*
X01719Y01253*
X01713Y01255*
G37*
G36*
X01765Y0117D02*
X01749D01*
Y01154*
X01765*
Y0117*
G37*
G36*
X01729D02*
X01714D01*
Y01154*
X01729*
Y0117*
G37*
G36*
X01702Y01149D02*
X01686D01*
Y01133*
X01702*
Y01149*
G37*
G36*
X01666D02*
X01651D01*
Y01133*
X01666*
Y01149*
G37*
G36*
X01765Y01145D02*
X01749D01*
Y0113*
X01765*
Y01145*
G37*
G36*
X01729D02*
X01714D01*
Y0113*
X01729*
Y01145*
G37*
G36*
X01803Y0127D02*
X01796D01*
X01791Y01268*
X01786Y01264*
X01784Y01258*
Y01251*
X01786Y01246*
X0179Y01241*
Y01201*
X01777*
Y01158*
X01789*
Y01141*
X01777*
Y01098*
X0182*
Y0111*
X01855*
X01858Y01111*
X01861Y01113*
X01871Y01123*
X01873Y01126*
X01874Y0113*
Y01166*
X01878Y01171*
X0188Y01176*
Y01183*
X01878Y01189*
X01874Y01193*
X01868Y01195*
X01861*
X01856Y01193*
X01851Y01189*
X01849Y01183*
Y01176*
X01851Y01171*
X01855Y01166*
Y01133*
X01851Y01129*
X0182*
Y01141*
X01808*
Y01158*
X0182*
Y01201*
X01809*
Y01241*
X01813Y01246*
X01815Y01251*
Y01258*
X01813Y01264*
X01809Y01268*
X01803Y0127*
G37*
G36*
X01702Y01113D02*
X01686D01*
Y01097*
X01702*
Y01113*
G37*
G36*
X01666D02*
X01651D01*
Y01097*
X01666*
Y01113*
G37*
G36*
X01765Y0111D02*
X01749D01*
Y01094*
X01765*
Y0111*
G37*
G36*
X01729D02*
X01714D01*
Y01094*
X01729*
Y0111*
G37*
G36*
X01068Y0112D02*
X01061D01*
X01056Y01118*
X01051Y01114*
X01049Y01108*
Y01101*
X01051Y01096*
X01056Y01091*
X01061Y01089*
X01068*
X01074Y01091*
X01078Y01096*
X0108Y01101*
Y01108*
X01078Y01114*
X01074Y01118*
X01068Y0112*
G37*
G36*
X03018Y01115D02*
X03011D01*
X03006Y01113*
X03001Y01109*
X02999Y01103*
Y01096*
X03001Y01091*
X03006Y01086*
X03011Y01084*
X03018*
X03024Y01086*
X03028Y01091*
X0303Y01096*
Y01103*
X03028Y01109*
X03024Y01113*
X03018Y01115*
G37*
G36*
X02892Y01113D02*
X02885D01*
X0288Y01111*
X02875Y01107*
X02873Y01101*
Y01094*
X02875Y01089*
X0288Y01084*
X02885Y01082*
X02892*
X02898Y01084*
X02902Y01089*
X02904Y01094*
Y01101*
X02902Y01107*
X02898Y01111*
X02892Y01113*
G37*
G36*
X03216Y01104D02*
X03209D01*
X03204Y01102*
X03199Y01098*
X03197Y01092*
Y01085*
X03199Y0108*
X03204Y01075*
X03209Y01073*
X03216*
X03222Y01075*
X03226Y0108*
X03228Y01085*
Y01092*
X03226Y01098*
X03222Y01102*
X03216Y01104*
G37*
G36*
X00368Y0087D02*
X00361D01*
X00356Y00868*
X00351Y00864*
X00349Y00858*
Y00851*
X00351Y00846*
X00356Y00841*
X00361Y00839*
X00368*
X00374Y00841*
X00378Y00846*
X0038Y00851*
Y00858*
X00378Y00864*
X00374Y00868*
X00368Y0087*
G37*
G36*
X00848Y005D02*
X00841D01*
X00836Y00498*
X00831Y00494*
X00829Y00488*
Y00481*
X00831Y00476*
X00836Y00471*
X00841Y00469*
X00848*
X00854Y00471*
X00858Y00476*
X0086Y00481*
Y00488*
X00858Y00494*
X00854Y00498*
X00848Y005*
G37*
G36*
X00678D02*
X00671D01*
X00666Y00498*
X00661Y00494*
X00659Y00488*
Y00481*
X00661Y00476*
X00666Y00471*
X00671Y00469*
X00678*
X00684Y00471*
X00688Y00476*
X0069Y00481*
Y00488*
X00688Y00494*
X00684Y00498*
X00678Y005*
G37*
G36*
X02046Y00293D02*
Y00268D01*
X02071*
X0207Y00272*
X02065Y0028*
X02058Y00287*
X0205Y00292*
X02046Y00293*
G37*
G36*
X02026D02*
X02023Y00292D01*
X02015Y00287*
X02008Y0028*
X02003Y00272*
X02002Y00268*
X02026*
Y00293*
G37*
G36*
X01948Y01245D02*
X01941D01*
X01936Y01243*
X01931Y01239*
X01929Y01233*
Y01226*
X01931Y01221*
X01935Y01216*
Y00598*
X01872Y00535*
X0187Y00532*
X0187Y00529*
Y00289*
X01867Y00288*
X0186Y00284*
X01854Y00278*
X01849Y00271*
X01847Y00263*
Y00254*
X01849Y00246*
X01854Y00239*
X0186Y00233*
X01867Y00229*
X01875Y00227*
X01883*
X01891Y00229*
X01898Y00233*
X01904Y00239*
X01908Y00246*
X01911Y00254*
Y00263*
X01908Y00271*
X01904Y00278*
X01898Y00284*
X01891Y00288*
X01888Y00289*
Y00525*
X01944Y00581*
X01948Y00579*
Y00289*
X01945Y00288*
X01938Y00284*
X01932Y00278*
X01928Y00271*
X01926Y00263*
Y00254*
X01928Y00246*
X01932Y00239*
X01938Y00233*
X01945Y00229*
X01954Y00227*
X01962*
X0197Y00229*
X01977Y00233*
X01983Y00239*
X01987Y00246*
X01989Y00254*
Y00263*
X01987Y00271*
X01983Y00278*
X01977Y00284*
X0197Y00288*
X01967Y00289*
Y01179*
X01977Y01189*
X01983*
X01989Y01191*
X01993Y01196*
X01995Y01201*
Y01208*
X01993Y01214*
X01989Y01218*
X01983Y0122*
X01976*
X01971Y01218*
X01966Y01214*
X01964Y01208*
Y01202*
X01958Y01196*
X01954Y01198*
Y01216*
X01958Y01221*
X0196Y01226*
Y01233*
X01958Y01239*
X01954Y01243*
X01948Y01245*
G37*
G36*
X01726Y0029D02*
X01717D01*
X01709Y00288*
X01702Y00284*
X01696Y00278*
X01692Y00271*
X0169Y00263*
Y00254*
X01692Y00246*
X01696Y00239*
X01702Y00233*
X01709Y00229*
X01717Y00227*
X01726*
X01734Y00229*
X01741Y00233*
X01747Y00239*
X01751Y00246*
X01753Y00254*
Y00263*
X01751Y00271*
X01747Y00278*
X01741Y00284*
X01734Y00288*
X01726Y0029*
G37*
G36*
X01674D02*
X01611D01*
Y00227*
X01674*
Y0029*
G37*
G36*
X02071Y00248D02*
X02046D01*
Y00224*
X0205Y00225*
X02058Y0023*
X02065Y00237*
X0207Y00245*
X02071Y00248*
G37*
G36*
X02026D02*
X02002D01*
X02003Y00245*
X02008Y00237*
X02015Y0023*
X02023Y00225*
X02026Y00224*
Y00248*
G37*
G36*
X00259Y00324D02*
X0024D01*
X0022Y00321*
X00202Y00315*
X00185Y00306*
X00169Y00294*
X00155Y0028*
X00143Y00265*
X00135Y00247*
X00128Y00229*
X00125Y00209*
Y0019*
X00128Y0017*
X00135Y00152*
X00143Y00135*
X00155Y00119*
X00169Y00105*
X00185Y00093*
X00202Y00085*
X0022Y00078*
X0024Y00075*
X00259*
X00279Y00078*
X00297Y00085*
X00315Y00093*
X0033Y00105*
X00344Y00119*
X00356Y00135*
X00365Y00152*
X00371Y0017*
X00374Y0019*
Y00209*
X00371Y00229*
X00365Y00247*
X00356Y00265*
X00344Y0028*
X0033Y00294*
X00315Y00306*
X00297Y00315*
X00279Y00321*
X00259Y00324*
G37*
%LNpch_mainboard-3*%
%LPD*%
G36*
X01933Y03626D02*
X01923Y03616D01*
X01921Y03613*
X0192Y0361*
Y03571*
X01915Y03569*
X01907Y03565*
X019Y03558*
X01895Y03549*
X01892Y03539*
Y0353*
X01895Y0352*
X019Y03512*
X01907Y03505*
X01915Y035*
X0192Y03498*
Y03465*
X01921Y03461*
X01923Y03458*
X01938Y03443*
X01941Y03441*
X01945Y0344*
X02081*
X02115Y03406*
Y03003*
X01838Y02726*
X01836Y02723*
X01835Y0272*
Y02619*
X01833Y02617*
X0183Y02617*
X01811Y02636*
X01808Y02638*
X01805Y02639*
X01376*
X01375Y0264*
X01377Y02645*
X0175*
X01753Y02646*
X01756Y02648*
X01791Y02683*
X01793Y02686*
X01794Y0269*
Y03505*
X01799Y03507*
X01804Y03501*
X01814Y03496*
X0182Y03494*
Y03535*
Y03575*
X01814Y03573*
X01804Y03568*
X01799Y03562*
X01794Y03564*
Y03594*
X01794Y03594*
X01805Y03605*
X01807Y03608*
X01807Y03609*
X01828Y0363*
X01931*
X01933Y03626*
G37*
%LNpch_mainboard-4*%
%LPC*%
G36*
X0184Y03575D02*
Y03545D01*
X0187*
X01868Y03551*
X01863Y0356*
X01855Y03568*
X01846Y03573*
X0184Y03575*
G37*
G36*
X0187Y03525D02*
X0184D01*
Y03494*
X01846Y03496*
X01855Y03501*
X01863Y03509*
X01868Y03519*
X0187Y03525*
G37*
%LNpch_mainboard-5*%
%LPD*%
G54D16*
X03338Y04759D03*
Y04795D03*
Y0483D03*
Y04866D03*
X03297Y04866D03*
X03305Y04891D03*
X03263Y04889D03*
X03262Y04858D03*
X03316Y04991D03*
Y05027D03*
Y05062D03*
Y05098D03*
Y05134D03*
X03283Y05139D03*
Y05103D03*
Y05067D03*
Y05031D03*
Y04996D03*
Y05174D03*
Y0521D03*
Y05246D03*
Y05282D03*
X03316Y05277D03*
Y05241D03*
Y05205D03*
Y0517D03*
G54D17*
X0076Y0085D02*
X008Y0081D01*
X012*
X0145Y0088D02*
X018Y00529D01*
Y00258*
X01879D02*
Y00529D01*
X01945Y00595*
Y0123*
X01865Y0118D02*
Y0113D01*
X01855Y0112*
X01798*
Y0118*
X018Y01181*
Y01255*
X01958Y01183D02*
X0198Y01205D01*
X01958Y01183D02*
Y00258D01*
X01725Y0067D02*
X01685D01*
X01464Y00891*
Y01159*
X0156Y01255*
X01645*
X01675Y01205D02*
X0171Y0124D01*
X01675Y01205D02*
Y01184D01*
X01676Y01182*
Y01123D02*
X01736D01*
X01739Y0112*
Y0118*
X01676Y01123D02*
X01638Y01085D01*
X015*
X0145Y01165D02*
X01565Y0128D01*
Y01385*
X01521Y01377D02*
Y01437D01*
X01518Y01439*
Y01499*
Y01536*
X01495Y0156*
X01415*
X0146Y0154D02*
Y01499D01*
X01459Y01499*
Y01439*
X0146Y01439*
X01458Y01436*
Y01377*
X01323D02*
Y01434D01*
X01318Y01439*
X01319Y01439*
Y01499*
X0132Y01499*
Y0156*
X0122Y0169D02*
Y0174D01*
X01219Y01741*
X01219Y01741*
Y01812*
X01025Y0195D02*
X01Y01975D01*
Y02625*
X0103Y02655*
X0175*
X01785Y0269*
Y036*
X01786Y03601*
X01787*
X01798Y03612*
Y03613*
X01825Y0364*
X02055*
X0211Y03695*
Y04365*
X02195Y0445*
Y04415D02*
X02125Y04345D01*
Y0369*
X0206Y03625*
X01945*
X0193Y0361*
Y03535*
Y03465*
X01945Y0345*
X02085*
X02125Y0341*
Y03*
X01845Y0272*
Y0243*
X01835Y0242*
X01775*
X01735D02*
Y02535D01*
X01685D02*
Y02455D01*
X0166Y0243*
X0171D02*
Y02585D01*
X0178Y02615D02*
X01805Y0259D01*
Y0263D02*
X01825Y0261D01*
Y02565*
X01805Y02545*
Y0263D02*
X0136D01*
X0138Y026D02*
X01395Y02615D01*
X0178*
X01735Y0242D02*
X01726Y02411D01*
X01709*
X01698Y024*
X01695*
X0173Y0239D02*
X0184D01*
X0186Y0241*
Y0271*
X0214Y0299*
Y03415*
X02093Y03462*
X02045*
X0203Y03477*
Y03575*
X0214Y03685*
Y0433*
X02195Y04385*
Y0429D02*
X02155Y0425D01*
Y0368*
X0213Y03655*
Y03535*
Y03445*
X02155Y0342*
Y02985*
X01875Y02705*
Y02395*
X0185Y0237*
X0126*
X01287Y02241D02*
Y02237D01*
X01281Y02232*
Y02196*
Y02133*
X0128Y02131*
Y0209*
X0134Y02065D02*
Y02132D01*
X01341Y02133*
Y02196*
Y0225*
X01479Y02133D02*
X0148Y02132D01*
Y0209*
X01479Y02133D02*
Y02196D01*
Y02232*
X01485Y02237*
Y02241*
X01539D02*
Y02196D01*
Y02133*
X0154Y02132*
Y02065*
X01715Y01965D02*
Y01913D01*
X01714Y01912*
X01774*
X01809*
X01814Y01908*
X01818*
Y01854D02*
X01774D01*
X01774Y01853*
X01714*
X0171Y0185*
X01665*
X01715Y0181D02*
Y01768D01*
X01714Y01767*
X01774*
X01777Y01764*
X01818*
Y0171D02*
X01775D01*
X01774Y01708*
X01714*
X01746Y01665D02*
X01773Y01638D01*
X01932*
X02603*
X02753Y01788*
X03513*
X0372Y01995*
Y02022*
X0369Y01998D02*
Y024D01*
X03888Y02412D02*
Y0198D01*
X03609Y01701*
X02799*
X02628Y0153*
X01932*
X01701*
X01746Y01557D02*
X01932D01*
X02628*
X0279Y01719*
X03591*
X03843Y01971*
Y02142*
X03906Y01911D02*
Y02442D01*
X0366Y02688*
X03744Y02652D02*
X03924Y02472D01*
Y01866*
X03915Y01845D02*
D01*
D01*
G75*
G03X03924Y01866I-00021J00021D01*
G74*G01*
X03915Y01845D02*
X03807Y01737D01*
X03771Y01764D02*
X03897Y0189D01*
D01*
D01*
G75*
G03X03906Y01911I-00021J00021D01*
G74*G01*
X03942Y01845D02*
Y02502D01*
X03828Y02616*
X03905Y02585D02*
X03907D01*
X0396Y02532*
Y01818*
X03947Y01787D02*
D01*
D01*
G75*
G03X0396Y01818I-00030J00030D01*
G74*G01*
X03929Y01814D02*
D01*
D01*
G75*
G03X03942Y01845I-00030J00030D01*
G74*G01*
X03929Y01814D02*
X03837Y01722D01*
X03807Y0171D02*
D01*
D01*
G75*
G03X03837Y01722I0J00043D01*
G74*G01*
X03947Y01787D02*
X03861Y01701D01*
X03817Y01683D02*
D01*
D01*
G75*
G03X03861Y01701I-0J00061D01*
G74*G01*
X03817Y01683D02*
X03807D01*
Y0171D02*
X03771D01*
X03573Y01737D02*
X03816Y0198D01*
Y02115*
X03786Y02082D02*
Y01986D01*
X03555Y01755*
X02772*
X02619Y01602*
X01932*
X01756*
X01747Y01611*
X01746*
X01764Y0162D02*
X01932D01*
X0261*
X02763Y01773*
X03537*
X03756Y01992*
Y02046*
X0369Y01998D02*
X03501Y01809D01*
X02729*
X0261Y0169*
X0261*
X02628Y01584D02*
X02781Y01737D01*
X03573*
X0357Y02022D02*
Y02208D01*
X0354Y02244D02*
Y02028D01*
X03411Y01899*
X02385*
X02186Y017*
X0214*
X02183Y0167D02*
X02394Y01881D01*
X03429*
X0357Y02022*
X036Y02016D02*
Y02329D01*
Y02402*
Y0249*
X0363Y0246D02*
Y0201D01*
X03465Y01845*
X02695*
X02575Y01725*
X026Y01785D02*
X02617Y01802D01*
X02671Y01856*
X02678Y01863*
X03447*
X036Y02016*
X0366Y02004D02*
Y0243D01*
X03744Y02556D02*
X03888Y02412D01*
X0366Y02004D02*
X03483Y01827D01*
X02712*
X02635Y0175*
X02628Y01584D02*
X01701D01*
X01701Y01584*
Y01638D02*
X01746D01*
X01764Y0162*
X0209Y0167D02*
X02183D01*
X02137Y0175D02*
Y02578D01*
X0214Y02581*
Y02585*
X02115Y0259D02*
D01*
D01*
G75*
G03X02111Y02598I-00012J-0D01*
G74*G01*
X0209Y0262*
Y02555D02*
Y01773D01*
Y01725D02*
X02111Y01762D01*
D01*
D01*
G75*
G03X02114Y01775I-00020J00011D01*
G74*G01*
X02115Y0259D01*
X02Y0258D02*
Y0234D01*
X0198Y0232*
X02015D02*
Y0235D01*
X02024Y02359*
Y02545*
X0198Y02545D02*
Y0238D01*
X01955Y02405D02*
Y0258D01*
X0189Y027D02*
X0217Y0298D01*
Y0341*
X0223Y0347*
Y03535*
Y0362*
X0217Y0368*
Y0423*
X02195Y04255*
Y04255*
X02235Y04114D02*
X02235Y04115D01*
X02235Y04114D02*
Y04065D01*
X0229Y0401*
X02385*
X02405Y0399*
Y021*
X0238Y02075*
X02225*
X02215Y02065*
Y02035*
X02235Y02045D02*
X0225Y0206D01*
X0241*
X0242Y0207*
Y03995*
X0239Y04025*
X02295*
X0227Y0405*
Y041*
X02285Y04115*
X0229Y0409D02*
X02315Y04115D01*
X02345*
X0229Y0409D02*
Y0405D01*
X023Y0404*
X024*
X02435Y04005*
Y02065*
X02405Y02035*
X02255*
X02235Y02045D02*
Y0201D01*
X02275D02*
X024D01*
X0245Y0206*
Y0401*
X024Y0406*
X02315*
X0258Y0437D02*
X02605Y04395D01*
X03335*
X0349Y04375D02*
X03515Y044D01*
Y0461*
X03535Y0463*
X0359*
X03565Y0445D02*
X03565Y04449D01*
X0363*
X0363Y04449*
X0349Y04375D02*
X02625D01*
X02605Y04355*
Y02975*
X0258Y02995D02*
Y0437D01*
X0264Y0447D02*
Y04545D01*
X02605Y0458*
X02115*
X0208Y04615*
Y05595*
X02D02*
Y04625D01*
X0207Y04555*
X0226*
X02335Y046D02*
X0248D01*
X02495Y04615*
Y0465*
X02515Y0472D02*
X02415D01*
X02345Y04725D02*
Y04655D01*
X0239Y0463D02*
Y04899D01*
X023Y04989*
Y0529*
X0234Y0533*
X02395*
X02408Y05316*
Y05294*
X02424Y05266D02*
X0245Y0524D01*
Y05178*
X0243Y04935D02*
Y0485D01*
X03159Y04824D02*
X03249D01*
X03266Y04841*
X03302*
X03303Y04842*
X0166Y05342D02*
Y0461D01*
X0162Y0457*
X0158Y0456D02*
Y05342D01*
X015D02*
Y04215D01*
X013Y05D02*
X012D01*
X017Y0321D02*
Y0287D01*
X0168Y0285*
X0105*
Y029D02*
X01285D01*
X0131Y02875D02*
X01025D01*
Y02925D02*
X01255D01*
X01161Y02205D02*
Y01813D01*
X01162Y01812*
X01109*
X01052D02*
Y01742D01*
X01053Y01741*
X01055Y01739*
Y0169*
X01025Y01695D02*
Y0195D01*
X0111Y01741D02*
X01161D01*
Y01583*
X01224Y01521*
Y01377*
X0126D02*
Y0154D01*
X0117Y01484D02*
Y01282D01*
Y0123*
X0145Y01165D02*
Y0088D01*
X0093Y01325D02*
X00985Y0138D01*
Y01655*
X01025Y01695*
X0116Y01495D02*
Y01494D01*
X0117Y01484*
X00975Y0177D02*
X00905Y0184D01*
X00847*
X0036*
X00275Y01755*
Y01635*
X0025Y0161*
X00185*
X0024Y0174D02*
X00355Y01855D01*
X0091*
X00965Y018*
X01005*
X00975Y0182D02*
X00921Y01873D01*
X00847*
X0018*
X00185Y0174D02*
X0024D01*
X00068D02*
Y01693D01*
X00061Y0161D02*
X00065Y01606D01*
Y0156*
X00068Y01823D02*
Y0187D01*
X0076Y01325D02*
X0093D01*
X0076D02*
Y0085D01*
X00975Y0171D02*
Y0177D01*
X0104Y0209D02*
Y02131D01*
X01038Y02133*
Y02196*
Y02232*
X01044Y02237*
Y02241*
X01098Y02196D02*
Y02133D01*
X011Y02131*
Y02065*
X01545Y02275D02*
X01615D01*
X0164Y0225*
Y02115*
X01785Y0197*
X02045*
X0196Y0209D02*
X0189Y0216D01*
Y027*
X0193Y02545D02*
Y02367D01*
Y02355*
X01945Y0225D02*
X02015Y0232D01*
X01945Y0225D02*
Y02195D01*
X01795Y02255D02*
Y02135D01*
X01794Y02135*
X01795Y02134*
Y02065*
X01735Y02195D02*
Y02235D01*
X01755Y02255*
X01735Y02195D02*
Y02135D01*
Y0209*
X02475Y0201D02*
Y02405D01*
X02595Y02525*
X03465*
X03433Y02381D02*
X0345Y02365D01*
X03433Y02381D02*
X03292D01*
X03232*
X03231Y02185D02*
X03236Y0218D01*
X03293D02*
X03435D01*
X0347Y0203D02*
Y02298D01*
X03503Y02269D02*
X03504Y02268D01*
Y02028*
X03393Y01917*
X02583*
X02535Y01965*
Y0237*
X02509Y02395*
X02531Y02418D02*
X02555Y02395D01*
Y01975*
X02595Y01935*
X03375*
X03409Y01969*
X03434Y01994*
X0347Y0203*
X03231Y02185D02*
X0286D01*
X03155Y0211D02*
X03236D01*
X03293D02*
Y0218D01*
X02821Y0132D02*
X03015D01*
X03035Y0128D02*
X02815D01*
X02755Y0122*
Y01185*
X02736Y01235D02*
X02821Y0132D01*
X02736Y01235D02*
X02735D01*
X03149Y0079D02*
Y0074D01*
X03199Y0069*
X03294Y00522D02*
X03393Y00621D01*
Y00873*
X03339Y00927*
Y01188*
X03303Y01224*
Y0126*
X03339Y01245D02*
Y01215D01*
X03356Y01197*
Y00936*
X03411Y00882*
Y00612*
X03312Y00513*
Y0037*
X03435Y00247*
X03294Y0045D02*
Y00522D01*
Y0045D02*
X03276Y00432D01*
X03097*
X02913Y00247*
X03013D02*
X03127D01*
X03145Y00265*
Y00306*
X03215D02*
Y00268D01*
X03235Y00247*
X03335*
G54D23*
X01259Y01439D03*
X01318D03*
X01319Y01499D03*
X0126D03*
X01459D03*
X0146Y01439D03*
X01519D03*
X01518Y01499D03*
X01739Y0118D03*
Y0112D03*
X01798D03*
Y0118D03*
X01794Y02135D03*
Y02195D03*
X01735D03*
Y02135D03*
X01539Y02196D03*
X01479D03*
Y02133D03*
X01539D03*
X01341Y02196D03*
Y02133D03*
X01281Y02196D03*
Y02133D03*
X01098Y02196D03*
X01038D03*
Y02133D03*
X01098D03*
G54D24*
X00118Y0161D03*
Y0174D03*
Y0187D03*
X00061D03*
Y0174D03*
Y0161D03*
X01053Y01741D03*
X0111D03*
X01161D03*
X01162Y01812D03*
X01109D03*
X01052D03*
X01219D03*
X01219Y01741D03*
X03236Y0211D03*
X03293D03*
Y0218D03*
X03236D03*
G54D30*
X0213Y03535D03*
X0223D03*
X0203D03*
X0193D03*
X0183D03*
X00805Y05417D03*
G54D37*
X03145Y00306D03*
X03215D03*
Y00363D03*
X03145D03*
X0166Y05342D03*
Y054D03*
X0158D03*
Y05342D03*
X015D03*
Y054D03*
G54D38*
X01676Y01123D03*
Y01182D03*
X01714Y01708D03*
X01774D03*
Y01767D03*
X01714D03*
Y01853D03*
X01774D03*
Y01912D03*
X01714D03*
X03232Y02322D03*
X03292D03*
Y02381D03*
X03232D03*
G54D133*
X01143Y01377D02*
Y01448D01*
X01143Y01449*
X01143Y01377D02*
X01143Y01377D01*
X01593Y01404D02*
Y01809D01*
X01395Y02007*
Y02205*
X01422Y02169D02*
Y02007D01*
X0161Y01818*
Y01422*
X01719Y01314*
X01932*
X027*
Y01368D02*
X01932D01*
X01782*
X01674Y01476*
X01629*
X01593Y01404D02*
X0171Y01287D01*
X01932*
X02736*
Y01341D02*
X01932D01*
X01772*
X01665Y01449*
X01701Y01476D02*
X01728Y01503D01*
X01791*
X01845Y01449*
X01932*
X03183*
X03201Y01431*
X03203*
X03225Y0141*
X02736Y01395D02*
X01932D01*
X01791*
X01737Y01449*
X01764Y01476D02*
X01818Y01422D01*
X01932*
X027*
Y0126D02*
X02358D01*
G54D136*
X00365Y0137D02*
X00215D01*
X00118Y01466*
Y0161*
Y0174*
Y0187*
X00565Y0316D02*
Y03385D01*
X0166Y054D02*
Y0544D01*
X0158D02*
Y054D01*
X015D02*
Y0544D01*
X0315Y02325D02*
X03151D01*
X03153Y02322*
X03232*
X03292*
X03395*
X03408Y02335*
X03505*
X03145Y00363D02*
X03215D01*
X03265*
Y00365*
G54D138*
X02999Y0069D03*
G54D139*
X03099Y0069D03*
X03199D03*
X03299D03*
X03249Y0079D03*
X03349D03*
X03149D03*
X03049D03*
G54D140*
X02913Y00247D03*
X03013D03*
X03335D03*
X03435D03*
G54D141*
X02869Y0056D03*
X03479D03*
G54D142*
X02949Y0044D03*
X03399D03*
G54D143*
X01721Y00258D03*
X018D03*
X01879D03*
X01958D03*
X02036D03*
G54D144*
X01643Y00258D03*
G54D145*
X0049Y02056D03*
Y02103D03*
G54D146*
X0025Y002D03*
X0374Y0021D03*
X03745Y0543D03*
X0025D03*
G54D147*
X00805Y0524D03*
G54D148*
X02608Y05312D03*
Y05498D03*
X02271D03*
Y05312D03*
G54D149*
X02424Y05266D03*
X02455D03*
X02487D03*
X02518D03*
X0255D03*
X02534Y05294D03*
X02503D03*
X02471D03*
X02408D03*
X02377D03*
X02345D03*
X02329Y05266D03*
X02361D03*
X02392D03*
G54D150*
X0233Y03535D03*
G54D151*
X0005Y002D03*
X0015Y004D03*
X0035D03*
X0045Y002D03*
X0065D03*
X0085D03*
X0095Y004D03*
X0105Y002D03*
X0125D03*
X0145D03*
X0155Y004D03*
X0165Y002D03*
X0185D03*
X0205D03*
X0225D03*
X0235Y004D03*
X0245Y002D03*
X0265D03*
X0255Y004D03*
X0265Y006D03*
X0245D03*
X0255Y008D03*
X0265Y01D03*
X0285D03*
X02934Y00999D03*
X03095Y0118D03*
X03213Y01089D03*
X0325Y01D03*
X03435Y0093D03*
X0365Y01D03*
X0375Y008D03*
X0377Y0066D03*
X0385Y006D03*
X0395Y004D03*
X0375D03*
X0395Y008D03*
X0385Y01D03*
X0395Y012D03*
X0385Y014D03*
X0375Y012D03*
X03465Y01557D03*
X0343Y014D03*
X03425Y0124D03*
X03384Y01143D03*
Y01089D03*
X0345Y01D03*
X03339Y01245D03*
X03303Y0126D03*
X03206Y01248D03*
Y01291D03*
X03225Y0141D03*
X03321Y01602D03*
X03195Y01645D03*
X03135Y0164D03*
X03195Y01465D03*
X0316Y01415D03*
X03195Y01385D03*
X03163Y01291D03*
Y01248D03*
X03035Y0128D03*
X03015Y0132D03*
X02988Y01215D03*
X03015Y011D03*
X02889Y01098D03*
X02736Y01287D03*
Y01341D03*
Y01395D03*
Y01235D03*
X02755Y01185D03*
X027Y0126D03*
Y01314D03*
Y01368D03*
Y01422D03*
X0261Y0169D03*
X02575Y01725D03*
X026Y01785D03*
X02635Y0175D03*
X0275Y02D03*
X02955Y01985D03*
X0315Y02D03*
X03155Y0211D03*
X03185Y02255D03*
X0315Y02325D03*
X0309Y02275D03*
X0289Y02155D03*
X0286Y02185D03*
X0283Y02225D03*
X0284Y0211D03*
X0265Y022D03*
X02725Y02345D03*
X0269Y02385D03*
X02531Y02418D03*
X02509Y02395D03*
X0235Y024D03*
X0214Y02585D03*
X0209Y02555D03*
Y0262D03*
X0205Y026D03*
X02Y0258D03*
X01955D03*
X0198Y02545D03*
X02024Y02545D03*
X01955Y02405D03*
X0198Y0238D03*
Y0232D03*
X02065Y0229D03*
X0196Y0209D03*
X02045Y0197D03*
X01955Y0183D03*
X0209Y01773D03*
Y01725D03*
Y0167D03*
X0195Y0166D03*
X01954Y015D03*
X01995Y015D03*
X02045Y0151D03*
X02135Y0126D03*
X0235Y012D03*
X02358Y0126D03*
X0237Y0151D03*
X0227Y0167D03*
X02195Y0176D03*
X02137Y0175D03*
X0214Y017D03*
X0216Y01474D03*
X0198Y01205D03*
X018Y01255D03*
X01865Y01225D03*
Y0118D03*
X01945Y0123D03*
X01645Y01255D03*
X0171Y0124D03*
X0176Y0123D03*
X01565Y01385D03*
X01521Y01377D03*
X01665Y01449D03*
X01701Y01476D03*
Y0153D03*
X01746Y01557D03*
X01764Y01476D03*
X01737Y01449D03*
X01818Y0171D03*
Y01764D03*
Y01854D03*
Y01908D03*
X01795Y02065D03*
Y02255D03*
X01945Y02195D03*
X0193Y02355D03*
Y02545D03*
X01805D03*
Y0259D03*
X0171Y02585D03*
X01735Y02535D03*
X01685D03*
X0171Y0243D03*
X01695Y024D03*
X0173Y0239D03*
X01775Y0242D03*
X0166Y0243D03*
X01755Y02255D03*
X01735Y0209D03*
X01715Y01965D03*
Y0181D03*
X0165Y018D03*
X01665Y0185D03*
X01701Y01638D03*
Y01584D03*
X01746Y01611D03*
Y01665D03*
X01629Y01476D03*
X01415Y0156D03*
X0146Y0154D03*
X01458Y01377D03*
X01323D03*
X0126Y0154D03*
X0125Y014D03*
X0126Y01377D03*
X01224D03*
X0117Y0123D03*
X0125Y01D03*
X01295Y01025D03*
X012Y0081D03*
X0105Y01D03*
X01065Y01105D03*
X0115Y012D03*
X01143Y01377D03*
X0105Y014D03*
X01143Y01449D03*
X0116Y01495D03*
X0132Y0156D03*
X0122Y0169D03*
X0125Y018D03*
X0135Y02D03*
X0155D03*
X0154Y02065D03*
X0148Y0209D03*
X01485Y02241D03*
X01539D03*
X01545Y02275D03*
X01395Y02205D03*
X01341Y0225D03*
X01422Y02169D03*
X0134Y02065D03*
X0125Y022D03*
X01287Y02241D03*
X0128Y0209D03*
X01161Y02205D03*
X01044Y02241D03*
X0104Y0209D03*
X011Y02065D03*
X01005Y018D03*
X00975Y0182D03*
Y0171D03*
X00985Y01655D03*
X01055Y0169D03*
X00819Y01719D03*
Y01656D03*
X0075Y016D03*
X0062Y01785D03*
X00585Y0182D03*
X0062Y0191D03*
X00819Y02043D03*
Y02115D03*
X0062Y02205D03*
Y02265D03*
X0075Y024D03*
X0095D03*
X0105Y026D03*
X0126Y0237D03*
X0138Y026D03*
X0136Y0263D03*
X0125Y026D03*
X01255Y02925D03*
X01285Y029D03*
X0131Y02875D03*
X0139Y02985D03*
X0133Y0311D03*
X0157Y02985D03*
X0173Y0316D03*
X017Y0321D03*
X0192Y03045D03*
X0188Y03245D03*
X0153Y03545D03*
X0175Y036D03*
X0178Y0362D03*
X019Y0368D03*
X0185Y038D03*
X02075Y03935D03*
X0223Y03894D03*
X02385Y0383D03*
X0238Y03955D03*
X02515Y041D03*
X0265Y042D03*
X0275Y04D03*
X0285Y038D03*
X0295Y036D03*
X0315D03*
X0335D03*
X0345Y038D03*
X0355Y036D03*
X0375D03*
X0395D03*
X0385Y038D03*
X0395Y04D03*
X0375D03*
X03395Y04235D03*
X0345Y042D03*
X0346Y041D03*
X03405Y04D03*
X03325Y041D03*
X03265Y04045D03*
X0325Y038D03*
X03065Y04125D03*
Y0418D03*
X03005D03*
X0295Y04D03*
X02805Y0416D03*
X02825Y0422D03*
X0287Y0434D03*
X02825Y0445D03*
X0265Y046D03*
X02655Y0465D03*
X0266Y0451D03*
X0264Y0447D03*
Y04305D03*
X0266Y0428D03*
X0249Y0439D03*
X02446D03*
Y04346D03*
X0249D03*
Y04303D03*
Y0426D03*
X02446D03*
Y04303D03*
X02403Y0439D03*
X0236D03*
Y04346D03*
Y04303D03*
Y0426D03*
X02403D03*
Y04303D03*
Y04346D03*
X02345Y04115D03*
X02285D03*
X02315Y0406D03*
X02195Y04255D03*
Y0429D03*
X0221Y0418D03*
X02235Y04115D03*
X02195Y04075D03*
X02005Y0427D03*
X01965Y04335D03*
X02075Y04135D03*
X0185Y042D03*
X0187Y03975D03*
X0165Y038D03*
X01626Y03683D03*
X01366D03*
X0135Y036D03*
X01275Y0351D03*
Y0348D03*
Y0345D03*
Y0342D03*
X0101Y03445D03*
Y03475D03*
Y0351D03*
X0115Y036D03*
X01106Y03683D03*
X01015Y0393D03*
X0125Y042D03*
X0137Y04245D03*
X01455Y04255D03*
X01475Y04345D03*
X01495Y04185D03*
Y0415D03*
X01515Y04115D03*
X0165Y0422D03*
X0172Y04275D03*
X01725Y04415D03*
X0177D03*
X01745Y04445D03*
X0165Y0441D03*
X0175Y0456D03*
Y048D03*
X0155D03*
X0158Y0456D03*
X0162Y0457D03*
X01535Y0441D03*
X015Y04215D03*
X01365Y0458D03*
X0133D03*
Y04615D03*
X01365D03*
Y0465D03*
X0135Y048D03*
X01268Y04859D03*
X01225D03*
X01181D03*
Y04816D03*
X01225D03*
X01268D03*
X0125Y0465D03*
Y046D03*
X0118Y04485D03*
Y04455D03*
Y0423D03*
X0121D03*
X0115Y04455D03*
X0112D03*
X0109D03*
Y04485D03*
X0112D03*
X0115D03*
X0106D03*
Y0423D03*
X0109D03*
X0112D03*
X0115D03*
X0105Y042D03*
X01015Y04205D03*
Y0417D03*
Y04135D03*
Y041D03*
Y04065D03*
X00757Y03683D03*
X0075Y036D03*
X0055D03*
X00665Y03435D03*
Y03405D03*
X00565Y03385D03*
Y0316D03*
X00635Y0305D03*
Y02995D03*
X0085Y03D03*
X009Y031D03*
X01025Y02925D03*
X0105Y029D03*
X01025Y02875D03*
X0105Y0285D03*
Y03D03*
X01065Y031D03*
X01105Y03215D03*
X0115Y032D03*
X01065Y03275D03*
X00735Y03295D03*
Y03195D03*
X00465Y0339D03*
X0025Y034D03*
X0023Y0314D03*
X0024Y02995D03*
X00375Y0299D03*
X0045Y03D03*
X00465Y03105D03*
X0035Y028D03*
X0025Y026D03*
X0035Y024D03*
X0025Y022D03*
X00415Y0213D03*
Y02025D03*
X0035Y02D03*
X0036Y01735D03*
X0025Y018D03*
X0018Y01873D03*
X0015Y02D03*
X00185Y0174D03*
Y0161D03*
X00355Y0154D03*
X00365Y0137D03*
X0034Y011D03*
X0025Y01D03*
X00365Y00855D03*
X0015Y008D03*
X0005Y01D03*
X0015Y012D03*
X0005Y014D03*
X00065Y0156D03*
X00068Y01693D03*
X0005Y018D03*
X00068Y01823D03*
X0045Y014D03*
X0055Y012D03*
X0065Y01D03*
X0055Y008D03*
X0085Y01D03*
X01005Y01085D03*
X0076Y01325D03*
X00665Y01445D03*
X00615Y0155D03*
X0065Y014D03*
X0005Y006D03*
X00365Y00595D03*
X0045Y006D03*
X0055Y004D03*
X00845Y00485D03*
X0085Y006D03*
X0065D03*
X00675Y00485D03*
X0115Y004D03*
X0125Y006D03*
X0135Y004D03*
X0145Y006D03*
X0175Y004D03*
X0185Y006D03*
X0205D03*
X0215Y004D03*
X0225Y006D03*
X02175Y0086D03*
X0179D03*
X01725Y0067D03*
X0165Y006D03*
X015Y01085D03*
X0105Y006D03*
X02475Y0201D03*
X02335Y02105D03*
X02275Y0201D03*
X02255Y02035D03*
X02215D03*
X02175Y0211D03*
X02235Y0201D03*
X02165Y0192D03*
X0225Y022D03*
X0295Y016D03*
X03435Y0218D03*
X0357Y02208D03*
X0354Y02244D03*
X03816Y02115D03*
X03786Y02082D03*
X03756Y02046D03*
X0372Y02022D03*
X03771Y01764D03*
X03807Y01737D03*
Y01683D03*
X03771Y0171D03*
X0375Y016D03*
X0395D03*
X0355D03*
X03843Y02142D03*
X0385Y022D03*
X0375Y024D03*
X0369D03*
X03828Y02616D03*
X03905Y02585D03*
X0395Y028D03*
X0375D03*
X03744Y02652D03*
Y02556D03*
X0366Y02688D03*
X0355Y028D03*
X03505Y02525D03*
X03465D03*
X0345Y02365D03*
X03505Y02335D03*
X03503Y02269D03*
X0347Y02298D03*
X036Y0249D03*
X0363Y0246D03*
X0366Y0243D03*
X0335Y028D03*
X0315D03*
X0295D03*
X0325Y03D03*
X0345D03*
X0355Y032D03*
X0375D03*
X0385Y03D03*
X0395Y032D03*
X0385Y034D03*
X0345D03*
X0325D03*
X0335Y032D03*
X0305Y034D03*
X0315Y032D03*
X0305Y03D03*
X0295Y032D03*
X0285Y034D03*
X02605Y02975D03*
X0258Y02995D03*
X0285Y03D03*
X02535Y03315D03*
X02345Y03379D03*
X02349Y03222D03*
X0265Y038D03*
X03335Y04395D03*
X03455Y044D03*
X0355D03*
X03565Y0445D03*
X0363Y04449D03*
X03735Y04615D03*
X0395Y044D03*
Y048D03*
X0375D03*
X0355D03*
X0359Y0463D03*
X0363Y04575D03*
X0344Y04865D03*
X0365Y05D03*
X0375Y052D03*
X0385Y05D03*
X0395Y052D03*
X0355D03*
X0338Y0502D03*
X0335Y052D03*
X0325Y05D03*
X03303Y04842D03*
X03249Y04824D03*
X0322Y04795D03*
X03159Y04824D03*
X0318Y0471D03*
X0305Y0461D03*
X03045Y04515D03*
X03185Y04478D03*
X0289Y04755D03*
X0304Y0496D03*
X0305Y05D03*
X0315Y052D03*
X0295D03*
X0285Y054D03*
X0275Y052D03*
X0285Y05D03*
X0265D03*
X0245Y05178D03*
X0249Y05145D03*
X0243Y04935D03*
Y0485D03*
X0255Y048D03*
X02515Y0472D03*
X02495Y0465D03*
X0261Y04765D03*
X0275Y048D03*
X0288Y0482D03*
X024Y0506D03*
X02374Y05061D03*
X02375Y05148D03*
X02402Y05147D03*
X0215Y052D03*
X0225Y05D03*
X0223Y04875D03*
X0228Y0471D03*
X02345Y04725D03*
X02415Y0472D03*
X0239Y0463D03*
X02345Y04655D03*
X02335Y046D03*
X02295Y04605D03*
X0226Y04555D03*
X0223Y04605D03*
X0212Y04536D03*
X02105Y04445D03*
X02195Y0445D03*
Y04415D03*
Y04385D03*
X02235Y0445D03*
X0205Y04495D03*
X0195Y044D03*
Y048D03*
X0205Y05D03*
X0195Y052D03*
X0225Y054D03*
X0208Y05595D03*
X02D03*
X0185Y054D03*
X0166Y0544D03*
X0175Y052D03*
X0185Y05D03*
X0158Y0544D03*
X015D03*
X0155Y052D03*
X0145Y054D03*
X01365Y0524D03*
X01335D03*
Y0521D03*
X01365D03*
X0137Y05045D03*
X0134D03*
X0145Y05D03*
X01305Y0521D03*
Y0524D03*
X0131Y05045D03*
X013Y05D03*
X012D03*
X011Y05035D03*
X0095Y052D03*
X0085Y054D03*
X0075Y052D03*
X0065Y0531D03*
Y0534D03*
Y0537D03*
Y054D03*
Y0528D03*
Y0525D03*
Y0522D03*
X00485Y0533D03*
Y0536D03*
Y0539D03*
Y0542D03*
Y0545D03*
X0045Y054D03*
X00485Y053D03*
Y0527D03*
Y0524D03*
Y0521D03*
Y0518D03*
Y0515D03*
Y0512D03*
X0035Y052D03*
X00295Y05135D03*
X0035Y048D03*
X00295Y0473D03*
X0051Y046D03*
X0065D03*
X0085D03*
X0087Y0463D03*
X00935D03*
X00965D03*
X00995D03*
Y0466D03*
Y046D03*
X0095Y048D03*
X0072Y04855D03*
X0075Y048D03*
X0055D03*
X0051Y04825D03*
X0035Y044D03*
X00295Y0432D03*
X0045Y042D03*
X0065Y04015D03*
X0068D03*
X0045Y038D03*
X00495Y0368D03*
X0035Y036D03*
X0015D03*
X0005Y038D03*
X0015Y04D03*
X00295Y03915D03*
X0005Y042D03*
X0015Y044D03*
X0005Y046D03*
Y05D03*
Y054D03*
X00195Y0331D03*
X0015Y032D03*
X00025Y03063D03*
X00205Y0289D03*
X0015Y028D03*
X0005Y026D03*
X0015Y024D03*
X0005Y022D03*
X0045Y026D03*
X0055Y024D03*
X0085Y026D03*
X0095Y028D03*
X0075D03*
X0055D03*
X0065Y026D03*
X03265Y00365D03*
X0265Y054D03*
G54D152*
X00187Y00137D03*
X0025Y00111D03*
X00312Y00137D03*
X00338Y002D03*
X00312Y00262D03*
X0025Y00288D03*
X00187Y00262D03*
X00161Y002D03*
X03651Y0021D03*
X03677Y00147D03*
X0374Y00121D03*
X03802Y00147D03*
X03828Y0021D03*
X03802Y00272D03*
X0374Y00298D03*
X03677Y00272D03*
X03833Y0543D03*
X03807Y05492D03*
X03745Y05518D03*
X03682Y05492D03*
Y05367D03*
X03745Y05341D03*
X03807Y05367D03*
X03656Y0543D03*
X00312Y05492D03*
X0025Y05518D03*
X00338Y0543D03*
X00312Y05367D03*
X0025Y05341D03*
X00187Y05492D03*
X00161Y0543D03*
X00187Y05367D03*
G54D153*
X03353Y04524D03*
X034D03*
Y04571D03*
Y04618D03*
Y04665D03*
X03353D03*
Y04618D03*
Y04571D03*
X03306D03*
Y04618D03*
Y04665D03*
X03259D03*
Y04618D03*
Y04571D03*
Y04524D03*
X03306D03*
G54D154*
X02111Y02598D03*
X03861Y01701D03*
X03915Y01845D03*
X03897Y0189D03*
M02*