%FSTAX23Y23*%
%MOIN*%
%SFA1B1*%

%IPPOS*%
%ADD16C,0.015700*%
%ADD17C,0.006000*%
%ADD30C,0.063000*%
%ADD135C,0.030000*%
%ADD136C,0.015000*%
%ADD139C,0.055000*%
%ADD140C,0.060200*%
%ADD141C,0.096300*%
%ADD142C,0.128000*%
%ADD143C,0.051200*%
%ADD144R,0.051200X0.051200*%
%ADD145C,0.027600*%
%ADD146C,0.236200*%
%ADD147C,0.070900*%
%ADD148O,0.039400X0.063000*%
%ADD149C,0.025600*%
%ADD150R,0.063000X0.063000*%
%ADD151C,0.019700*%
%ADD152C,0.023600*%
%ADD153C,0.026000*%
%LNpch_mainboard-1*%
%LPD*%
G36*
X03971Y00008D02*
X03635D01*
Y00135*
X03639Y00136*
X03645Y00129*
X03659Y00115*
X03675Y00103*
X03692Y00095*
X0371Y00088*
X0373Y00085*
X03749*
X03769Y00088*
X03787Y00095*
X03805Y00103*
X0382Y00115*
X03834Y00129*
X03846Y00145*
X03855Y00162*
X03861Y0018*
X03864Y002*
Y00219*
X03861Y00239*
X03855Y00257*
X03846Y00275*
X03834Y0029*
X0382Y00304*
X03805Y00316*
X03787Y00325*
X03769Y00331*
X03749Y00334*
X0373*
X0371Y00331*
X03692Y00325*
X03675Y00316*
X03659Y00304*
X03645Y0029*
X03639Y00283*
X03635Y00284*
Y00905*
X0275*
Y00008*
X00008*
Y05626*
X02975*
Y05309*
X03275*
X03276Y05306*
X0328Y05304*
X03291*
Y04963*
X03289Y0496*
Y0494*
X03291Y04936*
X03295Y04935*
X03304*
X03308Y04936*
X0331Y0494*
Y0496*
X03308Y04963*
Y05304*
X03319*
X03323Y05306*
X03324Y05309*
X03458*
Y05626*
X03971*
Y00008*
G37*
%LNpch_mainboard-2*%
%LPC*%
G36*
X02083Y0561D02*
X02076D01*
X02071Y05608*
X02066Y05604*
X02064Y05598*
Y05591*
X02066Y05586*
X02071Y05581*
X02076Y05579*
X02083*
X02089Y05581*
X02093Y05586*
X02095Y05591*
Y05598*
X02093Y05604*
X02089Y05608*
X02083Y0561*
G37*
G36*
X02003D02*
X01996D01*
X01991Y05608*
X01986Y05604*
X01984Y05598*
Y05591*
X01986Y05586*
X01991Y05581*
X01996Y05579*
X02003*
X02009Y05581*
X02013Y05586*
X02015Y05591*
Y05598*
X02013Y05604*
X02009Y05608*
X02003Y0561*
G37*
G36*
X02618Y05538D02*
Y05508D01*
X02638*
Y0551*
X02637Y05517*
X02634Y05525*
X02629Y05531*
X02623Y05536*
X02618Y05538*
G37*
G36*
X02281D02*
Y05508D01*
X02301*
Y0551*
X023Y05517*
X02297Y05525*
X02293Y05531*
X02286Y05536*
X02281Y05538*
G37*
G36*
X02598D02*
X02593Y05536D01*
X02586Y05531*
X02582Y05525*
X02579Y05517*
X02578Y0551*
Y05508*
X02598*
Y05538*
G37*
G36*
X02261D02*
X02256Y05536D01*
X0225Y05531*
X02246Y05525*
X02243Y05517*
X02241Y0551*
Y05508*
X02261*
Y05538*
G37*
G36*
X02638Y05488D02*
X02618D01*
Y05458*
X02623Y0546*
X02629Y05465*
X02634Y05471*
X02637Y05478*
X02638Y05486*
Y05488*
G37*
G36*
X02301D02*
X02281D01*
Y05458*
X02286Y0546*
X02293Y05465*
X02297Y05471*
X023Y05478*
X02301Y05486*
Y05488*
G37*
G36*
X02598D02*
X02578D01*
Y05486*
X02579Y05478*
X02582Y05471*
X02586Y05465*
X02593Y0546*
X02598Y05458*
Y05488*
G37*
G36*
X02261D02*
X02241D01*
Y05486*
X02243Y05478*
X02246Y05471*
X0225Y05465*
X02256Y0546*
X02261Y05458*
Y05488*
G37*
G36*
X01663Y05455D02*
X01656D01*
X01651Y05453*
X01646Y05449*
X01644Y05443*
Y05436*
X01646Y05431*
X01651Y05426*
X01656Y05424*
X01663*
X01669Y05426*
X01673Y05431*
X01675Y05436*
Y05443*
X01673Y05449*
X01669Y05453*
X01663Y05455*
G37*
G36*
X01583D02*
X01576D01*
X01571Y05453*
X01566Y05449*
X01564Y05443*
Y05436*
X01566Y05431*
X01571Y05426*
X01576Y05424*
X01583*
X01589Y05426*
X01593Y05431*
X01595Y05436*
Y05443*
X01593Y05449*
X01589Y05453*
X01583Y05455*
G37*
G36*
X01503D02*
X01496D01*
X01491Y05453*
X01486Y05449*
X01484Y05443*
Y05436*
X01486Y05431*
X01491Y05426*
X01496Y05424*
X01503*
X01509Y05426*
X01513Y05431*
X01515Y05436*
Y05443*
X01513Y05449*
X01509Y05453*
X01503Y05455*
G37*
G36*
X00809Y05454D02*
X008D01*
X0079Y05452*
X00782Y05447*
X00775Y0544*
X0077Y05431*
X00767Y05422*
Y05412*
X0077Y05402*
X00775Y05394*
X00782Y05387*
X0079Y05382*
X008Y05379*
X00809*
X00819Y05382*
X00828Y05387*
X00835Y05394*
X00839Y05402*
X00842Y05412*
Y05422*
X00839Y05431*
X00835Y0544*
X00828Y05447*
X00819Y05452*
X00809Y05454*
G37*
G36*
X02618Y05351D02*
Y05322D01*
X02638*
Y05323*
X02637Y05331*
X02634Y05338*
X02629Y05345*
X02623Y05349*
X02618Y05351*
G37*
G36*
X02281D02*
Y05322D01*
X02301*
Y05323*
X023Y05331*
X02297Y05338*
X02293Y05345*
X02286Y05349*
X02281Y05351*
G37*
G36*
X02598D02*
X02593Y05349D01*
X02586Y05345*
X02582Y05338*
X02579Y05331*
X02578Y05323*
Y05322*
X02598*
Y05351*
G37*
G36*
X02261D02*
X02256Y05349D01*
X0225Y05345*
X02246Y05338*
X02243Y05331*
X02241Y05323*
Y05322*
X02261*
Y05351*
G37*
G36*
X03754Y05554D02*
X03735D01*
X03715Y05551*
X03697Y05545*
X0368Y05536*
X03664Y05524*
X0365Y0551*
X03638Y05495*
X0363Y05477*
X03623Y05459*
X0362Y05439*
Y0542*
X03623Y054*
X0363Y05382*
X03638Y05365*
X0365Y05349*
X03664Y05335*
X0368Y05323*
X03697Y05315*
X03715Y05308*
X03735Y05305*
X03754*
X03774Y05308*
X03792Y05315*
X0381Y05323*
X03825Y05335*
X03839Y05349*
X03851Y05365*
X0386Y05382*
X03866Y054*
X03869Y0542*
Y05439*
X03866Y05459*
X0386Y05477*
X03851Y05495*
X03839Y0551*
X03825Y05524*
X0381Y05536*
X03792Y05545*
X03774Y05551*
X03754Y05554*
G37*
G36*
X00259D02*
X0024D01*
X0022Y05551*
X00202Y05545*
X00185Y05536*
X00169Y05524*
X00155Y0551*
X00143Y05495*
X00135Y05477*
X00128Y05459*
X00125Y05439*
Y0542*
X00128Y054*
X00135Y05382*
X00143Y05365*
X00155Y05349*
X00169Y05335*
X00185Y05323*
X00202Y05315*
X0022Y05308*
X0024Y05305*
X00259*
X00279Y05308*
X00297Y05315*
X00315Y05323*
X0033Y05335*
X00344Y05349*
X00356Y05365*
X00365Y05382*
X00371Y054*
X00374Y0542*
Y05439*
X00371Y05459*
X00365Y05477*
X00356Y05495*
X00344Y0551*
X0033Y05524*
X00315Y05536*
X00297Y05545*
X00279Y05551*
X00259Y05554*
G37*
G36*
X02538Y05313D02*
X0253D01*
X02523Y0531*
X02518Y05305*
X02513Y0531*
X02506Y05313*
X02499*
X02492Y0531*
X02487Y05305*
X02482Y0531*
X02475Y05313*
X02467*
X0246Y0531*
X02455Y05305*
X02452Y05298*
Y0529*
X02453Y05288*
X02452Y05285*
X02445Y05282*
X0244Y05277*
X02434Y05282*
X02428Y05285*
X02426Y05288*
X02427Y0529*
Y05298*
X02424Y05305*
X02419Y0531*
X02412Y05313*
X02404*
X02397Y0531*
X02392Y05305*
X02387Y0531*
X0238Y05313*
X02373*
X02366Y0531*
X02361Y05305*
X02356Y0531*
X02349Y05313*
X02341*
X02334Y0531*
X02329Y05305*
X02326Y05298*
Y0529*
X02326Y05289*
X02325*
X02316Y05286*
X0231Y05279*
X02309Y05276*
X02329*
Y05266*
X02339*
Y05246*
X02342Y05247*
X02345Y0525*
X02348Y05247*
X02351Y05246*
Y05266*
X02371*
Y05246*
X02374Y05247*
X02379Y05253*
X02382Y0525*
X02389Y05248*
X02396*
X02403Y0525*
X02408Y05256*
X02413Y0525*
X0242Y05248*
X02428*
X02434Y0525*
X0244Y05256*
X02445Y0525*
X02452Y05248*
X02459*
X02466Y0525*
X02471Y05256*
X02476Y0525*
X02483Y05248*
X02491*
X02497Y0525*
X025Y05253*
X02505Y05247*
X02508Y05246*
Y05266*
X02528*
Y05246*
X02531Y05247*
X02534Y0525*
X02537Y05247*
X0254Y05246*
Y05266*
X0255*
Y05276*
X0257*
X02569Y05279*
X02563Y05286*
X02554Y05289*
X02554*
X02553Y0529*
Y05298*
X0255Y05305*
X02545Y0531*
X02538Y05313*
G37*
G36*
X02638Y05302D02*
X02618D01*
Y05272*
X02623Y05274*
X02629Y05279*
X02634Y05285*
X02637Y05292*
X02638Y053*
Y05302*
G37*
G36*
X02301D02*
X02281D01*
Y05272*
X02286Y05274*
X02293Y05279*
X02297Y05285*
X023Y05292*
X02301Y053*
Y05302*
G37*
G36*
X02598D02*
X02578D01*
Y053*
X02579Y05292*
X02582Y05285*
X02586Y05279*
X02593Y05274*
X02598Y05272*
Y05302*
G37*
G36*
X02261D02*
X02241D01*
Y053*
X02243Y05292*
X02246Y05285*
X0225Y05279*
X02256Y05274*
X02261Y05272*
Y05302*
G37*
G36*
X0257Y05256D02*
X0256D01*
Y05246*
X02563Y05247*
X02569Y05253*
X0257Y05256*
G37*
G36*
X02319D02*
X02309D01*
X0231Y05253*
X02316Y05247*
X02319Y05246*
Y05256*
G37*
G36*
X0081Y05281D02*
X00799D01*
X00789Y05278*
X00779Y05273*
X00771Y05265*
X00766Y05256*
X00763Y05245*
Y05234*
X00766Y05224*
X00771Y05214*
X00779Y05206*
X00789Y05201*
X00799Y05198*
X0081*
X00821Y05201*
X0083Y05206*
X00838Y05214*
X00843Y05224*
X00846Y05234*
Y05245*
X00843Y05256*
X00838Y05265*
X0083Y05273*
X00821Y05278*
X0081Y05281*
G37*
G36*
X02453Y05194D02*
X02447D01*
X02441Y05191*
X02436Y05187*
X02434Y05181*
Y05175*
X02436Y05169*
X02441Y05164*
X02447Y05162*
X02453*
X02459Y05164*
X02463Y05169*
X02466Y05175*
Y05181*
X02463Y05187*
X02459Y05191*
X02453Y05194*
G37*
G36*
X02378Y05163D02*
X02372D01*
X02366Y05161*
X02361Y05157*
X02359Y05151*
Y05144*
X02361Y05139*
X02366Y05134*
X02372Y05132*
X02378*
X02384Y05134*
X02388Y05138*
X02388*
X02393Y05134*
X02399Y05132*
X02405*
X02411Y05134*
X02415Y05138*
X02418Y05144*
Y05151*
X02415Y05156*
X02411Y05161*
X02405Y05163*
X02399*
X02393Y05161*
X02388Y05156*
X02388Y05157*
X02384Y05161*
X02378Y05163*
G37*
G36*
X02493Y0516D02*
X02486D01*
X02481Y05158*
X02476Y05154*
X02474Y05148*
Y05141*
X02476Y05136*
X02481Y05131*
X02486Y05129*
X02493*
X02499Y05131*
X02503Y05136*
X02505Y05141*
Y05148*
X02503Y05154*
X02499Y05158*
X02493Y0516*
G37*
G36*
X00298Y0515D02*
X00291D01*
X00286Y05148*
X00281Y05144*
X00279Y05138*
Y05131*
X00281Y05126*
X00286Y05121*
X00291Y05119*
X00298*
X00304Y05121*
X00308Y05126*
X0031Y05131*
Y05138*
X00308Y05144*
X00304Y05148*
X00298Y0515*
G37*
G36*
X02377Y05077D02*
X02371D01*
X02365Y05074*
X02361Y0507*
X02359Y05064*
Y05058*
X02361Y05052*
X02365Y05047*
X02371Y05045*
X02377*
X02383Y05047*
X02386Y0505*
X02391Y05046*
X02396Y05044*
X02403*
X02409Y05046*
X02413Y05051*
X02415Y05056*
Y05063*
X02413Y05069*
X02409Y05073*
X02403Y05075*
X02396*
X02391Y05073*
X02388Y0507*
X02383Y05074*
X02377Y05077*
G37*
G36*
X03383Y05035D02*
X03376D01*
X03371Y05033*
X03366Y05029*
X03364Y05023*
Y05016*
X03366Y05011*
X03371Y05006*
X03376Y05004*
X03383*
X03389Y05006*
X03393Y05011*
X03395Y05016*
Y05023*
X03393Y05029*
X03389Y05033*
X03383Y05035*
G37*
G36*
X01303Y05015D02*
X01296D01*
X01291Y05013*
X01286Y05009*
X01284Y05003*
Y04996*
X01286Y04991*
X01291Y04986*
X01296Y04984*
X01303*
X01309Y04986*
X01313Y04991*
X01315Y04996*
Y05003*
X01313Y05009*
X01309Y05013*
X01303Y05015*
G37*
G36*
X01203D02*
X01196D01*
X01191Y05013*
X01186Y05009*
X01184Y05003*
Y04996*
X01186Y04991*
X01191Y04986*
X01196Y04984*
X01203*
X01209Y04986*
X01213Y04991*
X01215Y04996*
Y05003*
X01213Y05009*
X01209Y05013*
X01203Y05015*
G37*
G36*
X02433Y0495D02*
X02426D01*
X02421Y04948*
X02416Y04944*
X02414Y04938*
Y04931*
X02416Y04926*
X02421Y04921*
X02426Y04919*
X02433*
X02439Y04921*
X02443Y04926*
X02445Y04931*
Y04938*
X02443Y04944*
X02439Y04948*
X02433Y0495*
G37*
G36*
X03324Y0493D02*
X03314D01*
X03311Y04928*
X03309Y04924*
Y04905*
X03311Y04901*
X03313Y049*
Y0486*
X03308Y04856*
X03306Y04857*
X03299*
X03294Y04855*
X03289Y04857*
Y04901*
X0329Y04905*
Y04924*
X03288Y04928*
X03285Y0493*
X03275*
X03271Y04928*
X0327Y04924*
Y04905*
X03271Y04901*
Y04822*
X03271Y04821*
Y0482*
X03273Y04817*
X03273Y04816*
X03274Y04815*
X03281Y04808*
Y04725*
X03281Y04724*
Y04723*
X03281Y04723*
Y04703*
X03281Y04702*
Y04701*
X03282Y04698*
X03285Y04695*
X03288Y04694*
X03292*
X03295Y04695*
X03298Y04698*
X03299Y04701*
Y04702*
X033Y04703*
Y04723*
X03299Y04723*
Y04724*
X03299Y04725*
Y04811*
X03299Y04812*
Y04813*
X03298Y04816*
X03297Y04816*
X03296Y04817*
X03292Y04822*
X03292Y04823*
X03298Y04826*
X03299Y04826*
X03306*
X03308Y04827*
X03313Y04823*
Y04725*
X03313Y04724*
Y04723*
X03312Y04723*
Y04703*
X03313Y04702*
Y04701*
X03314Y04698*
X03317Y04695*
X0332Y04694*
X03324*
X03327Y04695*
X03329Y04698*
X03331Y04701*
Y04702*
X03331Y04703*
Y04723*
X03331Y04723*
Y04724*
X0333Y04725*
Y04907*
X0333Y04908*
Y04909*
X03329Y04911*
Y04924*
X03328Y04928*
X03324Y0493*
G37*
G36*
X02433Y04865D02*
X02426D01*
X02421Y04863*
X02416Y04859*
X02414Y04853*
Y04846*
X02416Y04841*
X02421Y04836*
X02426Y04834*
X02433*
X02439Y04836*
X02443Y04841*
X02445Y04846*
Y04853*
X02443Y04859*
X02439Y04863*
X02433Y04865*
G37*
G36*
X03252Y04839D02*
X03245D01*
X0324Y04837*
X03235Y04833*
X03233Y04827*
Y0482*
X03235Y04815*
X0324Y0481*
X03245Y04808*
X03252*
X03258Y0481*
X03262Y04815*
X03264Y0482*
Y04827*
X03262Y04833*
X03258Y04837*
X03252Y04839*
G37*
G36*
X03162D02*
X03155D01*
X0315Y04837*
X03145Y04833*
X03143Y04827*
Y0482*
X03145Y04815*
X0315Y0481*
X03155Y04808*
X03162*
X03168Y0481*
X03172Y04815*
X03174Y0482*
Y04827*
X03172Y04833*
X03168Y04837*
X03162Y04839*
G37*
G36*
X02893Y0477D02*
X02886D01*
X02881Y04768*
X02876Y04764*
X02874Y04758*
Y04751*
X02876Y04746*
X02881Y04741*
X02886Y04739*
X02893*
X02899Y04741*
X02903Y04746*
X02905Y04751*
Y04758*
X02903Y04764*
X02899Y04768*
X02893Y0477*
G37*
G36*
X00298Y04745D02*
X00291D01*
X00286Y04743*
X00281Y04739*
X00279Y04733*
Y04726*
X00281Y04721*
X00286Y04716*
X00291Y04714*
X00298*
X00304Y04716*
X00308Y04721*
X0031Y04726*
Y04733*
X00308Y04739*
X00304Y04743*
X00298Y04745*
G37*
G36*
X02348Y04741D02*
X02341D01*
X02336Y04738*
X02331Y04734*
X02329Y04728*
Y04722*
X02331Y04716*
X02336Y04712*
X02341Y04709*
X02348*
X02354Y04712*
X02358Y04716*
X0236Y04722*
Y04728*
X02358Y04734*
X02354Y04738*
X02348Y04741*
G37*
G36*
X02518Y04736D02*
X02511D01*
X02506Y04734*
X02501Y04729*
X02499Y04724*
Y04717*
X02501Y04711*
X02506Y04707*
X02511Y04705*
X02518*
X02524Y04707*
X02528Y04711*
X0253Y04717*
Y04724*
X02528Y04729*
X02524Y04734*
X02518Y04736*
G37*
G36*
X02418D02*
X02411D01*
X02406Y04734*
X02401Y04729*
X02399Y04724*
Y04717*
X02401Y04711*
X02406Y04707*
X02411Y04705*
X02418*
X02424Y04707*
X02428Y04711*
X0243Y04717*
Y04724*
X02428Y04729*
X02424Y04734*
X02418Y04736*
G37*
G36*
X02283Y04725D02*
X02276D01*
X02271Y04723*
X02266Y04719*
X02264Y04713*
Y04706*
X02266Y04701*
X02271Y04696*
X02276Y04694*
X02283*
X02289Y04696*
X02293Y04701*
X02295Y04706*
Y04713*
X02293Y04719*
X02289Y04723*
X02283Y04725*
G37*
G36*
X02348Y0467D02*
X02341D01*
X02336Y04668*
X02331Y04664*
X02329Y04658*
Y04651*
X02331Y04646*
X02336Y04641*
X02341Y04639*
X02348*
X02354Y04641*
X02358Y04646*
X0236Y04651*
Y04658*
X02358Y04664*
X02354Y04668*
X02348Y0467*
G37*
G36*
X02658Y04665D02*
X02651D01*
X02646Y04663*
X02641Y04659*
X02639Y04653*
Y04646*
X02641Y04641*
X02646Y04636*
X02651Y04634*
X02658*
X02664Y04636*
X02668Y04641*
X0267Y04646*
Y04653*
X02668Y04659*
X02664Y04663*
X02658Y04665*
G37*
G36*
X02498D02*
X02491D01*
X02486Y04663*
X02481Y04659*
X02479Y04653*
Y04646*
X02481Y04641*
X02486Y04636*
X02491Y04634*
X02498*
X02504Y04636*
X02508Y04641*
X0251Y04646*
Y04653*
X02508Y04659*
X02504Y04663*
X02498Y04665*
G37*
G36*
X03593Y04645D02*
X03586D01*
X03581Y04643*
X03576Y04639*
X03574Y04633*
Y04626*
X03576Y04621*
X03581Y04616*
X03586Y04614*
X03593*
X03599Y04616*
X03603Y04621*
X03605Y04626*
Y04633*
X03603Y04639*
X03599Y04643*
X03593Y04645*
G37*
G36*
X02393D02*
X02386D01*
X02381Y04643*
X02376Y04639*
X02374Y04633*
Y04626*
X02376Y04621*
X02381Y04616*
X02386Y04614*
X02393*
X02399Y04616*
X02403Y04621*
X02405Y04626*
Y04633*
X02403Y04639*
X02399Y04643*
X02393Y04645*
G37*
G36*
X03738Y0463D02*
X03731D01*
X03726Y04628*
X03721Y04624*
X03719Y04618*
Y04611*
X03721Y04606*
X03726Y04601*
X03731Y04599*
X03738*
X03744Y04601*
X03748Y04606*
X0375Y04611*
Y04618*
X03748Y04624*
X03744Y04628*
X03738Y0463*
G37*
G36*
X03053Y04625D02*
X03046D01*
X03041Y04623*
X03036Y04619*
X03034Y04613*
Y04606*
X03036Y04601*
X03041Y04596*
X03046Y04594*
X03053*
X03059Y04596*
X03063Y04601*
X03065Y04606*
Y04613*
X03063Y04619*
X03059Y04623*
X03053Y04625*
G37*
G36*
X02298Y04621D02*
X02291D01*
X02286Y04618*
X02281Y04614*
X02279Y04608*
Y04602*
X02281Y04596*
X02286Y04592*
X02291Y04589*
X02298*
X02304Y04592*
X02308Y04596*
X0231Y04602*
Y04608*
X02308Y04614*
X02304Y04618*
X02298Y04621*
G37*
G36*
X02338Y04615D02*
X02331D01*
X02326Y04613*
X02321Y04609*
X02319Y04603*
Y04596*
X02321Y04591*
X02326Y04586*
X02331Y04584*
X02338*
X02344Y04586*
X02348Y04591*
X0235Y04596*
Y04603*
X02348Y04609*
X02344Y04613*
X02338Y04615*
G37*
G36*
X01623Y04585D02*
X01616D01*
X01611Y04583*
X01606Y04579*
X01604Y04573*
Y04566*
X01606Y04561*
X01611Y04556*
X01616Y04554*
X01623*
X01629Y04556*
X01633Y04561*
X01635Y04566*
Y04573*
X01633Y04579*
X01629Y04583*
X01623Y04585*
G37*
G36*
X01753Y04575D02*
X01746D01*
X01741Y04573*
X01736Y04569*
X01734Y04563*
Y04556*
X01736Y04551*
X01741Y04546*
X01746Y04544*
X01753*
X01759Y04546*
X01763Y04551*
X01765Y04556*
Y04563*
X01763Y04569*
X01759Y04573*
X01753Y04575*
G37*
G36*
X01583D02*
X01576D01*
X01571Y04573*
X01566Y04569*
X01564Y04563*
Y04556*
X01566Y04551*
X01571Y04546*
X01576Y04544*
X01583*
X01589Y04546*
X01593Y04551*
X01595Y04556*
Y04563*
X01593Y04569*
X01589Y04573*
X01583Y04575*
G37*
G36*
X02263Y0457D02*
X02256D01*
X02251Y04568*
X02246Y04564*
X02244Y04558*
Y04551*
X02246Y04546*
X02251Y04541*
X02256Y04539*
X02263*
X02269Y04541*
X02273Y04546*
X02275Y04551*
Y04558*
X02273Y04564*
X02269Y04568*
X02263Y0457*
G37*
G36*
X02053Y0451D02*
X02046D01*
X02041Y04508*
X02036Y04504*
X02034Y04498*
Y04491*
X02036Y04486*
X02041Y04481*
X02046Y04479*
X02053*
X02059Y04481*
X02063Y04486*
X02065Y04491*
Y04498*
X02063Y04504*
X02059Y04508*
X02053Y0451*
G37*
G36*
X02643Y04485D02*
X02636D01*
X02631Y04483*
X02626Y04479*
X02624Y04473*
Y04466*
X02626Y04461*
X02631Y04456*
X02636Y04454*
X02643*
X02649Y04456*
X02653Y04461*
X02655Y04466*
Y04473*
X02653Y04479*
X02649Y04483*
X02643Y04485*
G37*
G36*
X03568Y04465D02*
X03561D01*
X03556Y04463*
X03551Y04459*
X03549Y04453*
Y04446*
X03551Y04441*
X03556Y04436*
X03561Y04434*
X03568*
X03574Y04436*
X03578Y04441*
X0358Y04446*
Y04453*
X03578Y04459*
X03574Y04463*
X03568Y04465*
G37*
G36*
X02828D02*
X02821D01*
X02816Y04463*
X02811Y04459*
X02809Y04453*
Y04446*
X02811Y04441*
X02816Y04436*
X02821Y04434*
X02828*
X02834Y04436*
X02838Y04441*
X0284Y04446*
Y04453*
X02838Y04459*
X02834Y04463*
X02828Y04465*
G37*
G36*
X03633Y04465D02*
X03627D01*
X03621Y04462*
X03616Y04458*
X03614Y04452*
Y04446*
X03616Y0444*
X03621Y04436*
X03627Y04433*
X03633*
X03639Y04436*
X03643Y0444*
X03646Y04446*
Y04452*
X03643Y04458*
X03639Y04462*
X03633Y04465*
G37*
G36*
X01748Y0446D02*
X01741D01*
X01736Y04458*
X01731Y04454*
X01729Y04448*
Y04441*
X01731Y04436*
X01733Y04434*
X0173Y04429*
X01728Y0443*
X01721*
X01716Y04428*
X01711Y04424*
X01709Y04418*
Y04411*
X01711Y04406*
X01716Y04401*
X01721Y04399*
X01728*
X01734Y04401*
X01738Y04406*
X0174Y04411*
Y04418*
X01738Y04424*
X01736Y04426*
X01739Y0443*
X01741Y04429*
X01748*
X01754Y04431*
X01758Y04436*
X0176Y04441*
Y04448*
X01758Y04454*
X01754Y04458*
X01748Y0446*
G37*
G36*
X02108D02*
X02101D01*
X02096Y04458*
X02091Y04454*
X02089Y04448*
Y04441*
X02091Y04436*
X02096Y04431*
X02101Y04429*
X02108*
X02114Y04431*
X02118Y04436*
X0212Y04441*
Y04448*
X02118Y04454*
X02114Y04458*
X02108Y0446*
G37*
G36*
X01773Y0443D02*
X01766D01*
X01761Y04428*
X01756Y04424*
X01754Y04418*
Y04411*
X01756Y04406*
X01761Y04401*
X01766Y04399*
X01773*
X01779Y04401*
X01783Y04406*
X01785Y04411*
Y04418*
X01783Y04424*
X01779Y04428*
X01773Y0443*
G37*
G36*
X03458Y04415D02*
X03451D01*
X03446Y04413*
X03441Y04409*
X03439Y04403*
Y04396*
X03441Y04391*
X03446Y04386*
X03451Y04384*
X03458*
X03464Y04386*
X03468Y04391*
X0347Y04396*
Y04403*
X03468Y04409*
X03464Y04413*
X03458Y04415*
G37*
G36*
X03338Y0441D02*
X03331D01*
X03326Y04408*
X03321Y04404*
X03319Y04398*
Y04391*
X03321Y04386*
X03326Y04381*
X03331Y04379*
X03338*
X03344Y04381*
X03348Y04386*
X0335Y04391*
Y04398*
X03348Y04404*
X03344Y04408*
X03338Y0441*
G37*
G36*
X02493Y04405D02*
X02486D01*
X02481Y04403*
X02476Y04398*
X02474Y04393*
Y04386*
X02476Y04381*
X02481Y04376*
X02486Y04374*
X02493*
X02498Y04376*
X02503Y04381*
X02505Y04386*
Y04393*
X02503Y04398*
X02498Y04403*
X02493Y04405*
G37*
G36*
X02449D02*
X02443D01*
X02437Y04403*
X02433Y04398*
X0243Y04393*
Y04386*
X02433Y04381*
X02437Y04376*
X02443Y04374*
X02449*
X02455Y04376*
X0246Y04381*
X02462Y04386*
Y04393*
X0246Y04398*
X02455Y04403*
X02449Y04405*
G37*
G36*
X02406D02*
X024D01*
X02394Y04403*
X02389Y04398*
X02387Y04393*
Y04386*
X02389Y04381*
X02394Y04376*
X024Y04374*
X02406*
X02412Y04376*
X02416Y04381*
X02419Y04386*
Y04393*
X02416Y04398*
X02412Y04403*
X02406Y04405*
G37*
G36*
X02363D02*
X02356D01*
X02351Y04403*
X02346Y04398*
X02344Y04393*
Y04386*
X02346Y04381*
X02351Y04376*
X02356Y04374*
X02363*
X02369Y04376*
X02373Y04381*
X02375Y04386*
Y04393*
X02373Y04398*
X02369Y04403*
X02363Y04405*
G37*
G36*
X02198Y04465D02*
X02191D01*
X02186Y04463*
X02181Y04459*
X02179Y04453*
Y04446*
X02181Y04441*
X02186Y04436*
X02189Y04435*
Y04429*
X02186Y04428*
X02181Y04424*
X02179Y04418*
Y04411*
X02181Y04406*
X02184Y04403*
X02185Y044*
X02184Y04396*
X02181Y04394*
X02179Y04388*
Y04381*
X02181Y04376*
X02186Y04371*
X02191Y04369*
X02198*
X02204Y04371*
X02208Y04376*
X0221Y04381*
Y04388*
X02208Y04394*
X02205Y04396*
X02204Y044*
X02205Y04403*
X02208Y04406*
X0221Y04411*
Y04418*
X02208Y04424*
X02204Y04428*
X022Y04429*
Y04435*
X02204Y04436*
X02208Y04441*
X0221Y04446*
Y04453*
X02208Y04459*
X02204Y04463*
X02198Y04465*
G37*
G36*
X02493Y04362D02*
X02486D01*
X02481Y0436*
X02476Y04355*
X02474Y04349*
Y04343*
X02476Y04337*
X02481Y04333*
X02486Y0433*
X02493*
X02498Y04333*
X02503Y04337*
X02505Y04343*
Y04349*
X02503Y04355*
X02498Y0436*
X02493Y04362*
G37*
G36*
X02449D02*
X02443D01*
X02437Y0436*
X02433Y04355*
X0243Y04349*
Y04343*
X02433Y04337*
X02437Y04333*
X02443Y0433*
X02449*
X02455Y04333*
X0246Y04337*
X02462Y04343*
Y04349*
X0246Y04355*
X02455Y0436*
X02449Y04362*
G37*
G36*
X02406D02*
X024D01*
X02394Y0436*
X02389Y04355*
X02387Y04349*
Y04343*
X02389Y04337*
X02394Y04333*
X024Y0433*
X02406*
X02412Y04333*
X02416Y04337*
X02419Y04343*
Y04349*
X02416Y04355*
X02412Y0436*
X02406Y04362*
G37*
G36*
X02363D02*
X02356D01*
X02351Y0436*
X02346Y04355*
X02344Y04349*
Y04343*
X02346Y04337*
X02351Y04333*
X02356Y0433*
X02363*
X02369Y04333*
X02373Y04337*
X02375Y04343*
Y04349*
X02373Y04355*
X02369Y0436*
X02363Y04362*
G37*
G36*
X01478Y0436D02*
X01471D01*
X01466Y04358*
X01461Y04354*
X01459Y04348*
Y04341*
X01461Y04336*
X01466Y04331*
X01471Y04329*
X01478*
X01484Y04331*
X01488Y04336*
X0149Y04341*
Y04348*
X01488Y04354*
X01484Y04358*
X01478Y0436*
G37*
G36*
X02873Y04355D02*
X02866D01*
X02861Y04353*
X02856Y04349*
X02854Y04343*
Y04336*
X02856Y04331*
X02861Y04326*
X02866Y04324*
X02873*
X02879Y04326*
X02883Y04331*
X02885Y04336*
Y04343*
X02883Y04349*
X02879Y04353*
X02873Y04355*
G37*
G36*
X00298Y04335D02*
X00291D01*
X00286Y04333*
X00281Y04329*
X00279Y04323*
Y04316*
X00281Y04311*
X00286Y04306*
X00291Y04304*
X00298*
X00304Y04306*
X00308Y04311*
X0031Y04316*
Y04323*
X00308Y04329*
X00304Y04333*
X00298Y04335*
G37*
G36*
X02643Y0432D02*
X02636D01*
X02631Y04318*
X02626Y04314*
X02624Y04308*
Y04301*
X02626Y04296*
X02631Y04291*
X02636Y04289*
X02643*
X02649Y04291*
X02653Y04296*
X02655Y04301*
Y04308*
X02653Y04314*
X02649Y04318*
X02643Y0432*
G37*
G36*
X02493Y04319D02*
X02486D01*
X02481Y04316*
X02476Y04312*
X02474Y04306*
Y043*
X02476Y04294*
X02481Y04289*
X02486Y04287*
X02493*
X02498Y04289*
X02503Y04294*
X02505Y043*
Y04306*
X02503Y04312*
X02498Y04316*
X02493Y04319*
G37*
G36*
X02449D02*
X02443D01*
X02437Y04316*
X02433Y04312*
X0243Y04306*
Y043*
X02433Y04294*
X02437Y04289*
X02443Y04287*
X02449*
X02455Y04289*
X0246Y04294*
X02462Y043*
Y04306*
X0246Y04312*
X02455Y04316*
X02449Y04319*
G37*
G36*
X02406D02*
X024D01*
X02394Y04316*
X02389Y04312*
X02387Y04306*
Y043*
X02389Y04294*
X02394Y04289*
X024Y04287*
X02406*
X02412Y04289*
X02416Y04294*
X02419Y043*
Y04306*
X02416Y04312*
X02412Y04316*
X02406Y04319*
G37*
G36*
X02363D02*
X02356D01*
X02351Y04316*
X02346Y04312*
X02344Y04306*
Y043*
X02346Y04294*
X02351Y04289*
X02356Y04287*
X02363*
X02369Y04289*
X02373Y04294*
X02375Y043*
Y04306*
X02373Y04312*
X02369Y04316*
X02363Y04319*
G37*
G36*
X02008Y04285D02*
X02001D01*
X01996Y04283*
X01991Y04279*
X01989Y04273*
Y04266*
X01991Y04261*
X01996Y04256*
X02001Y04254*
X02008*
X02014Y04256*
X02018Y04261*
X0202Y04266*
Y04273*
X02018Y04279*
X02014Y04283*
X02008Y04285*
G37*
G36*
X02493Y04275D02*
X02486D01*
X02481Y04273*
X02476Y04269*
X02474Y04263*
Y04256*
X02476Y04251*
X02481Y04246*
X02486Y04244*
X02493*
X02498Y04246*
X02503Y04251*
X02505Y04256*
Y04263*
X02503Y04269*
X02498Y04273*
X02493Y04275*
G37*
G36*
X02449D02*
X02443D01*
X02437Y04273*
X02433Y04269*
X0243Y04263*
Y04256*
X02433Y04251*
X02437Y04246*
X02443Y04244*
X02449*
X02455Y04246*
X0246Y04251*
X02462Y04256*
Y04263*
X0246Y04269*
X02455Y04273*
X02449Y04275*
G37*
G36*
X02406D02*
X024D01*
X02394Y04273*
X02389Y04269*
X02387Y04263*
Y04256*
X02389Y04251*
X02394Y04246*
X024Y04244*
X02406*
X02412Y04246*
X02416Y04251*
X02419Y04256*
Y04263*
X02416Y04269*
X02412Y04273*
X02406Y04275*
G37*
G36*
X02363D02*
X02356D01*
X02351Y04273*
X02346Y04269*
X02344Y04263*
Y04256*
X02346Y04251*
X02351Y04246*
X02356Y04244*
X02363*
X02369Y04246*
X02373Y04251*
X02375Y04256*
Y04263*
X02373Y04269*
X02369Y04273*
X02363Y04275*
G37*
G36*
X02198Y04305D02*
X02191D01*
X02186Y04303*
X02181Y04299*
X02179Y04293*
Y04286*
X02181Y04281*
X02186Y04276*
X02188Y04275*
Y0427*
X02186Y04269*
X02181Y04264*
X02179Y04259*
Y04252*
X02181Y04246*
X02186Y04242*
X02191Y0424*
X02198*
X02204Y04242*
X02208Y04246*
X0221Y04252*
Y04259*
X02208Y04264*
X02204Y04269*
X02201Y0427*
Y04275*
X02204Y04276*
X02208Y04281*
X0221Y04286*
Y04293*
X02208Y04299*
X02204Y04303*
X02198Y04305*
G37*
G36*
X01458Y0427D02*
X01451D01*
X01446Y04268*
X01441Y04264*
X01439Y04258*
Y04251*
X01441Y04246*
X01446Y04241*
X01451Y04239*
X01458*
X01464Y04241*
X01468Y04246*
X0147Y04251*
Y04258*
X01468Y04264*
X01464Y04268*
X01458Y0427*
G37*
G36*
X03398Y0425D02*
X03391D01*
X03386Y04248*
X03381Y04244*
X03379Y04238*
Y04231*
X03381Y04226*
X03386Y04221*
X03391Y04219*
X03398*
X03404Y04221*
X03408Y04226*
X0341Y04231*
Y04238*
X03408Y04244*
X03404Y04248*
X03398Y0425*
G37*
G36*
X02828Y04235D02*
X02821D01*
X02816Y04233*
X02811Y04229*
X02809Y04223*
Y04216*
X02811Y04211*
X02816Y04206*
X02821Y04204*
X02828*
X02834Y04206*
X02838Y04211*
X0284Y04216*
Y04223*
X02838Y04229*
X02834Y04233*
X02828Y04235*
G37*
G36*
X01503Y0423D02*
X01496D01*
X01491Y04228*
X01486Y04224*
X01484Y04218*
Y04211*
X01486Y04206*
X01491Y04201*
X01496Y04199*
X01503*
X01509Y04201*
X01513Y04206*
X01515Y04211*
Y04218*
X01513Y04224*
X01509Y04228*
X01503Y0423*
G37*
G36*
X03068Y04195D02*
X03061D01*
X03056Y04193*
X03051Y04189*
X03049Y04183*
Y04176*
X03051Y04171*
X03056Y04166*
X03061Y04164*
X03068*
X03074Y04166*
X03078Y04171*
X0308Y04176*
Y04183*
X03078Y04189*
X03074Y04193*
X03068Y04195*
G37*
G36*
Y0414D02*
X03061D01*
X03056Y04138*
X03051Y04134*
X03049Y04128*
Y04121*
X03051Y04116*
X03056Y04111*
X03061Y04109*
X03068*
X03074Y04111*
X03078Y04116*
X0308Y04121*
Y04128*
X03078Y04134*
X03074Y04138*
X03068Y0414*
G37*
G36*
X02348Y0413D02*
X02341D01*
X02336Y04128*
X02331Y04124*
X02329Y04118*
Y04111*
X02331Y04106*
X02336Y04101*
X02341Y04099*
X02348*
X02354Y04101*
X02358Y04106*
X0236Y04111*
Y04118*
X02358Y04124*
X02354Y04128*
X02348Y0413*
G37*
G36*
X02288D02*
X02281D01*
X02276Y04128*
X02271Y04124*
X02269Y04118*
Y04111*
X02271Y04106*
X02276Y04101*
X02281Y04099*
X02288*
X02294Y04101*
X02298Y04106*
X023Y04111*
Y04118*
X02298Y04124*
X02294Y04128*
X02288Y0413*
G37*
G36*
X02239D02*
X02232D01*
X02226Y04128*
X02222Y04124*
X0222Y04118*
Y04111*
X02222Y04106*
X02226Y04101*
X02232Y04099*
X02239*
X02244Y04101*
X02249Y04106*
X02251Y04111*
Y04118*
X02249Y04124*
X02244Y04128*
X02239Y0413*
G37*
G36*
X02518Y04115D02*
X02511D01*
X02506Y04113*
X02501Y04109*
X02499Y04103*
Y04096*
X02501Y04091*
X02506Y04086*
X02511Y04084*
X02518*
X02524Y04086*
X02528Y04091*
X0253Y04096*
Y04103*
X02528Y04109*
X02524Y04113*
X02518Y04115*
G37*
G36*
X02198Y0409D02*
X02191D01*
X02186Y04088*
X02181Y04084*
X02179Y04078*
Y04071*
X02181Y04066*
X02186Y04061*
X02191Y04059*
X02198*
X02204Y04061*
X02208Y04066*
X0221Y04071*
Y04078*
X02208Y04084*
X02204Y04088*
X02198Y0409*
G37*
G36*
X02318Y04075D02*
X02311D01*
X02306Y04073*
X02301Y04069*
X02299Y04063*
Y04056*
X02301Y04051*
X02306Y04046*
X02311Y04044*
X02318*
X02324Y04046*
X02328Y04051*
X0233Y04056*
Y04063*
X02328Y04069*
X02324Y04073*
X02318Y04075*
G37*
G36*
X03268Y0406D02*
X03261D01*
X03256Y04058*
X03251Y04054*
X03249Y04048*
Y04041*
X03251Y04036*
X03256Y04031*
X03261Y04029*
X03268*
X03274Y04031*
X03278Y04036*
X0328Y04041*
Y04048*
X03278Y04054*
X03274Y04058*
X03268Y0406*
G37*
G36*
X00683Y0403D02*
X00676D01*
X00671Y04028*
X00668Y04025*
X00665Y04024*
X00661Y04025*
X00659Y04028*
X00653Y0403*
X00646*
X00641Y04028*
X00636Y04024*
X00634Y04018*
Y04011*
X00636Y04006*
X00641Y04001*
X00646Y03999*
X00653*
X00659Y04001*
X00661Y04004*
X00665Y04005*
X00668Y04004*
X00671Y04001*
X00676Y03999*
X00683*
X00689Y04001*
X00693Y04006*
X00695Y04011*
Y04018*
X00693Y04024*
X00689Y04028*
X00683Y0403*
G37*
G36*
X03408Y04015D02*
X03401D01*
X03396Y04013*
X03391Y04009*
X03389Y04003*
Y03996*
X03391Y03991*
X03396Y03986*
X03401Y03984*
X03408*
X03414Y03986*
X03418Y03991*
X0342Y03996*
Y04003*
X03418Y04009*
X03414Y04013*
X03408Y04015*
G37*
G36*
X02383Y0397D02*
X02376D01*
X02371Y03968*
X02366Y03964*
X02364Y03958*
Y03951*
X02366Y03946*
X02371Y03941*
X02376Y03939*
X02383*
X02389Y03941*
X02393Y03946*
X02395Y03951*
Y03958*
X02393Y03964*
X02389Y03968*
X02383Y0397*
G37*
G36*
X00298Y03931D02*
X00291D01*
X00286Y03928*
X00281Y03924*
X00279Y03918*
Y03912*
X00281Y03906*
X00286Y03901*
X00291Y03899*
X00298*
X00304Y03901*
X00308Y03906*
X0031Y03912*
Y03918*
X00308Y03924*
X00304Y03928*
X00298Y03931*
G37*
G36*
X02388Y03845D02*
X02381D01*
X02376Y03843*
X02371Y03839*
X02369Y03833*
Y03826*
X02371Y03821*
X02376Y03816*
X02381Y03814*
X02388*
X02394Y03816*
X02398Y03821*
X024Y03826*
Y03833*
X02398Y03839*
X02394Y03843*
X02388Y03845*
G37*
G36*
X01783Y03635D02*
X01776D01*
X01771Y03633*
X01766Y03629*
X01764Y03623*
Y03616*
X01766Y03611*
X01771Y03606*
X01776Y03604*
X01783*
X01789Y03606*
X01793Y03611*
X01795Y03616*
Y03623*
X01793Y03629*
X01789Y03633*
X01783Y03635*
G37*
G36*
X0184Y03575D02*
Y03545D01*
X0187*
X01868Y03551*
X01863Y0356*
X01855Y03568*
X01846Y03573*
X0184Y03575*
G37*
G36*
X0182D02*
X01814Y03573D01*
X01804Y03568*
X01796Y0356*
X01791Y03551*
X01789Y03545*
X0182*
Y03575*
G37*
G36*
X01533Y0356D02*
X01526D01*
X01521Y03558*
X01516Y03554*
X01514Y03548*
Y03541*
X01516Y03536*
X01521Y03531*
X01526Y03529*
X01533*
X01539Y03531*
X01543Y03536*
X01545Y03541*
Y03548*
X01543Y03554*
X01539Y03558*
X01533Y0356*
G37*
G36*
X02367Y03572D02*
X02292D01*
Y03497*
X02367*
Y03572*
G37*
G36*
X02234D02*
X02225D01*
X02215Y03569*
X02207Y03565*
X022Y03558*
X02195Y03549*
X02192Y03539*
Y0353*
X02195Y0352*
X022Y03512*
X02207Y03505*
X02215Y035*
X02225Y03497*
X02234*
X02244Y035*
X02253Y03505*
X0226Y03512*
X02264Y0352*
X02267Y0353*
Y03539*
X02264Y03549*
X0226Y03558*
X02253Y03565*
X02244Y03569*
X02234Y03572*
G37*
G36*
X02134D02*
X02125D01*
X02115Y03569*
X02107Y03565*
X021Y03558*
X02095Y03549*
X02092Y03539*
Y0353*
X02095Y0352*
X021Y03512*
X02107Y03505*
X02115Y035*
X02125Y03497*
X02134*
X02144Y035*
X02153Y03505*
X0216Y03512*
X02164Y0352*
X02167Y0353*
Y03539*
X02164Y03549*
X0216Y03558*
X02153Y03565*
X02144Y03569*
X02134Y03572*
G37*
G36*
X02034D02*
X02025D01*
X02015Y03569*
X02007Y03565*
X02Y03558*
X01995Y03549*
X01992Y03539*
Y0353*
X01995Y0352*
X02Y03512*
X02007Y03505*
X02015Y035*
X02025Y03497*
X02034*
X02044Y035*
X02053Y03505*
X0206Y03512*
X02064Y0352*
X02067Y0353*
Y03539*
X02064Y03549*
X0206Y03558*
X02053Y03565*
X02044Y03569*
X02034Y03572*
G37*
G36*
X01934D02*
X01925D01*
X01915Y03569*
X01907Y03565*
X019Y03558*
X01895Y03549*
X01892Y03539*
Y0353*
X01895Y0352*
X019Y03512*
X01907Y03505*
X01915Y035*
X01925Y03497*
X01934*
X01944Y035*
X01953Y03505*
X0196Y03512*
X01964Y0352*
X01967Y0353*
Y03539*
X01964Y03549*
X0196Y03558*
X01953Y03565*
X01944Y03569*
X01934Y03572*
G37*
G36*
X0187Y03525D02*
X0184D01*
Y03494*
X01846Y03496*
X01855Y03501*
X01863Y03509*
X01868Y03519*
X0187Y03525*
G37*
G36*
X0182D02*
X01789D01*
X01791Y03519*
X01796Y03509*
X01804Y03501*
X01814Y03496*
X0182Y03494*
Y03525*
G37*
G36*
X01013Y03525D02*
X01006D01*
X01001Y03523*
X00996Y03519*
X00994Y03513*
Y03506*
X00996Y03501*
X01001Y03496*
X01004Y03495*
Y03489*
X01001Y03488*
X00996Y03484*
X00994Y03478*
Y03471*
X00996Y03466*
X00999Y03463*
X01Y0346*
X00999Y03456*
X00996Y03454*
X00994Y03448*
Y03441*
X00996Y03436*
X01001Y03431*
X01006Y03429*
X01013*
X01019Y03431*
X01023Y03436*
X01025Y03441*
Y03448*
X01023Y03454*
X0102Y03456*
X01019Y0346*
X0102Y03463*
X01023Y03466*
X01025Y03471*
Y03478*
X01023Y03484*
X01019Y03488*
X01015Y03489*
Y03495*
X01019Y03496*
X01023Y03501*
X01025Y03506*
Y03513*
X01023Y03519*
X01019Y03523*
X01013Y03525*
G37*
G36*
X01278D02*
X01271D01*
X01266Y03523*
X01261Y03519*
X01259Y03513*
Y03506*
X01261Y03501*
X01264Y03498*
X01265Y03495*
X01264Y03491*
X01261Y03489*
X01259Y03483*
Y03476*
X01261Y03471*
X01264Y03468*
X01265Y03465*
X01264Y03461*
X01261Y03459*
X01259Y03453*
Y03446*
X01261Y03441*
X01264Y03438*
X01265Y03435*
X01264Y03431*
X01261Y03429*
X01259Y03423*
Y03416*
X01261Y03411*
X01266Y03406*
X01271Y03404*
X01278*
X01284Y03406*
X01288Y03411*
X0129Y03416*
Y03423*
X01288Y03429*
X01285Y03431*
X01284Y03435*
X01285Y03438*
X01288Y03441*
X0129Y03446*
Y03453*
X01288Y03459*
X01285Y03461*
X01284Y03465*
X01285Y03468*
X01288Y03471*
X0129Y03476*
Y03483*
X01288Y03489*
X01285Y03491*
X01284Y03495*
X01285Y03498*
X01288Y03501*
X0129Y03506*
Y03513*
X01288Y03519*
X01284Y03523*
X01278Y03525*
G37*
G36*
X00668Y0345D02*
X00661D01*
X00656Y03448*
X00651Y03444*
X00649Y03438*
Y03431*
X00651Y03426*
X00654Y03423*
X00655Y0342*
X00654Y03416*
X00651Y03414*
X00649Y03408*
Y03401*
X00651Y03396*
X00656Y03391*
X00661Y03389*
X00668*
X00674Y03391*
X00678Y03396*
X0068Y03401*
Y03408*
X00678Y03414*
X00675Y03416*
X00674Y0342*
X00675Y03423*
X00678Y03426*
X0068Y03431*
Y03438*
X00678Y03444*
X00674Y03448*
X00668Y0345*
G37*
G36*
X00568Y034D02*
X00561D01*
X00556Y03398*
X00551Y03394*
X00549Y03388*
Y03381*
X00551Y03376*
X00556Y03371*
X00561Y03369*
X00568*
X00574Y03371*
X00578Y03376*
X0058Y03381*
Y03388*
X00578Y03394*
X00574Y03398*
X00568Y034*
G37*
G36*
X02538Y0333D02*
X02531D01*
X02526Y03328*
X02521Y03324*
X02519Y03318*
Y03311*
X02521Y03306*
X02526Y03301*
X02531Y03299*
X02538*
X02544Y03301*
X02548Y03306*
X0255Y03311*
Y03318*
X02548Y03324*
X02544Y03328*
X02538Y0333*
G37*
G36*
X01068Y0329D02*
X01061D01*
X01056Y03288*
X01051Y03284*
X01049Y03278*
Y03271*
X01051Y03266*
X01056Y03261*
X01061Y03259*
X01068*
X01074Y03261*
X01078Y03266*
X0108Y03271*
Y03278*
X01078Y03284*
X01074Y03288*
X01068Y0329*
G37*
G36*
X01703Y03225D02*
X01696D01*
X01691Y03223*
X01686Y03219*
X01684Y03213*
Y03206*
X01686Y03201*
X01691Y03196*
X01696Y03194*
X01703*
X01709Y03196*
X01713Y03201*
X01715Y03206*
Y03213*
X01713Y03219*
X01709Y03223*
X01703Y03225*
G37*
G36*
X01733Y03175D02*
X01726D01*
X01721Y03173*
X01716Y03169*
X01714Y03163*
Y03156*
X01716Y03151*
X01721Y03146*
X01726Y03144*
X01733*
X01739Y03146*
X01743Y03151*
X01745Y03156*
Y03163*
X01743Y03169*
X01739Y03173*
X01733Y03175*
G37*
G36*
X00568D02*
X00561D01*
X00556Y03173*
X00551Y03169*
X00549Y03163*
Y03156*
X00551Y03151*
X00556Y03146*
X00561Y03144*
X00568*
X00574Y03146*
X00578Y03151*
X0058Y03156*
Y03163*
X00578Y03169*
X00574Y03173*
X00568Y03175*
G37*
G36*
X01068Y03115D02*
X01061D01*
X01056Y03113*
X01051Y03109*
X01049Y03103*
Y03096*
X01051Y03091*
X01056Y03086*
X01061Y03084*
X01068*
X01074Y03086*
X01078Y03091*
X0108Y03096*
Y03103*
X01078Y03109*
X01074Y03113*
X01068Y03115*
G37*
G36*
X00638Y03065D02*
X00631D01*
X00626Y03063*
X00621Y03059*
X00619Y03053*
Y03046*
X00621Y03041*
X00626Y03036*
X00631Y03034*
X00638*
X00644Y03036*
X00648Y03041*
X0065Y03046*
Y03053*
X00648Y03059*
X00644Y03063*
X00638Y03065*
G37*
G36*
X01573Y03D02*
X01566D01*
X01561Y02998*
X01556Y02994*
X01554Y02988*
Y02981*
X01556Y02976*
X01561Y02971*
X01566Y02969*
X01573*
X01579Y02971*
X01583Y02976*
X01585Y02981*
Y02988*
X01583Y02994*
X01579Y02998*
X01573Y03*
G37*
G36*
X01393D02*
X01386D01*
X01381Y02998*
X01376Y02994*
X01374Y02988*
Y02981*
X01376Y02976*
X01381Y02971*
X01386Y02969*
X01393*
X01399Y02971*
X01403Y02976*
X01405Y02981*
Y02988*
X01403Y02994*
X01399Y02998*
X01393Y03*
G37*
G36*
X02583Y0301D02*
X02576D01*
X02571Y03008*
X02566Y03004*
X02564Y02998*
Y02991*
X02566Y02986*
X02571Y02981*
X02576Y02979*
X02583*
X02584Y02979*
X02585Y02979*
X02589Y02976*
Y02971*
X02591Y02966*
X02596Y02961*
X02601Y02959*
X02608*
X02614Y02961*
X02618Y02966*
X0262Y02971*
Y02978*
X02618Y02984*
X02614Y02988*
X02608Y0299*
X02601*
X026Y0299*
X02599Y0299*
X02595Y02993*
Y02998*
X02593Y03004*
X02589Y03008*
X02583Y0301*
G37*
G36*
X01258Y0294D02*
X01251D01*
X01246Y02938*
X01241Y02934*
X01239Y02928*
Y02921*
X01241Y02916*
X01246Y02911*
X01251Y02909*
X01258*
X01264Y02911*
X01268Y02916*
X0127Y02921*
Y02928*
X01268Y02934*
X01264Y02938*
X01258Y0294*
G37*
G36*
X01028D02*
X01021D01*
X01016Y02938*
X01011Y02934*
X01009Y02928*
Y02921*
X01011Y02916*
X01016Y02911*
X01021Y02909*
X01028*
X01031Y0291*
X01035Y02906*
X01034Y02903*
Y02896*
X01035Y02893*
X01031Y02889*
X01028Y0289*
X01021*
X01016Y02888*
X01011Y02884*
X01009Y02878*
Y02871*
X01011Y02866*
X01016Y02861*
X01021Y02859*
X01028*
X01031Y0286*
X01035Y02856*
X01034Y02853*
Y02846*
X01036Y02841*
X01041Y02836*
X01046Y02834*
X01053*
X01059Y02836*
X01063Y02841*
X01065Y02846*
Y02853*
X01063Y02859*
X01059Y02863*
X01053Y02865*
X01046*
X01043Y02864*
X01039Y02868*
X0104Y02871*
Y02878*
X01039Y02881*
X01043Y02885*
X01046Y02884*
X01053*
X01059Y02886*
X01063Y02891*
X01065Y02896*
Y02903*
X01063Y02909*
X01059Y02913*
X01053Y02915*
X01046*
X01043Y02914*
X01039Y02918*
X0104Y02921*
Y02928*
X01038Y02934*
X01034Y02938*
X01028Y0294*
G37*
G36*
X01288Y02915D02*
X01281D01*
X01276Y02913*
X01271Y02909*
X01269Y02903*
Y02896*
X01271Y02891*
X01276Y02886*
X01281Y02884*
X01288*
X01291Y02885*
X01295Y02881*
X01294Y02878*
Y02871*
X01296Y02866*
X01301Y02861*
X01306Y02859*
X01313*
X01319Y02861*
X01323Y02866*
X01325Y02871*
Y02878*
X01323Y02884*
X01319Y02888*
X01313Y0289*
X01306*
X01303Y02889*
X01299Y02893*
X013Y02896*
Y02903*
X01298Y02909*
X01294Y02913*
X01288Y02915*
G37*
G36*
X03663Y02703D02*
X03656D01*
X03651Y02701*
X03646Y02697*
X03644Y02691*
Y02684*
X03646Y02679*
X03651Y02674*
X03656Y02672*
X03663*
X03669Y02674*
X03673Y02679*
X03675Y02684*
Y02691*
X03673Y02697*
X03669Y02701*
X03663Y02703*
G37*
G36*
X03747Y02667D02*
X0374D01*
X03735Y02665*
X0373Y02661*
X03728Y02655*
Y02648*
X0373Y02643*
X03735Y02638*
X0374Y02636*
X03747*
X03753Y02638*
X03757Y02643*
X03759Y02648*
Y02655*
X03757Y02661*
X03753Y02665*
X03747Y02667*
G37*
G36*
X02093Y02635D02*
X02086D01*
X02081Y02633*
X02076Y02629*
X02074Y02623*
Y02616*
X02076Y02611*
X02081Y02606*
X02086Y02604*
X02093*
X02099Y02606*
X02103Y02611*
X02105Y02616*
Y02623*
X02103Y02629*
X02099Y02633*
X02093Y02635*
G37*
G36*
X03831Y02631D02*
X03824D01*
X03819Y02629*
X03814Y02625*
X03812Y02619*
Y02612*
X03814Y02607*
X03819Y02602*
X03824Y026*
X03831*
X03837Y02602*
X03841Y02607*
X03843Y02612*
Y02619*
X03841Y02625*
X03837Y02629*
X03831Y02631*
G37*
G36*
X01363Y02645D02*
X01356D01*
X01351Y02643*
X01346Y02639*
X01344Y02633*
Y02626*
X01346Y02621*
X01351Y02616*
X01356Y02614*
X01363*
X01365Y02615*
X01368Y02611*
X01366Y02609*
X01364Y02603*
Y02596*
X01366Y02591*
X01371Y02586*
X01376Y02584*
X01383*
X01389Y02586*
X01393Y02591*
X01395Y02596*
Y02603*
X01393Y02609*
X01389Y02613*
X01383Y02615*
X01376*
X01374Y02614*
X01371Y02619*
X01373Y02621*
X01375Y02626*
Y02633*
X01373Y02639*
X01369Y02643*
X01363Y02645*
G37*
G36*
X01808Y02605D02*
X01801D01*
X01796Y02603*
X01791Y02599*
X01789Y02593*
Y02586*
X01791Y02581*
X01796Y02576*
X01801Y02574*
X01808*
X01814Y02576*
X01818Y02581*
X0182Y02586*
Y02593*
X01818Y02599*
X01814Y02603*
X01808Y02605*
G37*
G36*
X03908Y026D02*
X03901D01*
X03896Y02598*
X03891Y02594*
X03889Y02588*
Y02581*
X03891Y02576*
X03896Y02571*
X03901Y02569*
X03908*
X03914Y02571*
X03918Y02576*
X0392Y02581*
Y02588*
X03918Y02594*
X03914Y02598*
X03908Y026*
G37*
G36*
X02143D02*
X02136D01*
X02131Y02598*
X02126Y02594*
X02124Y02588*
Y02581*
X02126Y02576*
X02131Y02571*
X02136Y02569*
X02143*
X02149Y02571*
X02153Y02576*
X02155Y02581*
Y02588*
X02153Y02594*
X02149Y02598*
X02143Y026*
G37*
G36*
X01713D02*
X01706D01*
X01701Y02598*
X01696Y02594*
X01694Y02588*
Y02581*
X01696Y02576*
X01701Y02571*
X01706Y02569*
X01713*
X01719Y02571*
X01723Y02576*
X01725Y02581*
Y02588*
X01723Y02594*
X01719Y02598*
X01713Y026*
G37*
G36*
X02003Y02595D02*
X01996D01*
X01991Y02593*
X01986Y02589*
X01984Y02583*
Y02576*
X01986Y02571*
X01991Y02566*
X01996Y02564*
X02003*
X02009Y02566*
X02013Y02571*
X02015Y02576*
Y02583*
X02013Y02589*
X02009Y02593*
X02003Y02595*
G37*
G36*
X01958D02*
X01951D01*
X01946Y02593*
X01941Y02589*
X01939Y02583*
Y02576*
X01941Y02571*
X01946Y02566*
X01951Y02564*
X01958*
X01964Y02566*
X01968Y02571*
X0197Y02576*
Y02583*
X01968Y02589*
X01964Y02593*
X01958Y02595*
G37*
G36*
X03747Y02571D02*
X0374D01*
X03735Y02569*
X0373Y02565*
X03728Y02559*
Y02552*
X0373Y02547*
X03735Y02542*
X0374Y0254*
X03747*
X03753Y02542*
X03757Y02547*
X03759Y02552*
Y02559*
X03757Y02565*
X03753Y02569*
X03747Y02571*
G37*
G36*
X02093Y0257D02*
X02086D01*
X02081Y02568*
X02076Y02564*
X02074Y02558*
Y02551*
X02076Y02546*
X02081Y02541*
X02086Y02539*
X02093*
X02099Y02541*
X02103Y02546*
X02105Y02551*
Y02558*
X02103Y02564*
X02099Y02568*
X02093Y0257*
G37*
G36*
X02027Y02561D02*
X02021D01*
X02015Y02558*
X02011Y02554*
X02008Y02548*
Y02542*
X02011Y02536*
X02015Y02531*
X02021Y02529*
X02027*
X02033Y02531*
X02038Y02536*
X0204Y02542*
Y02548*
X02038Y02554*
X02033Y02558*
X02027Y02561*
G37*
G36*
X01983Y0256D02*
X01976D01*
X01971Y02558*
X01966Y02554*
X01964Y02548*
Y02541*
X01966Y02536*
X01971Y02531*
X01976Y02529*
X01983*
X01989Y02531*
X01993Y02536*
X01995Y02541*
Y02548*
X01993Y02554*
X01989Y02558*
X01983Y0256*
G37*
G36*
X01933D02*
X01926D01*
X01921Y02558*
X01916Y02554*
X01914Y02548*
Y02541*
X01916Y02536*
X01921Y02531*
X01926Y02529*
X01933*
X01939Y02531*
X01943Y02536*
X01945Y02541*
Y02548*
X01943Y02554*
X01939Y02558*
X01933Y0256*
G37*
G36*
X01808D02*
X01801D01*
X01796Y02558*
X01791Y02554*
X01789Y02548*
Y02541*
X01791Y02536*
X01796Y02531*
X01801Y02529*
X01808*
X01814Y02531*
X01818Y02536*
X0182Y02541*
Y02548*
X01818Y02554*
X01814Y02558*
X01808Y0256*
G37*
G36*
X01738Y0255D02*
X01731D01*
X01726Y02548*
X01721Y02544*
X01719Y02538*
Y02531*
X01721Y02526*
X01726Y02521*
X01731Y02519*
X01738*
X01744Y02521*
X01748Y02526*
X0175Y02531*
Y02538*
X01748Y02544*
X01744Y02548*
X01738Y0255*
G37*
G36*
X01688D02*
X01681D01*
X01676Y02548*
X01671Y02544*
X01669Y02538*
Y02531*
X01671Y02526*
X01676Y02521*
X01681Y02519*
X01688*
X01694Y02521*
X01698Y02526*
X017Y02531*
Y02538*
X01698Y02544*
X01694Y02548*
X01688Y0255*
G37*
G36*
X03468Y0254D02*
X03461D01*
X03456Y02538*
X03451Y02534*
X03449Y02528*
Y02521*
X03451Y02516*
X03456Y02511*
X03461Y02509*
X03468*
X03474Y02511*
X03478Y02516*
X0348Y02521*
Y02528*
X03478Y02534*
X03474Y02538*
X03468Y0254*
G37*
G36*
X03603Y02505D02*
X03596D01*
X03591Y02503*
X03586Y02499*
X03584Y02493*
Y02486*
X03586Y02481*
X03591Y02476*
X03596Y02474*
X03603*
X03609Y02476*
X03613Y02481*
X03615Y02486*
Y02493*
X03613Y02499*
X03609Y02503*
X03603Y02505*
G37*
G36*
X03633Y02475D02*
X03626D01*
X03621Y02473*
X03616Y02469*
X03614Y02463*
Y02456*
X03616Y02451*
X03621Y02446*
X03626Y02444*
X03633*
X03639Y02446*
X03643Y02451*
X03645Y02456*
Y02463*
X03643Y02469*
X03639Y02473*
X03633Y02475*
G37*
G36*
X03663Y02445D02*
X03656D01*
X03651Y02443*
X03646Y02439*
X03644Y02433*
Y02426*
X03646Y02421*
X03651Y02416*
X03656Y02414*
X03663*
X03669Y02416*
X03673Y02421*
X03675Y02426*
Y02433*
X03673Y02439*
X03669Y02443*
X03663Y02445*
G37*
G36*
X01663D02*
X01656D01*
X01651Y02443*
X01646Y02439*
X01644Y02433*
Y02426*
X01646Y02421*
X01651Y02416*
X01656Y02414*
X01663*
X01669Y02416*
X01673Y02421*
X01675Y02426*
Y02433*
X01673Y02439*
X01669Y02443*
X01663Y02445*
G37*
G36*
X01778Y02435D02*
X01771D01*
X01766Y02433*
X01761Y02429*
X01759Y02423*
Y02416*
X01761Y02411*
X01766Y02406*
X01771Y02404*
X01778*
X01784Y02406*
X01788Y02411*
X0179Y02416*
Y02423*
X01788Y02429*
X01784Y02433*
X01778Y02435*
G37*
G36*
X03693Y02415D02*
X03686D01*
X03681Y02413*
X03676Y02409*
X03674Y02403*
Y02396*
X03676Y02391*
X03681Y02386*
X03686Y02384*
X03693*
X03699Y02386*
X03703Y02391*
X03705Y02396*
Y02403*
X03703Y02409*
X03699Y02413*
X03693Y02415*
G37*
G36*
X02535Y02434D02*
X02528D01*
X02522Y02431*
X02518Y02427*
X02516Y02421*
Y02415*
X02514Y02413*
X02512Y02411*
X02506*
X025Y02409*
X02495Y02404*
X02493Y02398*
Y02392*
X02495Y02386*
X025Y02382*
X02506Y02379*
X02512*
X02518Y02382*
X02522Y02386*
X02525Y02392*
Y02398*
X02527Y024*
X02529Y02402*
X02535*
X0254Y02404*
X02545Y02409*
X02547Y02415*
Y02421*
X02545Y02427*
X0254Y02431*
X02535Y02434*
G37*
G36*
X01713Y02445D02*
X01706D01*
X01701Y02443*
X01696Y02439*
X01694Y02433*
Y02426*
X01696Y02421*
X01696Y0242*
X01694Y02415*
X01691*
X01686Y02413*
X01681Y02409*
X01679Y02403*
Y02396*
X01681Y02391*
X01686Y02386*
X01691Y02384*
X01698*
X01704Y02386*
X01708Y02391*
X01709Y02392*
X01714Y02391*
Y02386*
X01716Y02381*
X01721Y02376*
X01726Y02374*
X01733*
X01739Y02376*
X01743Y02381*
X01745Y02386*
Y02393*
X01743Y02399*
X01739Y02403*
X01733Y02405*
X01726*
X01721Y02403*
X01716Y02399*
X01715Y02397*
X0171Y02398*
Y02403*
X01708Y02409*
X01708Y02409*
X0171Y02414*
X01713*
X01719Y02416*
X01723Y02421*
X01725Y02426*
Y02433*
X01723Y02439*
X01719Y02443*
X01713Y02445*
G37*
G36*
X02693Y024D02*
X02686D01*
X02681Y02398*
X02676Y02394*
X02674Y02388*
Y02381*
X02676Y02376*
X02681Y02371*
X02686Y02369*
X02693*
X02699Y02371*
X02703Y02376*
X02705Y02381*
Y02388*
X02703Y02394*
X02699Y02398*
X02693Y024*
G37*
G36*
X01958Y0242D02*
X01951D01*
X01946Y02418*
X01941Y02414*
X01939Y02408*
Y02401*
X01941Y02396*
X01946Y02391*
X01951Y02389*
X01958*
X01961Y0239*
X01965Y02386*
X01964Y02383*
Y02376*
X01966Y02371*
X01971Y02366*
X01976Y02364*
X01983*
X01989Y02366*
X01993Y02371*
X01995Y02376*
Y02383*
X01993Y02389*
X01989Y02393*
X01983Y02395*
X01976*
X01973Y02394*
X01969Y02398*
X0197Y02401*
Y02408*
X01968Y02414*
X01964Y02418*
X01958Y0242*
G37*
G36*
X01263Y02385D02*
X01256D01*
X01251Y02383*
X01246Y02379*
X01244Y02373*
Y02366*
X01246Y02361*
X01251Y02356*
X01256Y02354*
X01263*
X01269Y02356*
X01273Y02361*
X01275Y02366*
Y02373*
X01273Y02379*
X01269Y02383*
X01263Y02385*
G37*
G36*
X01933Y0237D02*
X01926D01*
X01921Y02368*
X01916Y02364*
X01914Y02358*
Y02351*
X01916Y02346*
X01921Y02341*
X01926Y02339*
X01933*
X01939Y02341*
X01943Y02346*
X01945Y02351*
Y02358*
X01943Y02364*
X01939Y02368*
X01933Y0237*
G37*
G36*
X03508Y0235D02*
X03501D01*
X03496Y02348*
X03491Y02344*
X03489Y02338*
Y02331*
X03491Y02326*
X03496Y02321*
X03501Y02319*
X03508*
X03514Y02321*
X03518Y02326*
X0352Y02331*
Y02338*
X03518Y02344*
X03514Y02348*
X03508Y0235*
G37*
G36*
X03153Y0234D02*
X03146D01*
X03141Y02338*
X03136Y02334*
X03134Y02328*
Y02321*
X03136Y02316*
X03141Y02311*
X03146Y02309*
X03153*
X03159Y02311*
X03163Y02316*
X03165Y02321*
Y02328*
X03163Y02334*
X03159Y02338*
X03153Y0234*
G37*
G36*
X01983Y02335D02*
X01976D01*
X01971Y02333*
X01966Y02329*
X01964Y02323*
Y02316*
X01966Y02311*
X01971Y02306*
X01976Y02304*
X01983*
X01989Y02306*
X01993Y02311*
X01995Y02316*
Y02323*
X01993Y02329*
X01989Y02333*
X01983Y02335*
G37*
G36*
X03473Y02314D02*
X03466D01*
X03461Y02312*
X03456Y02307*
X03454Y02302*
Y02295*
X03456Y02289*
X03461Y02285*
X03466Y02283*
X03473*
X03479Y02285*
X03483Y02289*
X03485Y02295*
Y02302*
X03483Y02307*
X03479Y02312*
X03473Y02314*
G37*
G36*
X02068Y02305D02*
X02061D01*
X02056Y02303*
X02051Y02299*
X02049Y02293*
Y02286*
X02051Y02281*
X02056Y02276*
X02061Y02274*
X02068*
X02074Y02276*
X02078Y02281*
X0208Y02286*
Y02293*
X02078Y02299*
X02074Y02303*
X02068Y02305*
G37*
G36*
X01548Y0229D02*
X01541D01*
X01536Y02288*
X01531Y02284*
X01529Y02278*
Y02271*
X01531Y02266*
X01536Y02261*
X01541Y02259*
X01548*
X01554Y02261*
X01558Y02266*
X0156Y02271*
Y02278*
X01558Y02284*
X01554Y02288*
X01548Y0229*
G37*
G36*
X03506Y02285D02*
X035D01*
X03494Y02283*
X03489Y02278*
X03487Y02272*
Y02266*
X03489Y0226*
X03494Y02256*
X035Y02253*
X03506*
X03512Y02256*
X03516Y0226*
X03519Y02266*
Y02272*
X03516Y02278*
X03512Y02283*
X03506Y02285*
G37*
G36*
X01758Y0227D02*
X01751D01*
X01746Y02268*
X01741Y02264*
X01739Y02258*
Y02251*
X01741Y02246*
X01746Y02241*
X01751Y02239*
X01758*
X01764Y02241*
X01768Y02246*
X0177Y02251*
Y02258*
X01768Y02264*
X01764Y02268*
X01758Y0227*
G37*
G36*
X03543Y02259D02*
X03536D01*
X03531Y02257*
X03526Y02253*
X03524Y02247*
Y0224*
X03526Y02235*
X03531Y0223*
X03536Y02228*
X03543*
X03549Y0223*
X03553Y02235*
X03555Y0224*
Y02247*
X03553Y02253*
X03549Y02257*
X03543Y02259*
G37*
G36*
X01488Y02256D02*
X01481D01*
X01476Y02254*
X01471Y0225*
X01469Y02244*
Y02237*
X01471Y02232*
X01476Y02227*
X01481Y02225*
X01488*
X01494Y02227*
X01498Y02232*
X015Y02237*
Y02244*
X01498Y0225*
X01494Y02254*
X01488Y02256*
G37*
G36*
X0129D02*
X01283D01*
X01278Y02254*
X01273Y0225*
X01271Y02244*
Y02237*
X01273Y02232*
X01278Y02227*
X01283Y02225*
X0129*
X01296Y02227*
X013Y02232*
X01302Y02237*
Y02244*
X013Y0225*
X01296Y02254*
X0129Y02256*
G37*
G36*
X01047D02*
X0104D01*
X01035Y02254*
X0103Y0225*
X01028Y02244*
Y02237*
X0103Y02232*
X01035Y02227*
X0104Y02225*
X01047*
X01053Y02227*
X01057Y02232*
X01059Y02237*
Y02244*
X01057Y0225*
X01053Y02254*
X01047Y02256*
G37*
G36*
X03573Y02223D02*
X03566D01*
X03561Y02221*
X03556Y02217*
X03554Y02211*
Y02204*
X03556Y02199*
X03561Y02194*
X03566Y02192*
X03573*
X03579Y02194*
X03583Y02199*
X03585Y02204*
Y02211*
X03583Y02217*
X03579Y02221*
X03573Y02223*
G37*
G36*
X01398Y0222D02*
X01391D01*
X01386Y02218*
X01381Y02214*
X01379Y02208*
Y02201*
X01381Y02196*
X01386Y02191*
X01391Y02189*
X01398*
X01404Y02191*
X01408Y02196*
X0141Y02201*
Y02208*
X01408Y02214*
X01404Y02218*
X01398Y0222*
G37*
G36*
X01164D02*
X01157D01*
X01152Y02218*
X01147Y02214*
X01145Y02208*
Y02201*
X01147Y02196*
X01152Y02191*
X01157Y02189*
X01164*
X0117Y02191*
X01174Y02196*
X01176Y02201*
Y02208*
X01174Y02214*
X0117Y02218*
X01164Y0222*
G37*
G36*
X00623D02*
X00616D01*
X00611Y02218*
X00606Y02214*
X00604Y02208*
Y02201*
X00606Y02196*
X00611Y02191*
X00616Y02189*
X00623*
X00629Y02191*
X00633Y02196*
X00635Y02201*
Y02208*
X00633Y02214*
X00629Y02218*
X00623Y0222*
G37*
G36*
X01948Y0221D02*
X01941D01*
X01936Y02208*
X01931Y02204*
X01929Y02198*
Y02191*
X01931Y02186*
X01936Y02181*
X01941Y02179*
X01948*
X01954Y02181*
X01958Y02186*
X0196Y02191*
Y02198*
X01958Y02204*
X01954Y02208*
X01948Y0221*
G37*
G36*
X02863Y022D02*
X02856D01*
X02851Y02198*
X02846Y02194*
X02844Y02188*
Y02181*
X02846Y02176*
X02851Y02171*
X02856Y02169*
X02863*
X02869Y02171*
X02873Y02176*
X02875Y02181*
Y02188*
X02873Y02194*
X02869Y02198*
X02863Y022*
G37*
G36*
X03438Y02195D02*
X03431D01*
X03426Y02193*
X03421Y02189*
X03419Y02183*
Y02176*
X03421Y02171*
X03426Y02166*
X03431Y02164*
X03438*
X03444Y02166*
X03448Y02171*
X0345Y02176*
Y02183*
X03448Y02189*
X03444Y02193*
X03438Y02195*
G37*
G36*
X01425Y02184D02*
X01418D01*
X01413Y02182*
X01408Y02178*
X01406Y02172*
Y02165*
X01408Y0216*
X01413Y02155*
X01418Y02153*
X01425*
X01431Y02155*
X01435Y0216*
X01437Y02165*
Y02172*
X01435Y02178*
X01431Y02182*
X01425Y02184*
G37*
G36*
X03846Y02157D02*
X03839D01*
X03834Y02155*
X03829Y02151*
X03827Y02145*
Y02138*
X03829Y02133*
X03834Y02128*
X03839Y02126*
X03846*
X03852Y02128*
X03856Y02133*
X03858Y02138*
Y02145*
X03856Y02151*
X03852Y02155*
X03846Y02157*
G37*
G36*
X03819Y0213D02*
X03812D01*
X03807Y02128*
X03802Y02124*
X038Y02118*
Y02111*
X03802Y02106*
X03807Y02101*
X03812Y02099*
X03819*
X03825Y02101*
X03829Y02106*
X03831Y02111*
Y02118*
X03829Y02124*
X03825Y02128*
X03819Y0213*
G37*
G36*
X00493Y02123D02*
X00486D01*
X00478Y0212*
X00473Y02114*
X0047Y02107*
Y02099*
X00473Y02092*
X00478Y02086*
X00486Y02083*
X00493*
X00501Y02086*
X00506Y02092*
X00509Y02099*
Y02107*
X00506Y02114*
X00501Y0212*
X00493Y02123*
G37*
G36*
X01963Y02105D02*
X01956D01*
X01951Y02103*
X01946Y02099*
X01944Y02093*
Y02086*
X01946Y02081*
X01951Y02076*
X01956Y02074*
X01963*
X01969Y02076*
X01973Y02081*
X01975Y02086*
Y02093*
X01973Y02099*
X01969Y02103*
X01963Y02105*
G37*
G36*
X01738D02*
X01731D01*
X01726Y02103*
X01721Y02099*
X01719Y02093*
Y02086*
X01721Y02081*
X01726Y02076*
X01731Y02074*
X01738*
X01744Y02076*
X01748Y02081*
X0175Y02086*
Y02093*
X01748Y02099*
X01744Y02103*
X01738Y02105*
G37*
G36*
X01483D02*
X01476D01*
X01471Y02103*
X01466Y02099*
X01464Y02093*
Y02086*
X01466Y02081*
X01471Y02076*
X01476Y02074*
X01483*
X01489Y02076*
X01493Y02081*
X01495Y02086*
Y02093*
X01493Y02099*
X01489Y02103*
X01483Y02105*
G37*
G36*
X01283D02*
X01276D01*
X01271Y02103*
X01266Y02099*
X01264Y02093*
Y02086*
X01266Y02081*
X01271Y02076*
X01276Y02074*
X01283*
X01289Y02076*
X01293Y02081*
X01295Y02086*
Y02093*
X01293Y02099*
X01289Y02103*
X01283Y02105*
G37*
G36*
X01043D02*
X01036D01*
X01031Y02103*
X01026Y02099*
X01024Y02093*
Y02086*
X01026Y02081*
X01031Y02076*
X01036Y02074*
X01043*
X01049Y02076*
X01053Y02081*
X01055Y02086*
Y02093*
X01053Y02099*
X01049Y02103*
X01043Y02105*
G37*
G36*
X03789Y02097D02*
X03782D01*
X03777Y02095*
X03772Y02091*
X0377Y02085*
Y02078*
X03772Y02073*
X03777Y02068*
X03782Y02066*
X03789*
X03795Y02068*
X03799Y02073*
X03801Y02078*
Y02085*
X03799Y02091*
X03795Y02095*
X03789Y02097*
G37*
G36*
X00493Y02076D02*
X00486D01*
X00478Y02073*
X00473Y02067*
X0047Y0206*
Y02052*
X00473Y02045*
X00478Y02039*
X00486Y02036*
X00493*
X00501Y02039*
X00506Y02045*
X00509Y02052*
Y0206*
X00506Y02067*
X00501Y02073*
X00493Y02076*
G37*
G36*
X03759Y02061D02*
X03752D01*
X03747Y02059*
X03742Y02055*
X0374Y02049*
Y02042*
X03742Y02037*
X03747Y02032*
X03752Y0203*
X03759*
X03765Y02032*
X03769Y02037*
X03771Y02042*
Y02049*
X03769Y02055*
X03765Y02059*
X03759Y02061*
G37*
G36*
X02258Y0205D02*
X02251D01*
X02246Y02048*
X02241Y02044*
X02239Y02038*
Y02031*
X02235Y02027*
X02234*
X02231Y0203*
X0223Y02032*
Y02038*
X02228Y02044*
X02224Y02048*
X02218Y0205*
X02211*
X02206Y02048*
X02201Y02044*
X02199Y02038*
Y02031*
X02201Y02026*
X02206Y02021*
X02211Y02019*
X02216*
X02219Y02015*
X02219Y02014*
X02219Y02013*
Y02006*
X02221Y02001*
X02226Y01996*
X02231Y01994*
X02238*
X02244Y01996*
X02248Y02001*
X0225Y02006*
Y02012*
X02251Y02014*
X02254Y02017*
X02255*
X02259Y02013*
Y02006*
X02261Y02001*
X02266Y01996*
X02271Y01994*
X02278*
X02284Y01996*
X02288Y02001*
X0229Y02006*
Y02013*
X02288Y02019*
X02284Y02023*
X02278Y02025*
X02273*
X0227Y02029*
X0227Y0203*
X0227Y02031*
Y02038*
X02268Y02044*
X02264Y02048*
X02258Y0205*
G37*
G36*
X03723Y02037D02*
X03716D01*
X03711Y02035*
X03706Y02031*
X03704Y02025*
Y02018*
X03706Y02013*
X03711Y02008*
X03716Y02006*
X03723*
X03729Y02008*
X03733Y02013*
X03735Y02018*
Y02025*
X03733Y02031*
X03729Y02035*
X03723Y02037*
G37*
G36*
X02478Y02025D02*
X02471D01*
X02466Y02023*
X02461Y02019*
X02459Y02013*
Y02006*
X02461Y02001*
X02466Y01996*
X02471Y01994*
X02478*
X02484Y01996*
X02488Y02001*
X0249Y02006*
Y02013*
X02488Y02019*
X02484Y02023*
X02478Y02025*
G37*
G36*
X02048Y01985D02*
X02041D01*
X02036Y01983*
X02031Y01979*
X02029Y01973*
Y01966*
X02031Y01961*
X02036Y01956*
X02041Y01954*
X02048*
X02054Y01956*
X02058Y01961*
X0206Y01966*
Y01973*
X02058Y01979*
X02054Y01983*
X02048Y01985*
G37*
G36*
X01718Y0198D02*
X01711D01*
X01706Y01978*
X01701Y01974*
X01699Y01968*
Y01961*
X01701Y01956*
X01706Y01951*
X01711Y01949*
X01718*
X01724Y01951*
X01728Y01956*
X0173Y01961*
Y01968*
X01728Y01974*
X01724Y01978*
X01718Y0198*
G37*
G36*
X00623Y01925D02*
X00616D01*
X00611Y01923*
X00606Y01919*
X00604Y01913*
Y01906*
X00606Y01901*
X00611Y01896*
X00616Y01894*
X00623*
X00629Y01896*
X00633Y01901*
X00635Y01906*
Y01913*
X00633Y01919*
X00629Y01923*
X00623Y01925*
G37*
G36*
X01821Y01923D02*
X01814D01*
X01809Y01921*
X01804Y01917*
X01802Y01911*
Y01904*
X01804Y01899*
X01809Y01894*
X01814Y01892*
X01821*
X01827Y01894*
X01831Y01899*
X01833Y01904*
Y01911*
X01831Y01917*
X01827Y01921*
X01821Y01923*
G37*
G36*
X00183Y01889D02*
X00177D01*
X00171Y01887*
X00166Y01882*
X00164Y01877*
Y0187*
X00166Y01864*
X00171Y0186*
X00177Y01858*
X00183*
X00189Y0186*
X00193Y01864*
X00196Y0187*
Y01877*
X00193Y01882*
X00189Y01887*
X00183Y01889*
G37*
G36*
X00071Y01839D02*
X00065D01*
X00059Y01836*
X00055Y01832*
X00052Y01826*
Y0182*
X00055Y01814*
X00059Y0181*
X00065Y01807*
X00071*
X00077Y0181*
X00081Y01814*
X00084Y0182*
Y01826*
X00081Y01832*
X00077Y01836*
X00071Y01839*
G37*
G36*
X01718Y01825D02*
X01711D01*
X01706Y01823*
X01701Y01819*
X01699Y01813*
Y01806*
X01701Y01801*
X01706Y01796*
X01711Y01794*
X01718*
X01724Y01796*
X01728Y01801*
X0173Y01806*
Y01813*
X01728Y01819*
X01724Y01823*
X01718Y01825*
G37*
G36*
X00978Y01835D02*
X00971D01*
X00966Y01833*
X00961Y01829*
X00959Y01823*
Y01816*
X00961Y01811*
X00966Y01806*
X00971Y01804*
X00978*
X00984Y01806*
X00986Y01808*
X0099Y01805*
X00989Y01803*
Y01796*
X00991Y01791*
X00996Y01786*
X01001Y01784*
X01008*
X01014Y01786*
X01018Y01791*
X0102Y01796*
Y01803*
X01018Y01809*
X01014Y01813*
X01008Y01815*
X01001*
X00996Y01813*
X00994Y01811*
X00989Y01814*
X0099Y01816*
Y01823*
X00988Y01829*
X00984Y01833*
X00978Y01835*
G37*
G36*
X02603Y018D02*
X02596D01*
X02591Y01798*
X02586Y01794*
X02584Y01788*
Y01781*
X02586Y01776*
X02591Y01771*
X02596Y01769*
X02603*
X02609Y01771*
X02613Y01776*
X02615Y01781*
Y01788*
X02613Y01794*
X02609Y01798*
X02603Y018*
G37*
G36*
X00623D02*
X00616D01*
X00611Y01798*
X00606Y01794*
X00604Y01788*
Y01781*
X00606Y01776*
X00611Y01771*
X00616Y01769*
X00623*
X00629Y01771*
X00633Y01776*
X00635Y01781*
Y01788*
X00633Y01794*
X00629Y01798*
X00623Y018*
G37*
G36*
X02093Y01789D02*
X02086D01*
X02081Y01787*
X02076Y01782*
X02074Y01776*
Y0177*
X02076Y01764*
X02081Y0176*
X02086Y01757*
X02093*
X02099Y0176*
X02103Y01764*
X02105Y0177*
Y01776*
X02103Y01782*
X02099Y01787*
X02093Y01789*
G37*
G36*
X03774Y01779D02*
X03767D01*
X03762Y01777*
X03757Y01773*
X03755Y01767*
Y0176*
X03757Y01755*
X03762Y0175*
X03767Y01748*
X03774*
X0378Y0175*
X03784Y01755*
X03786Y0176*
Y01767*
X03784Y01773*
X0378Y01777*
X03774Y01779*
G37*
G36*
X01821D02*
X01814D01*
X01809Y01777*
X01804Y01773*
X01802Y01767*
Y0176*
X01804Y01755*
X01809Y0175*
X01814Y01748*
X01821*
X01827Y0175*
X01831Y01755*
X01833Y0176*
Y01767*
X01831Y01773*
X01827Y01777*
X01821Y01779*
G37*
G36*
X02638Y01765D02*
X02631D01*
X02626Y01763*
X02621Y01759*
X02619Y01753*
Y01746*
X02621Y01741*
X02626Y01736*
X02631Y01734*
X02638*
X02644Y01736*
X02648Y01741*
X0265Y01746*
Y01753*
X02648Y01759*
X02644Y01763*
X02638Y01765*
G37*
G36*
X0214D02*
X02134D01*
X02128Y01763*
X02123Y01759*
X02121Y01753*
Y01746*
X02123Y01741*
X02128Y01736*
X02134Y01734*
X0214*
X02146Y01736*
X0215Y01741*
X02153Y01746*
Y01753*
X0215Y01759*
X02146Y01763*
X0214Y01765*
G37*
G36*
X00188Y01755D02*
X00181D01*
X00176Y01753*
X00171Y01749*
X00169Y01743*
Y01736*
X00171Y01731*
X00176Y01726*
X00181Y01724*
X00188*
X00194Y01726*
X00198Y01731*
X002Y01736*
Y01743*
X00198Y01749*
X00194Y01753*
X00188Y01755*
G37*
G36*
X0381Y01752D02*
X03803D01*
X03798Y0175*
X03793Y01746*
X03791Y0174*
Y01733*
X03793Y01728*
X03798Y01723*
X03803Y01721*
X0381*
X03816Y01723*
X0382Y01728*
X03822Y01733*
Y0174*
X0382Y01746*
X03816Y0175*
X0381Y01752*
G37*
G36*
X02578Y0174D02*
X02571D01*
X02566Y01738*
X02561Y01734*
X02559Y01728*
Y01721*
X02561Y01716*
X02566Y01711*
X02571Y01709*
X02578*
X02584Y01711*
X02588Y01716*
X0259Y01721*
Y01728*
X02588Y01734*
X02584Y01738*
X02578Y0174*
G37*
G36*
X02093D02*
X02086D01*
X02081Y01738*
X02076Y01734*
X02074Y01728*
Y01721*
X02076Y01716*
X02081Y01711*
X02086Y01709*
X02093*
X02099Y01711*
X02103Y01716*
X02105Y01721*
Y01728*
X02103Y01734*
X02099Y01738*
X02093Y0174*
G37*
G36*
X03774Y01725D02*
X03767D01*
X03762Y01723*
X03757Y01719*
X03755Y01713*
Y01706*
X03757Y01701*
X03762Y01696*
X03767Y01694*
X03774*
X0378Y01696*
X03784Y01701*
X03786Y01706*
Y01713*
X03784Y01719*
X0378Y01723*
X03774Y01725*
G37*
G36*
X00978D02*
X00971D01*
X00966Y01723*
X00961Y01719*
X00959Y01713*
Y01706*
X00961Y01701*
X00966Y01696*
X00971Y01694*
X00978*
X00984Y01696*
X00988Y01701*
X0099Y01706*
Y01713*
X00988Y01719*
X00984Y01723*
X00978Y01725*
G37*
G36*
X02143Y01715D02*
X02136D01*
X02131Y01713*
X02126Y01709*
X02124Y01703*
Y01696*
X02126Y01691*
X02131Y01686*
X02136Y01684*
X02143*
X02149Y01686*
X02153Y01691*
X02155Y01696*
Y01703*
X02153Y01709*
X02149Y01713*
X02143Y01715*
G37*
G36*
X00071Y01709D02*
X00065D01*
X00059Y01706*
X00055Y01702*
X00052Y01696*
Y0169*
X00055Y01684*
X00059Y0168*
X00065Y01677*
X00071*
X00077Y0168*
X00081Y01684*
X00084Y0169*
Y01696*
X00081Y01702*
X00077Y01706*
X00071Y01709*
G37*
G36*
X02613Y01705D02*
X02606D01*
X02601Y01703*
X02596Y01699*
X02594Y01693*
Y01686*
X02596Y01681*
X02601Y01676*
X02606Y01674*
X02613*
X02619Y01676*
X02623Y01681*
X02625Y01686*
Y01693*
X02623Y01699*
X02619Y01703*
X02613Y01705*
G37*
G36*
X01058D02*
X01051D01*
X01046Y01703*
X01041Y01699*
X01039Y01693*
Y01686*
X01041Y01681*
X01046Y01676*
X01051Y01674*
X01058*
X01064Y01676*
X01068Y01681*
X0107Y01686*
Y01693*
X01068Y01699*
X01064Y01703*
X01058Y01705*
G37*
G36*
X0381Y01698D02*
X03803D01*
X03798Y01696*
X03793Y01692*
X03791Y01686*
Y01679*
X03793Y01674*
X03798Y01669*
X03803Y01667*
X0381*
X03816Y01669*
X0382Y01674*
X03822Y01679*
Y01686*
X0382Y01692*
X03816Y01696*
X0381Y01698*
G37*
G36*
X02093Y01685D02*
X02086D01*
X02081Y01683*
X02076Y01679*
X02074Y01673*
Y01666*
X02076Y01661*
X02081Y01656*
X02086Y01654*
X02093*
X02099Y01656*
X02103Y01661*
X02105Y01666*
Y01673*
X02103Y01679*
X02099Y01683*
X02093Y01685*
G37*
G36*
X01749Y0168D02*
X01742D01*
X01737Y01678*
X01732Y01674*
X0173Y01668*
Y01661*
X01732Y01656*
X01737Y01651*
X01742Y01649*
X01749*
X01755Y01651*
X01759Y01656*
X01761Y01661*
Y01668*
X01759Y01674*
X01755Y01678*
X01749Y0168*
G37*
G36*
X00988Y0167D02*
X00981D01*
X00976Y01668*
X00971Y01664*
X00969Y01658*
Y01651*
X00971Y01646*
X00976Y01641*
X00981Y01639*
X00988*
X00994Y01641*
X00998Y01646*
X01Y01651*
Y01658*
X00998Y01664*
X00994Y01668*
X00988Y0167*
G37*
G36*
X03198Y0166D02*
X03191D01*
X03186Y01658*
X03181Y01654*
X03179Y01648*
Y01641*
X03181Y01636*
X03186Y01631*
X03191Y01629*
X03198*
X03204Y01631*
X03208Y01636*
X0321Y01641*
Y01648*
X03208Y01654*
X03204Y01658*
X03198Y0166*
G37*
G36*
X01704Y01653D02*
X01697D01*
X01692Y01651*
X01687Y01647*
X01685Y01641*
Y01634*
X01687Y01629*
X01692Y01624*
X01697Y01622*
X01704*
X0171Y01624*
X01714Y01629*
X01716Y01634*
Y01641*
X01714Y01647*
X0171Y01651*
X01704Y01653*
G37*
G36*
X01749Y01626D02*
X01742D01*
X01737Y01624*
X01732Y0162*
X0173Y01614*
Y01607*
X01732Y01602*
X01737Y01597*
X01742Y01595*
X01749*
X01755Y01597*
X01759Y01602*
X01761Y01607*
Y01614*
X01759Y0162*
X01755Y01624*
X01749Y01626*
G37*
G36*
X00188Y01625D02*
X00181D01*
X00176Y01623*
X00171Y01619*
X00169Y01613*
Y01606*
X00171Y01601*
X00176Y01596*
X00181Y01594*
X00188*
X00194Y01596*
X00198Y01601*
X002Y01606*
Y01613*
X00198Y01619*
X00194Y01623*
X00188Y01625*
G37*
G36*
X03324Y01617D02*
X03317D01*
X03312Y01615*
X03307Y01611*
X03305Y01605*
Y01598*
X03307Y01593*
X03312Y01588*
X03317Y01586*
X03324*
X0333Y01588*
X03334Y01593*
X03336Y01598*
Y01605*
X03334Y01611*
X0333Y01615*
X03324Y01617*
G37*
G36*
X01704Y016D02*
X01697D01*
X01692Y01598*
X01687Y01593*
X01685Y01588*
Y01581*
X01687Y01575*
X01692Y01571*
X01697Y01569*
X01704*
X0171Y01571*
X01714Y01575*
X01716Y01581*
Y01588*
X01714Y01593*
X0171Y01598*
X01704Y016*
G37*
G36*
X01418Y01575D02*
X01411D01*
X01406Y01573*
X01401Y01569*
X01399Y01563*
Y01556*
X01401Y01551*
X01406Y01546*
X01411Y01544*
X01418*
X01424Y01546*
X01428Y01551*
X0143Y01556*
Y01563*
X01428Y01569*
X01424Y01573*
X01418Y01575*
G37*
G36*
X01323D02*
X01316D01*
X01311Y01573*
X01306Y01569*
X01304Y01563*
Y01556*
X01306Y01551*
X01311Y01546*
X01316Y01544*
X01323*
X01329Y01546*
X01333Y01551*
X01335Y01556*
Y01563*
X01333Y01569*
X01329Y01573*
X01323Y01575*
G37*
G36*
X00068D02*
X00061D01*
X00056Y01573*
X00051Y01569*
X00049Y01563*
Y01556*
X00051Y01551*
X00056Y01546*
X00061Y01544*
X00068*
X00074Y01546*
X00078Y01551*
X0008Y01556*
Y01563*
X00078Y01569*
X00074Y01573*
X00068Y01575*
G37*
G36*
X01749Y01572D02*
X01742D01*
X01737Y0157*
X01732Y01566*
X0173Y0156*
Y01553*
X01732Y01548*
X01737Y01543*
X01742Y01541*
X01749*
X01755Y01543*
X01759Y01548*
X01761Y01553*
Y0156*
X01759Y01566*
X01755Y0157*
X01749Y01572*
G37*
G36*
X00618Y01565D02*
X00611D01*
X00606Y01563*
X00601Y01559*
X00599Y01553*
Y01546*
X00601Y01541*
X00606Y01536*
X00611Y01534*
X00618*
X00624Y01536*
X00628Y01541*
X0063Y01546*
Y01553*
X00628Y01559*
X00624Y01563*
X00618Y01565*
G37*
G36*
X01704Y01545D02*
X01697D01*
X01692Y01543*
X01687Y01539*
X01685Y01533*
Y01526*
X01687Y01521*
X01692Y01516*
X01697Y01514*
X01704*
X0171Y01516*
X01714Y01521*
X01716Y01526*
Y01533*
X01714Y01539*
X0171Y01543*
X01704Y01545*
G37*
G36*
X01958Y01516D02*
X01951D01*
X01945Y01513*
X01941Y01509*
X01939Y01503*
Y01497*
X01941Y01491*
X01945Y01486*
X01951Y01484*
X01958*
X01963Y01486*
X01968Y01491*
X0197Y01497*
Y01503*
X01968Y01509*
X01963Y01513*
X01958Y01516*
G37*
G36*
X01998Y01515D02*
X01991D01*
X01986Y01513*
X01981Y01509*
X01979Y01503*
Y01496*
X01981Y01491*
X01986Y01486*
X01991Y01484*
X01998*
X02004Y01486*
X02008Y01491*
X0201Y01496*
Y01503*
X02008Y01509*
X02004Y01513*
X01998Y01515*
G37*
G36*
X01163Y01511D02*
X01156D01*
X01151Y01508*
X01146Y01504*
X01144Y01498*
Y01492*
X01146Y01486*
X01151Y01481*
X01156Y01479*
X01163*
X01169Y01481*
X01173Y01486*
X01175Y01492*
Y01498*
X01173Y01504*
X01169Y01508*
X01163Y01511*
G37*
G36*
X01704Y01491D02*
X01697D01*
X01692Y01489*
X01687Y01485*
X01685Y01479*
Y01472*
X01687Y01467*
X01692Y01462*
X01697Y0146*
X01704*
X0171Y01462*
X01714Y01467*
X01716Y01472*
Y01479*
X01714Y01485*
X0171Y01489*
X01704Y01491*
G37*
G36*
X01767Y01491D02*
X0176D01*
X01755Y01489*
X0175Y01485*
X01748Y01479*
Y01472*
X0175Y01467*
X01755Y01462*
X0176Y0146*
X01767*
X01773Y01462*
X01777Y01467*
X01779Y01472*
Y01479*
X01777Y01485*
X01773Y01489*
X01767Y01491*
G37*
G36*
X01632D02*
X01626D01*
X0162Y01489*
X01615Y01485*
X01613Y01479*
Y01472*
X01615Y01467*
X0162Y01462*
X01626Y0146*
X01632*
X01638Y01462*
X01642Y01467*
X01645Y01472*
Y01479*
X01642Y01485*
X01638Y01489*
X01632Y01491*
G37*
G36*
X02163Y0149D02*
X02156D01*
X02151Y01488*
X02146Y01483*
X02144Y01478*
Y01471*
X02146Y01465*
X02151Y01461*
X02156Y01459*
X02163*
X02169Y01461*
X02173Y01465*
X02175Y01471*
Y01478*
X02173Y01483*
X02169Y01488*
X02163Y0149*
G37*
G36*
X03198Y0148D02*
X03191D01*
X03186Y01478*
X03181Y01474*
X03179Y01468*
Y01461*
X03181Y01456*
X03186Y01451*
X03191Y01449*
X03198*
X03204Y01451*
X03208Y01456*
X0321Y01461*
Y01468*
X03208Y01474*
X03204Y01478*
X03198Y0148*
G37*
G36*
X0174Y01464D02*
X01733D01*
X01728Y01462*
X01723Y01458*
X01721Y01452*
Y01445*
X01723Y0144*
X01728Y01435*
X01733Y01433*
X0174*
X01746Y01435*
X0175Y0144*
X01752Y01445*
Y01452*
X0175Y01458*
X01746Y01462*
X0174Y01464*
G37*
G36*
X01146D02*
X01139D01*
X01134Y01462*
X01129Y01458*
X01127Y01452*
Y01445*
X01129Y0144*
X01134Y01435*
X01139Y01433*
X01146*
X01152Y01435*
X01156Y0144*
X01158Y01445*
Y01452*
X01156Y01458*
X01152Y01462*
X01146Y01464*
G37*
G36*
X01668D02*
X01661D01*
X01656Y01462*
X01651Y01457*
X01649Y01452*
Y01445*
X01651Y0144*
X01656Y01435*
X01661Y01433*
X01668*
X01673Y01435*
X01678Y0144*
X0168Y01445*
Y01452*
X01678Y01457*
X01673Y01462*
X01668Y01464*
G37*
G36*
X02703Y01437D02*
X02696D01*
X02691Y01435*
X02686Y01431*
X02684Y01425*
Y01418*
X02686Y01413*
X02691Y01408*
X02696Y01406*
X02703*
X02709Y01408*
X02713Y01413*
X02715Y01418*
Y01425*
X02713Y01431*
X02709Y01435*
X02703Y01437*
G37*
G36*
X03228Y01425D02*
X03221D01*
X03216Y01423*
X03211Y01419*
X03209Y01413*
Y01406*
X03211Y01401*
X03216Y01396*
X03221Y01394*
X03228*
X03234Y01396*
X03238Y01401*
X0324Y01406*
Y01413*
X03238Y01419*
X03234Y01423*
X03228Y01425*
G37*
G36*
X02739Y0141D02*
X02732D01*
X02727Y01408*
X02722Y01404*
X0272Y01398*
Y01391*
X02722Y01386*
X02727Y01381*
X02732Y01379*
X02739*
X02745Y01381*
X02749Y01386*
X02751Y01391*
Y01398*
X02749Y01404*
X02745Y01408*
X02739Y0141*
G37*
G36*
X03198Y014D02*
X03191D01*
X03186Y01398*
X03181Y01394*
X03179Y01388*
Y01381*
X03181Y01376*
X03186Y01371*
X03191Y01369*
X03198*
X03204Y01371*
X03208Y01376*
X0321Y01381*
Y01388*
X03208Y01394*
X03204Y01398*
X03198Y014*
G37*
G36*
X01568D02*
X01561D01*
X01556Y01398*
X01551Y01394*
X01549Y01388*
Y01381*
X01551Y01376*
X01556Y01371*
X01561Y01369*
X01568*
X01574Y01371*
X01578Y01376*
X0158Y01381*
Y01388*
X01578Y01394*
X01574Y01398*
X01568Y014*
G37*
G36*
X01524Y01392D02*
X01517D01*
X01512Y0139*
X01507Y01386*
X01505Y0138*
Y01373*
X01507Y01368*
X01512Y01363*
X01517Y01361*
X01524*
X0153Y01363*
X01534Y01368*
X01536Y01373*
Y0138*
X01534Y01386*
X0153Y0139*
X01524Y01392*
G37*
G36*
X01326D02*
X01319D01*
X01314Y0139*
X01309Y01386*
X01307Y0138*
Y01373*
X01309Y01368*
X01314Y01363*
X01319Y01361*
X01326*
X01332Y01363*
X01336Y01368*
X01338Y01373*
Y0138*
X01336Y01386*
X01332Y0139*
X01326Y01392*
G37*
G36*
X01227D02*
X0122D01*
X01215Y0139*
X0121Y01386*
X01208Y0138*
Y01373*
X0121Y01368*
X01215Y01363*
X0122Y01361*
X01227*
X01233Y01363*
X01237Y01368*
X01239Y01373*
Y0138*
X01237Y01386*
X01233Y0139*
X01227Y01392*
G37*
G36*
X01146D02*
X0114D01*
X01134Y0139*
X0113Y01386*
X01127Y0138*
Y01373*
X0113Y01368*
X01134Y01363*
X0114Y01361*
X01146*
X01152Y01363*
X01156Y01368*
X01159Y01373*
Y0138*
X01156Y01386*
X01152Y0139*
X01146Y01392*
G37*
G36*
X00368Y01385D02*
X00361D01*
X00356Y01383*
X00351Y01379*
X00349Y01373*
Y01366*
X00351Y01361*
X00356Y01356*
X00361Y01354*
X00368*
X00374Y01356*
X00378Y01361*
X0038Y01366*
Y01373*
X00378Y01379*
X00374Y01383*
X00368Y01385*
G37*
G36*
X02703Y01383D02*
X02696D01*
X02691Y01381*
X02686Y01377*
X02684Y01371*
Y01364*
X02686Y01359*
X02691Y01354*
X02696Y01352*
X02703*
X02709Y01354*
X02713Y01359*
X02715Y01364*
Y01371*
X02713Y01377*
X02709Y01381*
X02703Y01383*
G37*
G36*
X02739Y01356D02*
X02732D01*
X02727Y01354*
X02722Y0135*
X0272Y01344*
Y01337*
X02722Y01332*
X02727Y01327*
X02732Y01325*
X02739*
X02745Y01327*
X02749Y01332*
X02751Y01337*
Y01344*
X02749Y0135*
X02745Y01354*
X02739Y01356*
G37*
G36*
X00763Y0134D02*
X00756D01*
X00751Y01338*
X00746Y01334*
X00744Y01328*
Y01321*
X00746Y01316*
X00751Y01311*
X00756Y01309*
X00763*
X00769Y01311*
X00773Y01316*
X00775Y01321*
Y01328*
X00773Y01334*
X00769Y01338*
X00763Y0134*
G37*
G36*
X03018Y01335D02*
X03011D01*
X03006Y01333*
X03001Y01329*
X02999Y01323*
Y01316*
X03001Y01311*
X03006Y01306*
X03011Y01304*
X03018*
X03024Y01306*
X03028Y01311*
X0303Y01316*
Y01323*
X03028Y01329*
X03024Y01333*
X03018Y01335*
G37*
G36*
X02703Y01329D02*
X02696D01*
X02691Y01327*
X02686Y01323*
X02684Y01317*
Y0131*
X02686Y01305*
X02691Y013*
X02696Y01298*
X02703*
X02709Y013*
X02713Y01305*
X02715Y0131*
Y01317*
X02713Y01323*
X02709Y01327*
X02703Y01329*
G37*
G36*
X02739Y01302D02*
X02732D01*
X02727Y013*
X02722Y01296*
X0272Y0129*
Y01283*
X02722Y01278*
X02727Y01273*
X02732Y01271*
X02739*
X02745Y01273*
X02749Y01278*
X02751Y01283*
Y0129*
X02749Y01296*
X02745Y013*
X02739Y01302*
G37*
G36*
X03038Y01295D02*
X03031D01*
X03026Y01293*
X03021Y01289*
X03019Y01283*
Y01276*
X03021Y01271*
X03026Y01266*
X03031Y01264*
X03038*
X03044Y01266*
X03048Y01271*
X0305Y01276*
Y01283*
X03048Y01289*
X03044Y01293*
X03038Y01295*
G37*
G36*
X03306Y01275D02*
X03299D01*
X03294Y01273*
X03289Y01269*
X03287Y01263*
Y01256*
X03289Y01251*
X03294Y01246*
X03299Y01244*
X03306*
X03312Y01246*
X03316Y01251*
X03318Y01256*
Y01263*
X03316Y01269*
X03312Y01273*
X03306Y01275*
G37*
G36*
X02703Y01275D02*
X02696D01*
X02691Y01273*
X02686Y01269*
X02684Y01263*
Y01256*
X02686Y01251*
X02691Y01246*
X02696Y01244*
X02703*
X02709Y01246*
X02713Y01251*
X02715Y01256*
Y01263*
X02713Y01269*
X02709Y01273*
X02703Y01275*
G37*
G36*
X02361D02*
X02354D01*
X02349Y01273*
X02344Y01269*
X02342Y01263*
Y01256*
X02344Y01251*
X02349Y01246*
X02354Y01244*
X02361*
X02367Y01246*
X02371Y01251*
X02373Y01256*
Y01263*
X02371Y01269*
X02367Y01273*
X02361Y01275*
G37*
G36*
X01803Y0127D02*
X01796D01*
X01791Y01268*
X01786Y01264*
X01784Y01258*
Y01251*
X01786Y01246*
X01791Y01241*
X01796Y01239*
X01803*
X01809Y01241*
X01813Y01246*
X01815Y01251*
Y01258*
X01813Y01264*
X01809Y01268*
X01803Y0127*
G37*
G36*
X01648D02*
X01641D01*
X01636Y01268*
X01631Y01264*
X01629Y01258*
Y01251*
X01631Y01246*
X01636Y01241*
X01641Y01239*
X01648*
X01654Y01241*
X01658Y01246*
X0166Y01251*
Y01258*
X01658Y01264*
X01654Y01268*
X01648Y0127*
G37*
G36*
X03342Y01261D02*
X03335D01*
X0333Y01258*
X03325Y01254*
X03323Y01248*
Y01242*
X03325Y01236*
X0333Y01231*
X03335Y01229*
X03342*
X03348Y01231*
X03352Y01236*
X03354Y01242*
Y01248*
X03352Y01254*
X03348Y01258*
X03342Y01261*
G37*
G36*
X01713Y01255D02*
X01706D01*
X01701Y01253*
X01696Y01249*
X01694Y01243*
Y01236*
X01696Y01231*
X01701Y01226*
X01706Y01224*
X01713*
X01719Y01226*
X01723Y01231*
X01725Y01236*
Y01243*
X01723Y01249*
X01719Y01253*
X01713Y01255*
G37*
G36*
X02739Y0125D02*
X02732D01*
X02727Y01248*
X02722Y01244*
X0272Y01238*
Y01231*
X02722Y01226*
X02727Y01221*
X02732Y01219*
X02739*
X02745Y01221*
X02749Y01226*
X02751Y01231*
Y01238*
X02749Y01244*
X02745Y01248*
X02739Y0125*
G37*
G36*
X01948Y01245D02*
X01941D01*
X01936Y01243*
X01931Y01239*
X01929Y01233*
Y01226*
X01931Y01221*
X01936Y01216*
X01941Y01214*
X01948*
X01954Y01216*
X01958Y01221*
X0196Y01226*
Y01233*
X01958Y01239*
X01954Y01243*
X01948Y01245*
G37*
G36*
X01173D02*
X01166D01*
X01161Y01243*
X01156Y01239*
X01154Y01233*
Y01226*
X01156Y01221*
X01161Y01216*
X01166Y01214*
X01173*
X01179Y01216*
X01183Y01221*
X01185Y01226*
Y01233*
X01183Y01239*
X01179Y01243*
X01173Y01245*
G37*
G36*
X01983Y0122D02*
X01976D01*
X01971Y01218*
X01966Y01214*
X01964Y01208*
Y01201*
X01966Y01196*
X01971Y01191*
X01976Y01189*
X01983*
X01989Y01191*
X01993Y01196*
X01995Y01201*
Y01208*
X01993Y01214*
X01989Y01218*
X01983Y0122*
G37*
G36*
X02758Y012D02*
X02751D01*
X02746Y01198*
X02741Y01194*
X02739Y01188*
Y01181*
X02741Y01176*
X02746Y01171*
X02751Y01169*
X02758*
X02764Y01171*
X02768Y01176*
X0277Y01181*
Y01188*
X02768Y01194*
X02764Y01198*
X02758Y012*
G37*
G36*
X01868Y01195D02*
X01861D01*
X01856Y01193*
X01851Y01189*
X01849Y01183*
Y01176*
X01851Y01171*
X01856Y01166*
X01861Y01164*
X01868*
X01874Y01166*
X01878Y01171*
X0188Y01176*
Y01183*
X01878Y01189*
X01874Y01193*
X01868Y01195*
G37*
G36*
X03387Y01158D02*
X0338D01*
X03375Y01156*
X0337Y01152*
X03368Y01146*
Y01139*
X0337Y01134*
X03375Y01129*
X0338Y01127*
X03387*
X03393Y01129*
X03397Y01134*
X03399Y01139*
Y01146*
X03397Y01152*
X03393Y01156*
X03387Y01158*
G37*
G36*
X01068Y0112D02*
X01061D01*
X01056Y01118*
X01051Y01114*
X01049Y01108*
Y01101*
X01051Y01096*
X01056Y01091*
X01061Y01089*
X01068*
X01074Y01091*
X01078Y01096*
X0108Y01101*
Y01108*
X01078Y01114*
X01074Y01118*
X01068Y0112*
G37*
G36*
X03018Y01115D02*
X03011D01*
X03006Y01113*
X03001Y01109*
X02999Y01103*
Y01096*
X03001Y01091*
X03006Y01086*
X03011Y01084*
X03018*
X03024Y01086*
X03028Y01091*
X0303Y01096*
Y01103*
X03028Y01109*
X03024Y01113*
X03018Y01115*
G37*
G36*
X02892Y01113D02*
X02885D01*
X0288Y01111*
X02875Y01107*
X02873Y01101*
Y01094*
X02875Y01089*
X0288Y01084*
X02885Y01082*
X02892*
X02898Y01084*
X02902Y01089*
X02904Y01094*
Y01101*
X02902Y01107*
X02898Y01111*
X02892Y01113*
G37*
G36*
X03387Y01104D02*
X0338D01*
X03375Y01102*
X0337Y01098*
X03368Y01092*
Y01085*
X0337Y0108*
X03375Y01075*
X0338Y01073*
X03387*
X03393Y01075*
X03397Y0108*
X03399Y01085*
Y01092*
X03397Y01098*
X03393Y01102*
X03387Y01104*
G37*
G36*
X03216D02*
X03209D01*
X03204Y01102*
X03199Y01098*
X03197Y01092*
Y01085*
X03199Y0108*
X03204Y01075*
X03209Y01073*
X03216*
X03222Y01075*
X03226Y0108*
X03228Y01085*
Y01092*
X03226Y01098*
X03222Y01102*
X03216Y01104*
G37*
G36*
X00368Y0087D02*
X00361D01*
X00356Y00868*
X00351Y00864*
X00349Y00858*
Y00851*
X00351Y00846*
X00356Y00841*
X00361Y00839*
X00368*
X00374Y00841*
X00378Y00846*
X0038Y00851*
Y00858*
X00378Y00864*
X00374Y00868*
X00368Y0087*
G37*
G36*
X01203Y00825D02*
X01196D01*
X01191Y00823*
X01186Y00819*
X01184Y00813*
Y00806*
X01186Y00801*
X01191Y00796*
X01196Y00794*
X01203*
X01209Y00796*
X01213Y00801*
X01215Y00806*
Y00813*
X01213Y00819*
X01209Y00823*
X01203Y00825*
G37*
G36*
X01728Y00685D02*
X01721D01*
X01716Y00683*
X01711Y00679*
X01709Y00673*
Y00666*
X01711Y00661*
X01716Y00656*
X01721Y00654*
X01728*
X01734Y00656*
X01738Y00661*
X0174Y00666*
Y00673*
X01738Y00679*
X01734Y00683*
X01728Y00685*
G37*
G36*
X00848Y005D02*
X00841D01*
X00836Y00498*
X00831Y00494*
X00829Y00488*
Y00481*
X00831Y00476*
X00836Y00471*
X00841Y00469*
X00848*
X00854Y00471*
X00858Y00476*
X0086Y00481*
Y00488*
X00858Y00494*
X00854Y00498*
X00848Y005*
G37*
G36*
X00678D02*
X00671D01*
X00666Y00498*
X00661Y00494*
X00659Y00488*
Y00481*
X00661Y00476*
X00666Y00471*
X00671Y00469*
X00678*
X00684Y00471*
X00688Y00476*
X0069Y00481*
Y00488*
X00688Y00494*
X00684Y00498*
X00678Y005*
G37*
G36*
X02046Y00293D02*
Y00268D01*
X02071*
X0207Y00272*
X02065Y0028*
X02058Y00287*
X0205Y00292*
X02046Y00293*
G37*
G36*
X02026D02*
X02023Y00292D01*
X02015Y00287*
X02008Y0028*
X02003Y00272*
X02002Y00268*
X02026*
Y00293*
G37*
G36*
X01962Y0029D02*
X01954D01*
X01945Y00288*
X01938Y00284*
X01932Y00278*
X01928Y00271*
X01926Y00263*
Y00254*
X01928Y00246*
X01932Y00239*
X01938Y00233*
X01945Y00229*
X01954Y00227*
X01962*
X0197Y00229*
X01977Y00233*
X01983Y00239*
X01987Y00246*
X01989Y00254*
Y00263*
X01987Y00271*
X01983Y00278*
X01977Y00284*
X0197Y00288*
X01962Y0029*
G37*
G36*
X01883D02*
X01875D01*
X01867Y00288*
X0186Y00284*
X01854Y00278*
X01849Y00271*
X01847Y00263*
Y00254*
X01849Y00246*
X01854Y00239*
X0186Y00233*
X01867Y00229*
X01875Y00227*
X01883*
X01891Y00229*
X01898Y00233*
X01904Y00239*
X01908Y00246*
X01911Y00254*
Y00263*
X01908Y00271*
X01904Y00278*
X01898Y00284*
X01891Y00288*
X01883Y0029*
G37*
G36*
X01804D02*
X01796D01*
X01788Y00288*
X01781Y00284*
X01775Y00278*
X01771Y00271*
X01769Y00263*
Y00254*
X01771Y00246*
X01775Y00239*
X01781Y00233*
X01788Y00229*
X01796Y00227*
X01804*
X01812Y00229*
X0182Y00233*
X01825Y00239*
X0183Y00246*
X01832Y00254*
Y00263*
X0183Y00271*
X01825Y00278*
X0182Y00284*
X01812Y00288*
X01804Y0029*
G37*
G36*
X01726D02*
X01717D01*
X01709Y00288*
X01702Y00284*
X01696Y00278*
X01692Y00271*
X0169Y00263*
Y00254*
X01692Y00246*
X01696Y00239*
X01702Y00233*
X01709Y00229*
X01717Y00227*
X01726*
X01734Y00229*
X01741Y00233*
X01747Y00239*
X01751Y00246*
X01753Y00254*
Y00263*
X01751Y00271*
X01747Y00278*
X01741Y00284*
X01734Y00288*
X01726Y0029*
G37*
G36*
X01674D02*
X01611D01*
Y00227*
X01674*
Y0029*
G37*
G36*
X02071Y00248D02*
X02046D01*
Y00224*
X0205Y00225*
X02058Y0023*
X02065Y00237*
X0207Y00245*
X02071Y00248*
G37*
G36*
X02026D02*
X02002D01*
X02003Y00245*
X02008Y00237*
X02015Y0023*
X02023Y00225*
X02026Y00224*
Y00248*
G37*
G36*
X00259Y00324D02*
X0024D01*
X0022Y00321*
X00202Y00315*
X00185Y00306*
X00169Y00294*
X00155Y0028*
X00143Y00265*
X00135Y00247*
X00128Y00229*
X00125Y00209*
Y0019*
X00128Y0017*
X00135Y00152*
X00143Y00135*
X00155Y00119*
X00169Y00105*
X00185Y00093*
X00202Y00085*
X0022Y00078*
X0024Y00075*
X00259*
X00279Y00078*
X00297Y00085*
X00315Y00093*
X0033Y00105*
X00344Y00119*
X00356Y00135*
X00365Y00152*
X00371Y0017*
X00374Y0019*
Y00209*
X00371Y00229*
X00365Y00247*
X00356Y00265*
X00344Y0028*
X0033Y00294*
X00315Y00306*
X00297Y00315*
X00279Y00321*
X00259Y00324*
G37*
%LNpch_mainboard-3*%
%LPD*%
G54D16*
X03338Y04759D03*
Y04795D03*
Y0483D03*
Y04866D03*
X03297Y04866D03*
X03305Y04891D03*
X03263Y04889D03*
X03262Y04858D03*
X03316Y04991D03*
Y05027D03*
Y05062D03*
Y05098D03*
Y05134D03*
X03283Y05139D03*
Y05103D03*
Y05067D03*
Y05031D03*
Y04996D03*
Y05174D03*
Y0521D03*
Y05246D03*
Y05282D03*
X03316Y05277D03*
Y05241D03*
Y05205D03*
Y0517D03*
G54D17*
X0034Y0062D02*
Y011D01*
X0099*
X01005Y01085*
X015*
Y0146*
X0149Y0147*
Y0151*
X0146Y0154*
X0126*
X0122Y0158*
Y0169*
Y01945*
X011Y02065*
X0134*
X0154*
X01667*
X01795*
X02166*
X02175Y02073*
Y0211*
X01818Y0171D02*
Y01332D01*
X0189Y0126*
X02135*
X02396Y00999*
X02934*
X02988Y01053*
Y01215*
X03021Y01248*
X03163*
X03228Y01226D02*
X03358D01*
X03361Y01228*
X03364*
X03375Y0124*
X03425*
X0343Y014D02*
X03411Y01419D01*
Y01458*
X03465Y01512*
Y01557*
Y01625*
Y018*
X03155Y0211*
X02961*
X02726Y02345*
X02725*
Y0252*
X02349Y02896*
Y03222*
X02347Y03224*
Y03377*
X02345Y03379*
X02069Y02896D02*
X02349D01*
X02069D02*
X0192Y03045D01*
X0188Y03085*
Y03245*
Y03485*
X0183Y03535*
X019Y03605*
Y0368*
Y03945*
X0187Y03975*
X02035*
X02075Y03935*
Y04135*
X02025*
X01965Y04195*
Y0447*
X02035Y0454*
X0212*
X02215*
X0223Y04555*
X02235Y0455*
Y0445*
X0223Y04555D02*
Y04605D01*
Y04875*
X025*
X0261Y04765*
X02665Y0482*
X0288*
X0266Y046*
Y0451*
Y0428*
X02685*
X02805Y0416*
X03005Y0418D02*
X03045Y0422D01*
Y04515*
X03244*
X03253Y04524*
X03259*
X034Y04571D02*
X03402Y04573D01*
X03628*
X0363Y04575*
X0344Y04705D02*
Y04865D01*
Y04705D02*
X034Y04665D01*
X03353D02*
Y04667D01*
X03338Y04682*
Y04759*
X03267Y04831D02*
X03262Y04837D01*
Y04858*
X03267Y04831D02*
Y0468D01*
X03259Y04671*
Y04665*
X03094*
X0304Y0472*
Y0496*
X02518Y05243D02*
Y05266D01*
Y05243D02*
X0251Y05235D01*
X0237*
X02361Y05243*
Y05266*
X0212Y0454D02*
Y04536D01*
X01515Y04115D02*
Y0368D01*
X019*
X01515D02*
X01105D01*
X00585*
X01015Y0393D02*
Y04065D01*
Y0461*
X00995Y0463*
X0087*
X00635Y02995D02*
X00795D01*
X009Y031*
X0062Y02265D02*
X00845D01*
X00895Y02215*
Y02065*
X011*
X00895D02*
X00869D01*
X00819Y02115*
Y02043D02*
X0089Y01972D01*
Y018*
Y0174*
X00869Y01719*
X00819*
Y01656D02*
X00849D01*
X0086Y01645*
Y01595*
X00709Y01445*
X00665*
X0087Y0182D02*
X0089Y018D01*
X0087Y0182D02*
X00585D01*
X01665Y0185D02*
Y02062D01*
X01667Y02065*
X02135Y0126D02*
X02036Y01161D01*
Y00258*
X03276Y0093D02*
X03435D01*
X03231Y00975D02*
Y01096D01*
X03206Y01122*
Y01248*
X03228Y01226*
X03231Y00975D02*
X03276Y0093D01*
X03465Y01625D02*
X0315D01*
X03135Y0164*
X0034Y0062D02*
X00365Y00595D01*
G54D30*
X0213Y03535D03*
X0223D03*
X0203D03*
X0193D03*
X0183D03*
X00805Y05417D03*
G54D135*
X0087Y0463D02*
Y047D01*
X01029Y04859*
X01181*
G54D136*
X0133Y0311D02*
X01198D01*
X01185Y03123*
X00965*
X00953Y0311*
X00911*
X009Y031D02*
X01015Y03215D01*
X01105*
Y0368*
X00635Y02995D02*
X0048D01*
X00465Y0301*
Y03105*
Y0339*
X01365Y0458D02*
X01295Y0465D01*
X0125*
Y04791*
X01225Y04816*
X03005Y0418D02*
Y0413D01*
X03035Y041*
X03325*
X0346*
X0377Y0066D02*
Y0052D01*
X03575Y00325*
X03305*
X03265Y00365*
G54D139*
X02999Y0069D03*
X03099D03*
X03199D03*
X03299D03*
X03249Y0079D03*
X03349D03*
X03149D03*
X03049D03*
G54D140*
X02913Y00247D03*
X03013D03*
X03335D03*
X03435D03*
G54D141*
X02869Y0056D03*
X03479D03*
G54D142*
X02949Y0044D03*
X03399D03*
G54D143*
X01721Y00258D03*
X018D03*
X01879D03*
X01958D03*
X02036D03*
G54D144*
X01643Y00258D03*
G54D145*
X0049Y02056D03*
Y02103D03*
G54D146*
X0025Y002D03*
X0374Y0021D03*
X03745Y0543D03*
X0025D03*
G54D147*
X00805Y0524D03*
G54D148*
X02608Y05312D03*
Y05498D03*
X02271D03*
Y05312D03*
G54D149*
X02424Y05266D03*
X02455D03*
X02487D03*
X02518D03*
X0255D03*
X02534Y05294D03*
X02503D03*
X02471D03*
X02408D03*
X02377D03*
X02345D03*
X02329Y05266D03*
X02361D03*
X02392D03*
G54D150*
X0233Y03535D03*
G54D151*
X0005Y002D03*
X0015Y004D03*
X0035D03*
X0045Y002D03*
X0065D03*
X0085D03*
X0095Y004D03*
X0105Y002D03*
X0125D03*
X0145D03*
X0155Y004D03*
X0165Y002D03*
X0185D03*
X0205D03*
X0225D03*
X0235Y004D03*
X0245Y002D03*
X0265D03*
X0255Y004D03*
X0265Y006D03*
X0245D03*
X0255Y008D03*
X0265Y01D03*
X0285D03*
X02934Y00999D03*
X03095Y0118D03*
X03213Y01089D03*
X0325Y01D03*
X03435Y0093D03*
X0365Y01D03*
X0375Y008D03*
X0377Y0066D03*
X0385Y006D03*
X0395Y004D03*
X0375D03*
X0395Y008D03*
X0385Y01D03*
X0395Y012D03*
X0385Y014D03*
X0375Y012D03*
X03465Y01557D03*
X0343Y014D03*
X03425Y0124D03*
X03384Y01143D03*
Y01089D03*
X0345Y01D03*
X03339Y01245D03*
X03303Y0126D03*
X03206Y01248D03*
Y01291D03*
X03225Y0141D03*
X03321Y01602D03*
X03195Y01645D03*
X03135Y0164D03*
X03195Y01465D03*
X0316Y01415D03*
X03195Y01385D03*
X03163Y01291D03*
Y01248D03*
X03035Y0128D03*
X03015Y0132D03*
X02988Y01215D03*
X03015Y011D03*
X02889Y01098D03*
X02736Y01287D03*
Y01341D03*
Y01395D03*
Y01235D03*
X02755Y01185D03*
X027Y0126D03*
Y01314D03*
Y01368D03*
Y01422D03*
X0261Y0169D03*
X02575Y01725D03*
X026Y01785D03*
X02635Y0175D03*
X0275Y02D03*
X02955Y01985D03*
X0315Y02D03*
X03155Y0211D03*
X03185Y02255D03*
X0315Y02325D03*
X0309Y02275D03*
X0289Y02155D03*
X0286Y02185D03*
X0283Y02225D03*
X0284Y0211D03*
X0265Y022D03*
X02725Y02345D03*
X0269Y02385D03*
X02531Y02418D03*
X02509Y02395D03*
X0235Y024D03*
X0214Y02585D03*
X0209Y02555D03*
Y0262D03*
X0205Y026D03*
X02Y0258D03*
X01955D03*
X0198Y02545D03*
X02024Y02545D03*
X01955Y02405D03*
X0198Y0238D03*
Y0232D03*
X02065Y0229D03*
X0196Y0209D03*
X02045Y0197D03*
X01955Y0183D03*
X0209Y01773D03*
Y01725D03*
Y0167D03*
X0195Y0166D03*
X01954Y015D03*
X01995Y015D03*
X02045Y0151D03*
X02135Y0126D03*
X0235Y012D03*
X02358Y0126D03*
X0237Y0151D03*
X0227Y0167D03*
X02195Y0176D03*
X02137Y0175D03*
X0214Y017D03*
X0216Y01474D03*
X0198Y01205D03*
X018Y01255D03*
X01865Y01225D03*
Y0118D03*
X01945Y0123D03*
X01645Y01255D03*
X0171Y0124D03*
X0176Y0123D03*
X01565Y01385D03*
X01521Y01377D03*
X01665Y01449D03*
X01701Y01476D03*
Y0153D03*
X01746Y01557D03*
X01764Y01476D03*
X01737Y01449D03*
X01818Y0171D03*
Y01764D03*
Y01854D03*
Y01908D03*
X01795Y02065D03*
Y02255D03*
X01945Y02195D03*
X0193Y02355D03*
Y02545D03*
X01805D03*
Y0259D03*
X0171Y02585D03*
X01735Y02535D03*
X01685D03*
X0171Y0243D03*
X01695Y024D03*
X0173Y0239D03*
X01775Y0242D03*
X0166Y0243D03*
X01755Y02255D03*
X01735Y0209D03*
X01715Y01965D03*
Y0181D03*
X0165Y018D03*
X01665Y0185D03*
X01701Y01638D03*
Y01584D03*
X01746Y01611D03*
Y01665D03*
X01629Y01476D03*
X01415Y0156D03*
X0146Y0154D03*
X01458Y01377D03*
X01323D03*
X0126Y0154D03*
X0125Y014D03*
X0126Y01377D03*
X01224D03*
X0117Y0123D03*
X0125Y01D03*
X01295Y01025D03*
X012Y0081D03*
X0105Y01D03*
X01065Y01105D03*
X0115Y012D03*
X01143Y01377D03*
X0105Y014D03*
X01143Y01449D03*
X0116Y01495D03*
X0132Y0156D03*
X0122Y0169D03*
X0125Y018D03*
X0135Y02D03*
X0155D03*
X0154Y02065D03*
X0148Y0209D03*
X01485Y02241D03*
X01539D03*
X01545Y02275D03*
X01395Y02205D03*
X01341Y0225D03*
X01422Y02169D03*
X0134Y02065D03*
X0125Y022D03*
X01287Y02241D03*
X0128Y0209D03*
X01161Y02205D03*
X01044Y02241D03*
X0104Y0209D03*
X011Y02065D03*
X01005Y018D03*
X00975Y0182D03*
Y0171D03*
X00985Y01655D03*
X01055Y0169D03*
X00819Y01719D03*
Y01656D03*
X0075Y016D03*
X0062Y01785D03*
X00585Y0182D03*
X0062Y0191D03*
X00819Y02043D03*
Y02115D03*
X0062Y02205D03*
Y02265D03*
X0075Y024D03*
X0095D03*
X0105Y026D03*
X0126Y0237D03*
X0138Y026D03*
X0136Y0263D03*
X0125Y026D03*
X01255Y02925D03*
X01285Y029D03*
X0131Y02875D03*
X0139Y02985D03*
X0133Y0311D03*
X0157Y02985D03*
X0173Y0316D03*
X017Y0321D03*
X0192Y03045D03*
X0188Y03245D03*
X0153Y03545D03*
X0175Y036D03*
X0178Y0362D03*
X019Y0368D03*
X0185Y038D03*
X02075Y03935D03*
X0223Y03894D03*
X02385Y0383D03*
X0238Y03955D03*
X02515Y041D03*
X0265Y042D03*
X0275Y04D03*
X0285Y038D03*
X0295Y036D03*
X0315D03*
X0335D03*
X0345Y038D03*
X0355Y036D03*
X0375D03*
X0395D03*
X0385Y038D03*
X0395Y04D03*
X0375D03*
X03395Y04235D03*
X0345Y042D03*
X0346Y041D03*
X03405Y04D03*
X03325Y041D03*
X03265Y04045D03*
X0325Y038D03*
X03065Y04125D03*
Y0418D03*
X03005D03*
X0295Y04D03*
X02805Y0416D03*
X02825Y0422D03*
X0287Y0434D03*
X02825Y0445D03*
X0265Y046D03*
X02655Y0465D03*
X0266Y0451D03*
X0264Y0447D03*
Y04305D03*
X0266Y0428D03*
X0249Y0439D03*
X02446D03*
Y04346D03*
X0249D03*
Y04303D03*
Y0426D03*
X02446D03*
Y04303D03*
X02403Y0439D03*
X0236D03*
Y04346D03*
Y04303D03*
Y0426D03*
X02403D03*
Y04303D03*
Y04346D03*
X02345Y04115D03*
X02285D03*
X02315Y0406D03*
X02195Y04255D03*
Y0429D03*
X0221Y0418D03*
X02235Y04115D03*
X02195Y04075D03*
X02005Y0427D03*
X01965Y04335D03*
X02075Y04135D03*
X0185Y042D03*
X0187Y03975D03*
X0165Y038D03*
X01626Y03683D03*
X01366D03*
X0135Y036D03*
X01275Y0351D03*
Y0348D03*
Y0345D03*
Y0342D03*
X0101Y03445D03*
Y03475D03*
Y0351D03*
X0115Y036D03*
X01106Y03683D03*
X01015Y0393D03*
X0125Y042D03*
X0137Y04245D03*
X01455Y04255D03*
X01475Y04345D03*
X01495Y04185D03*
Y0415D03*
X01515Y04115D03*
X0165Y0422D03*
X0172Y04275D03*
X01725Y04415D03*
X0177D03*
X01745Y04445D03*
X0165Y0441D03*
X0175Y0456D03*
Y048D03*
X0155D03*
X0158Y0456D03*
X0162Y0457D03*
X01535Y0441D03*
X015Y04215D03*
X01365Y0458D03*
X0133D03*
Y04615D03*
X01365D03*
Y0465D03*
X0135Y048D03*
X01268Y04859D03*
X01225D03*
X01181D03*
Y04816D03*
X01225D03*
X01268D03*
X0125Y0465D03*
Y046D03*
X0118Y04485D03*
Y04455D03*
Y0423D03*
X0121D03*
X0115Y04455D03*
X0112D03*
X0109D03*
Y04485D03*
X0112D03*
X0115D03*
X0106D03*
Y0423D03*
X0109D03*
X0112D03*
X0115D03*
X0105Y042D03*
X01015Y04205D03*
Y0417D03*
Y04135D03*
Y041D03*
Y04065D03*
X00757Y03683D03*
X0075Y036D03*
X0055D03*
X00665Y03435D03*
Y03405D03*
X00565Y03385D03*
Y0316D03*
X00635Y0305D03*
Y02995D03*
X0085Y03D03*
X009Y031D03*
X01025Y02925D03*
X0105Y029D03*
X01025Y02875D03*
X0105Y0285D03*
Y03D03*
X01065Y031D03*
X01105Y03215D03*
X0115Y032D03*
X01065Y03275D03*
X00735Y03295D03*
Y03195D03*
X00465Y0339D03*
X0025Y034D03*
X0023Y0314D03*
X0024Y02995D03*
X00375Y0299D03*
X0045Y03D03*
X00465Y03105D03*
X0035Y028D03*
X0025Y026D03*
X0035Y024D03*
X0025Y022D03*
X00415Y0213D03*
Y02025D03*
X0035Y02D03*
X0036Y01735D03*
X0025Y018D03*
X0018Y01873D03*
X0015Y02D03*
X00185Y0174D03*
Y0161D03*
X00355Y0154D03*
X00365Y0137D03*
X0034Y011D03*
X0025Y01D03*
X00365Y00855D03*
X0015Y008D03*
X0005Y01D03*
X0015Y012D03*
X0005Y014D03*
X00065Y0156D03*
X00068Y01693D03*
X0005Y018D03*
X00068Y01823D03*
X0045Y014D03*
X0055Y012D03*
X0065Y01D03*
X0055Y008D03*
X0085Y01D03*
X01005Y01085D03*
X0076Y01325D03*
X00665Y01445D03*
X00615Y0155D03*
X0065Y014D03*
X0005Y006D03*
X00365Y00595D03*
X0045Y006D03*
X0055Y004D03*
X00845Y00485D03*
X0085Y006D03*
X0065D03*
X00675Y00485D03*
X0115Y004D03*
X0125Y006D03*
X0135Y004D03*
X0145Y006D03*
X0175Y004D03*
X0185Y006D03*
X0205D03*
X0215Y004D03*
X0225Y006D03*
X02175Y0086D03*
X0179D03*
X01725Y0067D03*
X0165Y006D03*
X015Y01085D03*
X0105Y006D03*
X02475Y0201D03*
X02335Y02105D03*
X02275Y0201D03*
X02255Y02035D03*
X02215D03*
X02175Y0211D03*
X02235Y0201D03*
X02165Y0192D03*
X0225Y022D03*
X0295Y016D03*
X03435Y0218D03*
X0357Y02208D03*
X0354Y02244D03*
X03816Y02115D03*
X03786Y02082D03*
X03756Y02046D03*
X0372Y02022D03*
X03771Y01764D03*
X03807Y01737D03*
Y01683D03*
X03771Y0171D03*
X0375Y016D03*
X0395D03*
X0355D03*
X03843Y02142D03*
X0385Y022D03*
X0375Y024D03*
X0369D03*
X03828Y02616D03*
X03905Y02585D03*
X0395Y028D03*
X0375D03*
X03744Y02652D03*
Y02556D03*
X0366Y02688D03*
X0355Y028D03*
X03505Y02525D03*
X03465D03*
X0345Y02365D03*
X03505Y02335D03*
X03503Y02269D03*
X0347Y02298D03*
X036Y0249D03*
X0363Y0246D03*
X0366Y0243D03*
X0335Y028D03*
X0315D03*
X0295D03*
X0325Y03D03*
X0345D03*
X0355Y032D03*
X0375D03*
X0385Y03D03*
X0395Y032D03*
X0385Y034D03*
X0345D03*
X0325D03*
X0335Y032D03*
X0305Y034D03*
X0315Y032D03*
X0305Y03D03*
X0295Y032D03*
X0285Y034D03*
X02605Y02975D03*
X0258Y02995D03*
X0285Y03D03*
X02535Y03315D03*
X02345Y03379D03*
X02349Y03222D03*
X0265Y038D03*
X03335Y04395D03*
X03455Y044D03*
X0355D03*
X03565Y0445D03*
X0363Y04449D03*
X03735Y04615D03*
X0395Y044D03*
Y048D03*
X0375D03*
X0355D03*
X0359Y0463D03*
X0363Y04575D03*
X0344Y04865D03*
X0365Y05D03*
X0375Y052D03*
X0385Y05D03*
X0395Y052D03*
X0355D03*
X0338Y0502D03*
X0335Y052D03*
X0325Y05D03*
X03303Y04842D03*
X03249Y04824D03*
X0322Y04795D03*
X03159Y04824D03*
X0318Y0471D03*
X0305Y0461D03*
X03045Y04515D03*
X03185Y04478D03*
X0289Y04755D03*
X0304Y0496D03*
X0305Y05D03*
X0315Y052D03*
X0295D03*
X0285Y054D03*
X0275Y052D03*
X0285Y05D03*
X0265D03*
X0245Y05178D03*
X0249Y05145D03*
X0243Y04935D03*
Y0485D03*
X0255Y048D03*
X02515Y0472D03*
X02495Y0465D03*
X0261Y04765D03*
X0275Y048D03*
X0288Y0482D03*
X024Y0506D03*
X02374Y05061D03*
X02375Y05148D03*
X02402Y05147D03*
X0215Y052D03*
X0225Y05D03*
X0223Y04875D03*
X0228Y0471D03*
X02345Y04725D03*
X02415Y0472D03*
X0239Y0463D03*
X02345Y04655D03*
X02335Y046D03*
X02295Y04605D03*
X0226Y04555D03*
X0223Y04605D03*
X0212Y04536D03*
X02105Y04445D03*
X02195Y0445D03*
Y04415D03*
Y04385D03*
X02235Y0445D03*
X0205Y04495D03*
X0195Y044D03*
Y048D03*
X0205Y05D03*
X0195Y052D03*
X0225Y054D03*
X0208Y05595D03*
X02D03*
X0185Y054D03*
X0166Y0544D03*
X0175Y052D03*
X0185Y05D03*
X0158Y0544D03*
X015D03*
X0155Y052D03*
X0145Y054D03*
X01365Y0524D03*
X01335D03*
Y0521D03*
X01365D03*
X0137Y05045D03*
X0134D03*
X0145Y05D03*
X01305Y0521D03*
Y0524D03*
X0131Y05045D03*
X013Y05D03*
X012D03*
X011Y05035D03*
X0095Y052D03*
X0085Y054D03*
X0075Y052D03*
X0065Y0531D03*
Y0534D03*
Y0537D03*
Y054D03*
Y0528D03*
Y0525D03*
Y0522D03*
X00485Y0533D03*
Y0536D03*
Y0539D03*
Y0542D03*
Y0545D03*
X0045Y054D03*
X00485Y053D03*
Y0527D03*
Y0524D03*
Y0521D03*
Y0518D03*
Y0515D03*
Y0512D03*
X0035Y052D03*
X00295Y05135D03*
X0035Y048D03*
X00295Y0473D03*
X0051Y046D03*
X0065D03*
X0085D03*
X0087Y0463D03*
X00935D03*
X00965D03*
X00995D03*
Y0466D03*
Y046D03*
X0095Y048D03*
X0072Y04855D03*
X0075Y048D03*
X0055D03*
X0051Y04825D03*
X0035Y044D03*
X00295Y0432D03*
X0045Y042D03*
X0065Y04015D03*
X0068D03*
X0045Y038D03*
X00495Y0368D03*
X0035Y036D03*
X0015D03*
X0005Y038D03*
X0015Y04D03*
X00295Y03915D03*
X0005Y042D03*
X0015Y044D03*
X0005Y046D03*
Y05D03*
Y054D03*
X00195Y0331D03*
X0015Y032D03*
X00025Y03063D03*
X00205Y0289D03*
X0015Y028D03*
X0005Y026D03*
X0015Y024D03*
X0005Y022D03*
X0045Y026D03*
X0055Y024D03*
X0085Y026D03*
X0095Y028D03*
X0075D03*
X0055D03*
X0065Y026D03*
X03265Y00365D03*
X0265Y054D03*
G54D152*
X00187Y00137D03*
X0025Y00111D03*
X00312Y00137D03*
X00338Y002D03*
X00312Y00262D03*
X0025Y00288D03*
X00187Y00262D03*
X00161Y002D03*
X03651Y0021D03*
X03677Y00147D03*
X0374Y00121D03*
X03802Y00147D03*
X03828Y0021D03*
X03802Y00272D03*
X0374Y00298D03*
X03677Y00272D03*
X03833Y0543D03*
X03807Y05492D03*
X03745Y05518D03*
X03682Y05492D03*
Y05367D03*
X03745Y05341D03*
X03807Y05367D03*
X03656Y0543D03*
X00312Y05492D03*
X0025Y05518D03*
X00338Y0543D03*
X00312Y05367D03*
X0025Y05341D03*
X00187Y05492D03*
X00161Y0543D03*
X00187Y05367D03*
G54D153*
X03353Y04524D03*
X034D03*
Y04571D03*
Y04618D03*
Y04665D03*
X03353D03*
Y04618D03*
Y04571D03*
X03306D03*
Y04618D03*
Y04665D03*
X03259D03*
Y04618D03*
Y04571D03*
Y04524D03*
X03306D03*
M02*