%FSTAX23Y23*%
%MOIN*%
%SFA1B1*%

%IPPOS*%
%ADD73R,0.039500X0.039500*%
%ADD74R,0.029700X0.043400*%
%ADD80C,0.071000*%
%ADD87R,0.043400X0.029700*%
%ADD88R,0.039500X0.039500*%
%ADD121R,0.063000X0.063000*%
%ADD122C,0.063000*%
%ADD123C,0.068200*%
%ADD124C,0.104300*%
%ADD125C,0.136000*%
%ADD126C,0.059200*%
%ADD127R,0.059200X0.059200*%
%ADD128C,0.035600*%
%ADD129C,0.078900*%
%ADD130O,0.047400X0.071000*%
%ADD131C,0.033600*%
%ADD132R,0.071000X0.071000*%
%ADD155C,0.118100*%
%LNpch_mainboard-1*%
%LPD*%
G54D73*
X01259Y01439D03*
X01318D03*
X01319Y01499D03*
X0126D03*
X01459D03*
X0146Y01439D03*
X01519D03*
X01518Y01499D03*
X01739Y0118D03*
Y0112D03*
X01798D03*
Y0118D03*
X01794Y02135D03*
Y02195D03*
X01735D03*
Y02135D03*
X01539Y02196D03*
X01479D03*
Y02133D03*
X01539D03*
X01341Y02196D03*
Y02133D03*
X01281Y02196D03*
Y02133D03*
X01098Y02196D03*
X01038D03*
Y02133D03*
X01098D03*
G54D74*
X00118Y0161D03*
Y0174D03*
Y0187D03*
X00061D03*
Y0174D03*
Y0161D03*
X01053Y01741D03*
X0111D03*
X01161D03*
X01162Y01812D03*
X01109D03*
X01052D03*
X01219D03*
X01219Y01741D03*
X03236Y0211D03*
X03293D03*
Y0218D03*
X03236D03*
G54D80*
X0213Y03535D03*
X0223D03*
X0203D03*
X0193D03*
X0183D03*
X00805Y05417D03*
G54D87*
X03145Y00306D03*
X03215D03*
Y00363D03*
X03145D03*
X0166Y05342D03*
Y054D03*
X0158D03*
Y05342D03*
X015D03*
Y054D03*
G54D88*
X01676Y01123D03*
Y01182D03*
X01714Y01708D03*
X01774D03*
Y01767D03*
X01714D03*
Y01853D03*
X01774D03*
Y01912D03*
X01714D03*
X03232Y02322D03*
X03292D03*
Y02381D03*
X03232D03*
G54D121*
X02999Y0069D03*
G54D122*
X03099Y0069D03*
X03199D03*
X03299D03*
X03249Y0079D03*
X03349D03*
X03149D03*
X03049D03*
G54D123*
X02913Y00247D03*
X03013D03*
X03335D03*
X03435D03*
G54D124*
X02869Y0056D03*
X03479D03*
G54D125*
X02949Y0044D03*
X03399D03*
G54D126*
X01721Y00258D03*
X018D03*
X01879D03*
X01958D03*
X02036D03*
G54D127*
X01643Y00258D03*
G54D128*
X0049Y02056D03*
Y02103D03*
G54D129*
X00805Y0524D03*
G54D130*
X02608Y05312D03*
Y05498D03*
X02271D03*
Y05312D03*
G54D131*
X02424Y05266D03*
X02455D03*
X02487D03*
X02518D03*
X0255D03*
X02534Y05294D03*
X02503D03*
X02471D03*
X02408D03*
X02377D03*
X02345D03*
X02329Y05266D03*
X02361D03*
X02392D03*
G54D132*
X0233Y03535D03*
G54D155*
X00309Y002D02*
D01*
D01*
G75*
G03X0019I-00059J0D01*
G74*G01*
D01*
G75*
G03X00309I00059J0D01*
G74*G01*
X03799Y0021D02*
D01*
D01*
G75*
G03X0368I-00059J0D01*
G74*G01*
D01*
G75*
G03X03799I00059J0D01*
G74*G01*
X03804Y0543D02*
D01*
D01*
G75*
G03X03685I-00059J0D01*
G74*G01*
D01*
G75*
G03X03804I00059J0D01*
G74*G01*
X00309D02*
D01*
D01*
G75*
G03X0019I-00059J0D01*
G74*G01*
D01*
G75*
G03X00309I00059J0D01*
G74*G01*
M02*