%FSTAX23Y23*%
%MOIN*%
%SFA1B1*%

%IPPOS*%
%ADD71C,0.236200*%
%ADD72R,0.047400X0.031600*%
%ADD73R,0.039500X0.039500*%
%ADD74R,0.029700X0.043400*%
%ADD75R,0.067100X0.141900*%
%ADD76R,0.063100X0.130000*%
%ADD77R,0.053300X0.063100*%
%ADD78R,0.130000X0.110400*%
%ADD79O,0.031600X0.065100*%
%ADD80C,0.071000*%
%ADD81O,0.067100X0.031600*%
%ADD82R,0.063100X0.086700*%
%ADD83R,0.130000X0.063100*%
%ADD84R,0.141900X0.067100*%
%ADD85R,0.148000X0.068000*%
%ADD86R,0.059200X0.078900*%
%ADD87R,0.043400X0.029700*%
%ADD88R,0.039500X0.039500*%
%ADD89R,0.043400X0.067000*%
%ADD90R,0.086700X0.086700*%
%ADD91R,0.132000X0.102500*%
%ADD92R,0.110400X0.098600*%
%ADD93O,0.041500X0.027700*%
%ADD94R,0.015900X0.047400*%
%ADD95R,0.019800X0.055200*%
%ADD96R,0.079500X0.061500*%
%ADD97R,0.047000X0.043000*%
%ADD98C,0.015900*%
%ADD99R,0.134000X0.118200*%
%ADD100R,0.118200X0.134000*%
%ADD101R,0.027700X0.043400*%
%ADD102R,0.136000X0.092600*%
%ADD103R,0.043400X0.092600*%
%ADD104R,0.177300X0.177300*%
%ADD105O,0.015900X0.041500*%
%ADD106O,0.041500X0.015900*%
%ADD107O,0.019800X0.063100*%
%ADD108O,0.063100X0.019800*%
%ADD109O,0.055200X0.029700*%
%ADD110O,0.015900X0.045400*%
%ADD111O,0.045400X0.021800*%
%ADD112O,0.043400X0.017800*%
%ADD113O,0.017800X0.043400*%
%ADD114R,0.106400X0.106400*%
%ADD115O,0.015900X0.035600*%
%ADD116O,0.035600X0.015900*%
%ADD117R,0.189100X0.189100*%
%ADD118R,0.016100X0.026000*%
%ADD119R,0.122200X0.220600*%
%ADD120O,0.074900X0.031600*%
%ADD121R,0.063000X0.063000*%
%ADD122C,0.063000*%
%ADD123C,0.068200*%
%ADD124C,0.104300*%
%ADD125C,0.136000*%
%ADD126C,0.059200*%
%ADD127R,0.059200X0.059200*%
%ADD128C,0.035600*%
%ADD129C,0.078900*%
%ADD130O,0.047400X0.071000*%
%ADD131C,0.033600*%
%ADD132R,0.071000X0.071000*%
%LNpch_mainboard-1*%
%LPD*%
G54D71*
X0025Y002D02*
D01*
X0374Y0021D02*
D01*
X03745Y0543D02*
D01*
X0025D02*
D01*
G54D72*
X02037Y03997D03*
Y04072D03*
X01935D03*
Y04035D03*
Y03997D03*
G54D73*
X01007Y01151D03*
Y01211D03*
X01066D03*
Y01151D03*
X00507Y01538D03*
X00448D03*
X00131Y0174D03*
Y0187D03*
Y0161D03*
X00068Y0174D03*
Y0187D03*
Y0161D03*
X0043Y0197D03*
X0049D03*
Y0219D03*
X0043D03*
X00581Y02997D03*
X00522D03*
X00875Y0349D03*
X00935D03*
X01143Y03683D03*
X01202D03*
X01272D03*
X01331D03*
X01401D03*
X0146D03*
X0153D03*
X01589D03*
X01663D03*
X01722D03*
X01791D03*
X0185D03*
X01782Y03893D03*
X01723D03*
X01521D03*
X01462D03*
X01262D03*
X01203D03*
X00847D03*
X00788D03*
X00721Y03683D03*
X0065Y03893D03*
X0059D03*
X00592Y03683D03*
X00662D03*
X00533D03*
X01197Y05047D03*
X01256D03*
X02117Y04646D03*
X02176D03*
X02176Y04586D03*
X02117D03*
X02235Y04645D03*
X02295D03*
X02547Y04652D03*
X02606D03*
X03005Y04285D03*
Y04225D03*
X03064D03*
Y04285D03*
X03133Y04288D03*
X03192D03*
X03267Y04158D03*
X03326D03*
X03402D03*
X03461D03*
X03456Y04292D03*
X03397D03*
X03675Y04575D03*
X03735D03*
X03825D03*
X03884D03*
X03439Y04904D03*
X0338D03*
Y04964D03*
X03439D03*
X02997Y04699D03*
X02938D03*
Y04639D03*
X02997D03*
Y04579D03*
X02938D03*
X02935Y04515D03*
X02994D03*
X02629Y04055D03*
X0257D03*
X02503Y03997D03*
X02444D03*
X02339Y04015D03*
X0228D03*
Y03955D03*
X02339D03*
Y03894D03*
X0228D03*
X02281Y03831D03*
X0234D03*
X02345Y04765D03*
X02404D03*
X02177Y04766D03*
X02118D03*
Y04706D03*
X02177D03*
Y04826D03*
X02118D03*
X02083Y02112D03*
X02024D03*
X03135Y01503D03*
X03195D03*
Y01566D03*
X03135D03*
X03492Y01197D03*
X03491Y01104D03*
X0355D03*
X03551Y01197D03*
G54D74*
X00677Y0042D03*
X00735D03*
X0079D03*
X00847D03*
X02991Y0104D03*
X03048D03*
X03101Y0104D03*
X03158D03*
X03211Y0104D03*
X03268D03*
X03321Y0104D03*
X03378D03*
X03431D03*
X03488D03*
X01569Y03033D03*
X01512D03*
X01449D03*
X01391D03*
X01012Y0334D03*
X01085Y0316D03*
X01142D03*
X00955Y0334D03*
X01835Y0461D03*
Y04675D03*
X01777D03*
X0173D03*
X01672D03*
Y0461D03*
X0173D03*
X01777D03*
X01618D03*
X01561D03*
Y04675D03*
X01618D03*
X02231Y0476D03*
Y04825D03*
X02288D03*
Y0476D03*
X02552Y0472D03*
X0261D03*
G54D75*
X00723Y00302D03*
X00802D03*
G54D76*
X00632Y00079D03*
X00892D03*
G54D77*
X00443Y01611D03*
X00506D03*
Y01698D03*
X00443D03*
X02445Y03841D03*
X02508D03*
Y03928D03*
X02445D03*
X02933Y04356D03*
X02996D03*
Y04443D03*
X02933D03*
X03488Y01353D03*
Y01266D03*
X03551D03*
Y01353D03*
G54D78*
X01225Y04837D03*
G54D79*
X012Y0473D03*
X0125D03*
X013D03*
Y04945D03*
X0125D03*
X012D03*
X0115D03*
Y0473D03*
G54D80*
X0213Y03535D03*
X0223D03*
X0203D03*
X0193D03*
X0183D03*
X0174Y04135D03*
Y0436D03*
X01455Y04645D03*
X01525Y0495D03*
X00805Y05417D03*
X0381Y00785D03*
G54D81*
X01586Y0311D03*
Y0316D03*
Y0321D03*
Y0326D03*
X01373D03*
Y0321D03*
Y0316D03*
Y0311D03*
X00876Y0332D03*
Y0327D03*
Y0322D03*
Y0317D03*
X00663Y0332D03*
Y0327D03*
Y0322D03*
Y0317D03*
G54D82*
X00112Y00592D03*
X0027D03*
Y00867D03*
X00112D03*
X0027Y01102D03*
Y01377D03*
X00112D03*
Y01102D03*
G54D83*
X00078Y02755D03*
Y03014D03*
Y0311D03*
Y03369D03*
X00074Y03682D03*
Y03942D03*
Y04092D03*
Y04352D03*
Y04502D03*
Y04762D03*
Y04912D03*
Y05172D03*
G54D84*
X00301Y02845D03*
Y02924D03*
Y032D03*
Y03279D03*
X00296Y03772D03*
Y03851D03*
Y04182D03*
Y04261D03*
Y04592D03*
Y04671D03*
Y05002D03*
Y05081D03*
G54D85*
X01195Y05253D03*
Y05418D03*
G54D86*
X03539Y0079D03*
X0365D03*
G54D87*
X00365Y0076D03*
X00435D03*
Y00817D03*
X00365D03*
X00435Y0127D03*
Y01327D03*
X00365D03*
Y0127D03*
X01852Y03088D03*
X01917D03*
Y03145D03*
X01852D03*
X02395Y03197D03*
Y03254D03*
X02465Y03253D03*
Y03196D03*
X01555Y04116D03*
Y04173D03*
X0125Y04377D03*
Y04435D03*
Y04497D03*
Y04555D03*
X02Y05336D03*
Y05393D03*
X0208D03*
Y05336D03*
X00525Y03328D03*
Y03271D03*
Y03218D03*
Y03161D03*
Y03108D03*
Y03051D03*
X0059D03*
Y03108D03*
X01025Y03102D03*
Y0316D03*
G54D88*
X00365Y0064D03*
Y007D03*
Y01149D03*
Y01208D03*
X00666Y01488D03*
Y01548D03*
X00729D03*
Y01488D03*
Y01785D03*
Y01845D03*
Y01911D03*
Y01971D03*
X00666D03*
Y01911D03*
Y01845D03*
Y01785D03*
X00377Y01687D03*
Y01628D03*
X00729Y02205D03*
Y02264D03*
X00666D03*
Y02205D03*
X0096Y031D03*
X01019Y03217D03*
Y03276D03*
X00959D03*
Y03217D03*
X0096Y0316D03*
X00527Y03442D03*
Y03383D03*
X00465Y03334D03*
Y03275D03*
Y03215D03*
Y03155D03*
X01617Y04118D03*
Y04177D03*
X01867Y04018D03*
X02055Y04212D03*
X02115Y03994D03*
Y03935D03*
Y04075D03*
Y04135D03*
Y04212D03*
Y04271D03*
Y04337D03*
Y04396D03*
X02055D03*
Y04337D03*
Y04271D03*
X01867Y04077D03*
X02569Y03901D03*
Y03842D03*
X02769Y04159D03*
Y04219D03*
Y04279D03*
Y04339D03*
X02771Y04451D03*
Y0451D03*
X02711D03*
Y04451D03*
X02709Y04339D03*
Y04279D03*
Y04219D03*
Y04159D03*
X03065Y04355D03*
X0333Y04294D03*
Y04235D03*
X03065Y04415D03*
X02996Y04757D03*
X02941D03*
Y04816D03*
X02996D03*
X03099Y049D03*
Y04959D03*
X03159D03*
Y049D03*
X03219D03*
Y04959D03*
X03572Y04668D03*
X03632D03*
Y04727D03*
X03572D03*
X03518Y04291D03*
Y04232D03*
X02458Y03376D03*
Y03317D03*
X02398D03*
Y03376D03*
X0173Y03319D03*
X0167D03*
Y0326D03*
X0173D03*
X02024Y02233D03*
X02084D03*
Y02174D03*
X02024D03*
X02037Y01437D03*
X02097D03*
Y01378D03*
X02037D03*
X02937Y01038D03*
Y01097D03*
X02938Y01157D03*
Y01216D03*
X03261Y01503D03*
X03321D03*
X0342Y01359D03*
Y01299D03*
Y01503D03*
Y01562D03*
X03321D03*
X03261D03*
X02842Y02323D03*
X02782D03*
Y02382D03*
X02842D03*
X01062Y04883D03*
Y04942D03*
X0166Y0549D03*
Y05553D03*
X0158D03*
Y0549D03*
X015D03*
Y05553D03*
X02Y05551D03*
Y05488D03*
X0208D03*
Y05551D03*
G54D89*
X033Y05575D03*
X03174D03*
G54D90*
X01021Y05175D03*
Y05417D03*
X00588D03*
Y05175D03*
G54D91*
X0087Y04718D03*
Y04941D03*
G54D92*
X01365Y0433D03*
Y0448D03*
G54D93*
X02462Y05015D03*
X02567D03*
X02402D03*
Y05105D03*
X02297D03*
Y05015D03*
G54D94*
X0244Y05398D03*
Y0552D03*
G54D95*
X0243Y05217D03*
X02449D03*
X02469D03*
X02489D03*
X02508D03*
X02528D03*
X02548D03*
X0241D03*
X0239D03*
X02371D03*
X02351D03*
X02331D03*
G54D96*
X01327Y05134D03*
X01198D03*
G54D97*
X03265Y04229D03*
Y0429D03*
G54D98*
X0372Y04714D03*
Y0473D03*
X03735D03*
Y04714D03*
G54D99*
X0112Y04335D03*
Y0458D03*
G54D100*
X01385Y04125D03*
X0114D03*
G54D101*
X01725Y0374D03*
X01776D03*
Y03829D03*
X01751D03*
X01725D03*
X01516D03*
X01491D03*
X01516Y0374D03*
X01465Y03829D03*
Y0374D03*
X01258Y03829D03*
X01232D03*
X01206D03*
Y0374D03*
X01258D03*
X00645Y03829D03*
X0062D03*
X00594D03*
Y0374D03*
X00645D03*
G54D102*
X00935Y03579D03*
X03825Y04169D03*
G54D103*
X01025Y0381D03*
X00935D03*
X00844D03*
X03734Y044D03*
X03825D03*
X03915D03*
G54D104*
X02425Y04325D03*
G54D105*
X02425Y04171D03*
X0244D03*
X02456D03*
X02472D03*
X02488D03*
X02503D03*
X02519D03*
X02535D03*
X02551D03*
X02409D03*
X02393D03*
X02377D03*
X02362D03*
X02346D03*
X0233D03*
X02314D03*
X02299D03*
X02425Y04478D03*
X0244D03*
X02456D03*
X02472D03*
X02488D03*
X02503D03*
X02519D03*
X02535D03*
X02551D03*
X02409D03*
X02393D03*
X02377D03*
X02362D03*
X02346D03*
X0233D03*
X02314D03*
X02299D03*
G54D106*
X02578Y04199D03*
Y04214D03*
Y0423D03*
Y04246D03*
Y04262D03*
Y04277D03*
Y04293D03*
Y04309D03*
Y04325D03*
Y0434D03*
Y04356D03*
Y04372D03*
Y04388D03*
Y04403D03*
Y04419D03*
Y04435D03*
Y04451D03*
X02271D03*
Y04435D03*
Y04419D03*
Y04403D03*
Y04388D03*
Y04372D03*
Y04356D03*
Y0434D03*
Y04325D03*
Y04309D03*
Y04293D03*
Y04277D03*
Y04262D03*
Y04246D03*
Y0423D03*
Y04214D03*
Y04199D03*
G54D107*
X00966Y01325D03*
X00986D03*
X01006D03*
X01025D03*
X01045D03*
X01065D03*
X01084D03*
X01104D03*
X01124D03*
X01143D03*
X01163D03*
X01183D03*
X01203D03*
X01222D03*
X01242D03*
X01262D03*
X01281D03*
X01301D03*
X01321D03*
X0134D03*
X0136D03*
X0138D03*
X01399D03*
X01419D03*
X01439D03*
X01458D03*
X01478D03*
X01498D03*
X01518D03*
X01537D03*
X01557D03*
X01577D03*
X01596D03*
X01616D03*
X01636D03*
X01655D03*
X01675D03*
X01695D03*
X01714D03*
X01734D03*
X01754D03*
X01773D03*
X01793D03*
X01813D03*
Y02325D03*
X01793D03*
X01773D03*
X01754D03*
X01734D03*
X01714D03*
X01695D03*
X01675D03*
X01655D03*
X01636D03*
X01616D03*
X01596D03*
X01577D03*
X01557D03*
X01537D03*
X01518D03*
X01498D03*
X01478D03*
X01458D03*
X01439D03*
X01419D03*
X01399D03*
X0138D03*
X0136D03*
X0134D03*
X01321D03*
X01301D03*
X01281D03*
X01262D03*
X01242D03*
X01222D03*
X01203D03*
X01183D03*
X01163D03*
X01143D03*
X01124D03*
X01104D03*
X01084D03*
X01065D03*
X01045D03*
X01025D03*
X01006D03*
X00986D03*
X00966D03*
G54D108*
X0089Y01401D03*
Y01421D03*
Y01441D03*
Y0146D03*
Y0148D03*
Y015D03*
Y01519D03*
Y01539D03*
Y01559D03*
Y01578D03*
Y01598D03*
Y01618D03*
Y01638D03*
Y01657D03*
Y01677D03*
Y01697D03*
Y01716D03*
Y01736D03*
Y01756D03*
Y01775D03*
Y01795D03*
Y01815D03*
Y01834D03*
Y01854D03*
Y01874D03*
Y01893D03*
Y01913D03*
Y01933D03*
Y01953D03*
Y01972D03*
Y01992D03*
Y02012D03*
Y02031D03*
Y02051D03*
Y02071D03*
Y0209D03*
Y0211D03*
Y0213D03*
Y02149D03*
Y02169D03*
Y02189D03*
Y02208D03*
Y02228D03*
Y02248D03*
X0189Y01401D03*
Y01421D03*
Y01441D03*
Y0146D03*
Y0148D03*
Y015D03*
Y01519D03*
Y01539D03*
Y01559D03*
Y01578D03*
Y01598D03*
Y01618D03*
Y01638D03*
Y01657D03*
Y01677D03*
Y01697D03*
Y01716D03*
Y01736D03*
Y01756D03*
Y01775D03*
Y01795D03*
Y01815D03*
Y01834D03*
Y01854D03*
Y01874D03*
Y01893D03*
Y01913D03*
Y01933D03*
Y01953D03*
Y01972D03*
Y01992D03*
Y02012D03*
Y02031D03*
Y02051D03*
Y02071D03*
Y0209D03*
Y0211D03*
Y0213D03*
Y02149D03*
Y02169D03*
Y02189D03*
Y02208D03*
Y02228D03*
Y02248D03*
G54D109*
X02943Y02019D03*
Y0205D03*
Y02082D03*
Y02113D03*
Y02145D03*
Y02176D03*
Y02208D03*
Y02239D03*
Y02271D03*
Y02302D03*
Y02334D03*
Y02365D03*
Y02397D03*
Y02428D03*
Y0246D03*
Y02491D03*
Y02523D03*
Y02554D03*
Y02586D03*
Y02617D03*
Y02649D03*
Y0268D03*
X03396Y02334D03*
Y02302D03*
Y02271D03*
Y02239D03*
Y02208D03*
Y02176D03*
Y02145D03*
Y02113D03*
Y02082D03*
Y0205D03*
Y02019D03*
Y02365D03*
Y02397D03*
Y02428D03*
Y0246D03*
Y02491D03*
Y02523D03*
Y02554D03*
Y02586D03*
Y02617D03*
Y02649D03*
Y0268D03*
G54D110*
X0156Y04267D03*
X0158D03*
X01599D03*
X01619D03*
Y04362D03*
X01599D03*
X0158D03*
X0156Y04362D03*
G54D111*
X01555Y04301D03*
Y04328D03*
X01624D03*
Y04301D03*
G54D112*
X0311Y0122D03*
Y0124D03*
X03259D03*
Y0122D03*
Y0126D03*
Y01279D03*
Y01299D03*
Y01319D03*
X0311D03*
Y01299D03*
Y01279D03*
Y0126D03*
G54D113*
X03135Y01195D03*
X03155D03*
X03175D03*
X03194D03*
X03214D03*
X03234D03*
Y01344D03*
X03214D03*
X03194D03*
X03175D03*
X03155D03*
X03135D03*
G54D114*
X03185Y0127D03*
G54D115*
X03353Y04476D03*
X03369D03*
X03385D03*
X034D03*
X03416D03*
X03337D03*
X03322D03*
X03306D03*
X0329D03*
X03274D03*
X03259D03*
X03243D03*
X03353Y04713D03*
X03369D03*
X03385D03*
X034D03*
X03416D03*
X03337D03*
X03322D03*
X03306D03*
X0329D03*
X03274D03*
X03259D03*
X03243D03*
G54D116*
X03448Y04508D03*
Y04524D03*
Y04539D03*
Y04555D03*
Y04571D03*
Y04587D03*
Y04602D03*
Y04618D03*
Y04634D03*
Y0465D03*
Y04665D03*
Y04681D03*
X03211D03*
Y04665D03*
Y0465D03*
Y04634D03*
Y04618D03*
Y04602D03*
Y04587D03*
Y04571D03*
Y04555D03*
Y04539D03*
Y04524D03*
Y04508D03*
G54D117*
X0333Y04595D03*
G54D118*
X0328Y04915D03*
X033D03*
X03319D03*
Y0495D03*
X033D03*
X0328D03*
G54D119*
X00945Y0434D03*
X00555D03*
G54D120*
X02284Y03095D03*
Y03145D03*
Y03195D03*
Y03245D03*
X02005D03*
Y03195D03*
Y03145D03*
Y03095D03*
G54D121*
X02999Y0069D03*
G54D122*
X03099Y0069D03*
X03199D03*
X03299D03*
X03249Y0079D03*
X03349D03*
X03149D03*
X03049D03*
G54D123*
X02913Y00247D03*
X03013D03*
X03335D03*
X03435D03*
G54D124*
X02869Y0056D03*
X03479D03*
G54D125*
X02949Y0044D03*
X03399D03*
G54D126*
X01721Y00258D03*
X018D03*
X01879D03*
X01958D03*
X02036D03*
G54D127*
X01643Y00258D03*
G54D128*
X0049Y02056D03*
Y02103D03*
G54D129*
X00805Y0524D03*
G54D130*
X02608Y05312D03*
Y05498D03*
X02271D03*
Y05312D03*
G54D131*
X02424Y05266D03*
X02455D03*
X02487D03*
X02518D03*
X0255D03*
X02534Y05294D03*
X02503D03*
X02471D03*
X02408D03*
X02377D03*
X02345D03*
X02329Y05266D03*
X02361D03*
X02392D03*
G54D132*
X0233Y03535D03*
M02*