%FSTAX23Y23*%
%MOIN*%
%SFA1B1*%

%IPPOS*%
%ADD15C,0.003900*%
%ADD156C,0.003000*%
%LNpch_mainboard-1*%
%LPD*%
G54D15*
X02612Y05634D02*
X02268D01*
G54D156*
X02421Y05647D02*
Y05671D01*
X02406*
X02401Y05668D02*
X02399Y0567D01*
X02396Y05671*
X02393*
X02391Y0567*
X02388Y05668*
Y05671D02*
Y05647D01*
X02391Y05656D02*
X02393Y05655D01*
X02396*
X02399Y05656*
X02401Y05659*
X02402Y05662*
Y05664*
X02401Y05668*
X02412Y05659D02*
X02421D01*
Y05647D02*
X02406D01*
X02391Y05656D02*
X02388Y05659D01*
X02381D02*
X02382Y05662D01*
Y05664*
X02381Y05668*
X02379Y0567*
X02376Y05671*
X02373*
X02371Y0567*
X02368Y05668*
Y05673D02*
X02369Y05677D01*
X02371Y05678*
X02373Y05679*
X02376*
X02379Y05678*
X02368Y05673D02*
Y05655D01*
X02371Y05656D02*
X02373Y05655D01*
X02376*
X02379Y05656*
X02381Y05659*
X02368D02*
X02371Y05656D01*
X02359D02*
X02361Y05659D01*
X02362Y05662*
X02348*
Y0566*
X02349Y05657*
X02351Y05656*
X02353Y05655*
X02356*
X02359Y05656*
X02362Y05662D02*
Y05664D01*
X02361Y05668*
X02359Y0567*
X02356Y05671*
X02353*
X02351Y0567*
X02348Y05668*
X02445Y05667D02*
X02446Y05669D01*
X02448Y0567*
X02451Y05671*
X02461*
Y05647*
X02451*
X02448Y05648*
X02446Y05649*
X02445Y05652*
Y05654*
X02446Y05656*
X02448Y05657*
X02451Y05659*
X02448Y0566*
X02446Y05661*
X02445Y05663*
Y05667*
X02451Y05659D02*
X02461D01*
X02468Y05653D02*
X02469Y05651D01*
X02471Y05648*
X02474Y05647*
X02478*
X02481Y05648*
X02483Y05651*
X02484Y05653*
X02485Y05656*
Y05662*
X02484Y05665*
X02483Y05668*
X02481Y0567*
X02478Y05671*
X02474*
X02471Y0567*
X02469Y05668*
X02468Y05665*
X02492Y05657D02*
X0249Y05655D01*
Y05652*
X02492Y05649*
X02493Y05648*
X02496Y05647*
X02506*
Y05671*
Y0566D02*
X02496D01*
X02493Y05659*
X02492Y05657*
M02*