%FSTAX23Y23*%
%MOIN*%
%SFA1B1*%

%IPPOS*%
%ADD23R,0.031500X0.031500*%
%ADD24R,0.021700X0.035400*%
%ADD37R,0.035400X0.021700*%
%ADD38R,0.031500X0.031500*%
%LNpch_mainboard-1*%
%LPD*%
G54D23*
X01259Y01439D03*
X01318D03*
X01319Y01499D03*
X0126D03*
X01459D03*
X0146Y01439D03*
X01519D03*
X01518Y01499D03*
X01739Y0118D03*
Y0112D03*
X01798D03*
Y0118D03*
X01794Y02135D03*
Y02195D03*
X01735D03*
Y02135D03*
X01539Y02196D03*
X01479D03*
Y02133D03*
X01539D03*
X01341Y02196D03*
Y02133D03*
X01281Y02196D03*
Y02133D03*
X01098Y02196D03*
X01038D03*
Y02133D03*
X01098D03*
G54D24*
X00118Y0161D03*
Y0174D03*
Y0187D03*
X00061D03*
Y0174D03*
Y0161D03*
X01053Y01741D03*
X0111D03*
X01161D03*
X01162Y01812D03*
X01109D03*
X01052D03*
X01219D03*
X01219Y01741D03*
X03236Y0211D03*
X03293D03*
Y0218D03*
X03236D03*
G54D37*
X03145Y00306D03*
X03215D03*
Y00363D03*
X03145D03*
X0166Y05342D03*
Y054D03*
X0158D03*
Y05342D03*
X015D03*
Y054D03*
G54D38*
X01676Y01123D03*
Y01182D03*
X01714Y01708D03*
X01774D03*
Y01767D03*
X01714D03*
Y01853D03*
X01774D03*
Y01912D03*
X01714D03*
X03232Y02322D03*
X03292D03*
Y02381D03*
X03232D03*
M02*